%TF.GenerationSoftware,KiCad,Pcbnew,10.0.5*%
%TF.CreationDate,2026-09-20T15:33:15+05:30*%
%TF.ProjectId,pcb,7063622e-6b69-4636-9164-5f7063625858,rev?*%
%TF.SameCoordinates,Original*%
%TF.FileFunction,Paste,Bot*%
%TF.FilePolarity,Positive*%
%FSLAX46Y46*%
G04 Gerber Fmt 4.6, Leading zero omitted, Abs format (unit mm)*
G04 Created by KiCad (PCBNEW 10.0.5) date 2026-09-20 15:33:15*
%MOMM*%
%LPD*%
G01*
G04 APERTURE LIST*
G04 Aperture macros list*
%AMRoundRect*
0 Rectangle with rounded corners*
0 $1 Rounding radius*
0 $2 $3 $4 $5 $6 $7 $8 $9 X,Y pos of 4 corners*
0 Add a 4 corners polygon primitive as box body*
4,1,4,$2,$3,$4,$5,$6,$7,$8,$9,$2,$3,0*
0 Add four circle primitives for the rounded corners*
1,1,$1+$1,$2,$3*
1,1,$1+$1,$4,$5*
1,1,$1+$1,$6,$7*
1,1,$1+$1,$8,$9*
0 Add four rect primitives between the rounded corners*
20,1,$1+$1,$2,$3,$4,$5,0*
20,1,$1+$1,$4,$5,$6,$7,0*
20,1,$1+$1,$6,$7,$8,$9,0*
20,1,$1+$1,$8,$9,$2,$3,0*%
G04 Aperture macros list end*
%ADD10RoundRect,0.205000X-0.470000X-0.205000X0.470000X-0.205000X0.470000X0.205000X-0.470000X0.205000X0*%
%ADD11RoundRect,0.205000X0.470000X0.205000X-0.470000X0.205000X-0.470000X-0.205000X0.470000X-0.205000X0*%
G04 APERTURE END LIST*
D10*
%TO.C,D40*%
X317600000Y-97600000D03*
X317600000Y-99100000D03*
X323050000Y-99100000D03*
X323050000Y-97600000D03*
%TD*%
D11*
%TO.C,D24*%
X222625000Y-79900000D03*
X222625000Y-78400000D03*
X217175000Y-78400000D03*
X217175000Y-79900000D03*
%TD*%
D10*
%TO.C,D38*%
X279300000Y-97500000D03*
X279300000Y-99000000D03*
X284750000Y-99000000D03*
X284750000Y-97500000D03*
%TD*%
D11*
%TO.C,D19*%
X318575000Y-79950000D03*
X318575000Y-78450000D03*
X313125000Y-78450000D03*
X313125000Y-79950000D03*
%TD*%
%TO.C,D22*%
X261075000Y-80000000D03*
X261075000Y-78500000D03*
X255625000Y-78500000D03*
X255625000Y-80000000D03*
%TD*%
%TO.C,D49*%
X237050000Y-118050000D03*
X237050000Y-116550000D03*
X231600000Y-116550000D03*
X231600000Y-118050000D03*
%TD*%
D10*
%TO.C,D37*%
X260475000Y-97500000D03*
X260475000Y-99000000D03*
X265925000Y-99000000D03*
X265925000Y-97500000D03*
%TD*%
%TO.C,D30*%
X118800000Y-97600000D03*
X118800000Y-99100000D03*
X124250000Y-99100000D03*
X124250000Y-97600000D03*
%TD*%
%TO.C,D33*%
X183450000Y-97550000D03*
X183450000Y-99050000D03*
X188900000Y-99050000D03*
X188900000Y-97550000D03*
%TD*%
%TO.C,D5*%
X169725000Y-59500000D03*
X169725000Y-61000000D03*
X175175000Y-61000000D03*
X175175000Y-59500000D03*
%TD*%
D11*
%TO.C,D53*%
X160150000Y-118300000D03*
X160150000Y-116800000D03*
X154700000Y-116800000D03*
X154700000Y-118300000D03*
%TD*%
%TO.C,D51*%
X198750000Y-118500000D03*
X198750000Y-117000000D03*
X193300000Y-117000000D03*
X193300000Y-118500000D03*
%TD*%
D10*
%TO.C,D41*%
X336875000Y-97650000D03*
X336875000Y-99150000D03*
X342325000Y-99150000D03*
X342325000Y-97650000D03*
%TD*%
D11*
%TO.C,D16*%
X381050000Y-80050000D03*
X381050000Y-78550000D03*
X375600000Y-78550000D03*
X375600000Y-80050000D03*
%TD*%
D10*
%TO.C,D61*%
X305500000Y-136150000D03*
X305500000Y-137650000D03*
X310950000Y-137650000D03*
X310950000Y-136150000D03*
%TD*%
%TO.C,D7*%
X208150000Y-59350000D03*
X208150000Y-60850000D03*
X213600000Y-60850000D03*
X213600000Y-59350000D03*
%TD*%
D11*
%TO.C,D25*%
X203525000Y-79900000D03*
X203525000Y-78400000D03*
X198075000Y-78400000D03*
X198075000Y-79900000D03*
%TD*%
D10*
%TO.C,D8*%
X227150000Y-59150000D03*
X227150000Y-60650000D03*
X232600000Y-60650000D03*
X232600000Y-59150000D03*
%TD*%
D11*
%TO.C,D46*%
X294425000Y-118350000D03*
X294425000Y-116850000D03*
X288975000Y-116850000D03*
X288975000Y-118350000D03*
%TD*%
%TO.C,D26*%
X184475000Y-79850000D03*
X184475000Y-78350000D03*
X179025000Y-78350000D03*
X179025000Y-79850000D03*
%TD*%
D10*
%TO.C,D36*%
X241025000Y-97500000D03*
X241025000Y-99000000D03*
X246475000Y-99000000D03*
X246475000Y-97500000D03*
%TD*%
D11*
%TO.C,D43*%
X369025000Y-118150000D03*
X369025000Y-116650000D03*
X363575000Y-116650000D03*
X363575000Y-118150000D03*
%TD*%
%TO.C,D18*%
X337550000Y-79950000D03*
X337550000Y-78450000D03*
X332100000Y-78450000D03*
X332100000Y-79950000D03*
%TD*%
%TO.C,D27*%
X165125000Y-79800000D03*
X165125000Y-78300000D03*
X159675000Y-78300000D03*
X159675000Y-79800000D03*
%TD*%
%TO.C,D20*%
X299175000Y-79950000D03*
X299175000Y-78450000D03*
X293725000Y-78450000D03*
X293725000Y-79950000D03*
%TD*%
D10*
%TO.C,D31*%
X145350000Y-97450000D03*
X145350000Y-98950000D03*
X150800000Y-98950000D03*
X150800000Y-97450000D03*
%TD*%
%TO.C,D13*%
X322850000Y-59300000D03*
X322850000Y-60800000D03*
X328300000Y-60800000D03*
X328300000Y-59300000D03*
%TD*%
%TO.C,D42*%
X368375000Y-97550000D03*
X368375000Y-99050000D03*
X373825000Y-99050000D03*
X373825000Y-97550000D03*
%TD*%
%TO.C,D59*%
X233800000Y-136000000D03*
X233800000Y-137500000D03*
X239250000Y-137500000D03*
X239250000Y-136000000D03*
%TD*%
%TO.C,D10*%
X265600000Y-59200000D03*
X265600000Y-60700000D03*
X271050000Y-60700000D03*
X271050000Y-59200000D03*
%TD*%
D11*
%TO.C,D21*%
X280175000Y-80050000D03*
X280175000Y-78550000D03*
X274725000Y-78550000D03*
X274725000Y-80050000D03*
%TD*%
D10*
%TO.C,D2*%
X112000000Y-59400000D03*
X112000000Y-60900000D03*
X117450000Y-60900000D03*
X117450000Y-59400000D03*
%TD*%
%TO.C,D34*%
X202825000Y-97550000D03*
X202825000Y-99050000D03*
X208275000Y-99050000D03*
X208275000Y-97550000D03*
%TD*%
D11*
%TO.C,D55*%
X119800000Y-137550000D03*
X119800000Y-136050000D03*
X114350000Y-136050000D03*
X114350000Y-137550000D03*
%TD*%
D10*
%TO.C,D15*%
X370650000Y-59300000D03*
X370650000Y-60800000D03*
X376100000Y-60800000D03*
X376100000Y-59300000D03*
%TD*%
%TO.C,D60*%
X268275000Y-131350000D03*
X268275000Y-132850000D03*
X273725000Y-132850000D03*
X273725000Y-131350000D03*
%TD*%
D11*
%TO.C,D45*%
X313425000Y-118250000D03*
X313425000Y-116750000D03*
X307975000Y-116750000D03*
X307975000Y-118250000D03*
%TD*%
%TO.C,D23*%
X242025000Y-80050000D03*
X242025000Y-78550000D03*
X236575000Y-78550000D03*
X236575000Y-80050000D03*
%TD*%
D10*
%TO.C,D69*%
X377775000Y-136250000D03*
X377775000Y-137750000D03*
X383225000Y-137750000D03*
X383225000Y-136250000D03*
%TD*%
D11*
%TO.C,D47*%
X275575000Y-118250000D03*
X275575000Y-116750000D03*
X270125000Y-116750000D03*
X270125000Y-118250000D03*
%TD*%
%TO.C,D29*%
X121925000Y-80000000D03*
X121925000Y-78500000D03*
X116475000Y-78500000D03*
X116475000Y-80000000D03*
%TD*%
%TO.C,D28*%
X146225000Y-80050000D03*
X146225000Y-78550000D03*
X140775000Y-78550000D03*
X140775000Y-80050000D03*
%TD*%
D10*
%TO.C,D62*%
X329775000Y-136000000D03*
X329775000Y-137500000D03*
X335225000Y-137500000D03*
X335225000Y-136000000D03*
%TD*%
D11*
%TO.C,D50*%
X217650000Y-118400000D03*
X217650000Y-116900000D03*
X212200000Y-116900000D03*
X212200000Y-118400000D03*
%TD*%
D10*
%TO.C,D56*%
X138300000Y-136000000D03*
X138300000Y-137500000D03*
X143750000Y-137500000D03*
X143750000Y-136000000D03*
%TD*%
D11*
%TO.C,D17*%
X356850000Y-79900000D03*
X356850000Y-78400000D03*
X351400000Y-78400000D03*
X351400000Y-79900000D03*
%TD*%
D10*
%TO.C,D32*%
X164550000Y-97500000D03*
X164550000Y-99000000D03*
X170000000Y-99000000D03*
X170000000Y-97500000D03*
%TD*%
%TO.C,D39*%
X298600000Y-97550000D03*
X298600000Y-99050000D03*
X304050000Y-99050000D03*
X304050000Y-97550000D03*
%TD*%
%TO.C,D14*%
X341900000Y-59250000D03*
X341900000Y-60750000D03*
X347350000Y-60750000D03*
X347350000Y-59250000D03*
%TD*%
D11*
%TO.C,D52*%
X179500000Y-118400000D03*
X179500000Y-116900000D03*
X174050000Y-116900000D03*
X174050000Y-118400000D03*
%TD*%
D10*
%TO.C,D11*%
X284800000Y-59300000D03*
X284800000Y-60800000D03*
X290250000Y-60800000D03*
X290250000Y-59300000D03*
%TD*%
%TO.C,D9*%
X246500000Y-59400000D03*
X246500000Y-60900000D03*
X251950000Y-60900000D03*
X251950000Y-59400000D03*
%TD*%
D11*
%TO.C,D44*%
X332825000Y-118400000D03*
X332825000Y-116900000D03*
X327375000Y-116900000D03*
X327375000Y-118400000D03*
%TD*%
D10*
%TO.C,D12*%
X303850000Y-59400000D03*
X303850000Y-60900000D03*
X309300000Y-60900000D03*
X309300000Y-59400000D03*
%TD*%
%TO.C,D4*%
X150175000Y-59450000D03*
X150175000Y-60950000D03*
X155625000Y-60950000D03*
X155625000Y-59450000D03*
%TD*%
%TO.C,D58*%
X201225000Y-131950000D03*
X201225000Y-133450000D03*
X206675000Y-133450000D03*
X206675000Y-131950000D03*
%TD*%
%TO.C,D3*%
X131175000Y-59300000D03*
X131175000Y-60800000D03*
X136625000Y-60800000D03*
X136625000Y-59300000D03*
%TD*%
%TO.C,D57*%
X162225000Y-136150000D03*
X162225000Y-137650000D03*
X167675000Y-137650000D03*
X167675000Y-136150000D03*
%TD*%
D11*
%TO.C,D54*%
X129375000Y-118150000D03*
X129375000Y-116650000D03*
X123925000Y-116650000D03*
X123925000Y-118150000D03*
%TD*%
D10*
%TO.C,D35*%
X222000000Y-97450000D03*
X222000000Y-98950000D03*
X227450000Y-98950000D03*
X227450000Y-97450000D03*
%TD*%
D11*
%TO.C,D48*%
X256150000Y-118150000D03*
X256150000Y-116650000D03*
X250700000Y-116650000D03*
X250700000Y-118150000D03*
%TD*%
D10*
%TO.C,D68*%
X353775000Y-136250000D03*
X353775000Y-137750000D03*
X359225000Y-137750000D03*
X359225000Y-136250000D03*
%TD*%
%TO.C,D6*%
X188900000Y-59300000D03*
X188900000Y-60800000D03*
X194350000Y-60800000D03*
X194350000Y-59300000D03*
%TD*%
M02*
