M48
; DRILL file KiCad 10.0.5 date 2026-09-20T15:33:00
; FORMAT={-:-/ absolute / metric / decimal}
; #@! TF.CreationDate,2026-09-20T15:33:00+05:30
; #@! TF.GenerationSoftware,Kicad,Pcbnew,10.0.5
; #@! TF.FileFunction,Plated,1,2,PTH
FMAT,2
METRIC
; #@! TA.AperFunction,Plated,PTH,ViaDrill
T1C0.300
; #@! TA.AperFunction,Plated,PTH,ComponentDrill
T2C0.600
; #@! TA.AperFunction,Plated,PTH,ComponentDrill
T3C0.800
; #@! TA.AperFunction,Plated,PTH,ComponentDrill
T4C1.000
; #@! TA.AperFunction,Plated,PTH,ComponentDrill
T5C1.500
%
G90
G05
T1
X101.0Y-46.5
X103.5Y-38.5
X107.0Y-91.5
X107.5Y-45.5
X107.5Y-49.5
X109.5Y-32.0
X110.0Y-135.5
X110.5Y-91.5
X111.0Y-36.0
X112.0Y-32.0
X112.0Y-36.0
X112.0Y-38.9
X113.5Y-83.5
X113.5Y-89.0
X113.96Y-36.0
X115.0Y-79.0
X115.16Y-34.4
X115.5Y-36.0
X118.5Y-63.0
X119.0Y-29.5
X119.0Y-31.5
X120.0Y-35.6
X122.0Y-35.6
X122.0Y-118.0
X123.5Y-27.5
X123.5Y-30.5
X124.5Y-29.5
X124.5Y-32.0
X124.7Y-60.8
X125.0Y-99.5
X125.5Y-78.5
X126.0Y-43.0
X126.5Y-38.0
X126.5Y-60.8
X127.5Y-39.5
X134.0Y-39.5
X134.5Y-78.5
X135.5Y-31.0
X135.9Y-33.5
X136.5Y-37.5
X137.0Y-62.0
X137.5Y-99.0
X138.5Y-31.0
X138.5Y-35.0
X138.5Y-40.9
X139.5Y-79.0
X140.5Y-31.4
X141.0Y-34.4
X141.5Y-99.0
X142.5Y-36.5
X143.0Y-116.5
X143.5Y-61.0
X146.0Y-139.5
X147.0Y-61.0
X148.5Y-116.5
X151.0Y-78.5
X152.0Y-34.0
X152.0Y-99.5
X152.499Y-117.499
X155.0Y-78.5
X155.5Y-40.5
X156.0Y-99.0
X156.5Y-62.0
X158.0Y-79.0
X160.5Y-29.0
X162.5Y-99.0
X163.0Y-61.0
X164.5Y-117.0
X166.0Y-38.9
X167.0Y-41.0
X167.5Y-61.0
X168.0Y-78.5
X169.0Y-34.4
X169.5Y-43.5
X169.5Y-139.5
X170.0Y-117.0
X171.5Y-29.5
X171.5Y-99.5
X172.0Y-117.5
X173.5Y-41.0
X174.5Y-37.4
X174.5Y-78.5
X174.5Y-99.0
X175.5Y-32.6
X176.0Y-38.6
X176.0Y-62.0
X177.5Y-79.0
X180.0Y-99.0
X180.5Y-35.0
X180.5Y-60.5
X184.0Y-38.0
X184.566Y-38.6
X185.0Y-35.5
X185.0Y-36.5
X185.0Y-37.3
X185.0Y-117.0
X185.5Y-41.0
X185.5Y-60.5
X186.0Y-28.0
X186.076Y-28.924
X186.5Y-40.5
X186.5Y-44.0
X187.0Y-27.5
X187.276Y-28.276
X187.5Y-40.5
X187.5Y-44.0
X187.5Y-109.0
X188.5Y-40.5
X188.5Y-44.0
X188.5Y-78.5
X188.5Y-117.0
X189.5Y-40.5
X189.5Y-43.5
X190.0Y-99.5
X190.1Y-35.5
X190.5Y-30.0
X190.5Y-32.0
X190.5Y-33.0
X190.5Y-37.5
X191.0Y-35.2
X191.0Y-38.5
X191.5Y-30.6
X191.5Y-97.5
X191.5Y-117.5
X192.5Y-32.6
X193.35Y-40.0
X193.5Y-78.5
X193.5Y-84.5
X193.5Y-87.0
X193.85Y-31.75
X194.0Y-41.4
X194.5Y-61.5
X195.0Y-33.0
X195.5Y-34.0
X195.5Y-35.0
X196.0Y-36.5
X196.2Y-32.782
X196.5Y-79.0
X197.5Y-34.312
X198.0Y-99.0
X199.0Y-38.0
X199.5Y-33.5
X199.5Y-57.5
X199.5Y-61.5
X200.5Y-30.0
X200.5Y-32.0
X200.5Y-60.5
X201.5Y-40.0
X202.5Y-117.0
X203.5Y-61.0
X206.0Y-40.0
X206.5Y-78.5
X207.0Y-38.0
X207.5Y-117.0
X208.0Y-135.0
X208.5Y-35.5
X209.5Y-99.5
X210.5Y-117.5
X214.0Y-99.0
X214.5Y-78.5
X215.5Y-62.0
X216.0Y-79.0
X218.5Y-59.5
X218.5Y-99.0
X222.0Y-60.0
X222.0Y-117.0
X226.0Y-78.5
X228.0Y-117.0
X229.0Y-99.5
X230.0Y-33.5
X230.0Y-117.0
X233.0Y-78.5
X233.0Y-98.0
X234.0Y-61.5
X235.0Y-79.0
X237.5Y-99.0
X238.0Y-61.0
X241.5Y-61.0
X241.5Y-138.5
X243.0Y-116.5
X245.0Y-78.5
X247.0Y-116.5
X248.0Y-99.5
X249.0Y-117.0
X251.0Y-78.5
X253.5Y-61.5
X253.5Y-79.0
X253.5Y-99.0
X258.0Y-61.0
X258.0Y-99.0
X261.336Y-116.648
X261.5Y-61.0
X265.5Y-78.5
X266.5Y-117.0
X267.0Y-99.5
X268.5Y-117.5
X270.0Y-79.0
X272.0Y-99.0
X272.5Y-61.5
X273.0Y-79.0
X275.5Y-61.0
X275.5Y-99.0
X276.0Y-133.5
X279.5Y-61.0
X279.5Y-117.0
X282.0Y-78.5
X284.5Y-117.0
X286.5Y-99.5
X287.5Y-117.5
X288.5Y-78.5
X290.0Y-99.0
X291.0Y-61.5
X292.0Y-79.0
X295.5Y-60.5
X296.5Y-99.0
X298.5Y-61.0
X299.0Y-117.0
X301.5Y-78.5
X302.0Y-117.0
X305.0Y-99.5
X306.0Y-117.5
X308.5Y-99.0
X310.0Y-78.5
X310.5Y-62.0
X311.5Y-79.0
X312.5Y-139.0
X314.5Y-99.0
X315.5Y-61.0
X318.5Y-117.0
X319.0Y-61.5
X321.5Y-117.0
X324.0Y-99.5
X325.5Y-78.5
X326.0Y-117.5
X326.5Y-99.5
X328.0Y-79.5
X329.5Y-62.0
X330.5Y-79.0
X332.5Y-99.5
X333.5Y-60.5
X336.5Y-138.5
X337.0Y-61.0
X339.5Y-78.5
X340.0Y-117.0
X343.5Y-99.5
X345.5Y-79.0
X348.5Y-62.0
X349.25Y-105.0
X350.0Y-79.0
X350.0Y-99.0
X351.0Y-117.0
X353.35Y-100.7
X357.5Y-117.0
X360.5Y-99.0
X362.5Y-138.5
X363.0Y-78.5
X364.0Y-61.0
X367.5Y-61.0
X372.0Y-78.5
X372.4Y-123.25
X374.0Y-79.0
X374.0Y-99.5
X374.2Y-119.9
X377.0Y-61.5
X384.0Y-138.5
T3
X109.58Y-47.45
X114.23Y-66.7
X116.68Y-85.85
X117.2Y-47.45
X117.73Y-124.1
X121.18Y-104.9
X121.85Y-66.7
X124.3Y-85.85
X125.35Y-124.1
X128.78Y-47.25
X128.8Y-104.9
X136.4Y-47.25
X138.28Y-66.6
X140.88Y-124.15
X142.88Y-85.65
X145.9Y-66.6
X147.93Y-47.3
X148.5Y-124.15
X150.5Y-85.65
X152.38Y-104.95
X155.55Y-47.3
X157.33Y-66.55
X159.88Y-124.1
X160.0Y-104.95
X162.03Y-85.55
X164.95Y-66.55
X167.18Y-47.05
X167.5Y-124.1
X169.65Y-85.55
X171.58Y-104.95
X174.8Y-47.05
X176.53Y-66.5
X179.2Y-104.95
X181.23Y-85.45
X184.15Y-66.5
X186.53Y-47.4
X188.85Y-85.45
X190.68Y-104.85
X194.15Y-47.4
X195.63Y-66.2
X198.3Y-104.85
X200.43Y-85.55
X203.25Y-66.2
X205.68Y-47.45
X208.05Y-85.55
X209.88Y-105.35
X213.3Y-47.45
X214.74Y-66.55
X217.5Y-105.35
X219.53Y-85.6
X222.36Y-66.55
X224.88Y-47.55
X227.15Y-85.6
X228.98Y-105.05
X231.43Y-124.35
X232.5Y-47.55
X233.98Y-66.55
X236.6Y-105.05
X238.68Y-85.6
X239.05Y-124.35
X241.6Y-66.55
X243.98Y-47.4
X246.3Y-85.6
X248.23Y-104.85
X251.6Y-47.4
X253.13Y-66.55
X255.85Y-104.85
X257.88Y-85.6
X260.75Y-66.55
X263.13Y-47.45
X265.5Y-85.6
X267.48Y-104.9
X270.75Y-47.45
X272.33Y-66.7
X275.1Y-104.9
X277.08Y-85.7
X279.95Y-66.7
X282.33Y-47.45
X284.7Y-85.7
X286.58Y-104.85
X289.95Y-47.45
X291.48Y-66.6
X294.2Y-104.85
X296.18Y-85.75
X299.1Y-66.6
X301.28Y-47.4
X303.13Y-124.2
X303.8Y-85.75
X305.73Y-104.9
X308.9Y-47.4
X310.59Y-66.45
X310.75Y-124.2
X313.35Y-104.9
X315.33Y-85.7
X318.21Y-66.45
X320.38Y-47.55
X322.95Y-85.7
X324.93Y-104.95
X327.38Y-124.15
X328.0Y-47.55
X329.78Y-66.55
X332.55Y-104.95
X334.53Y-85.7
X335.0Y-124.15
X337.4Y-66.55
X339.48Y-47.45
X342.15Y-85.7
X347.1Y-47.45
X348.98Y-66.6
X356.6Y-66.6
X357.08Y-124.3
X361.63Y-104.85
X364.7Y-124.3
X365.78Y-85.7
X368.23Y-47.35
X369.25Y-104.85
X372.88Y-66.5
X373.4Y-85.7
X375.85Y-47.35
X380.5Y-66.5
X380.83Y-124.25
X388.45Y-124.25
T4
X131.35Y-31.49
X131.35Y-34.03
X131.35Y-36.57
X131.35Y-39.11
T5
X110.84Y-53.11
X113.11Y-129.86
X115.49Y-72.26
X117.19Y-50.57
X117.86Y-91.46
X119.46Y-127.32
X121.84Y-69.72
X122.64Y-110.703
X124.21Y-88.92
X128.99Y-108.162
X130.01Y-53.06
X136.36Y-50.52
X137.16Y-129.86
X139.54Y-72.21
X143.51Y-127.32
X144.16Y-91.41
X145.89Y-69.67
X149.21Y-53.06
X150.51Y-88.87
X153.69Y-110.66
X155.56Y-50.52
X158.6Y-72.14
X160.04Y-108.12
X161.14Y-129.86
X163.3Y-91.39
X164.95Y-69.6
X167.49Y-127.32
X168.46Y-53.06
X169.65Y-88.85
X172.84Y-110.66
X174.81Y-50.52
X177.79Y-72.21
X179.19Y-108.12
X182.5Y-91.35
X184.14Y-69.67
X187.71Y-53.06
X188.85Y-88.81
X192.0Y-110.69
X194.06Y-50.52
X196.86Y-72.21
X198.35Y-108.15
X201.69Y-91.36
X203.21Y-69.67
X206.91Y-53.11
X208.04Y-88.82
X211.15Y-110.64
X213.26Y-50.57
X216.01Y-72.26
X217.5Y-108.1
X220.81Y-91.36
X222.36Y-69.72
X226.11Y-53.06
X227.16Y-88.82
X230.29Y-110.61
X232.46Y-50.52
X232.74Y-129.852
X235.24Y-72.26
X236.64Y-108.07
X239.09Y-127.312
X239.95Y-91.39
X241.59Y-69.72
X245.22Y-53.16
X246.3Y-88.85
X249.49Y-110.61
X251.57Y-50.62
X254.39Y-72.26
X255.84Y-108.07
X259.15Y-91.35
X260.74Y-69.72
X264.42Y-53.16
X265.5Y-88.81
X268.72Y-110.61
X270.77Y-50.62
X273.54Y-72.31
X275.07Y-108.07
X278.34Y-91.46
X279.89Y-69.77
X283.57Y-53.16
X284.69Y-88.92
X287.84Y-110.61
X289.92Y-50.62
X292.71Y-72.31
X294.19Y-108.07
X297.49Y-91.46
X299.06Y-69.77
X302.54Y-53.16
X303.84Y-88.92
X304.34Y-129.86
X306.99Y-110.66
X308.89Y-50.62
X310.69Y-127.32
X311.89Y-72.26
X313.34Y-108.12
X316.59Y-91.46
X318.24Y-69.72
X321.64Y-53.16
X322.94Y-88.92
X326.24Y-110.66
X327.99Y-50.62
X328.64Y-129.86
X331.04Y-72.26
X332.59Y-108.12
X334.99Y-127.32
X335.81Y-91.46
X337.39Y-69.72
X340.79Y-53.16
X342.16Y-88.92
X347.14Y-50.62
X350.26Y-72.26
X352.66Y-129.96
X356.61Y-69.72
X359.01Y-127.42
X362.34Y-110.652
X367.06Y-91.46
X368.69Y-108.112
X369.47Y-53.102
X373.41Y-88.92
X374.19Y-72.26
X375.82Y-50.562
X376.64Y-129.96
X380.54Y-69.72
X382.99Y-127.42
T2
G00X113.44Y-28.12
M15
G01X113.44Y-27.52
M16
G05
G00X113.44Y-32.55
M15
G01X113.44Y-31.45
M16
G05
G00X122.08Y-28.12
M15
G01X122.08Y-27.52
M16
G05
G00X122.08Y-32.55
M15
G01X122.08Y-31.45
M16
G05
M30
