%TF.GenerationSoftware,KiCad,Pcbnew,10.0.5*%
%TF.CreationDate,2026-09-20T15:33:14+05:30*%
%TF.ProjectId,pcb,7063622e-6b69-4636-9164-5f7063625858,rev?*%
%TF.SameCoordinates,Original*%
%TF.FileFunction,Copper,L1,Top*%
%TF.FilePolarity,Positive*%
%FSLAX46Y46*%
G04 Gerber Fmt 4.6, Leading zero omitted, Abs format (unit mm)*
G04 Created by KiCad (PCBNEW 10.0.5) date 2026-09-20 15:33:14*
%MOMM*%
%LPD*%
G01*
G04 APERTURE LIST*
G04 Aperture macros list*
%AMRoundRect*
0 Rectangle with rounded corners*
0 $1 Rounding radius*
0 $2 $3 $4 $5 $6 $7 $8 $9 X,Y pos of 4 corners*
0 Add a 4 corners polygon primitive as box body*
4,1,4,$2,$3,$4,$5,$6,$7,$8,$9,$2,$3,0*
0 Add four circle primitives for the rounded corners*
1,1,$1+$1,$2,$3*
1,1,$1+$1,$4,$5*
1,1,$1+$1,$6,$7*
1,1,$1+$1,$8,$9*
0 Add four rect primitives between the rounded corners*
20,1,$1+$1,$2,$3,$4,$5,0*
20,1,$1+$1,$4,$5,$6,$7,0*
20,1,$1+$1,$6,$7,$8,$9,0*
20,1,$1+$1,$8,$9,$2,$3,0*%
G04 Aperture macros list end*
%ADD10C,0.100000*%
%TA.AperFunction,NonConductor*%
%ADD11C,0.100000*%
%TD*%
%TA.AperFunction,ComponentPad*%
%ADD12C,2.200000*%
%TD*%
%TA.AperFunction,SMDPad,CuDef*%
%ADD13RoundRect,0.250000X-0.250000X-0.475000X0.250000X-0.475000X0.250000X0.475000X-0.250000X0.475000X0*%
%TD*%
%TA.AperFunction,SMDPad,CuDef*%
%ADD14RoundRect,0.075000X-0.662500X-0.075000X0.662500X-0.075000X0.662500X0.075000X-0.662500X0.075000X0*%
%TD*%
%TA.AperFunction,SMDPad,CuDef*%
%ADD15RoundRect,0.075000X-0.075000X-0.662500X0.075000X-0.662500X0.075000X0.662500X-0.075000X0.662500X0*%
%TD*%
%TA.AperFunction,SMDPad,CuDef*%
%ADD16R,0.900000X1.700000*%
%TD*%
%TA.AperFunction,SMDPad,CuDef*%
%ADD17RoundRect,0.150000X0.150000X0.500000X-0.150000X0.500000X-0.150000X-0.500000X0.150000X-0.500000X0*%
%TD*%
%TA.AperFunction,SMDPad,CuDef*%
%ADD18RoundRect,0.075000X0.075000X0.575000X-0.075000X0.575000X-0.075000X-0.575000X0.075000X-0.575000X0*%
%TD*%
%TA.AperFunction,ComponentPad*%
%ADD19O,1.000000X2.100000*%
%TD*%
%TA.AperFunction,ComponentPad*%
%ADD20O,1.000000X1.600000*%
%TD*%
%TA.AperFunction,ComponentPad*%
%ADD21RoundRect,0.170000X0.680000X-0.680000X0.680000X0.680000X-0.680000X0.680000X-0.680000X-0.680000X0*%
%TD*%
%TA.AperFunction,ComponentPad*%
%ADD22C,1.700000*%
%TD*%
%TA.AperFunction,SMDPad,CuDef*%
%ADD23RoundRect,0.200000X-0.275000X0.200000X-0.275000X-0.200000X0.275000X-0.200000X0.275000X0.200000X0*%
%TD*%
%TA.AperFunction,SMDPad,CuDef*%
%ADD24RoundRect,0.200000X0.200000X0.275000X-0.200000X0.275000X-0.200000X-0.275000X0.200000X-0.275000X0*%
%TD*%
%TA.AperFunction,SMDPad,CuDef*%
%ADD25RoundRect,0.375000X-0.625000X-0.375000X0.625000X-0.375000X0.625000X0.375000X-0.625000X0.375000X0*%
%TD*%
%TA.AperFunction,SMDPad,CuDef*%
%ADD26RoundRect,0.500000X-0.500000X-1.400000X0.500000X-1.400000X0.500000X1.400000X-0.500000X1.400000X0*%
%TD*%
%TA.AperFunction,SMDPad,CuDef*%
%ADD27RoundRect,0.200000X0.275000X-0.200000X0.275000X0.200000X-0.275000X0.200000X-0.275000X-0.200000X0*%
%TD*%
%TA.AperFunction,SMDPad,CuDef*%
%ADD28RoundRect,0.150000X-0.512500X-0.150000X0.512500X-0.150000X0.512500X0.150000X-0.512500X0.150000X0*%
%TD*%
%TA.AperFunction,ComponentPad*%
%ADD29RoundRect,0.250000X0.550000X0.550000X-0.550000X0.550000X-0.550000X-0.550000X0.550000X-0.550000X0*%
%TD*%
%TA.AperFunction,ComponentPad*%
%ADD30C,1.600000*%
%TD*%
%TA.AperFunction,ViaPad*%
%ADD31C,0.600000*%
%TD*%
%TA.AperFunction,Conductor*%
%ADD32C,0.200000*%
%TD*%
%TA.AperFunction,Conductor*%
%ADD33C,0.700000*%
%TD*%
%TA.AperFunction,Conductor*%
%ADD34C,0.500000*%
%TD*%
G04 APERTURE END LIST*
D10*
D11*
X316457142Y-79426109D02*
X316457142Y-78926109D01*
X316457142Y-78926109D02*
X316338094Y-78926109D01*
X316338094Y-78926109D02*
X316266666Y-78949919D01*
X316266666Y-78949919D02*
X316219047Y-78997538D01*
X316219047Y-78997538D02*
X316195237Y-79045157D01*
X316195237Y-79045157D02*
X316171428Y-79140395D01*
X316171428Y-79140395D02*
X316171428Y-79211823D01*
X316171428Y-79211823D02*
X316195237Y-79307061D01*
X316195237Y-79307061D02*
X316219047Y-79354680D01*
X316219047Y-79354680D02*
X316266666Y-79402300D01*
X316266666Y-79402300D02*
X316338094Y-79426109D01*
X316338094Y-79426109D02*
X316457142Y-79426109D01*
X315695237Y-79426109D02*
X315980951Y-79426109D01*
X315838094Y-79426109D02*
X315838094Y-78926109D01*
X315838094Y-78926109D02*
X315885713Y-78997538D01*
X315885713Y-78997538D02*
X315933332Y-79045157D01*
X315933332Y-79045157D02*
X315980951Y-79068966D01*
X315457142Y-79426109D02*
X315361904Y-79426109D01*
X315361904Y-79426109D02*
X315314285Y-79402300D01*
X315314285Y-79402300D02*
X315290476Y-79378490D01*
X315290476Y-79378490D02*
X315242857Y-79307061D01*
X315242857Y-79307061D02*
X315219047Y-79211823D01*
X315219047Y-79211823D02*
X315219047Y-79021347D01*
X315219047Y-79021347D02*
X315242857Y-78973728D01*
X315242857Y-78973728D02*
X315266666Y-78949919D01*
X315266666Y-78949919D02*
X315314285Y-78926109D01*
X315314285Y-78926109D02*
X315409523Y-78926109D01*
X315409523Y-78926109D02*
X315457142Y-78949919D01*
X315457142Y-78949919D02*
X315480952Y-78973728D01*
X315480952Y-78973728D02*
X315504761Y-79021347D01*
X315504761Y-79021347D02*
X315504761Y-79140395D01*
X315504761Y-79140395D02*
X315480952Y-79188014D01*
X315480952Y-79188014D02*
X315457142Y-79211823D01*
X315457142Y-79211823D02*
X315409523Y-79235633D01*
X315409523Y-79235633D02*
X315314285Y-79235633D01*
X315314285Y-79235633D02*
X315266666Y-79211823D01*
X315266666Y-79211823D02*
X315242857Y-79188014D01*
X315242857Y-79188014D02*
X315219047Y-79140395D01*
D10*
D11*
X378932142Y-79526109D02*
X378932142Y-79026109D01*
X378932142Y-79026109D02*
X378813094Y-79026109D01*
X378813094Y-79026109D02*
X378741666Y-79049919D01*
X378741666Y-79049919D02*
X378694047Y-79097538D01*
X378694047Y-79097538D02*
X378670237Y-79145157D01*
X378670237Y-79145157D02*
X378646428Y-79240395D01*
X378646428Y-79240395D02*
X378646428Y-79311823D01*
X378646428Y-79311823D02*
X378670237Y-79407061D01*
X378670237Y-79407061D02*
X378694047Y-79454680D01*
X378694047Y-79454680D02*
X378741666Y-79502300D01*
X378741666Y-79502300D02*
X378813094Y-79526109D01*
X378813094Y-79526109D02*
X378932142Y-79526109D01*
X378170237Y-79526109D02*
X378455951Y-79526109D01*
X378313094Y-79526109D02*
X378313094Y-79026109D01*
X378313094Y-79026109D02*
X378360713Y-79097538D01*
X378360713Y-79097538D02*
X378408332Y-79145157D01*
X378408332Y-79145157D02*
X378455951Y-79168966D01*
X377741666Y-79026109D02*
X377836904Y-79026109D01*
X377836904Y-79026109D02*
X377884523Y-79049919D01*
X377884523Y-79049919D02*
X377908333Y-79073728D01*
X377908333Y-79073728D02*
X377955952Y-79145157D01*
X377955952Y-79145157D02*
X377979761Y-79240395D01*
X377979761Y-79240395D02*
X377979761Y-79430871D01*
X377979761Y-79430871D02*
X377955952Y-79478490D01*
X377955952Y-79478490D02*
X377932142Y-79502300D01*
X377932142Y-79502300D02*
X377884523Y-79526109D01*
X377884523Y-79526109D02*
X377789285Y-79526109D01*
X377789285Y-79526109D02*
X377741666Y-79502300D01*
X377741666Y-79502300D02*
X377717857Y-79478490D01*
X377717857Y-79478490D02*
X377694047Y-79430871D01*
X377694047Y-79430871D02*
X377694047Y-79311823D01*
X377694047Y-79311823D02*
X377717857Y-79264204D01*
X377717857Y-79264204D02*
X377741666Y-79240395D01*
X377741666Y-79240395D02*
X377789285Y-79216585D01*
X377789285Y-79216585D02*
X377884523Y-79216585D01*
X377884523Y-79216585D02*
X377932142Y-79240395D01*
X377932142Y-79240395D02*
X377955952Y-79264204D01*
X377955952Y-79264204D02*
X377979761Y-79311823D01*
D10*
D11*
X307617857Y-136673890D02*
X307617857Y-137173890D01*
X307617857Y-137173890D02*
X307736905Y-137173890D01*
X307736905Y-137173890D02*
X307808333Y-137150080D01*
X307808333Y-137150080D02*
X307855952Y-137102461D01*
X307855952Y-137102461D02*
X307879762Y-137054842D01*
X307879762Y-137054842D02*
X307903571Y-136959604D01*
X307903571Y-136959604D02*
X307903571Y-136888176D01*
X307903571Y-136888176D02*
X307879762Y-136792938D01*
X307879762Y-136792938D02*
X307855952Y-136745319D01*
X307855952Y-136745319D02*
X307808333Y-136697700D01*
X307808333Y-136697700D02*
X307736905Y-136673890D01*
X307736905Y-136673890D02*
X307617857Y-136673890D01*
X308332143Y-137173890D02*
X308236905Y-137173890D01*
X308236905Y-137173890D02*
X308189286Y-137150080D01*
X308189286Y-137150080D02*
X308165476Y-137126271D01*
X308165476Y-137126271D02*
X308117857Y-137054842D01*
X308117857Y-137054842D02*
X308094048Y-136959604D01*
X308094048Y-136959604D02*
X308094048Y-136769128D01*
X308094048Y-136769128D02*
X308117857Y-136721509D01*
X308117857Y-136721509D02*
X308141667Y-136697700D01*
X308141667Y-136697700D02*
X308189286Y-136673890D01*
X308189286Y-136673890D02*
X308284524Y-136673890D01*
X308284524Y-136673890D02*
X308332143Y-136697700D01*
X308332143Y-136697700D02*
X308355952Y-136721509D01*
X308355952Y-136721509D02*
X308379762Y-136769128D01*
X308379762Y-136769128D02*
X308379762Y-136888176D01*
X308379762Y-136888176D02*
X308355952Y-136935795D01*
X308355952Y-136935795D02*
X308332143Y-136959604D01*
X308332143Y-136959604D02*
X308284524Y-136983414D01*
X308284524Y-136983414D02*
X308189286Y-136983414D01*
X308189286Y-136983414D02*
X308141667Y-136959604D01*
X308141667Y-136959604D02*
X308117857Y-136935795D01*
X308117857Y-136935795D02*
X308094048Y-136888176D01*
X308855952Y-136673890D02*
X308570238Y-136673890D01*
X308713095Y-136673890D02*
X308713095Y-137173890D01*
X308713095Y-137173890D02*
X308665476Y-137102461D01*
X308665476Y-137102461D02*
X308617857Y-137054842D01*
X308617857Y-137054842D02*
X308570238Y-137031033D01*
D10*
D11*
X335432142Y-79426109D02*
X335432142Y-78926109D01*
X335432142Y-78926109D02*
X335313094Y-78926109D01*
X335313094Y-78926109D02*
X335241666Y-78949919D01*
X335241666Y-78949919D02*
X335194047Y-78997538D01*
X335194047Y-78997538D02*
X335170237Y-79045157D01*
X335170237Y-79045157D02*
X335146428Y-79140395D01*
X335146428Y-79140395D02*
X335146428Y-79211823D01*
X335146428Y-79211823D02*
X335170237Y-79307061D01*
X335170237Y-79307061D02*
X335194047Y-79354680D01*
X335194047Y-79354680D02*
X335241666Y-79402300D01*
X335241666Y-79402300D02*
X335313094Y-79426109D01*
X335313094Y-79426109D02*
X335432142Y-79426109D01*
X334670237Y-79426109D02*
X334955951Y-79426109D01*
X334813094Y-79426109D02*
X334813094Y-78926109D01*
X334813094Y-78926109D02*
X334860713Y-78997538D01*
X334860713Y-78997538D02*
X334908332Y-79045157D01*
X334908332Y-79045157D02*
X334955951Y-79068966D01*
X334384523Y-79140395D02*
X334432142Y-79116585D01*
X334432142Y-79116585D02*
X334455952Y-79092776D01*
X334455952Y-79092776D02*
X334479761Y-79045157D01*
X334479761Y-79045157D02*
X334479761Y-79021347D01*
X334479761Y-79021347D02*
X334455952Y-78973728D01*
X334455952Y-78973728D02*
X334432142Y-78949919D01*
X334432142Y-78949919D02*
X334384523Y-78926109D01*
X334384523Y-78926109D02*
X334289285Y-78926109D01*
X334289285Y-78926109D02*
X334241666Y-78949919D01*
X334241666Y-78949919D02*
X334217857Y-78973728D01*
X334217857Y-78973728D02*
X334194047Y-79021347D01*
X334194047Y-79021347D02*
X334194047Y-79045157D01*
X334194047Y-79045157D02*
X334217857Y-79092776D01*
X334217857Y-79092776D02*
X334241666Y-79116585D01*
X334241666Y-79116585D02*
X334289285Y-79140395D01*
X334289285Y-79140395D02*
X334384523Y-79140395D01*
X334384523Y-79140395D02*
X334432142Y-79164204D01*
X334432142Y-79164204D02*
X334455952Y-79188014D01*
X334455952Y-79188014D02*
X334479761Y-79235633D01*
X334479761Y-79235633D02*
X334479761Y-79330871D01*
X334479761Y-79330871D02*
X334455952Y-79378490D01*
X334455952Y-79378490D02*
X334432142Y-79402300D01*
X334432142Y-79402300D02*
X334384523Y-79426109D01*
X334384523Y-79426109D02*
X334289285Y-79426109D01*
X334289285Y-79426109D02*
X334241666Y-79402300D01*
X334241666Y-79402300D02*
X334217857Y-79378490D01*
X334217857Y-79378490D02*
X334194047Y-79330871D01*
X334194047Y-79330871D02*
X334194047Y-79235633D01*
X334194047Y-79235633D02*
X334217857Y-79188014D01*
X334217857Y-79188014D02*
X334241666Y-79164204D01*
X334241666Y-79164204D02*
X334289285Y-79140395D01*
D10*
D11*
X324967857Y-59823890D02*
X324967857Y-60323890D01*
X324967857Y-60323890D02*
X325086905Y-60323890D01*
X325086905Y-60323890D02*
X325158333Y-60300080D01*
X325158333Y-60300080D02*
X325205952Y-60252461D01*
X325205952Y-60252461D02*
X325229762Y-60204842D01*
X325229762Y-60204842D02*
X325253571Y-60109604D01*
X325253571Y-60109604D02*
X325253571Y-60038176D01*
X325253571Y-60038176D02*
X325229762Y-59942938D01*
X325229762Y-59942938D02*
X325205952Y-59895319D01*
X325205952Y-59895319D02*
X325158333Y-59847700D01*
X325158333Y-59847700D02*
X325086905Y-59823890D01*
X325086905Y-59823890D02*
X324967857Y-59823890D01*
X325729762Y-59823890D02*
X325444048Y-59823890D01*
X325586905Y-59823890D02*
X325586905Y-60323890D01*
X325586905Y-60323890D02*
X325539286Y-60252461D01*
X325539286Y-60252461D02*
X325491667Y-60204842D01*
X325491667Y-60204842D02*
X325444048Y-60181033D01*
X325896428Y-60323890D02*
X326205952Y-60323890D01*
X326205952Y-60323890D02*
X326039285Y-60133414D01*
X326039285Y-60133414D02*
X326110714Y-60133414D01*
X326110714Y-60133414D02*
X326158333Y-60109604D01*
X326158333Y-60109604D02*
X326182142Y-60085795D01*
X326182142Y-60085795D02*
X326205952Y-60038176D01*
X326205952Y-60038176D02*
X326205952Y-59919128D01*
X326205952Y-59919128D02*
X326182142Y-59871509D01*
X326182142Y-59871509D02*
X326158333Y-59847700D01*
X326158333Y-59847700D02*
X326110714Y-59823890D01*
X326110714Y-59823890D02*
X325967857Y-59823890D01*
X325967857Y-59823890D02*
X325920238Y-59847700D01*
X325920238Y-59847700D02*
X325896428Y-59871509D01*
D10*
D11*
X235917857Y-136523890D02*
X235917857Y-137023890D01*
X235917857Y-137023890D02*
X236036905Y-137023890D01*
X236036905Y-137023890D02*
X236108333Y-137000080D01*
X236108333Y-137000080D02*
X236155952Y-136952461D01*
X236155952Y-136952461D02*
X236179762Y-136904842D01*
X236179762Y-136904842D02*
X236203571Y-136809604D01*
X236203571Y-136809604D02*
X236203571Y-136738176D01*
X236203571Y-136738176D02*
X236179762Y-136642938D01*
X236179762Y-136642938D02*
X236155952Y-136595319D01*
X236155952Y-136595319D02*
X236108333Y-136547700D01*
X236108333Y-136547700D02*
X236036905Y-136523890D01*
X236036905Y-136523890D02*
X235917857Y-136523890D01*
X236655952Y-137023890D02*
X236417857Y-137023890D01*
X236417857Y-137023890D02*
X236394048Y-136785795D01*
X236394048Y-136785795D02*
X236417857Y-136809604D01*
X236417857Y-136809604D02*
X236465476Y-136833414D01*
X236465476Y-136833414D02*
X236584524Y-136833414D01*
X236584524Y-136833414D02*
X236632143Y-136809604D01*
X236632143Y-136809604D02*
X236655952Y-136785795D01*
X236655952Y-136785795D02*
X236679762Y-136738176D01*
X236679762Y-136738176D02*
X236679762Y-136619128D01*
X236679762Y-136619128D02*
X236655952Y-136571509D01*
X236655952Y-136571509D02*
X236632143Y-136547700D01*
X236632143Y-136547700D02*
X236584524Y-136523890D01*
X236584524Y-136523890D02*
X236465476Y-136523890D01*
X236465476Y-136523890D02*
X236417857Y-136547700D01*
X236417857Y-136547700D02*
X236394048Y-136571509D01*
X236917857Y-136523890D02*
X237013095Y-136523890D01*
X237013095Y-136523890D02*
X237060714Y-136547700D01*
X237060714Y-136547700D02*
X237084523Y-136571509D01*
X237084523Y-136571509D02*
X237132142Y-136642938D01*
X237132142Y-136642938D02*
X237155952Y-136738176D01*
X237155952Y-136738176D02*
X237155952Y-136928652D01*
X237155952Y-136928652D02*
X237132142Y-136976271D01*
X237132142Y-136976271D02*
X237108333Y-137000080D01*
X237108333Y-137000080D02*
X237060714Y-137023890D01*
X237060714Y-137023890D02*
X236965476Y-137023890D01*
X236965476Y-137023890D02*
X236917857Y-137000080D01*
X236917857Y-137000080D02*
X236894047Y-136976271D01*
X236894047Y-136976271D02*
X236870238Y-136928652D01*
X236870238Y-136928652D02*
X236870238Y-136809604D01*
X236870238Y-136809604D02*
X236894047Y-136761985D01*
X236894047Y-136761985D02*
X236917857Y-136738176D01*
X236917857Y-136738176D02*
X236965476Y-136714366D01*
X236965476Y-136714366D02*
X237060714Y-136714366D01*
X237060714Y-136714366D02*
X237108333Y-136738176D01*
X237108333Y-136738176D02*
X237132142Y-136761985D01*
X237132142Y-136761985D02*
X237155952Y-136809604D01*
D10*
D11*
X372767857Y-59823890D02*
X372767857Y-60323890D01*
X372767857Y-60323890D02*
X372886905Y-60323890D01*
X372886905Y-60323890D02*
X372958333Y-60300080D01*
X372958333Y-60300080D02*
X373005952Y-60252461D01*
X373005952Y-60252461D02*
X373029762Y-60204842D01*
X373029762Y-60204842D02*
X373053571Y-60109604D01*
X373053571Y-60109604D02*
X373053571Y-60038176D01*
X373053571Y-60038176D02*
X373029762Y-59942938D01*
X373029762Y-59942938D02*
X373005952Y-59895319D01*
X373005952Y-59895319D02*
X372958333Y-59847700D01*
X372958333Y-59847700D02*
X372886905Y-59823890D01*
X372886905Y-59823890D02*
X372767857Y-59823890D01*
X373529762Y-59823890D02*
X373244048Y-59823890D01*
X373386905Y-59823890D02*
X373386905Y-60323890D01*
X373386905Y-60323890D02*
X373339286Y-60252461D01*
X373339286Y-60252461D02*
X373291667Y-60204842D01*
X373291667Y-60204842D02*
X373244048Y-60181033D01*
X373982142Y-60323890D02*
X373744047Y-60323890D01*
X373744047Y-60323890D02*
X373720238Y-60085795D01*
X373720238Y-60085795D02*
X373744047Y-60109604D01*
X373744047Y-60109604D02*
X373791666Y-60133414D01*
X373791666Y-60133414D02*
X373910714Y-60133414D01*
X373910714Y-60133414D02*
X373958333Y-60109604D01*
X373958333Y-60109604D02*
X373982142Y-60085795D01*
X373982142Y-60085795D02*
X374005952Y-60038176D01*
X374005952Y-60038176D02*
X374005952Y-59919128D01*
X374005952Y-59919128D02*
X373982142Y-59871509D01*
X373982142Y-59871509D02*
X373958333Y-59847700D01*
X373958333Y-59847700D02*
X373910714Y-59823890D01*
X373910714Y-59823890D02*
X373791666Y-59823890D01*
X373791666Y-59823890D02*
X373744047Y-59847700D01*
X373744047Y-59847700D02*
X373720238Y-59871509D01*
D10*
D11*
X270392857Y-131873890D02*
X270392857Y-132373890D01*
X270392857Y-132373890D02*
X270511905Y-132373890D01*
X270511905Y-132373890D02*
X270583333Y-132350080D01*
X270583333Y-132350080D02*
X270630952Y-132302461D01*
X270630952Y-132302461D02*
X270654762Y-132254842D01*
X270654762Y-132254842D02*
X270678571Y-132159604D01*
X270678571Y-132159604D02*
X270678571Y-132088176D01*
X270678571Y-132088176D02*
X270654762Y-131992938D01*
X270654762Y-131992938D02*
X270630952Y-131945319D01*
X270630952Y-131945319D02*
X270583333Y-131897700D01*
X270583333Y-131897700D02*
X270511905Y-131873890D01*
X270511905Y-131873890D02*
X270392857Y-131873890D01*
X271107143Y-132373890D02*
X271011905Y-132373890D01*
X271011905Y-132373890D02*
X270964286Y-132350080D01*
X270964286Y-132350080D02*
X270940476Y-132326271D01*
X270940476Y-132326271D02*
X270892857Y-132254842D01*
X270892857Y-132254842D02*
X270869048Y-132159604D01*
X270869048Y-132159604D02*
X270869048Y-131969128D01*
X270869048Y-131969128D02*
X270892857Y-131921509D01*
X270892857Y-131921509D02*
X270916667Y-131897700D01*
X270916667Y-131897700D02*
X270964286Y-131873890D01*
X270964286Y-131873890D02*
X271059524Y-131873890D01*
X271059524Y-131873890D02*
X271107143Y-131897700D01*
X271107143Y-131897700D02*
X271130952Y-131921509D01*
X271130952Y-131921509D02*
X271154762Y-131969128D01*
X271154762Y-131969128D02*
X271154762Y-132088176D01*
X271154762Y-132088176D02*
X271130952Y-132135795D01*
X271130952Y-132135795D02*
X271107143Y-132159604D01*
X271107143Y-132159604D02*
X271059524Y-132183414D01*
X271059524Y-132183414D02*
X270964286Y-132183414D01*
X270964286Y-132183414D02*
X270916667Y-132159604D01*
X270916667Y-132159604D02*
X270892857Y-132135795D01*
X270892857Y-132135795D02*
X270869048Y-132088176D01*
X271464285Y-132373890D02*
X271511904Y-132373890D01*
X271511904Y-132373890D02*
X271559523Y-132350080D01*
X271559523Y-132350080D02*
X271583333Y-132326271D01*
X271583333Y-132326271D02*
X271607142Y-132278652D01*
X271607142Y-132278652D02*
X271630952Y-132183414D01*
X271630952Y-132183414D02*
X271630952Y-132064366D01*
X271630952Y-132064366D02*
X271607142Y-131969128D01*
X271607142Y-131969128D02*
X271583333Y-131921509D01*
X271583333Y-131921509D02*
X271559523Y-131897700D01*
X271559523Y-131897700D02*
X271511904Y-131873890D01*
X271511904Y-131873890D02*
X271464285Y-131873890D01*
X271464285Y-131873890D02*
X271416666Y-131897700D01*
X271416666Y-131897700D02*
X271392857Y-131921509D01*
X271392857Y-131921509D02*
X271369047Y-131969128D01*
X271369047Y-131969128D02*
X271345238Y-132064366D01*
X271345238Y-132064366D02*
X271345238Y-132183414D01*
X271345238Y-132183414D02*
X271369047Y-132278652D01*
X271369047Y-132278652D02*
X271392857Y-132326271D01*
X271392857Y-132326271D02*
X271416666Y-132350080D01*
X271416666Y-132350080D02*
X271464285Y-132373890D01*
D10*
D11*
X331892857Y-136523890D02*
X331892857Y-137023890D01*
X331892857Y-137023890D02*
X332011905Y-137023890D01*
X332011905Y-137023890D02*
X332083333Y-137000080D01*
X332083333Y-137000080D02*
X332130952Y-136952461D01*
X332130952Y-136952461D02*
X332154762Y-136904842D01*
X332154762Y-136904842D02*
X332178571Y-136809604D01*
X332178571Y-136809604D02*
X332178571Y-136738176D01*
X332178571Y-136738176D02*
X332154762Y-136642938D01*
X332154762Y-136642938D02*
X332130952Y-136595319D01*
X332130952Y-136595319D02*
X332083333Y-136547700D01*
X332083333Y-136547700D02*
X332011905Y-136523890D01*
X332011905Y-136523890D02*
X331892857Y-136523890D01*
X332607143Y-137023890D02*
X332511905Y-137023890D01*
X332511905Y-137023890D02*
X332464286Y-137000080D01*
X332464286Y-137000080D02*
X332440476Y-136976271D01*
X332440476Y-136976271D02*
X332392857Y-136904842D01*
X332392857Y-136904842D02*
X332369048Y-136809604D01*
X332369048Y-136809604D02*
X332369048Y-136619128D01*
X332369048Y-136619128D02*
X332392857Y-136571509D01*
X332392857Y-136571509D02*
X332416667Y-136547700D01*
X332416667Y-136547700D02*
X332464286Y-136523890D01*
X332464286Y-136523890D02*
X332559524Y-136523890D01*
X332559524Y-136523890D02*
X332607143Y-136547700D01*
X332607143Y-136547700D02*
X332630952Y-136571509D01*
X332630952Y-136571509D02*
X332654762Y-136619128D01*
X332654762Y-136619128D02*
X332654762Y-136738176D01*
X332654762Y-136738176D02*
X332630952Y-136785795D01*
X332630952Y-136785795D02*
X332607143Y-136809604D01*
X332607143Y-136809604D02*
X332559524Y-136833414D01*
X332559524Y-136833414D02*
X332464286Y-136833414D01*
X332464286Y-136833414D02*
X332416667Y-136809604D01*
X332416667Y-136809604D02*
X332392857Y-136785795D01*
X332392857Y-136785795D02*
X332369048Y-136738176D01*
X332845238Y-136976271D02*
X332869047Y-137000080D01*
X332869047Y-137000080D02*
X332916666Y-137023890D01*
X332916666Y-137023890D02*
X333035714Y-137023890D01*
X333035714Y-137023890D02*
X333083333Y-137000080D01*
X333083333Y-137000080D02*
X333107142Y-136976271D01*
X333107142Y-136976271D02*
X333130952Y-136928652D01*
X333130952Y-136928652D02*
X333130952Y-136881033D01*
X333130952Y-136881033D02*
X333107142Y-136809604D01*
X333107142Y-136809604D02*
X332821428Y-136523890D01*
X332821428Y-136523890D02*
X333130952Y-136523890D01*
D10*
D11*
X140417857Y-136523890D02*
X140417857Y-137023890D01*
X140417857Y-137023890D02*
X140536905Y-137023890D01*
X140536905Y-137023890D02*
X140608333Y-137000080D01*
X140608333Y-137000080D02*
X140655952Y-136952461D01*
X140655952Y-136952461D02*
X140679762Y-136904842D01*
X140679762Y-136904842D02*
X140703571Y-136809604D01*
X140703571Y-136809604D02*
X140703571Y-136738176D01*
X140703571Y-136738176D02*
X140679762Y-136642938D01*
X140679762Y-136642938D02*
X140655952Y-136595319D01*
X140655952Y-136595319D02*
X140608333Y-136547700D01*
X140608333Y-136547700D02*
X140536905Y-136523890D01*
X140536905Y-136523890D02*
X140417857Y-136523890D01*
X141155952Y-137023890D02*
X140917857Y-137023890D01*
X140917857Y-137023890D02*
X140894048Y-136785795D01*
X140894048Y-136785795D02*
X140917857Y-136809604D01*
X140917857Y-136809604D02*
X140965476Y-136833414D01*
X140965476Y-136833414D02*
X141084524Y-136833414D01*
X141084524Y-136833414D02*
X141132143Y-136809604D01*
X141132143Y-136809604D02*
X141155952Y-136785795D01*
X141155952Y-136785795D02*
X141179762Y-136738176D01*
X141179762Y-136738176D02*
X141179762Y-136619128D01*
X141179762Y-136619128D02*
X141155952Y-136571509D01*
X141155952Y-136571509D02*
X141132143Y-136547700D01*
X141132143Y-136547700D02*
X141084524Y-136523890D01*
X141084524Y-136523890D02*
X140965476Y-136523890D01*
X140965476Y-136523890D02*
X140917857Y-136547700D01*
X140917857Y-136547700D02*
X140894048Y-136571509D01*
X141608333Y-137023890D02*
X141513095Y-137023890D01*
X141513095Y-137023890D02*
X141465476Y-137000080D01*
X141465476Y-137000080D02*
X141441666Y-136976271D01*
X141441666Y-136976271D02*
X141394047Y-136904842D01*
X141394047Y-136904842D02*
X141370238Y-136809604D01*
X141370238Y-136809604D02*
X141370238Y-136619128D01*
X141370238Y-136619128D02*
X141394047Y-136571509D01*
X141394047Y-136571509D02*
X141417857Y-136547700D01*
X141417857Y-136547700D02*
X141465476Y-136523890D01*
X141465476Y-136523890D02*
X141560714Y-136523890D01*
X141560714Y-136523890D02*
X141608333Y-136547700D01*
X141608333Y-136547700D02*
X141632142Y-136571509D01*
X141632142Y-136571509D02*
X141655952Y-136619128D01*
X141655952Y-136619128D02*
X141655952Y-136738176D01*
X141655952Y-136738176D02*
X141632142Y-136785795D01*
X141632142Y-136785795D02*
X141608333Y-136809604D01*
X141608333Y-136809604D02*
X141560714Y-136833414D01*
X141560714Y-136833414D02*
X141465476Y-136833414D01*
X141465476Y-136833414D02*
X141417857Y-136809604D01*
X141417857Y-136809604D02*
X141394047Y-136785795D01*
X141394047Y-136785795D02*
X141370238Y-136738176D01*
D10*
D11*
X354732142Y-79376109D02*
X354732142Y-78876109D01*
X354732142Y-78876109D02*
X354613094Y-78876109D01*
X354613094Y-78876109D02*
X354541666Y-78899919D01*
X354541666Y-78899919D02*
X354494047Y-78947538D01*
X354494047Y-78947538D02*
X354470237Y-78995157D01*
X354470237Y-78995157D02*
X354446428Y-79090395D01*
X354446428Y-79090395D02*
X354446428Y-79161823D01*
X354446428Y-79161823D02*
X354470237Y-79257061D01*
X354470237Y-79257061D02*
X354494047Y-79304680D01*
X354494047Y-79304680D02*
X354541666Y-79352300D01*
X354541666Y-79352300D02*
X354613094Y-79376109D01*
X354613094Y-79376109D02*
X354732142Y-79376109D01*
X353970237Y-79376109D02*
X354255951Y-79376109D01*
X354113094Y-79376109D02*
X354113094Y-78876109D01*
X354113094Y-78876109D02*
X354160713Y-78947538D01*
X354160713Y-78947538D02*
X354208332Y-78995157D01*
X354208332Y-78995157D02*
X354255951Y-79018966D01*
X353803571Y-78876109D02*
X353470238Y-78876109D01*
X353470238Y-78876109D02*
X353684523Y-79376109D01*
D10*
D11*
X344017857Y-59773890D02*
X344017857Y-60273890D01*
X344017857Y-60273890D02*
X344136905Y-60273890D01*
X344136905Y-60273890D02*
X344208333Y-60250080D01*
X344208333Y-60250080D02*
X344255952Y-60202461D01*
X344255952Y-60202461D02*
X344279762Y-60154842D01*
X344279762Y-60154842D02*
X344303571Y-60059604D01*
X344303571Y-60059604D02*
X344303571Y-59988176D01*
X344303571Y-59988176D02*
X344279762Y-59892938D01*
X344279762Y-59892938D02*
X344255952Y-59845319D01*
X344255952Y-59845319D02*
X344208333Y-59797700D01*
X344208333Y-59797700D02*
X344136905Y-59773890D01*
X344136905Y-59773890D02*
X344017857Y-59773890D01*
X344779762Y-59773890D02*
X344494048Y-59773890D01*
X344636905Y-59773890D02*
X344636905Y-60273890D01*
X344636905Y-60273890D02*
X344589286Y-60202461D01*
X344589286Y-60202461D02*
X344541667Y-60154842D01*
X344541667Y-60154842D02*
X344494048Y-60131033D01*
X345208333Y-60107223D02*
X345208333Y-59773890D01*
X345089285Y-60297700D02*
X344970238Y-59940557D01*
X344970238Y-59940557D02*
X345279761Y-59940557D01*
D10*
D11*
X286917857Y-59823890D02*
X286917857Y-60323890D01*
X286917857Y-60323890D02*
X287036905Y-60323890D01*
X287036905Y-60323890D02*
X287108333Y-60300080D01*
X287108333Y-60300080D02*
X287155952Y-60252461D01*
X287155952Y-60252461D02*
X287179762Y-60204842D01*
X287179762Y-60204842D02*
X287203571Y-60109604D01*
X287203571Y-60109604D02*
X287203571Y-60038176D01*
X287203571Y-60038176D02*
X287179762Y-59942938D01*
X287179762Y-59942938D02*
X287155952Y-59895319D01*
X287155952Y-59895319D02*
X287108333Y-59847700D01*
X287108333Y-59847700D02*
X287036905Y-59823890D01*
X287036905Y-59823890D02*
X286917857Y-59823890D01*
X287679762Y-59823890D02*
X287394048Y-59823890D01*
X287536905Y-59823890D02*
X287536905Y-60323890D01*
X287536905Y-60323890D02*
X287489286Y-60252461D01*
X287489286Y-60252461D02*
X287441667Y-60204842D01*
X287441667Y-60204842D02*
X287394048Y-60181033D01*
X288155952Y-59823890D02*
X287870238Y-59823890D01*
X288013095Y-59823890D02*
X288013095Y-60323890D01*
X288013095Y-60323890D02*
X287965476Y-60252461D01*
X287965476Y-60252461D02*
X287917857Y-60204842D01*
X287917857Y-60204842D02*
X287870238Y-60181033D01*
D10*
D11*
X305967857Y-59923890D02*
X305967857Y-60423890D01*
X305967857Y-60423890D02*
X306086905Y-60423890D01*
X306086905Y-60423890D02*
X306158333Y-60400080D01*
X306158333Y-60400080D02*
X306205952Y-60352461D01*
X306205952Y-60352461D02*
X306229762Y-60304842D01*
X306229762Y-60304842D02*
X306253571Y-60209604D01*
X306253571Y-60209604D02*
X306253571Y-60138176D01*
X306253571Y-60138176D02*
X306229762Y-60042938D01*
X306229762Y-60042938D02*
X306205952Y-59995319D01*
X306205952Y-59995319D02*
X306158333Y-59947700D01*
X306158333Y-59947700D02*
X306086905Y-59923890D01*
X306086905Y-59923890D02*
X305967857Y-59923890D01*
X306729762Y-59923890D02*
X306444048Y-59923890D01*
X306586905Y-59923890D02*
X306586905Y-60423890D01*
X306586905Y-60423890D02*
X306539286Y-60352461D01*
X306539286Y-60352461D02*
X306491667Y-60304842D01*
X306491667Y-60304842D02*
X306444048Y-60281033D01*
X306920238Y-60376271D02*
X306944047Y-60400080D01*
X306944047Y-60400080D02*
X306991666Y-60423890D01*
X306991666Y-60423890D02*
X307110714Y-60423890D01*
X307110714Y-60423890D02*
X307158333Y-60400080D01*
X307158333Y-60400080D02*
X307182142Y-60376271D01*
X307182142Y-60376271D02*
X307205952Y-60328652D01*
X307205952Y-60328652D02*
X307205952Y-60281033D01*
X307205952Y-60281033D02*
X307182142Y-60209604D01*
X307182142Y-60209604D02*
X306896428Y-59923890D01*
X306896428Y-59923890D02*
X307205952Y-59923890D01*
D10*
D11*
X203342857Y-132473890D02*
X203342857Y-132973890D01*
X203342857Y-132973890D02*
X203461905Y-132973890D01*
X203461905Y-132973890D02*
X203533333Y-132950080D01*
X203533333Y-132950080D02*
X203580952Y-132902461D01*
X203580952Y-132902461D02*
X203604762Y-132854842D01*
X203604762Y-132854842D02*
X203628571Y-132759604D01*
X203628571Y-132759604D02*
X203628571Y-132688176D01*
X203628571Y-132688176D02*
X203604762Y-132592938D01*
X203604762Y-132592938D02*
X203580952Y-132545319D01*
X203580952Y-132545319D02*
X203533333Y-132497700D01*
X203533333Y-132497700D02*
X203461905Y-132473890D01*
X203461905Y-132473890D02*
X203342857Y-132473890D01*
X204080952Y-132973890D02*
X203842857Y-132973890D01*
X203842857Y-132973890D02*
X203819048Y-132735795D01*
X203819048Y-132735795D02*
X203842857Y-132759604D01*
X203842857Y-132759604D02*
X203890476Y-132783414D01*
X203890476Y-132783414D02*
X204009524Y-132783414D01*
X204009524Y-132783414D02*
X204057143Y-132759604D01*
X204057143Y-132759604D02*
X204080952Y-132735795D01*
X204080952Y-132735795D02*
X204104762Y-132688176D01*
X204104762Y-132688176D02*
X204104762Y-132569128D01*
X204104762Y-132569128D02*
X204080952Y-132521509D01*
X204080952Y-132521509D02*
X204057143Y-132497700D01*
X204057143Y-132497700D02*
X204009524Y-132473890D01*
X204009524Y-132473890D02*
X203890476Y-132473890D01*
X203890476Y-132473890D02*
X203842857Y-132497700D01*
X203842857Y-132497700D02*
X203819048Y-132521509D01*
X204390476Y-132759604D02*
X204342857Y-132783414D01*
X204342857Y-132783414D02*
X204319047Y-132807223D01*
X204319047Y-132807223D02*
X204295238Y-132854842D01*
X204295238Y-132854842D02*
X204295238Y-132878652D01*
X204295238Y-132878652D02*
X204319047Y-132926271D01*
X204319047Y-132926271D02*
X204342857Y-132950080D01*
X204342857Y-132950080D02*
X204390476Y-132973890D01*
X204390476Y-132973890D02*
X204485714Y-132973890D01*
X204485714Y-132973890D02*
X204533333Y-132950080D01*
X204533333Y-132950080D02*
X204557142Y-132926271D01*
X204557142Y-132926271D02*
X204580952Y-132878652D01*
X204580952Y-132878652D02*
X204580952Y-132854842D01*
X204580952Y-132854842D02*
X204557142Y-132807223D01*
X204557142Y-132807223D02*
X204533333Y-132783414D01*
X204533333Y-132783414D02*
X204485714Y-132759604D01*
X204485714Y-132759604D02*
X204390476Y-132759604D01*
X204390476Y-132759604D02*
X204342857Y-132735795D01*
X204342857Y-132735795D02*
X204319047Y-132711985D01*
X204319047Y-132711985D02*
X204295238Y-132664366D01*
X204295238Y-132664366D02*
X204295238Y-132569128D01*
X204295238Y-132569128D02*
X204319047Y-132521509D01*
X204319047Y-132521509D02*
X204342857Y-132497700D01*
X204342857Y-132497700D02*
X204390476Y-132473890D01*
X204390476Y-132473890D02*
X204485714Y-132473890D01*
X204485714Y-132473890D02*
X204533333Y-132497700D01*
X204533333Y-132497700D02*
X204557142Y-132521509D01*
X204557142Y-132521509D02*
X204580952Y-132569128D01*
X204580952Y-132569128D02*
X204580952Y-132664366D01*
X204580952Y-132664366D02*
X204557142Y-132711985D01*
X204557142Y-132711985D02*
X204533333Y-132735795D01*
X204533333Y-132735795D02*
X204485714Y-132759604D01*
D10*
D11*
X164342857Y-136673890D02*
X164342857Y-137173890D01*
X164342857Y-137173890D02*
X164461905Y-137173890D01*
X164461905Y-137173890D02*
X164533333Y-137150080D01*
X164533333Y-137150080D02*
X164580952Y-137102461D01*
X164580952Y-137102461D02*
X164604762Y-137054842D01*
X164604762Y-137054842D02*
X164628571Y-136959604D01*
X164628571Y-136959604D02*
X164628571Y-136888176D01*
X164628571Y-136888176D02*
X164604762Y-136792938D01*
X164604762Y-136792938D02*
X164580952Y-136745319D01*
X164580952Y-136745319D02*
X164533333Y-136697700D01*
X164533333Y-136697700D02*
X164461905Y-136673890D01*
X164461905Y-136673890D02*
X164342857Y-136673890D01*
X165080952Y-137173890D02*
X164842857Y-137173890D01*
X164842857Y-137173890D02*
X164819048Y-136935795D01*
X164819048Y-136935795D02*
X164842857Y-136959604D01*
X164842857Y-136959604D02*
X164890476Y-136983414D01*
X164890476Y-136983414D02*
X165009524Y-136983414D01*
X165009524Y-136983414D02*
X165057143Y-136959604D01*
X165057143Y-136959604D02*
X165080952Y-136935795D01*
X165080952Y-136935795D02*
X165104762Y-136888176D01*
X165104762Y-136888176D02*
X165104762Y-136769128D01*
X165104762Y-136769128D02*
X165080952Y-136721509D01*
X165080952Y-136721509D02*
X165057143Y-136697700D01*
X165057143Y-136697700D02*
X165009524Y-136673890D01*
X165009524Y-136673890D02*
X164890476Y-136673890D01*
X164890476Y-136673890D02*
X164842857Y-136697700D01*
X164842857Y-136697700D02*
X164819048Y-136721509D01*
X165271428Y-137173890D02*
X165604761Y-137173890D01*
X165604761Y-137173890D02*
X165390476Y-136673890D01*
D12*
%TO.P,SW26,1,1_1*%
%TO.N,Net-(D154-K)*%
X347140000Y-50620000D03*
%TO.P,SW26,2,2_2*%
%TO.N,/ROW0*%
X340790000Y-53160000D03*
%TD*%
%TO.P,SW31,1,1_1*%
%TO.N,Net-(D104-K)*%
X222360000Y-69720000D03*
%TO.P,SW31,2,2_2*%
%TO.N,/ROW1*%
X216010000Y-72260000D03*
%TD*%
D13*
%TO.P,C4,1*%
%TO.N,GND*%
X219000000Y-28500000D03*
%TO.P,C4,2*%
%TO.N,/3.3V*%
X220900000Y-28500000D03*
%TD*%
D14*
%TO.P,U1,1,VBAT_1*%
%TO.N,/3.3V*%
X192587500Y-32912500D03*
%TO.P,U1,2,PC13_2*%
%TO.N,unconnected-(U1-PC13-Pad2)*%
X192587500Y-33412500D03*
%TO.P,U1,3,PC14_3*%
%TO.N,unconnected-(U1-PC14-Pad3)*%
X192587500Y-33912500D03*
%TO.P,U1,4,PC15_4*%
%TO.N,unconnected-(U1-PC15-Pad4)*%
X192587500Y-34412500D03*
%TO.P,U1,5,PF0_5*%
%TO.N,unconnected-(U1-PF0-Pad5)*%
X192587500Y-34912500D03*
%TO.P,U1,6,PF1_6*%
%TO.N,unconnected-(U1-PF1-Pad6)*%
X192587500Y-35412500D03*
%TO.P,U1,7,NRST_7*%
%TO.N,Net-(U1-NRST)*%
X192587500Y-35912500D03*
%TO.P,U1,8,VSSA_8*%
%TO.N,GND*%
X192587500Y-36412500D03*
%TO.P,U1,9,VDDA_9*%
%TO.N,/3.3V*%
X192587500Y-36912500D03*
%TO.P,U1,10,PA0_10*%
%TO.N,/ROW0*%
X192587500Y-37412500D03*
%TO.P,U1,11,PA1_11*%
%TO.N,/ROW1*%
X192587500Y-37912500D03*
%TO.P,U1,12,PA2_12*%
%TO.N,/ROW2*%
X192587500Y-38412500D03*
D15*
%TO.P,U1,13,PA3_13*%
%TO.N,/ROW3*%
X194000000Y-39825000D03*
%TO.P,U1,14,PA4_14*%
%TO.N,/ROW4*%
X194500000Y-39825000D03*
%TO.P,U1,15,PA5_15*%
%TO.N,unconnected-(U1-PA5-Pad15)*%
X195000000Y-39825000D03*
%TO.P,U1,16,PA6_16*%
%TO.N,unconnected-(U1-PA6-Pad16)*%
X195500000Y-39825000D03*
%TO.P,U1,17,PA7_17*%
%TO.N,unconnected-(U1-PA7-Pad17)*%
X196000000Y-39825000D03*
%TO.P,U1,18,PB0_18*%
%TO.N,/COL0*%
X196500000Y-39825000D03*
%TO.P,U1,19,PB1_19*%
%TO.N,/COL1*%
X197000000Y-39825000D03*
%TO.P,U1,20,PB2_20*%
%TO.N,/COL2*%
X197500000Y-39825000D03*
%TO.P,U1,21,PB10_21*%
%TO.N,/COL8*%
X198000000Y-39825000D03*
%TO.P,U1,22,PB11_22*%
%TO.N,/COL9*%
X198500000Y-39825000D03*
%TO.P,U1,23,VSS_23*%
%TO.N,GND*%
X199000000Y-39825000D03*
%TO.P,U1,24,VDD_24*%
%TO.N,/3.3V*%
X199500000Y-39825000D03*
D14*
%TO.P,U1,25,PB12_25*%
%TO.N,/COL10*%
X200912500Y-38412500D03*
%TO.P,U1,26,PB13_26*%
%TO.N,/COL11*%
X200912500Y-37912500D03*
%TO.P,U1,27,PB14_27*%
%TO.N,/COL12*%
X200912500Y-37412500D03*
%TO.P,U1,28,PB15_28*%
%TO.N,/COL13*%
X200912500Y-36912500D03*
%TO.P,U1,29,PA8_29*%
%TO.N,/LED-DAISY*%
X200912500Y-36412500D03*
%TO.P,U1,30,PA9_30*%
%TO.N,unconnected-(U1-PA9-Pad30)*%
X200912500Y-35912500D03*
%TO.P,U1,31,PA10_31*%
%TO.N,unconnected-(U1-PA10-Pad31)*%
X200912500Y-35412500D03*
%TO.P,U1,32,PA11_32*%
%TO.N,/D+*%
X200912500Y-34912500D03*
%TO.P,U1,33,PA12_33*%
%TO.N,/D-*%
X200912500Y-34412500D03*
%TO.P,U1,34,PA13_34*%
%TO.N,unconnected-(U1-PA13-Pad34)*%
X200912500Y-33912500D03*
%TO.P,U1,35,VSS_35*%
%TO.N,GND*%
X200912500Y-33412500D03*
%TO.P,U1,36,VDDIO2_36*%
%TO.N,/3.3V*%
X200912500Y-32912500D03*
D15*
%TO.P,U1,37,PA14_37*%
%TO.N,unconnected-(U1-PA14-Pad37)*%
X199500000Y-31500000D03*
%TO.P,U1,38,PA15_38*%
%TO.N,unconnected-(U1-PA15-Pad38)*%
X199000000Y-31500000D03*
%TO.P,U1,39,PB3_39*%
%TO.N,/COL3*%
X198500000Y-31500000D03*
%TO.P,U1,40,PB4_40*%
%TO.N,/COL4*%
X198000000Y-31500000D03*
%TO.P,U1,41,PB5_41*%
%TO.N,/COL5*%
X197500000Y-31500000D03*
%TO.P,U1,42,PB6_42*%
%TO.N,/COL6*%
X197000000Y-31500000D03*
%TO.P,U1,43,PB7_43*%
%TO.N,/COL7*%
X196500000Y-31500000D03*
%TO.P,U1,44,BOOT0_44*%
%TO.N,Net-(U1-BOOT0)*%
X196000000Y-31500000D03*
%TO.P,U1,45,PB8_45*%
%TO.N,/SCL*%
X195500000Y-31500000D03*
%TO.P,U1,46,PB9_46*%
%TO.N,/SDA*%
X195000000Y-31500000D03*
%TO.P,U1,47,VSS_47*%
%TO.N,GND*%
X194500000Y-31500000D03*
%TO.P,U1,48,VDD_48*%
%TO.N,/3.3V*%
X194000000Y-31500000D03*
%TD*%
D12*
%TO.P,SW43,1,1_1*%
%TO.N,Net-(D97-K)*%
X208040000Y-88820000D03*
%TO.P,SW43,2,2_2*%
%TO.N,/ROW2*%
X201690000Y-91360000D03*
%TD*%
%TO.P,SW4,1,1_1*%
%TO.N,Net-(D161-K)*%
X375820000Y-50562500D03*
%TO.P,SW4,2,2_2*%
%TO.N,/ROW0*%
X369470000Y-53102500D03*
%TD*%
D13*
%TO.P,C6,1*%
%TO.N,/3.3V*%
X205600000Y-30000000D03*
%TO.P,C6,2*%
%TO.N,GND*%
X207500000Y-30000000D03*
%TD*%
D12*
%TO.P,SW35,1,1_1*%
%TO.N,Net-(D134-K)*%
X299060000Y-69770000D03*
%TO.P,SW35,2,2_2*%
%TO.N,/ROW1*%
X292710000Y-72310000D03*
%TD*%
D16*
%TO.P,Boot,1,1_1*%
%TO.N,/3.3V*%
X175300000Y-30000000D03*
%TO.P,Boot,2,2_2*%
%TO.N,Net-(U1-BOOT0)*%
X178700000Y-30000000D03*
%TD*%
D12*
%TO.P,SW2,1,1_1*%
%TO.N,Net-(D65-K)*%
X124210000Y-88920000D03*
%TO.P,SW2,2,2_2*%
%TO.N,/ROW2*%
X117860000Y-91460000D03*
%TD*%
%TO.P,SW37,1,1_1*%
%TO.N,Net-(D148-K)*%
X337390000Y-69720000D03*
%TO.P,SW37,2,2_2*%
%TO.N,/ROW1*%
X331040000Y-72260000D03*
%TD*%
%TO.P,SW21,1,1_1*%
%TO.N,Net-(D119-K)*%
X251570000Y-50620000D03*
%TO.P,SW21,2,2_2*%
%TO.N,/ROW0*%
X245220000Y-53160000D03*
%TD*%
%TO.P,SW45,1,1_1*%
%TO.N,Net-(D113-K)*%
X246300000Y-88850000D03*
%TO.P,SW45,2,2_2*%
%TO.N,/ROW2*%
X239950000Y-91390000D03*
%TD*%
%TO.P,SW25,1,1_1*%
%TO.N,Net-(D147-K)*%
X327990000Y-50620000D03*
%TO.P,SW25,2,2_2*%
%TO.N,/ROW0*%
X321640000Y-53160000D03*
%TD*%
%TO.P,SW38,1,1_1*%
%TO.N,Net-(D155-K)*%
X356610000Y-69720000D03*
%TO.P,SW38,2,2_2*%
%TO.N,/ROW1*%
X350260000Y-72260000D03*
%TD*%
%TO.P,SW61,1,1_1*%
%TO.N,Net-(D151-K)*%
X334990000Y-127320000D03*
%TO.P,SW61,2,2_2*%
%TO.N,/ROW4*%
X328640000Y-129860000D03*
%TD*%
%TO.P,SW55,1,1_1*%
%TO.N,Net-(D106-K)*%
X236640000Y-108070000D03*
%TO.P,SW55,2,2_2*%
%TO.N,/ROW3*%
X230290000Y-110610000D03*
%TD*%
%TO.P,SW57,1,1_1*%
%TO.N,Net-(D122-K)*%
X275070000Y-108070000D03*
%TO.P,SW57,2,2_2*%
%TO.N,/ROW3*%
X268720000Y-110610000D03*
%TD*%
%TO.P,SW6,1,1_1*%
%TO.N,Net-(D150-K)*%
X368690000Y-108112500D03*
%TO.P,SW6,2,2_2*%
%TO.N,/ROW3*%
X362340000Y-110652500D03*
%TD*%
%TO.P,SW12,1,1_1*%
%TO.N,Net-(D83-K)*%
X167490000Y-127320000D03*
%TO.P,SW12,2,2_2*%
%TO.N,/ROW4*%
X161140000Y-129860000D03*
%TD*%
%TO.P,SW53,1,1_1*%
%TO.N,Net-(D90-K)*%
X198350000Y-108150000D03*
%TO.P,SW53,2,2_2*%
%TO.N,/ROW3*%
X192000000Y-110690000D03*
%TD*%
%TO.P,SW56,1,1_1*%
%TO.N,Net-(D114-K)*%
X255840000Y-108070000D03*
%TO.P,SW56,2,2_2*%
%TO.N,/ROW3*%
X249490000Y-110610000D03*
%TD*%
%TO.P,SW15,1,1_1*%
%TO.N,Net-(D71-K)*%
X136360000Y-50520000D03*
%TO.P,SW15,2,2_2*%
%TO.N,/ROW0*%
X130010000Y-53060000D03*
%TD*%
%TO.P,SW59,1,1_1*%
%TO.N,Net-(D136-K)*%
X313340000Y-108120000D03*
%TO.P,SW59,2,2_2*%
%TO.N,/ROW3*%
X306990000Y-110660000D03*
%TD*%
D17*
%TO.P,J1,A1,GND_A1*%
%TO.N,GND*%
X120960000Y-32640000D03*
%TO.P,J1,A4,VBUS_A4*%
%TO.N,+5V*%
X120160000Y-32640000D03*
D18*
%TO.P,J1,A5,CC1_A5*%
%TO.N,Net-(J1-CC1)*%
X119010000Y-32640000D03*
%TO.P,J1,A6,D+_A6*%
%TO.N,Net-(J1-D+-PadA6)*%
X118010000Y-32640000D03*
%TO.P,J1,A7,D-_A7*%
%TO.N,Net-(J1-D--PadA7)*%
X117510000Y-32640000D03*
%TO.P,J1,A8,SBU1_A8*%
%TO.N,unconnected-(J1-SBU1-PadA8)*%
X116510000Y-32640000D03*
D17*
%TO.P,J1,A9,VBUS_A9*%
%TO.N,+5V*%
X115360000Y-32640000D03*
%TO.P,J1,A12,GND_A12*%
%TO.N,GND*%
X114560000Y-32640000D03*
%TO.P,J1,B1,GND_B1*%
X114560000Y-32640000D03*
%TO.P,J1,B4,VBUS_B4*%
%TO.N,+5V*%
X115360000Y-32640000D03*
D18*
%TO.P,J1,B5,CC2_B5*%
%TO.N,Net-(J1-CC2)*%
X116010000Y-32640000D03*
%TO.P,J1,B6,D+_B6*%
%TO.N,Net-(J1-D+-PadA6)*%
X117010000Y-32640000D03*
%TO.P,J1,B7,D-_B7*%
%TO.N,Net-(J1-D--PadA7)*%
X118510000Y-32640000D03*
%TO.P,J1,B8,SBU2_B8*%
%TO.N,unconnected-(J1-SBU2-PadB8)*%
X119510000Y-32640000D03*
D17*
%TO.P,J1,B9,VBUS_B9*%
%TO.N,+5V*%
X120160000Y-32640000D03*
%TO.P,J1,B12,GND_B12*%
%TO.N,GND*%
X120960000Y-32640000D03*
D19*
%TO.P,J1,SH,SHIELD_SH*%
X122080000Y-32000000D03*
D20*
X122080000Y-27820000D03*
D19*
X113440000Y-32000000D03*
D20*
X113440000Y-27820000D03*
%TD*%
D21*
%TO.P,U2,1,GND_1*%
%TO.N,GND*%
X131350000Y-39110000D03*
D22*
%TO.P,U2,2,VCC_2*%
%TO.N,/3.3V*%
X131350000Y-36570000D03*
%TO.P,U2,3,SCL_3*%
%TO.N,/SCL*%
X131350000Y-34030000D03*
%TO.P,U2,4,SDA_4*%
%TO.N,/SDA*%
X131350000Y-31490000D03*
%TD*%
D23*
%TO.P,R3,1*%
%TO.N,Net-(U1-BOOT0)*%
X178500000Y-32675000D03*
%TO.P,R3,2*%
%TO.N,GND*%
X178500000Y-34325000D03*
%TD*%
D12*
%TO.P,SW39,1,1_1*%
%TO.N,Net-(D162-K)*%
X380540000Y-69720000D03*
%TO.P,SW39,2,2_2*%
%TO.N,/ROW1*%
X374190000Y-72260000D03*
%TD*%
%TO.P,SW24,1,1_1*%
%TO.N,Net-(D140-K)*%
X308890000Y-50620000D03*
%TO.P,SW24,2,2_2*%
%TO.N,/ROW0*%
X302540000Y-53160000D03*
%TD*%
%TO.P,SW33,1,1_1*%
%TO.N,Net-(D120-K)*%
X260740000Y-69720000D03*
%TO.P,SW33,2,2_2*%
%TO.N,/ROW1*%
X254390000Y-72260000D03*
%TD*%
%TO.P,SW16,1,1_1*%
%TO.N,Net-(D79-K)*%
X155560000Y-50520000D03*
%TO.P,SW16,2,2_2*%
%TO.N,/ROW0*%
X149210000Y-53060000D03*
%TD*%
%TO.P,SW50,1,1_1*%
%TO.N,Net-(D149-K)*%
X342160000Y-88920000D03*
%TO.P,SW50,2,2_2*%
%TO.N,/ROW2*%
X335810000Y-91460000D03*
%TD*%
%TO.P,SW36,1,1_1*%
%TO.N,Net-(D141-K)*%
X318240000Y-69720000D03*
%TO.P,SW36,2,2_2*%
%TO.N,/ROW1*%
X311890000Y-72260000D03*
%TD*%
%TO.P,SW51,1,1_1*%
%TO.N,Net-(D74-K)*%
X160040000Y-108120000D03*
%TO.P,SW51,2,2_2*%
%TO.N,/ROW3*%
X153690000Y-110660000D03*
%TD*%
%TO.P,SW22,1,1_1*%
%TO.N,Net-(D126-K)*%
X270770000Y-50620000D03*
%TO.P,SW22,2,2_2*%
%TO.N,/ROW0*%
X264420000Y-53160000D03*
%TD*%
D24*
%TO.P,R1,1*%
%TO.N,Net-(J1-CC1)*%
X115825000Y-38000000D03*
%TO.P,R1,2*%
%TO.N,GND*%
X114175000Y-38000000D03*
%TD*%
D12*
%TO.P,SW40,1,1_1*%
%TO.N,Net-(D73-K)*%
X150510000Y-88870000D03*
%TO.P,SW40,2,2_2*%
%TO.N,/ROW2*%
X144160000Y-91410000D03*
%TD*%
%TO.P,SW17,1,1_1*%
%TO.N,Net-(D87-K)*%
X174810000Y-50520000D03*
%TO.P,SW17,2,2_2*%
%TO.N,/ROW0*%
X168460000Y-53060000D03*
%TD*%
D13*
%TO.P,C5,1*%
%TO.N,GND*%
X223000000Y-28500000D03*
%TO.P,C5,2*%
%TO.N,/3.3V*%
X224900000Y-28500000D03*
%TD*%
D12*
%TO.P,SW34,1,1_1*%
%TO.N,Net-(D127-K)*%
X279890000Y-69770000D03*
%TO.P,SW34,2,2_2*%
%TO.N,/ROW1*%
X273540000Y-72310000D03*
%TD*%
%TO.P,SW3,1,1_1*%
%TO.N,Net-(D66-K)*%
X128990000Y-108162500D03*
%TO.P,SW3,2,2_2*%
%TO.N,/ROW3*%
X122640000Y-110702500D03*
%TD*%
%TO.P,SW52,1,1_1*%
%TO.N,Net-(D82-K)*%
X179190000Y-108120000D03*
%TO.P,SW52,2,2_2*%
%TO.N,/ROW3*%
X172840000Y-110660000D03*
%TD*%
%TO.P,SW46,1,1_1*%
%TO.N,Net-(D121-K)*%
X265500000Y-88810000D03*
%TO.P,SW46,2,2_2*%
%TO.N,/ROW2*%
X259150000Y-91350000D03*
%TD*%
%TO.P,SW8,1,1_1*%
%TO.N,Net-(D165-K)*%
X359010000Y-127420000D03*
%TO.P,SW8,2,2_2*%
%TO.N,/ROW4*%
X352660000Y-129960000D03*
%TD*%
%TO.P,SW13,1,1_1*%
%TO.N,Net-(D158-K)*%
X382990000Y-127420000D03*
%TO.P,SW13,2,2_2*%
%TO.N,/ROW4*%
X376640000Y-129960000D03*
%TD*%
%TO.P,SW42,1,1_1*%
%TO.N,Net-(D89-K)*%
X188850000Y-88810000D03*
%TO.P,SW42,2,2_2*%
%TO.N,/ROW2*%
X182500000Y-91350000D03*
%TD*%
%TO.P,SW11,1,1_1*%
%TO.N,Net-(D75-K)*%
X143510000Y-127320000D03*
%TO.P,SW11,2,2_2*%
%TO.N,/ROW4*%
X137160000Y-129860000D03*
%TD*%
%TO.P,SW9,1,1_1*%
%TO.N,Net-(D144-K)*%
X310690000Y-127320000D03*
%TO.P,SW9,2,2_2*%
%TO.N,/ROW4*%
X304340000Y-129860000D03*
%TD*%
%TO.P,SW41,1,1_1*%
%TO.N,Net-(D81-K)*%
X169650000Y-88850000D03*
%TO.P,SW41,2,2_2*%
%TO.N,/ROW2*%
X163300000Y-91390000D03*
%TD*%
%TO.P,SW47,1,1_1*%
%TO.N,Net-(D128-K)*%
X284690000Y-88920000D03*
%TO.P,SW47,2,2_2*%
%TO.N,/ROW2*%
X278340000Y-91460000D03*
%TD*%
%TO.P,SW27,1,1_1*%
%TO.N,Net-(D72-K)*%
X145890000Y-69670000D03*
%TO.P,SW27,2,2_2*%
%TO.N,/ROW1*%
X139540000Y-72210000D03*
%TD*%
%TO.P,SW19,1,1_1*%
%TO.N,Net-(D103-K)*%
X213260000Y-50570000D03*
%TO.P,SW19,2,2_2*%
%TO.N,/ROW0*%
X206910000Y-53110000D03*
%TD*%
%TO.P,SW18,1,1_1*%
%TO.N,Net-(D95-K)*%
X194060000Y-50520000D03*
%TO.P,SW18,2,2_2*%
%TO.N,/ROW0*%
X187710000Y-53060000D03*
%TD*%
D25*
%TO.P,U3,1,GND_1*%
%TO.N,GND*%
X217700000Y-31200000D03*
%TO.P,U3,2,VO_2*%
%TO.N,/3.3V*%
X217700000Y-33500000D03*
D26*
X224000000Y-33500000D03*
D25*
%TO.P,U3,3,VI_3*%
%TO.N,+5V*%
X217700000Y-35800000D03*
%TD*%
D12*
%TO.P,SW10,1,1_1*%
%TO.N,Net-(D67-K)*%
X119460000Y-127320000D03*
%TO.P,SW10,2,2_2*%
%TO.N,/ROW4*%
X113110000Y-129860000D03*
%TD*%
%TO.P,SW7,1,1_1*%
%TO.N,Net-(D115-K)*%
X239090000Y-127312500D03*
%TO.P,SW7,2,2_2*%
%TO.N,/ROW4*%
X232740000Y-129852500D03*
%TD*%
%TO.P,SW54,1,1_1*%
%TO.N,Net-(D98-K)*%
X217500000Y-108100000D03*
%TO.P,SW54,2,2_2*%
%TO.N,/ROW3*%
X211150000Y-110640000D03*
%TD*%
%TO.P,SW5,1,1_1*%
%TO.N,Net-(D156-K)*%
X373410000Y-88920000D03*
%TO.P,SW5,2,2_2*%
%TO.N,/ROW2*%
X367060000Y-91460000D03*
%TD*%
%TO.P,SW28,1,1_1*%
%TO.N,Net-(D80-K)*%
X164950000Y-69600000D03*
%TO.P,SW28,2,2_2*%
%TO.N,/ROW1*%
X158600000Y-72140000D03*
%TD*%
%TO.P,SW1,1,1_1*%
%TO.N,Net-(D64-K)*%
X121840000Y-69720000D03*
%TO.P,SW1,2,2_2*%
%TO.N,/ROW1*%
X115490000Y-72260000D03*
%TD*%
%TO.P,SW20,1,1_1*%
%TO.N,Net-(D111-K)*%
X232460000Y-50520000D03*
%TO.P,SW20,2,2_2*%
%TO.N,/ROW0*%
X226110000Y-53060000D03*
%TD*%
%TO.P,SW29,1,1_1*%
%TO.N,Net-(D88-K)*%
X184140000Y-69670000D03*
%TO.P,SW29,2,2_2*%
%TO.N,/ROW1*%
X177790000Y-72210000D03*
%TD*%
%TO.P,SW60,1,1_1*%
%TO.N,Net-(D143-K)*%
X332590000Y-108120000D03*
%TO.P,SW60,2,2_2*%
%TO.N,/ROW3*%
X326240000Y-110660000D03*
%TD*%
D13*
%TO.P,C1,1*%
%TO.N,GND*%
X181050000Y-33000000D03*
%TO.P,C1,2*%
%TO.N,Net-(U1-NRST)*%
X182950000Y-33000000D03*
%TD*%
D16*
%TO.P,Reset,1,1_1*%
%TO.N,GND*%
X180800000Y-30000000D03*
%TO.P,Reset,2,2_2*%
%TO.N,Net-(U1-NRST)*%
X184200000Y-30000000D03*
%TD*%
D27*
%TO.P,R2,1*%
%TO.N,Net-(J1-CC2)*%
X109325000Y-36325000D03*
%TO.P,R2,2*%
%TO.N,GND*%
X109325000Y-34675000D03*
%TD*%
D12*
%TO.P,SW48,1,1_1*%
%TO.N,Net-(D135-K)*%
X303840000Y-88920000D03*
%TO.P,SW48,2,2_2*%
%TO.N,/ROW2*%
X297490000Y-91460000D03*
%TD*%
%TO.P,SW23,1,1_1*%
%TO.N,Net-(D133-K)*%
X289920000Y-50620000D03*
%TO.P,SW23,2,2_2*%
%TO.N,/ROW0*%
X283570000Y-53160000D03*
%TD*%
%TO.P,SW30,1,1_1*%
%TO.N,Net-(D96-K)*%
X203210000Y-69670000D03*
%TO.P,SW30,2,2_2*%
%TO.N,/ROW1*%
X196860000Y-72210000D03*
%TD*%
D13*
%TO.P,C3,1*%
%TO.N,GND*%
X214550000Y-28500000D03*
%TO.P,C3,2*%
%TO.N,/3.3V*%
X216450000Y-28500000D03*
%TD*%
%TO.P,C2,1*%
%TO.N,/3.3V*%
X210050000Y-30000000D03*
%TO.P,C2,2*%
%TO.N,GND*%
X211950000Y-30000000D03*
%TD*%
D12*
%TO.P,SW14,1,1_1*%
%TO.N,Net-(D63-K)*%
X117190000Y-50570000D03*
%TO.P,SW14,2,2_2*%
%TO.N,/ROW0*%
X110840000Y-53110000D03*
%TD*%
%TO.P,SW49,1,1_1*%
%TO.N,Net-(D142-K)*%
X322940000Y-88920000D03*
%TO.P,SW49,2,2_2*%
%TO.N,/ROW2*%
X316590000Y-91460000D03*
%TD*%
D28*
%TO.P,U4,1,I/O1_1*%
%TO.N,Net-(J1-D+-PadA6)*%
X170725000Y-33100000D03*
%TO.P,U4,2,GND_2*%
%TO.N,GND*%
X170725000Y-34050000D03*
%TO.P,U4,3,I/O2_3*%
%TO.N,Net-(J1-D--PadA7)*%
X170725000Y-35000000D03*
%TO.P,U4,4,I/O2_4*%
%TO.N,/D-*%
X173000000Y-35000000D03*
%TO.P,U4,5,VBUS_5*%
%TO.N,+5V*%
X173000000Y-34050000D03*
%TO.P,U4,6,I/O1_6*%
%TO.N,/D+*%
X173000000Y-33100000D03*
%TD*%
D12*
%TO.P,SW58,1,1_1*%
%TO.N,Net-(D129-K)*%
X294190000Y-108070000D03*
%TO.P,SW58,2,2_2*%
%TO.N,/ROW3*%
X287840000Y-110610000D03*
%TD*%
%TO.P,SW32,1,1_1*%
%TO.N,Net-(D112-K)*%
X241590000Y-69720000D03*
%TO.P,SW32,2,2_2*%
%TO.N,/ROW1*%
X235240000Y-72260000D03*
%TD*%
%TO.P,SW44,1,1_1*%
%TO.N,Net-(D105-K)*%
X227160000Y-88820000D03*
%TO.P,SW44,2,2_2*%
%TO.N,/ROW2*%
X220810000Y-91360000D03*
%TD*%
D29*
%TO.P,D113,1,K_1*%
%TO.N,Net-(D113-K)*%
X246300000Y-85600000D03*
D30*
%TO.P,D113,2,A_2*%
%TO.N,/COL6*%
X238680000Y-85600000D03*
%TD*%
D29*
%TO.P,D71,1,K_1*%
%TO.N,Net-(D71-K)*%
X136400000Y-47250000D03*
D30*
%TO.P,D71,2,A_2*%
%TO.N,/COL1*%
X128780000Y-47250000D03*
%TD*%
D29*
%TO.P,D81,1,K_1*%
%TO.N,Net-(D81-K)*%
X169650000Y-85550000D03*
D30*
%TO.P,D81,2,A_2*%
%TO.N,/COL2*%
X162030000Y-85550000D03*
%TD*%
D29*
%TO.P,D79,1,K_1*%
%TO.N,Net-(D79-K)*%
X155550000Y-47300000D03*
D30*
%TO.P,D79,2,A_2*%
%TO.N,/COL2*%
X147930000Y-47300000D03*
%TD*%
D29*
%TO.P,D155,1,K_1*%
%TO.N,Net-(D155-K)*%
X356600000Y-66600000D03*
D30*
%TO.P,D155,2,A_2*%
%TO.N,/COL12*%
X348980000Y-66600000D03*
%TD*%
D29*
%TO.P,D75,1,K_1*%
%TO.N,Net-(D75-K)*%
X148500000Y-124150000D03*
D30*
%TO.P,D75,2,A_2*%
%TO.N,/COL1*%
X140880000Y-124150000D03*
%TD*%
D29*
%TO.P,D135,1,K_1*%
%TO.N,Net-(D135-K)*%
X303800000Y-85750000D03*
D30*
%TO.P,D135,2,A_2*%
%TO.N,/COL9*%
X296180000Y-85750000D03*
%TD*%
D29*
%TO.P,D154,1,K_1*%
%TO.N,Net-(D154-K)*%
X347100000Y-47450000D03*
D30*
%TO.P,D154,2,A_2*%
%TO.N,/COL12*%
X339480000Y-47450000D03*
%TD*%
D29*
%TO.P,D72,1,K_1*%
%TO.N,Net-(D72-K)*%
X145900000Y-66600000D03*
D30*
%TO.P,D72,2,A_2*%
%TO.N,/COL1*%
X138280000Y-66600000D03*
%TD*%
D29*
%TO.P,D165,1,K_1*%
%TO.N,Net-(D165-K)*%
X364700000Y-124300000D03*
D30*
%TO.P,D165,2,A_2*%
%TO.N,/COL13*%
X357080000Y-124300000D03*
%TD*%
D29*
%TO.P,D129,1,K_1*%
%TO.N,Net-(D129-K)*%
X294200000Y-104850000D03*
D30*
%TO.P,D129,2,A_2*%
%TO.N,/COL8*%
X286580000Y-104850000D03*
%TD*%
D29*
%TO.P,D115,1,K_1*%
%TO.N,Net-(D115-K)*%
X239050000Y-124350000D03*
D30*
%TO.P,D115,2,A_2*%
%TO.N,/COL6*%
X231430000Y-124350000D03*
%TD*%
D29*
%TO.P,D127,1,K_1*%
%TO.N,Net-(D127-K)*%
X279950000Y-66700000D03*
D30*
%TO.P,D127,2,A_2*%
%TO.N,/COL8*%
X272330000Y-66700000D03*
%TD*%
D29*
%TO.P,D66,1,K_1*%
%TO.N,Net-(D66-K)*%
X128800000Y-104900000D03*
D30*
%TO.P,D66,2,A_2*%
%TO.N,/COL0*%
X121180000Y-104900000D03*
%TD*%
D29*
%TO.P,D119,1,K_1*%
%TO.N,Net-(D119-K)*%
X251600000Y-47400000D03*
D30*
%TO.P,D119,2,A_2*%
%TO.N,/COL7*%
X243980000Y-47400000D03*
%TD*%
D29*
%TO.P,D83,1,K_1*%
%TO.N,Net-(D83-K)*%
X167500000Y-124100000D03*
D30*
%TO.P,D83,2,A_2*%
%TO.N,/COL2*%
X159880000Y-124100000D03*
%TD*%
D29*
%TO.P,D73,1,K_1*%
%TO.N,Net-(D73-K)*%
X150500000Y-85650000D03*
D30*
%TO.P,D73,2,A_2*%
%TO.N,/COL1*%
X142880000Y-85650000D03*
%TD*%
D29*
%TO.P,D161,1,K_1*%
%TO.N,Net-(D161-K)*%
X375850000Y-47350000D03*
D30*
%TO.P,D161,2,A_2*%
%TO.N,/COL13*%
X368230000Y-47350000D03*
%TD*%
D29*
%TO.P,D64,1,K_1*%
%TO.N,Net-(D64-K)*%
X121850000Y-66700000D03*
D30*
%TO.P,D64,2,A_2*%
%TO.N,/COL0*%
X114230000Y-66700000D03*
%TD*%
D29*
%TO.P,D122,1,K_1*%
%TO.N,Net-(D122-K)*%
X275100000Y-104900000D03*
D30*
%TO.P,D122,2,A_2*%
%TO.N,/COL7*%
X267480000Y-104900000D03*
%TD*%
D29*
%TO.P,D143,1,K_1*%
%TO.N,Net-(D143-K)*%
X332550000Y-104950000D03*
D30*
%TO.P,D143,2,A_2*%
%TO.N,/COL10*%
X324930000Y-104950000D03*
%TD*%
D29*
%TO.P,D80,1,K_1*%
%TO.N,Net-(D80-K)*%
X164950000Y-66550000D03*
D30*
%TO.P,D80,2,A_2*%
%TO.N,/COL2*%
X157330000Y-66550000D03*
%TD*%
D29*
%TO.P,D97,1,K_1*%
%TO.N,Net-(D97-K)*%
X208050000Y-85550000D03*
D30*
%TO.P,D97,2,A_2*%
%TO.N,/COL4*%
X200430000Y-85550000D03*
%TD*%
D29*
%TO.P,D120,1,K_1*%
%TO.N,Net-(D120-K)*%
X260750000Y-66550000D03*
D30*
%TO.P,D120,2,A_2*%
%TO.N,/COL7*%
X253130000Y-66550000D03*
%TD*%
D29*
%TO.P,D65,1,K_1*%
%TO.N,Net-(D65-K)*%
X124300000Y-85850000D03*
D30*
%TO.P,D65,2,A_2*%
%TO.N,/COL0*%
X116680000Y-85850000D03*
%TD*%
D29*
%TO.P,D63,1,K_1*%
%TO.N,Net-(D63-K)*%
X117200000Y-47450000D03*
D30*
%TO.P,D63,2,A_2*%
%TO.N,/COL0*%
X109580000Y-47450000D03*
%TD*%
D29*
%TO.P,D140,1,K_1*%
%TO.N,Net-(D140-K)*%
X308900000Y-47400000D03*
D30*
%TO.P,D140,2,A_2*%
%TO.N,/COL10*%
X301280000Y-47400000D03*
%TD*%
D29*
%TO.P,D74,1,K_1*%
%TO.N,Net-(D74-K)*%
X160000000Y-104950000D03*
D30*
%TO.P,D74,2,A_2*%
%TO.N,/COL1*%
X152380000Y-104950000D03*
%TD*%
D29*
%TO.P,D111,1,K_1*%
%TO.N,Net-(D111-K)*%
X232500000Y-47550000D03*
D30*
%TO.P,D111,2,A_2*%
%TO.N,/COL6*%
X224880000Y-47550000D03*
%TD*%
D29*
%TO.P,D89,1,K_1*%
%TO.N,Net-(D89-K)*%
X188850000Y-85450000D03*
D30*
%TO.P,D89,2,A_2*%
%TO.N,/COL3*%
X181230000Y-85450000D03*
%TD*%
D29*
%TO.P,D142,1,K_1*%
%TO.N,Net-(D142-K)*%
X322950000Y-85700000D03*
D30*
%TO.P,D142,2,A_2*%
%TO.N,/COL10*%
X315330000Y-85700000D03*
%TD*%
D29*
%TO.P,D82,1,K_1*%
%TO.N,Net-(D82-K)*%
X179200000Y-104950000D03*
D30*
%TO.P,D82,2,A_2*%
%TO.N,/COL2*%
X171580000Y-104950000D03*
%TD*%
D29*
%TO.P,D95,1,K_1*%
%TO.N,Net-(D95-K)*%
X194150000Y-47400000D03*
D30*
%TO.P,D95,2,A_2*%
%TO.N,/COL4*%
X186530000Y-47400000D03*
%TD*%
D29*
%TO.P,D87,1,K_1*%
%TO.N,Net-(D87-K)*%
X174800000Y-47050000D03*
D30*
%TO.P,D87,2,A_2*%
%TO.N,/COL3*%
X167180000Y-47050000D03*
%TD*%
D29*
%TO.P,D144,1,K_1*%
%TO.N,Net-(D144-K)*%
X310750000Y-124200000D03*
D30*
%TO.P,D144,2,A_2*%
%TO.N,/COL10*%
X303130000Y-124200000D03*
%TD*%
D29*
%TO.P,D121,1,K_1*%
%TO.N,Net-(D121-K)*%
X265500000Y-85600000D03*
D30*
%TO.P,D121,2,A_2*%
%TO.N,/COL7*%
X257880000Y-85600000D03*
%TD*%
D29*
%TO.P,D103,1,K_1*%
%TO.N,Net-(D103-K)*%
X213300000Y-47450000D03*
D30*
%TO.P,D103,2,A_2*%
%TO.N,/COL5*%
X205680000Y-47450000D03*
%TD*%
D29*
%TO.P,D133,1,K_1*%
%TO.N,Net-(D133-K)*%
X289950000Y-47450000D03*
D30*
%TO.P,D133,2,A_2*%
%TO.N,/COL9*%
X282330000Y-47450000D03*
%TD*%
D29*
%TO.P,D96,1,K_1*%
%TO.N,Net-(D96-K)*%
X203250000Y-66200000D03*
D30*
%TO.P,D96,2,A_2*%
%TO.N,/COL4*%
X195630000Y-66200000D03*
%TD*%
D29*
%TO.P,D98,1,K_1*%
%TO.N,Net-(D98-K)*%
X217500000Y-105350000D03*
D30*
%TO.P,D98,2,A_2*%
%TO.N,/COL4*%
X209880000Y-105350000D03*
%TD*%
D29*
%TO.P,D150,1,K_1*%
%TO.N,Net-(D150-K)*%
X369250000Y-104850000D03*
D30*
%TO.P,D150,2,A_2*%
%TO.N,/COL11*%
X361630000Y-104850000D03*
%TD*%
D29*
%TO.P,D148,1,K_1*%
%TO.N,Net-(D148-K)*%
X337400000Y-66550000D03*
D30*
%TO.P,D148,2,A_2*%
%TO.N,/COL11*%
X329780000Y-66550000D03*
%TD*%
D29*
%TO.P,D128,1,K_1*%
%TO.N,Net-(D128-K)*%
X284700000Y-85700000D03*
D30*
%TO.P,D128,2,A_2*%
%TO.N,/COL8*%
X277080000Y-85700000D03*
%TD*%
D29*
%TO.P,D106,1,K_1*%
%TO.N,Net-(D106-K)*%
X236600000Y-105050000D03*
D30*
%TO.P,D106,2,A_2*%
%TO.N,/COL5*%
X228980000Y-105050000D03*
%TD*%
D29*
%TO.P,D151,1,K_1*%
%TO.N,Net-(D151-K)*%
X335000000Y-124150000D03*
D30*
%TO.P,D151,2,A_2*%
%TO.N,/COL11*%
X327380000Y-124150000D03*
%TD*%
D29*
%TO.P,D162,1,K_1*%
%TO.N,Net-(D162-K)*%
X380500000Y-66500000D03*
D30*
%TO.P,D162,2,A_2*%
%TO.N,/COL13*%
X372880000Y-66500000D03*
%TD*%
D29*
%TO.P,D112,1,K_1*%
%TO.N,Net-(D112-K)*%
X241600000Y-66550000D03*
D30*
%TO.P,D112,2,A_2*%
%TO.N,/COL6*%
X233980000Y-66550000D03*
%TD*%
D29*
%TO.P,D114,1,K_1*%
%TO.N,Net-(D114-K)*%
X255850000Y-104850000D03*
D30*
%TO.P,D114,2,A_2*%
%TO.N,/COL6*%
X248230000Y-104850000D03*
%TD*%
D29*
%TO.P,D67,1,K_1*%
%TO.N,Net-(D67-K)*%
X125350000Y-124100000D03*
D30*
%TO.P,D67,2,A_2*%
%TO.N,/COL0*%
X117730000Y-124100000D03*
%TD*%
D29*
%TO.P,D126,1,K_1*%
%TO.N,Net-(D126-K)*%
X270750000Y-47450000D03*
D30*
%TO.P,D126,2,A_2*%
%TO.N,/COL8*%
X263130000Y-47450000D03*
%TD*%
D29*
%TO.P,D105,1,K_1*%
%TO.N,Net-(D105-K)*%
X227150000Y-85600000D03*
D30*
%TO.P,D105,2,A_2*%
%TO.N,/COL5*%
X219530000Y-85600000D03*
%TD*%
D29*
%TO.P,D136,1,K_1*%
%TO.N,Net-(D136-K)*%
X313350000Y-104900000D03*
D30*
%TO.P,D136,2,A_2*%
%TO.N,/COL9*%
X305730000Y-104900000D03*
%TD*%
D29*
%TO.P,D141,1,K_1*%
%TO.N,Net-(D141-K)*%
X318210000Y-66450000D03*
D30*
%TO.P,D141,2,A_2*%
%TO.N,/COL10*%
X310590000Y-66450000D03*
%TD*%
D29*
%TO.P,D156,1,K_1*%
%TO.N,Net-(D156-K)*%
X373400000Y-85700000D03*
D30*
%TO.P,D156,2,A_2*%
%TO.N,/COL12*%
X365780000Y-85700000D03*
%TD*%
D29*
%TO.P,D134,1,K_1*%
%TO.N,Net-(D134-K)*%
X299100000Y-66600000D03*
D30*
%TO.P,D134,2,A_2*%
%TO.N,/COL9*%
X291480000Y-66600000D03*
%TD*%
D29*
%TO.P,D88,1,K_1*%
%TO.N,Net-(D88-K)*%
X184150000Y-66500000D03*
D30*
%TO.P,D88,2,A_2*%
%TO.N,/COL3*%
X176530000Y-66500000D03*
%TD*%
D29*
%TO.P,D158,1,K_1*%
%TO.N,Net-(D158-K)*%
X388450000Y-124250000D03*
D30*
%TO.P,D158,2,A_2*%
%TO.N,/COL12*%
X380830000Y-124250000D03*
%TD*%
D29*
%TO.P,D104,1,K_1*%
%TO.N,Net-(D104-K)*%
X222360000Y-66550000D03*
D30*
%TO.P,D104,2,A_2*%
%TO.N,/COL5*%
X214740000Y-66550000D03*
%TD*%
D29*
%TO.P,D90,1,K_1*%
%TO.N,Net-(D90-K)*%
X198300000Y-104850000D03*
D30*
%TO.P,D90,2,A_2*%
%TO.N,/COL3*%
X190680000Y-104850000D03*
%TD*%
D29*
%TO.P,D149,1,K_1*%
%TO.N,Net-(D149-K)*%
X342150000Y-85700000D03*
D30*
%TO.P,D149,2,A_2*%
%TO.N,/COL11*%
X334530000Y-85700000D03*
%TD*%
D29*
%TO.P,D147,1,K_1*%
%TO.N,Net-(D147-K)*%
X328000000Y-47550000D03*
D30*
%TO.P,D147,2,A_2*%
%TO.N,/COL11*%
X320380000Y-47550000D03*
%TD*%
D31*
%TO.N,/ROW0*%
X190500000Y-37500000D03*
X184000000Y-38000000D03*
%TO.N,/ROW1*%
X191000000Y-38500000D03*
X184565687Y-38600000D03*
X174500000Y-37400000D03*
X176000000Y-38600000D03*
%TO.N,GND*%
X230000000Y-33500000D03*
X123500000Y-27500000D03*
X142500000Y-36500000D03*
X180500000Y-35000000D03*
X199500000Y-33500000D03*
X126500000Y-38000000D03*
X109500000Y-32000000D03*
X160500000Y-29000000D03*
X155500000Y-40500000D03*
X199000000Y-38000000D03*
X200500000Y-30000000D03*
X126000000Y-43000000D03*
X207000000Y-38000000D03*
X112000000Y-32000000D03*
X134000000Y-39500000D03*
X103500000Y-38500000D03*
X187000000Y-27500000D03*
X200500000Y-32000000D03*
X101000000Y-46500000D03*
X191500000Y-30600000D03*
X193350000Y-40000000D03*
%TO.N,/3.3V*%
X136500000Y-37500000D03*
X169000000Y-34400000D03*
X206000000Y-40000000D03*
X141000000Y-34400000D03*
X191000000Y-35200000D03*
X167000000Y-41000000D03*
X175500000Y-32600000D03*
X185500000Y-41000000D03*
X196200000Y-32781732D03*
X193850000Y-31750000D03*
X201500000Y-40000000D03*
X190500000Y-33000000D03*
X192500000Y-32600000D03*
X166000000Y-38900000D03*
%TO.N,Net-(U1-NRST)*%
X190100000Y-35500000D03*
X185000000Y-35500000D03*
%TO.N,/ROW2*%
X138500000Y-40900000D03*
X127500000Y-39500000D03*
X110500000Y-91500000D03*
X107000000Y-91500000D03*
%TO.N,/ROW3*%
X194000000Y-41400000D03*
X199500000Y-61500000D03*
X193500000Y-84500000D03*
X193500000Y-87000000D03*
X187500000Y-109000000D03*
X199500000Y-57500000D03*
%TO.N,/ROW4*%
X190500000Y-32000000D03*
%TO.N,/COL12*%
X349250000Y-105000000D03*
X353350000Y-100700000D03*
%TO.N,/COL13*%
X372400000Y-123250000D03*
X374200000Y-119900000D03*
%TO.N,/LED-DAISY*%
X107500000Y-45500000D03*
X196000000Y-36500000D03*
X107500000Y-49500000D03*
%TO.N,/D+*%
X195500000Y-35000000D03*
X185000000Y-36500000D03*
%TO.N,/D-*%
X197500000Y-34312500D03*
X185000000Y-37300003D03*
%TO.N,/COL3*%
X169500000Y-43500000D03*
X173500000Y-41000000D03*
%TO.N,/COL4*%
X186500000Y-40500000D03*
X186500000Y-44000000D03*
%TO.N,/COL5*%
X187500000Y-44000000D03*
X187500000Y-40500000D03*
%TO.N,/COL6*%
X188500000Y-44000000D03*
X188500000Y-40500000D03*
%TO.N,/COL7*%
X189500000Y-40500000D03*
X189500000Y-43500000D03*
%TO.N,Net-(U1-BOOT0)*%
X186000000Y-28000000D03*
X190500000Y-30000000D03*
%TO.N,/SCL*%
X195500000Y-34000000D03*
X135900000Y-33500000D03*
%TO.N,/SDA*%
X152000000Y-34000000D03*
X135500000Y-31000000D03*
X138500000Y-31000000D03*
X195000000Y-33000000D03*
%TO.N,+5V*%
X177500000Y-79000000D03*
X273000000Y-79000000D03*
X187275735Y-28275735D03*
X362500000Y-138500000D03*
X253500000Y-61500000D03*
X324000000Y-99500000D03*
X235000000Y-79000000D03*
X312500000Y-139000000D03*
X123500000Y-30500000D03*
X171500000Y-29500000D03*
X186075735Y-28924265D03*
X377000000Y-61500000D03*
X357500000Y-117000000D03*
X172000000Y-117500000D03*
X210500000Y-117500000D03*
X336500000Y-138500000D03*
X176000000Y-62000000D03*
X169500000Y-139500000D03*
X196500000Y-79000000D03*
X306000000Y-117500000D03*
X287500000Y-117500000D03*
X291000000Y-61500000D03*
X171500000Y-99500000D03*
X216000000Y-79000000D03*
X110000000Y-135500000D03*
X348500000Y-62000000D03*
X137000000Y-62000000D03*
X120000000Y-35600000D03*
X326000000Y-117500000D03*
X139500000Y-79000000D03*
X125000000Y-99500000D03*
X268500000Y-117500000D03*
X194500000Y-61500000D03*
X122000000Y-118000000D03*
X272500000Y-61500000D03*
X209500000Y-99500000D03*
X384000000Y-138500000D03*
X330500000Y-79000000D03*
X276000000Y-133500000D03*
X215500000Y-62000000D03*
X208500000Y-35500000D03*
X248000000Y-99500000D03*
X229000000Y-99500000D03*
X115000000Y-79000000D03*
X310500000Y-62000000D03*
X249000000Y-117000000D03*
X267000000Y-99500000D03*
X152499341Y-117499341D03*
X158000000Y-79000000D03*
X115160000Y-34400000D03*
X374000000Y-99500000D03*
X329500000Y-62000000D03*
X156500000Y-62000000D03*
X234000000Y-61500000D03*
X292000000Y-79000000D03*
X286500000Y-99500000D03*
X343500000Y-99500000D03*
X208000000Y-135000000D03*
X311500000Y-79000000D03*
X350000000Y-79000000D03*
X152000000Y-99500000D03*
X374000000Y-79000000D03*
X118500000Y-63000000D03*
X241500000Y-138500000D03*
X253500000Y-79000000D03*
X146000000Y-139500000D03*
X191500000Y-117500000D03*
X305000000Y-99500000D03*
X190000000Y-99500000D03*
X112000000Y-38900000D03*
X230000000Y-117000000D03*
%TO.N,Net-(J1-CC1)*%
X119000000Y-29500000D03*
X119000000Y-31500000D03*
%TO.N,Net-(J1-D+-PadA6)*%
X124500000Y-32000000D03*
X124500000Y-29500000D03*
X140500000Y-31400000D03*
%TO.N,Net-(J1-D--PadA7)*%
X138500000Y-35000000D03*
X122000000Y-35600000D03*
%TO.N,Net-(J1-CC2)*%
X111000000Y-36000000D03*
X115500000Y-36000000D03*
X112000000Y-36000000D03*
X113960000Y-36000000D03*
%TO.N,Net-(D39-DOUT)*%
X308500000Y-99000000D03*
X314500000Y-99000000D03*
%TO.N,Net-(D40-DOUT)*%
X332500000Y-99500000D03*
X326500000Y-99500000D03*
%TO.N,Net-(D23-DOUT)*%
X226000000Y-78500000D03*
X233000000Y-78500000D03*
%TO.N,Net-(D24-DOUT)*%
X214500000Y-78500000D03*
X206500000Y-78500000D03*
%TO.N,Net-(D37-DOUT)*%
X275500000Y-99000000D03*
X272000000Y-99000000D03*
%TO.N,Net-(D38-DOUT)*%
X296500000Y-99000000D03*
X290000000Y-99000000D03*
%TO.N,Net-(D18-DOUT)*%
X328000000Y-79500000D03*
X325500000Y-78500000D03*
%TO.N,Net-(D19-DOUT)*%
X301500000Y-78500000D03*
X310000000Y-78500000D03*
%TO.N,Net-(D21-DOUT)*%
X265500000Y-78500000D03*
X270000000Y-79000000D03*
%TO.N,/LED-ROW3-END*%
X245000000Y-78500000D03*
X251000000Y-78500000D03*
%TO.N,Net-(D48-DOUT)*%
X243000000Y-116500000D03*
X247000000Y-116500000D03*
%TO.N,Net-(D49-DOUT)*%
X222000000Y-117000000D03*
X228000000Y-117000000D03*
%TO.N,/LED-ROW5-END*%
X258000000Y-99000000D03*
X253500000Y-99000000D03*
%TO.N,/LED-ROW4-END*%
X113500000Y-83500000D03*
X113500000Y-89000000D03*
%TO.N,Net-(D30-DOUT)*%
X141500000Y-99000000D03*
X137500000Y-99000000D03*
%TO.N,Net-(D32-DOUT)*%
X174500000Y-99000000D03*
X180000000Y-99000000D03*
%TO.N,Net-(D33-DOUT)*%
X191500000Y-97500000D03*
X198000000Y-99000000D03*
%TO.N,Net-(D4-DOUT)*%
X163000000Y-61000000D03*
X167500000Y-61000000D03*
%TO.N,Net-(D5-DOUT)*%
X180500000Y-60500000D03*
X185500000Y-60500000D03*
%TO.N,Net-(D52-DOUT)*%
X164500000Y-117000000D03*
X170000000Y-117000000D03*
%TO.N,Net-(D53-DOUT)*%
X148500000Y-116500000D03*
X143000000Y-116500000D03*
%TO.N,/LED-ROW7-END*%
X207500000Y-117000000D03*
X202500000Y-117000000D03*
%TO.N,Net-(D51-DOUT)*%
X185000000Y-117000000D03*
X188500000Y-117000000D03*
%TO.N,Net-(D41-DOUT)*%
X360500000Y-99000000D03*
X350000000Y-99000000D03*
%TO.N,Net-(D16-DOUT)*%
X363000000Y-78500000D03*
X372000000Y-78500000D03*
%TO.N,Net-(D6-DOUT)*%
X203500000Y-61000000D03*
X200500000Y-60500000D03*
%TO.N,Net-(D7-DOUT)*%
X222000000Y-60000000D03*
X218500000Y-59500000D03*
%TO.N,Net-(D25-DOUT)*%
X188500000Y-78500000D03*
X193500000Y-78500000D03*
%TO.N,/LED-ROW1-END*%
X238000000Y-61000000D03*
X241500000Y-61000000D03*
%TO.N,Net-(D45-DOUT)*%
X302000000Y-117000000D03*
X299000000Y-117000000D03*
%TO.N,Net-(D46-DOUT)*%
X279500000Y-117000000D03*
X284500000Y-117000000D03*
%TO.N,Net-(D26-DOUT)*%
X174500000Y-78500000D03*
X168000000Y-78500000D03*
%TO.N,Net-(D35-DOUT)*%
X237500000Y-99000000D03*
X233000000Y-98000000D03*
%TO.N,/LED-ROW6-END*%
X351000000Y-117000000D03*
X340000000Y-117000000D03*
%TO.N,Net-(D17-DOUT)*%
X339500000Y-78500000D03*
X345500000Y-79000000D03*
%TO.N,Net-(D27-DOUT)*%
X151000000Y-78500000D03*
X155000000Y-78500000D03*
%TO.N,Net-(D20-DOUT)*%
X282000000Y-78500000D03*
X288500000Y-78500000D03*
%TO.N,Net-(D31-DOUT)*%
X156000000Y-99000000D03*
X162500000Y-99000000D03*
%TO.N,Net-(D12-DOUT)*%
X319000000Y-61500000D03*
X315500000Y-61000000D03*
%TO.N,Net-(D13-DOUT)*%
X333500000Y-60500000D03*
X337000000Y-61000000D03*
%TO.N,Net-(D10-DIN)*%
X261500000Y-61000000D03*
X258000000Y-61000000D03*
%TO.N,Net-(D10-DOUT)*%
X275500000Y-61000000D03*
X279500000Y-61000000D03*
%TO.N,Net-(D2-DOUT)*%
X126500000Y-60800000D03*
X124700000Y-60800000D03*
%TO.N,Net-(D34-DOUT)*%
X214000000Y-99000000D03*
X218500000Y-99000000D03*
%TO.N,Net-(D14-DOUT)*%
X367500000Y-61000000D03*
X364000000Y-61000000D03*
%TO.N,Net-(D44-DOUT)*%
X321500000Y-117000000D03*
X318500000Y-117000000D03*
%TO.N,Net-(D47-DOUT)*%
X261335953Y-116648107D03*
X266500000Y-117000000D03*
%TO.N,Net-(D28-DOUT)*%
X125500000Y-78500000D03*
X134500000Y-78500000D03*
%TO.N,Net-(D11-DOUT)*%
X298500000Y-61000000D03*
X295500000Y-60500000D03*
%TO.N,Net-(D3-DOUT)*%
X143500000Y-61000000D03*
X147000000Y-61000000D03*
%TD*%
%TO.N,/ROW0*%
D32*
X106000000Y-45000000D02*
X106000000Y-52000000D01*
X106000000Y-52000000D02*
X107110000Y-53110000D01*
X139500000Y-38000000D02*
X137000000Y-40500000D01*
X107110000Y-53110000D02*
X110840000Y-53110000D01*
X184000000Y-38000000D02*
X139500000Y-38000000D01*
X110840000Y-53110000D02*
X369462500Y-53110000D01*
X190587500Y-37412500D02*
X190500000Y-37500000D01*
X192587500Y-37412500D02*
X190587500Y-37412500D01*
X137000000Y-40500000D02*
X110500000Y-40500000D01*
X110500000Y-40500000D02*
X106000000Y-45000000D01*
%TO.N,/ROW1*%
X129500000Y-39100000D02*
X129500000Y-31000000D01*
X137500000Y-37500000D02*
X137600000Y-37400000D01*
X136500000Y-30500000D02*
X136500000Y-36500000D01*
X128500000Y-40100000D02*
X129500000Y-39100000D01*
X135500000Y-29500000D02*
X136500000Y-30500000D01*
X105500000Y-44934314D02*
X110334315Y-40100000D01*
X131000000Y-29500000D02*
X135500000Y-29500000D01*
X115490000Y-72260000D02*
X374190000Y-72260000D01*
X110334315Y-40100000D02*
X128500000Y-40100000D01*
X137600000Y-37400000D02*
X174500000Y-37400000D01*
X107260000Y-72260000D02*
X105500000Y-70500000D01*
X129500000Y-31000000D02*
X131000000Y-29500000D01*
X105500000Y-70500000D02*
X105500000Y-44934314D01*
X192587500Y-37912500D02*
X191587500Y-37912500D01*
X115490000Y-72260000D02*
X107260000Y-72260000D01*
X191587500Y-37912500D02*
X191000000Y-38500000D01*
X176000000Y-38600000D02*
X184565687Y-38600000D01*
X136500000Y-36500000D02*
X137500000Y-37500000D01*
%TO.N,GND*%
X191500000Y-30600000D02*
X191637500Y-30462500D01*
X200500000Y-32000000D02*
X200500000Y-30000000D01*
X193357410Y-36412500D02*
X193625000Y-36680090D01*
X193625000Y-38644910D02*
X193350001Y-38919909D01*
X114560000Y-37615000D02*
X114175000Y-38000000D01*
X193350001Y-38919909D02*
X193350000Y-40000000D01*
X194232410Y-30462500D02*
X194500000Y-30730090D01*
X200912500Y-33412500D02*
X202412500Y-33412500D01*
X192587500Y-36412500D02*
X193357410Y-36412500D01*
X199500000Y-33500000D02*
X199587500Y-33412500D01*
X202412500Y-33412500D02*
X204000000Y-35000000D01*
X199587500Y-33412500D02*
X200912500Y-33412500D01*
X191637500Y-30462500D02*
X194232410Y-30462500D01*
X114560000Y-32640000D02*
X114560000Y-37615000D01*
X180800000Y-30000000D02*
X180800000Y-32750000D01*
X193625000Y-36680090D02*
X193625000Y-38644910D01*
X199000000Y-39825000D02*
X199000000Y-38000000D01*
X194500000Y-30730090D02*
X194500000Y-31500000D01*
%TO.N,/3.3V*%
X192587500Y-36912500D02*
X192575000Y-36900000D01*
X192587500Y-32912500D02*
X192587500Y-32687500D01*
X214500000Y-27150000D02*
X215100000Y-27150000D01*
X141000000Y-34400000D02*
X141200000Y-34600000D01*
X190100000Y-40251471D02*
X190100000Y-40748529D01*
X166000000Y-40000000D02*
X166000000Y-38900000D01*
X224000000Y-33500000D02*
X227000000Y-36500000D01*
X224500000Y-40000000D02*
X206000000Y-40000000D01*
X190100000Y-40748529D02*
X189748529Y-41100000D01*
X205100000Y-30500000D02*
X205600000Y-30000000D01*
X206675000Y-27150000D02*
X208500000Y-27150000D01*
X227000000Y-37500000D02*
X224500000Y-40000000D01*
X219000000Y-27150000D02*
X223550000Y-27150000D01*
X131350000Y-36570000D02*
X132680000Y-37900000D01*
X219000000Y-27150000D02*
X219550000Y-27150000D01*
X192587500Y-32912500D02*
X191587500Y-32912500D01*
X132680000Y-37900000D02*
X136100000Y-37900000D01*
X136100000Y-37900000D02*
X136500000Y-37500000D01*
X199675000Y-40000000D02*
X199500000Y-39825000D01*
X192575000Y-36900000D02*
X190100000Y-36900000D01*
X208500000Y-27150000D02*
X214500000Y-27150000D01*
X224000000Y-29400000D02*
X224900000Y-28500000D01*
X192587500Y-32912500D02*
X190587500Y-32912500D01*
X215100000Y-27150000D02*
X216450000Y-28500000D01*
X167000000Y-41000000D02*
X166000000Y-40000000D01*
X203325000Y-30500000D02*
X206675000Y-27150000D01*
X168800000Y-34600000D02*
X169000000Y-34400000D01*
X189748529Y-41100000D02*
X185600000Y-41100000D01*
X200912500Y-32912500D02*
X217112500Y-32912500D01*
X200781732Y-32781732D02*
X196200000Y-32781732D01*
X227000000Y-36500000D02*
X227000000Y-37500000D01*
X200912500Y-32912500D02*
X203325000Y-30500000D01*
X223550000Y-27150000D02*
X224900000Y-28500000D01*
X191000000Y-33500000D02*
X191000000Y-35200000D01*
X203325000Y-30500000D02*
X205100000Y-30500000D01*
X189900000Y-40051471D02*
X190100000Y-40251471D01*
X175300000Y-32400000D02*
X175300000Y-30000000D01*
X190587500Y-32912500D02*
X190500000Y-33000000D01*
X175500000Y-32600000D02*
X175300000Y-32400000D01*
X192587500Y-32687500D02*
X192500000Y-32600000D01*
X210050000Y-28550000D02*
X210050000Y-30000000D01*
X200912500Y-32912500D02*
X200781732Y-32781732D01*
X191587500Y-32912500D02*
X191000000Y-33500000D01*
X208500000Y-27150000D02*
X208650000Y-27150000D01*
X185600000Y-41100000D02*
X185500000Y-41000000D01*
X219550000Y-27150000D02*
X220900000Y-28500000D01*
X224000000Y-33500000D02*
X224000000Y-29400000D01*
X189900000Y-37100000D02*
X189900000Y-40051471D01*
X201500000Y-40000000D02*
X199675000Y-40000000D01*
X214500000Y-27150000D02*
X219000000Y-27150000D01*
X190100000Y-36900000D02*
X189900000Y-37100000D01*
X141200000Y-34600000D02*
X168800000Y-34600000D01*
X208650000Y-27150000D02*
X210050000Y-28550000D01*
%TO.N,Net-(U1-NRST)*%
X184200000Y-34700000D02*
X185000000Y-35500000D01*
X190512500Y-35912500D02*
X192587500Y-35912500D01*
X184200000Y-30000000D02*
X184200000Y-34700000D01*
X182950000Y-33000000D02*
X184200000Y-34250000D01*
X190100000Y-35500000D02*
X190512500Y-35912500D01*
X184200000Y-34250000D02*
X184200000Y-34700000D01*
%TO.N,/ROW2*%
X191500000Y-39500000D02*
X191500000Y-40500000D01*
X192587500Y-38412500D02*
X191500000Y-39500000D01*
X105000000Y-44868630D02*
X110368629Y-39500000D01*
X107000000Y-91500000D02*
X106000000Y-91500000D01*
X110540000Y-91460000D02*
X110500000Y-91500000D01*
X139200000Y-41600000D02*
X138500000Y-40900000D01*
X117860000Y-91460000D02*
X110540000Y-91460000D01*
X191500000Y-40500000D02*
X190400000Y-41600000D01*
X117860000Y-91460000D02*
X367060000Y-91460000D01*
X110368629Y-39500000D02*
X127500000Y-39500000D01*
X106000000Y-91500000D02*
X105000000Y-90500000D01*
X105000000Y-90500000D02*
X105000000Y-44868630D01*
X190400000Y-41600000D02*
X139200000Y-41600000D01*
%TO.N,/ROW3*%
X120000000Y-109500000D02*
X120000000Y-110500000D01*
X175000000Y-110000000D02*
X173500000Y-108500000D01*
X120202500Y-110702500D02*
X122640000Y-110702500D01*
X121000000Y-108500000D02*
X120000000Y-109500000D01*
X355047500Y-110702500D02*
X355097500Y-110652500D01*
X120000000Y-110500000D02*
X120202500Y-110702500D01*
X199500000Y-57500000D02*
X199500000Y-61500000D01*
X122640000Y-110702500D02*
X355047500Y-110702500D01*
X156000000Y-110000000D02*
X154500000Y-108500000D01*
X123500000Y-108500000D02*
X121000000Y-108500000D01*
X170000000Y-110000000D02*
X156000000Y-110000000D01*
X154500000Y-108500000D02*
X153000000Y-108500000D01*
X153000000Y-108500000D02*
X151500000Y-110000000D01*
X173500000Y-108500000D02*
X171500000Y-108500000D01*
X125000000Y-110000000D02*
X123500000Y-108500000D01*
X187500000Y-109000000D02*
X186500000Y-110000000D01*
X194000000Y-39825000D02*
X194000000Y-41400000D01*
X193500000Y-84500000D02*
X193500000Y-87000000D01*
X355097500Y-110652500D02*
X362340000Y-110652500D01*
X186500000Y-110000000D02*
X175000000Y-110000000D01*
X171500000Y-108500000D02*
X170000000Y-110000000D01*
X151500000Y-110000000D02*
X125000000Y-110000000D01*
%TO.N,/ROW4*%
X113110000Y-129860000D02*
X376540000Y-129860000D01*
X193000000Y-32000000D02*
X190500000Y-32000000D01*
X194500000Y-33500000D02*
X193000000Y-32000000D01*
X194500000Y-39825000D02*
X194500000Y-33500000D01*
%TO.N,/COL0*%
X109580000Y-47450000D02*
X109580000Y-43920000D01*
X196000000Y-42000000D02*
X196500000Y-41500000D01*
X109580000Y-43920000D02*
X111500000Y-42000000D01*
X196500000Y-41500000D02*
X196500000Y-39825000D01*
X111500000Y-42000000D02*
X196000000Y-42000000D01*
%TO.N,/COL1*%
X128780000Y-43620000D02*
X130000000Y-42400000D01*
X196165686Y-42400000D02*
X197000000Y-41565686D01*
X197000000Y-41565686D02*
X197000000Y-39825000D01*
X128780000Y-47250000D02*
X128780000Y-43620000D01*
X130000000Y-42400000D02*
X196165686Y-42400000D01*
%TO.N,/COL2*%
X148700000Y-42800000D02*
X196331372Y-42800000D01*
X197500000Y-41631372D02*
X197500000Y-39825000D01*
X147930000Y-47300000D02*
X147930000Y-43570000D01*
X147930000Y-43570000D02*
X148700000Y-42800000D01*
X196331372Y-42800000D02*
X197500000Y-41631372D01*
%TO.N,/COL8*%
X198000000Y-42500000D02*
X198000000Y-39825000D01*
X262500000Y-43500000D02*
X199000000Y-43500000D01*
X263130000Y-44130000D02*
X262500000Y-43500000D01*
X199000000Y-43500000D02*
X198000000Y-42500000D01*
X263130000Y-47450000D02*
X263130000Y-44130000D01*
%TO.N,/COL9*%
X199165686Y-43100000D02*
X281600000Y-43100000D01*
X198500000Y-39825000D02*
X198500000Y-42434314D01*
X198500000Y-42434314D02*
X199165686Y-43100000D01*
X281600000Y-43100000D02*
X282330000Y-43830000D01*
X282330000Y-43830000D02*
X282330000Y-47450000D01*
%TO.N,/COL10*%
X203500000Y-42000000D02*
X204200000Y-42700000D01*
X301280000Y-43780000D02*
X301280000Y-47400000D01*
X204200000Y-42700000D02*
X300200000Y-42700000D01*
X300200000Y-42700000D02*
X301280000Y-43780000D01*
X200912500Y-38412500D02*
X202912500Y-38412500D01*
X203500000Y-39000000D02*
X203500000Y-42000000D01*
X202912500Y-38412500D02*
X203500000Y-39000000D01*
%TO.N,/COL11*%
X204000000Y-41500000D02*
X204800000Y-42300000D01*
X319300000Y-42300000D02*
X320380000Y-43380000D01*
X200912500Y-37912500D02*
X202978185Y-37912500D01*
X320380000Y-43380000D02*
X320380000Y-47550000D01*
X202978185Y-37912500D02*
X204000000Y-38934315D01*
X204800000Y-42300000D02*
X319300000Y-42300000D01*
X204000000Y-38934315D02*
X204000000Y-41500000D01*
%TO.N,/COL12*%
X353350000Y-100700000D02*
X349250000Y-104800000D01*
X204500000Y-41434314D02*
X204965686Y-41900000D01*
X349250000Y-104800000D02*
X349250000Y-105000000D01*
X203043870Y-37412500D02*
X204500000Y-38868630D01*
X200912500Y-37412500D02*
X203043870Y-37412500D01*
X204500000Y-38868630D02*
X204500000Y-41434314D01*
X339480000Y-43480000D02*
X339480000Y-47450000D01*
X337900000Y-41900000D02*
X339480000Y-43480000D01*
X204965686Y-41900000D02*
X337900000Y-41900000D01*
%TO.N,/COL13*%
X205000000Y-38500000D02*
X205000000Y-41000000D01*
X368230000Y-42730000D02*
X368230000Y-47350000D01*
X205000000Y-41000000D02*
X205500000Y-41500000D01*
X203412500Y-36912500D02*
X205000000Y-38500000D01*
X200912500Y-36912500D02*
X203412500Y-36912500D01*
X205500000Y-41500000D02*
X367000000Y-41500000D01*
X367000000Y-41500000D02*
X368230000Y-42730000D01*
X374200000Y-121450000D02*
X372400000Y-123250000D01*
X374200000Y-119900000D02*
X374200000Y-121450000D01*
%TO.N,/LED-DAISY*%
X107500000Y-49500000D02*
X107500000Y-45500000D01*
X196087500Y-36412500D02*
X200912500Y-36412500D01*
X196000000Y-36500000D02*
X196087500Y-36412500D01*
%TO.N,/D+*%
X195587500Y-34912500D02*
X200912500Y-34912500D01*
X177062499Y-36500000D02*
X185000000Y-36500000D01*
X173662499Y-33100000D02*
X177062499Y-36500000D01*
X195500000Y-35000000D02*
X195587500Y-34912500D01*
X173000000Y-33100000D02*
X173662499Y-33100000D01*
%TO.N,/D-*%
X174996813Y-35000000D02*
X177296817Y-37300003D01*
X173000000Y-35000000D02*
X174996813Y-35000000D01*
X197500000Y-34312500D02*
X197600000Y-34412500D01*
X197600000Y-34412500D02*
X200912500Y-34412500D01*
X177296817Y-37300003D02*
X185000000Y-37300003D01*
%TO.N,/COL3*%
X189000000Y-27400000D02*
X197097058Y-27400000D01*
X198500000Y-28802942D02*
X198500000Y-31500000D01*
X167180000Y-47050000D02*
X167180000Y-44320000D01*
X186000000Y-39500000D02*
X185000000Y-40500000D01*
X168000000Y-43500000D02*
X169500000Y-43500000D01*
X167180000Y-44320000D02*
X168000000Y-43500000D01*
X189000000Y-27400000D02*
X186000000Y-30400000D01*
X173500000Y-41000000D02*
X174000000Y-40500000D01*
X197097058Y-27400000D02*
X198500000Y-28802942D01*
X185000000Y-40500000D02*
X174000000Y-40500000D01*
X186000000Y-30400000D02*
X186000000Y-39500000D01*
%TO.N,/COL4*%
X196931372Y-27800000D02*
X198000000Y-28868628D01*
X186530000Y-44030000D02*
X186500000Y-44000000D01*
X189502945Y-27800000D02*
X196931372Y-27800000D01*
X198000000Y-28868628D02*
X198000000Y-31500000D01*
X186500000Y-40500000D02*
X186500000Y-30802945D01*
X186500000Y-30802945D02*
X189502945Y-27800000D01*
X186530000Y-47400000D02*
X186530000Y-44030000D01*
%TO.N,/COL5*%
X196765686Y-28200000D02*
X197500000Y-28934314D01*
X187500000Y-30368630D02*
X189668630Y-28200000D01*
X187500000Y-40500000D02*
X187500000Y-30368630D01*
X205680000Y-45680000D02*
X205000000Y-45000000D01*
X197500000Y-28934314D02*
X197500000Y-31500000D01*
X189668630Y-28200000D02*
X196765686Y-28200000D01*
X205000000Y-45000000D02*
X188500000Y-45000000D01*
X188500000Y-45000000D02*
X187500000Y-44000000D01*
X205680000Y-47450000D02*
X205680000Y-45680000D01*
%TO.N,/COL6*%
X224880000Y-44880000D02*
X224500000Y-44500000D01*
X189000000Y-44500000D02*
X188500000Y-44000000D01*
X196600000Y-28600000D02*
X197000000Y-29000000D01*
X224500000Y-44500000D02*
X189000000Y-44500000D01*
X188500000Y-40500000D02*
X188500000Y-29934314D01*
X224880000Y-47550000D02*
X224880000Y-44880000D01*
X188500000Y-29934314D02*
X189834315Y-28600000D01*
X197000000Y-29000000D02*
X197000000Y-31500000D01*
X189834315Y-28600000D02*
X196600000Y-28600000D01*
%TO.N,/COL7*%
X190000000Y-29000000D02*
X189500000Y-29500000D01*
X189500000Y-29500000D02*
X189500000Y-40500000D01*
X243980000Y-47400000D02*
X243980000Y-44480000D01*
X190000000Y-44000000D02*
X189500000Y-43500000D01*
X243500000Y-44000000D02*
X190000000Y-44000000D01*
X196000000Y-29000000D02*
X190000000Y-29000000D01*
X196500000Y-31500000D02*
X196500000Y-29500000D01*
X196500000Y-29500000D02*
X196000000Y-29000000D01*
X243980000Y-44480000D02*
X243500000Y-44000000D01*
%TO.N,Net-(U1-BOOT0)*%
X190500000Y-30000000D02*
X195500000Y-30000000D01*
X178700000Y-30800000D02*
X178500000Y-31000000D01*
X178500000Y-31000000D02*
X178500000Y-32675000D01*
X180000000Y-28000000D02*
X186000000Y-28000000D01*
X195500000Y-30000000D02*
X196000000Y-30500000D01*
X178700000Y-29300000D02*
X180000000Y-28000000D01*
X196000000Y-30500000D02*
X196000000Y-31500000D01*
X178700000Y-30000000D02*
X178700000Y-30800000D01*
%TO.N,/SCL*%
X195500000Y-32651471D02*
X195500000Y-31500000D01*
X195500000Y-34000000D02*
X195600000Y-33900000D01*
X195600000Y-33900000D02*
X195600000Y-32751471D01*
X135370000Y-34030000D02*
X135900000Y-33500000D01*
X195600000Y-32751471D02*
X195500000Y-32651471D01*
X131350000Y-34030000D02*
X135370000Y-34030000D01*
%TO.N,/SDA*%
X138500000Y-31000000D02*
X140000000Y-32500000D01*
X140000000Y-32500000D02*
X150500000Y-32500000D01*
X150500000Y-32500000D02*
X152000000Y-34000000D01*
X195000000Y-33000000D02*
X195000000Y-31500000D01*
X131350000Y-31490000D02*
X135010000Y-31490000D01*
X135010000Y-31490000D02*
X135500000Y-31000000D01*
%TO.N,+5V*%
D33*
X209500000Y-136500000D02*
X218000000Y-136500000D01*
X311500000Y-63000000D02*
X330500000Y-63000000D01*
X272500000Y-61500000D02*
X274000000Y-63000000D01*
D34*
X173000000Y-34050000D02*
X172434816Y-34050000D01*
D33*
X110500000Y-141500000D02*
X148000000Y-141500000D01*
D34*
X115360000Y-34200000D02*
X115160000Y-34400000D01*
D33*
X190000000Y-99500000D02*
X191500000Y-101000000D01*
X291000000Y-61500000D02*
X292500000Y-63000000D01*
X380019964Y-62519964D02*
X378000000Y-62519964D01*
X136000000Y-82500000D02*
X111500000Y-82500000D01*
X350000000Y-79000000D02*
X346500000Y-82500000D01*
X108000000Y-133500000D02*
X108000000Y-139000000D01*
X235000000Y-79000000D02*
X231500000Y-82500000D01*
X277500000Y-135000000D02*
X295500000Y-135000000D01*
X194500000Y-61500000D02*
X196000000Y-63000000D01*
X136117500Y-118882500D02*
X134000000Y-121000000D01*
X152000000Y-99500000D02*
X153500000Y-101000000D01*
X364000000Y-140000000D02*
X385500000Y-140000000D01*
X346500000Y-82500000D02*
X370500000Y-82500000D01*
X229000000Y-99500000D02*
X230500000Y-101000000D01*
X324000000Y-99500000D02*
X325500000Y-101000000D01*
X108000000Y-99500000D02*
X109500000Y-101000000D01*
X346500000Y-101000000D02*
X349500000Y-98000000D01*
X149000000Y-121000000D02*
X142000000Y-121000000D01*
X245000000Y-121000000D02*
X226000000Y-121000000D01*
X126500000Y-101000000D02*
X153500000Y-101000000D01*
X173000000Y-101000000D02*
X191500000Y-101000000D01*
X139500000Y-79000000D02*
X136000000Y-82500000D01*
X109500000Y-101000000D02*
X126500000Y-101000000D01*
X300500000Y-140000000D02*
X313500000Y-140000000D01*
X381000000Y-116500000D02*
X379000000Y-118500000D01*
X156500000Y-62000000D02*
X157500000Y-63000000D01*
X330500000Y-79000000D02*
X327000000Y-82500000D01*
X313500000Y-140000000D02*
X338000000Y-140000000D01*
X376000000Y-101500000D02*
X377500000Y-101500000D01*
D34*
X120160000Y-34000000D02*
X122060661Y-34000000D01*
D33*
X348500000Y-121000000D02*
X322500000Y-121000000D01*
X377500000Y-101500000D02*
X381000000Y-105000000D01*
X146000000Y-139500000D02*
X148000000Y-141500000D01*
X249000000Y-117000000D02*
X245000000Y-121000000D01*
X221500000Y-140000000D02*
X243000000Y-140000000D01*
X374000000Y-99500000D02*
X376000000Y-101500000D01*
X349500000Y-98000000D02*
X361000000Y-98000000D01*
D34*
X115360000Y-32640000D02*
X115360000Y-34200000D01*
D33*
X363080418Y-61282500D02*
X364317882Y-62519964D01*
X330500000Y-63000000D02*
X349500000Y-63000000D01*
X139882500Y-118882500D02*
X136117500Y-118882500D01*
X292500000Y-63000000D02*
X311500000Y-63000000D01*
X208000000Y-135000000D02*
X209500000Y-136500000D01*
D34*
X387500000Y-143500000D02*
X388500000Y-142500000D01*
D33*
X179000000Y-141500000D02*
X180500000Y-140000000D01*
X362500000Y-138500000D02*
X364000000Y-140000000D01*
X265000000Y-121000000D02*
X245000000Y-121000000D01*
X134000000Y-121000000D02*
X119000000Y-121000000D01*
X292000000Y-79000000D02*
X288500000Y-82500000D01*
X210500000Y-117500000D02*
X207000000Y-121000000D01*
X271500000Y-138000000D02*
X271500000Y-136500000D01*
D34*
X388500000Y-141000000D02*
X387500000Y-140000000D01*
D33*
X348500000Y-62000000D02*
X349500000Y-63000000D01*
X250000000Y-82500000D02*
X269500000Y-82500000D01*
D34*
X123500000Y-32560661D02*
X123500000Y-30500000D01*
D33*
X248000000Y-99500000D02*
X249500000Y-101000000D01*
X302500000Y-121000000D02*
X284000000Y-121000000D01*
X273000000Y-135000000D02*
X277500000Y-135000000D01*
X108000000Y-84000000D02*
X108000000Y-99500000D01*
X207000000Y-121000000D02*
X188000000Y-121000000D01*
X357500000Y-63000000D02*
X359217500Y-61282500D01*
X230500000Y-101000000D02*
X249500000Y-101000000D01*
X284000000Y-121000000D02*
X265000000Y-121000000D01*
X180500000Y-137500000D02*
X181500000Y-136500000D01*
X108000000Y-139000000D02*
X110500000Y-141500000D01*
X288000000Y-101000000D02*
X306500000Y-101000000D01*
D34*
X186075735Y-28924265D02*
X186627205Y-28924265D01*
D33*
X137000000Y-62000000D02*
X138000000Y-63000000D01*
D34*
X122060661Y-34000000D02*
X123500000Y-32560661D01*
D33*
X230000000Y-117000000D02*
X226000000Y-121000000D01*
X152499341Y-117499341D02*
X152499341Y-117500659D01*
X359500000Y-120500000D02*
X357500000Y-118500000D01*
X148000000Y-141500000D02*
X171500000Y-141500000D01*
X381000000Y-105000000D02*
X381000000Y-116500000D01*
X276000000Y-133500000D02*
X277500000Y-135000000D01*
X180500000Y-140000000D02*
X180500000Y-137500000D01*
X329500000Y-62000000D02*
X330500000Y-63000000D01*
X191500000Y-117500000D02*
X188000000Y-121000000D01*
X361000000Y-98000000D02*
X364500000Y-101500000D01*
X191500000Y-101000000D02*
X211000000Y-101000000D01*
D34*
X112000000Y-38900000D02*
X108600000Y-38900000D01*
X120160000Y-34000000D02*
X120160000Y-35440000D01*
D33*
X271500000Y-136500000D02*
X273000000Y-135000000D01*
X234000000Y-61500000D02*
X235500000Y-63000000D01*
D34*
X120160000Y-32640000D02*
X120160000Y-34000000D01*
D33*
X345000000Y-101000000D02*
X346500000Y-101000000D01*
X374000000Y-79000000D02*
X370500000Y-82500000D01*
X384000000Y-138500000D02*
X385500000Y-140000000D01*
X216500000Y-63000000D02*
X235500000Y-63000000D01*
X181500000Y-136500000D02*
X209500000Y-136500000D01*
X196000000Y-63000000D02*
X216500000Y-63000000D01*
D34*
X208500000Y-35500000D02*
X208800000Y-35800000D01*
D33*
X193000000Y-82500000D02*
X212500000Y-82500000D01*
X274000000Y-63000000D02*
X292500000Y-63000000D01*
X168500000Y-121000000D02*
X149000000Y-121000000D01*
X385500000Y-140000000D02*
X387500000Y-140000000D01*
X326000000Y-117500000D02*
X322500000Y-121000000D01*
X136000000Y-82500000D02*
X154500000Y-82500000D01*
X269500000Y-82500000D02*
X288500000Y-82500000D01*
X235500000Y-63000000D02*
X255000000Y-63000000D01*
X310500000Y-62000000D02*
X311500000Y-63000000D01*
X386000000Y-68500000D02*
X380019964Y-62519964D01*
X209500000Y-99500000D02*
X211000000Y-101000000D01*
X241500000Y-138500000D02*
X243000000Y-140000000D01*
X108000000Y-120000000D02*
X108000000Y-133500000D01*
X169500000Y-139500000D02*
X171500000Y-141500000D01*
X171500000Y-99500000D02*
X173000000Y-101000000D01*
X386000000Y-80500000D02*
X386000000Y-68500000D01*
D34*
X103500000Y-140500000D02*
X106500000Y-143500000D01*
D33*
X312500000Y-139000000D02*
X313500000Y-140000000D01*
X115000000Y-79000000D02*
X111500000Y-82500000D01*
X359217500Y-61282500D02*
X363080418Y-61282500D01*
X357500000Y-118500000D02*
X356000000Y-118500000D01*
X177000000Y-63000000D02*
X196000000Y-63000000D01*
X372000000Y-120500000D02*
X359500000Y-120500000D01*
D34*
X208800000Y-35800000D02*
X217700000Y-35800000D01*
D33*
X253500000Y-61500000D02*
X255000000Y-63000000D01*
D34*
X171887500Y-33502684D02*
X171887500Y-29887500D01*
D33*
X212500000Y-82500000D02*
X231500000Y-82500000D01*
X111500000Y-82500000D02*
X109500000Y-82500000D01*
X119000000Y-121000000D02*
X118000000Y-121000000D01*
X154500000Y-82500000D02*
X174000000Y-82500000D01*
D34*
X171887500Y-29887500D02*
X171500000Y-29500000D01*
D33*
X268500000Y-101000000D02*
X288000000Y-101000000D01*
X122000000Y-118000000D02*
X119000000Y-121000000D01*
X295500000Y-135000000D02*
X300500000Y-140000000D01*
X231500000Y-82500000D02*
X250000000Y-82500000D01*
X142000000Y-121000000D02*
X139882500Y-118882500D01*
X176000000Y-62000000D02*
X177000000Y-63000000D01*
X288500000Y-82500000D02*
X308000000Y-82500000D01*
X267000000Y-99500000D02*
X268500000Y-101000000D01*
X215500000Y-62000000D02*
X216500000Y-63000000D01*
X374000000Y-118500000D02*
X372000000Y-120500000D01*
X188000000Y-121000000D02*
X168500000Y-121000000D01*
X177500000Y-79000000D02*
X174000000Y-82500000D01*
X110000000Y-135500000D02*
X108000000Y-133500000D01*
X357500000Y-117000000D02*
X356000000Y-118500000D01*
X110000000Y-118000000D02*
X108000000Y-120000000D01*
X306000000Y-117500000D02*
X302500000Y-121000000D01*
X171500000Y-141500000D02*
X179000000Y-141500000D01*
D34*
X120160000Y-35440000D02*
X120000000Y-35600000D01*
D33*
X269500000Y-140000000D02*
X271500000Y-138000000D01*
X153500000Y-101000000D02*
X173000000Y-101000000D01*
D34*
X186627205Y-28924265D02*
X187275735Y-28275735D01*
D33*
X152499341Y-117500659D02*
X149000000Y-121000000D01*
X286500000Y-99500000D02*
X288000000Y-101000000D01*
X351000000Y-118500000D02*
X348500000Y-121000000D01*
X364500000Y-101500000D02*
X376000000Y-101500000D01*
X311500000Y-79000000D02*
X308000000Y-82500000D01*
X349500000Y-63000000D02*
X357500000Y-63000000D01*
X138000000Y-63000000D02*
X157500000Y-63000000D01*
D34*
X388500000Y-142500000D02*
X388500000Y-141000000D01*
D33*
X158000000Y-79000000D02*
X154500000Y-82500000D01*
X305000000Y-99500000D02*
X306500000Y-101000000D01*
X196500000Y-79000000D02*
X193000000Y-82500000D01*
X172000000Y-117500000D02*
X168500000Y-121000000D01*
X157500000Y-63000000D02*
X177000000Y-63000000D01*
X325500000Y-101000000D02*
X345000000Y-101000000D01*
X384000000Y-82500000D02*
X386000000Y-80500000D01*
X115000000Y-118000000D02*
X110000000Y-118000000D01*
X370500000Y-82500000D02*
X384000000Y-82500000D01*
X174000000Y-82500000D02*
X193000000Y-82500000D01*
X216000000Y-79000000D02*
X212500000Y-82500000D01*
X273000000Y-79000000D02*
X269500000Y-82500000D01*
X118500000Y-63000000D02*
X138000000Y-63000000D01*
D34*
X172434816Y-34050000D02*
X171887500Y-33502684D01*
D33*
X243000000Y-140000000D02*
X269500000Y-140000000D01*
X253500000Y-79000000D02*
X250000000Y-82500000D01*
X336500000Y-138500000D02*
X338000000Y-140000000D01*
X378000000Y-62500000D02*
X378000000Y-62519964D01*
X322500000Y-121000000D02*
X302500000Y-121000000D01*
X379000000Y-118500000D02*
X374000000Y-118500000D01*
X356000000Y-118500000D02*
X351000000Y-118500000D01*
D34*
X108600000Y-38900000D02*
X103500000Y-44000000D01*
D33*
X338000000Y-140000000D02*
X364000000Y-140000000D01*
X306500000Y-101000000D02*
X325500000Y-101000000D01*
X109500000Y-82500000D02*
X108000000Y-84000000D01*
X249500000Y-101000000D02*
X268500000Y-101000000D01*
X343500000Y-99500000D02*
X345000000Y-101000000D01*
X255000000Y-63000000D02*
X274000000Y-63000000D01*
X118000000Y-121000000D02*
X115000000Y-118000000D01*
X308000000Y-82500000D02*
X327000000Y-82500000D01*
X218000000Y-136500000D02*
X221500000Y-140000000D01*
D34*
X106500000Y-143500000D02*
X387500000Y-143500000D01*
D33*
X327000000Y-82500000D02*
X346500000Y-82500000D01*
X364317882Y-62519964D02*
X378000000Y-62519964D01*
X287500000Y-117500000D02*
X284000000Y-121000000D01*
D34*
X103500000Y-44000000D02*
X103500000Y-140500000D01*
D33*
X377000000Y-61500000D02*
X378000000Y-62500000D01*
X268500000Y-117500000D02*
X265000000Y-121000000D01*
X226000000Y-121000000D02*
X207000000Y-121000000D01*
X125000000Y-99500000D02*
X126500000Y-101000000D01*
X211000000Y-101000000D02*
X230500000Y-101000000D01*
%TO.N,Net-(J1-CC1)*%
D32*
X125500000Y-29000000D02*
X125000000Y-28500000D01*
X125500000Y-37000000D02*
X125500000Y-29000000D01*
X125000000Y-28500000D02*
X122831371Y-28500000D01*
X124100000Y-38400000D02*
X125500000Y-37000000D01*
X116225000Y-38400000D02*
X124100000Y-38400000D01*
X122231371Y-29100000D02*
X119400000Y-29100000D01*
X115825000Y-38000000D02*
X116225000Y-38400000D01*
X119400000Y-29100000D02*
X119000000Y-29500000D01*
X122831371Y-28500000D02*
X122231371Y-29100000D01*
X119000000Y-31500000D02*
X119000000Y-32630000D01*
%TO.N,Net-(J1-D+-PadA6)*%
X170725000Y-33100000D02*
X169025000Y-31400000D01*
X123500000Y-38000000D02*
X117500000Y-38000000D01*
X117500000Y-38000000D02*
X117000000Y-37500000D01*
X124500000Y-32000000D02*
X124500000Y-37000000D01*
X117010000Y-36490000D02*
X117010000Y-32640000D01*
X118010000Y-31490000D02*
X120000000Y-29500000D01*
X118010000Y-32640000D02*
X118010000Y-31490000D01*
X120000000Y-29500000D02*
X124500000Y-29500000D01*
X117000000Y-37500000D02*
X117000000Y-36500000D01*
X169025000Y-31400000D02*
X140500000Y-31400000D01*
X117000000Y-36500000D02*
X117010000Y-36490000D01*
X124500000Y-37000000D02*
X123500000Y-38000000D01*
%TO.N,Net-(J1-D--PadA7)*%
X119000000Y-37000000D02*
X118500000Y-37000000D01*
X117500000Y-36000000D02*
X117510000Y-35990000D01*
X117510000Y-35990000D02*
X117510000Y-32640000D01*
X120600000Y-37000000D02*
X119000000Y-37000000D01*
X118500000Y-37000000D02*
X117500000Y-36000000D01*
X118510000Y-36510000D02*
X119000000Y-37000000D01*
X118510000Y-32640000D02*
X118510000Y-36510000D01*
X170725000Y-35000000D02*
X138500000Y-35000000D01*
X122000000Y-35600000D02*
X120600000Y-37000000D01*
%TO.N,Net-(J1-CC2)*%
X116010000Y-32640000D02*
X116010000Y-35490000D01*
X109650000Y-36000000D02*
X109325000Y-36325000D01*
X111000000Y-36000000D02*
X109650000Y-36000000D01*
X116010000Y-35490000D02*
X115500000Y-36000000D01*
X113960000Y-36000000D02*
X112000000Y-36000000D01*
%TO.N,Net-(D39-DOUT)*%
X308500000Y-99000000D02*
X314500000Y-99000000D01*
%TO.N,Net-(D40-DOUT)*%
X326500000Y-99500000D02*
X332500000Y-99500000D01*
%TO.N,Net-(D23-DOUT)*%
X233000000Y-78500000D02*
X226000000Y-78500000D01*
%TO.N,Net-(D24-DOUT)*%
X214500000Y-78500000D02*
X206500000Y-78500000D01*
%TO.N,Net-(D37-DOUT)*%
X272000000Y-99000000D02*
X275500000Y-99000000D01*
%TO.N,Net-(D38-DOUT)*%
X290000000Y-99000000D02*
X296500000Y-99000000D01*
%TO.N,Net-(D18-DOUT)*%
X328000000Y-79500000D02*
X326500000Y-79500000D01*
X326500000Y-79500000D02*
X325500000Y-78500000D01*
%TO.N,Net-(D19-DOUT)*%
X310000000Y-78500000D02*
X301500000Y-78500000D01*
%TO.N,Net-(D21-DOUT)*%
X270000000Y-79000000D02*
X266000000Y-79000000D01*
X266000000Y-79000000D02*
X265500000Y-78500000D01*
%TO.N,/LED-ROW3-END*%
X251000000Y-78500000D02*
X245000000Y-78500000D01*
%TO.N,Net-(D48-DOUT)*%
X247000000Y-116500000D02*
X243000000Y-116500000D01*
%TO.N,Net-(D49-DOUT)*%
X228000000Y-117000000D02*
X222000000Y-117000000D01*
%TO.N,/LED-ROW5-END*%
X253500000Y-99000000D02*
X258000000Y-99000000D01*
%TO.N,/LED-ROW4-END*%
X113500000Y-83500000D02*
X113500000Y-89000000D01*
%TO.N,Net-(D30-DOUT)*%
X137500000Y-99000000D02*
X141500000Y-99000000D01*
%TO.N,Net-(D32-DOUT)*%
X174500000Y-99000000D02*
X180000000Y-99000000D01*
%TO.N,Net-(D33-DOUT)*%
X193000000Y-99000000D02*
X198000000Y-99000000D01*
X191500000Y-97500000D02*
X193000000Y-99000000D01*
%TO.N,Net-(D4-DOUT)*%
X163000000Y-61000000D02*
X167500000Y-61000000D01*
%TO.N,Net-(D5-DOUT)*%
X180500000Y-60500000D02*
X185500000Y-60500000D01*
%TO.N,Net-(D52-DOUT)*%
X170000000Y-117000000D02*
X164500000Y-117000000D01*
%TO.N,Net-(D53-DOUT)*%
X148500000Y-116500000D02*
X143000000Y-116500000D01*
%TO.N,/LED-ROW7-END*%
X207500000Y-117000000D02*
X202500000Y-117000000D01*
%TO.N,Net-(D51-DOUT)*%
X188500000Y-117000000D02*
X185000000Y-117000000D01*
%TO.N,Net-(D41-DOUT)*%
X350000000Y-99000000D02*
X360500000Y-99000000D01*
%TO.N,Net-(D16-DOUT)*%
X372000000Y-78500000D02*
X363000000Y-78500000D01*
%TO.N,Net-(D6-DOUT)*%
X203000000Y-60500000D02*
X203500000Y-61000000D01*
X200500000Y-60500000D02*
X203000000Y-60500000D01*
%TO.N,Net-(D7-DOUT)*%
X221500000Y-59500000D02*
X218500000Y-59500000D01*
X222000000Y-60000000D02*
X221500000Y-59500000D01*
%TO.N,Net-(D25-DOUT)*%
X193500000Y-78500000D02*
X188500000Y-78500000D01*
%TO.N,/LED-ROW1-END*%
X238000000Y-61000000D02*
X241500000Y-61000000D01*
%TO.N,Net-(D45-DOUT)*%
X302000000Y-117000000D02*
X299000000Y-117000000D01*
%TO.N,Net-(D46-DOUT)*%
X284500000Y-117000000D02*
X279500000Y-117000000D01*
%TO.N,Net-(D26-DOUT)*%
X174500000Y-78500000D02*
X168000000Y-78500000D01*
%TO.N,Net-(D35-DOUT)*%
X233000000Y-98000000D02*
X236500000Y-98000000D01*
X236500000Y-98000000D02*
X237500000Y-99000000D01*
%TO.N,/LED-ROW6-END*%
X351000000Y-117000000D02*
X340000000Y-117000000D01*
%TO.N,Net-(D17-DOUT)*%
X345000000Y-78500000D02*
X339500000Y-78500000D01*
X345500000Y-79000000D02*
X345000000Y-78500000D01*
%TO.N,Net-(D27-DOUT)*%
X155000000Y-78500000D02*
X151000000Y-78500000D01*
%TO.N,Net-(D20-DOUT)*%
X288500000Y-78500000D02*
X282000000Y-78500000D01*
%TO.N,Net-(D31-DOUT)*%
X156000000Y-99000000D02*
X162500000Y-99000000D01*
%TO.N,Net-(D12-DOUT)*%
X316000000Y-61500000D02*
X319000000Y-61500000D01*
X315500000Y-61000000D02*
X316000000Y-61500000D01*
%TO.N,Net-(D13-DOUT)*%
X334000000Y-61000000D02*
X337000000Y-61000000D01*
X333500000Y-60500000D02*
X334000000Y-61000000D01*
%TO.N,Net-(D10-DIN)*%
X258000000Y-61000000D02*
X261500000Y-61000000D01*
%TO.N,Net-(D10-DOUT)*%
X275500000Y-61000000D02*
X279500000Y-61000000D01*
%TO.N,Net-(D2-DOUT)*%
X124700000Y-60800000D02*
X126500000Y-60800000D01*
%TO.N,Net-(D34-DOUT)*%
X214000000Y-99000000D02*
X218500000Y-99000000D01*
%TO.N,Net-(D14-DOUT)*%
X364000000Y-61000000D02*
X367500000Y-61000000D01*
%TO.N,Net-(D44-DOUT)*%
X321500000Y-117000000D02*
X318500000Y-117000000D01*
%TO.N,Net-(D47-DOUT)*%
X266500000Y-117000000D02*
X266148107Y-116648107D01*
X266148107Y-116648107D02*
X261335953Y-116648107D01*
%TO.N,Net-(D28-DOUT)*%
X134500000Y-78500000D02*
X125500000Y-78500000D01*
%TO.N,Net-(D11-DOUT)*%
X296000000Y-61000000D02*
X298500000Y-61000000D01*
X295500000Y-60500000D02*
X296000000Y-61000000D01*
%TO.N,Net-(D3-DOUT)*%
X143500000Y-61000000D02*
X147000000Y-61000000D01*
%TD*%
%TA.AperFunction,Conductor*%
%TO.N,GND*%
G36*
X185644137Y-27070185D02*
G01*
X185689892Y-27122989D01*
X185699836Y-27192147D01*
X185670811Y-27255703D01*
X185624549Y-27289062D01*
X185620821Y-27290605D01*
X185620814Y-27290609D01*
X185489125Y-27378602D01*
X185422447Y-27399480D01*
X185420234Y-27399500D01*
X180086670Y-27399500D01*
X180086654Y-27399499D01*
X180079058Y-27399499D01*
X179920943Y-27399499D01*
X179844579Y-27419961D01*
X179768214Y-27440423D01*
X179768209Y-27440426D01*
X179631290Y-27519475D01*
X179631282Y-27519481D01*
X178537582Y-28613181D01*
X178476259Y-28646666D01*
X178449901Y-28649500D01*
X178202130Y-28649500D01*
X178202123Y-28649501D01*
X178142516Y-28655908D01*
X178007671Y-28706202D01*
X178007664Y-28706206D01*
X177892455Y-28792452D01*
X177892452Y-28792455D01*
X177806206Y-28907664D01*
X177806204Y-28907669D01*
X177755908Y-29042517D01*
X177749501Y-29102116D01*
X177749500Y-29102128D01*
X177749500Y-30897870D01*
X177749501Y-30897876D01*
X177755908Y-30957483D01*
X177806202Y-31092328D01*
X177806203Y-31092330D01*
X177874767Y-31183919D01*
X177899184Y-31249383D01*
X177899500Y-31258230D01*
X177899500Y-31783284D01*
X177879815Y-31850323D01*
X177839652Y-31889400D01*
X177789811Y-31919530D01*
X177669530Y-32039811D01*
X177581522Y-32185393D01*
X177530913Y-32347807D01*
X177524500Y-32418386D01*
X177524500Y-32931613D01*
X177530913Y-33002192D01*
X177530913Y-33002194D01*
X177530914Y-33002196D01*
X177581522Y-33164606D01*
X177669047Y-33309390D01*
X177669530Y-33310188D01*
X177789811Y-33430469D01*
X177789813Y-33430470D01*
X177789815Y-33430472D01*
X177935394Y-33518478D01*
X178097804Y-33569086D01*
X178168384Y-33575500D01*
X178168387Y-33575500D01*
X178831613Y-33575500D01*
X178831616Y-33575500D01*
X178902196Y-33569086D01*
X179064606Y-33518478D01*
X179210185Y-33430472D01*
X179330472Y-33310185D01*
X179418478Y-33164606D01*
X179469086Y-33002196D01*
X179475500Y-32931616D01*
X179475500Y-32418384D01*
X179469086Y-32347804D01*
X179418478Y-32185394D01*
X179330472Y-32039815D01*
X179330470Y-32039813D01*
X179330469Y-32039811D01*
X179210188Y-31919530D01*
X179160348Y-31889400D01*
X179113162Y-31837871D01*
X179100500Y-31783284D01*
X179100500Y-31472351D01*
X179120185Y-31405312D01*
X179172989Y-31359557D01*
X179211247Y-31349061D01*
X179257483Y-31344091D01*
X179392331Y-31293796D01*
X179507546Y-31207546D01*
X179593796Y-31092331D01*
X179644091Y-30957483D01*
X179650500Y-30897873D01*
X179650499Y-29250097D01*
X179670184Y-29183059D01*
X179686818Y-29162417D01*
X180212417Y-28636819D01*
X180273740Y-28603334D01*
X180300098Y-28600500D01*
X183288429Y-28600500D01*
X183355468Y-28620185D01*
X183401223Y-28672989D01*
X183411167Y-28742147D01*
X183387695Y-28798811D01*
X183306206Y-28907664D01*
X183306204Y-28907669D01*
X183255908Y-29042517D01*
X183249501Y-29102116D01*
X183249500Y-29102128D01*
X183249500Y-30897870D01*
X183249501Y-30897876D01*
X183255908Y-30957483D01*
X183306202Y-31092328D01*
X183306206Y-31092335D01*
X183392452Y-31207544D01*
X183392455Y-31207547D01*
X183507665Y-31293794D01*
X183507667Y-31293794D01*
X183507669Y-31293796D01*
X183518830Y-31297958D01*
X183574764Y-31339826D01*
X183599184Y-31405289D01*
X183599500Y-31414141D01*
X183599500Y-31695030D01*
X183579815Y-31762069D01*
X183527011Y-31807824D01*
X183457853Y-31817768D01*
X183436497Y-31812736D01*
X183352799Y-31785001D01*
X183352795Y-31785000D01*
X183250010Y-31774500D01*
X182649998Y-31774500D01*
X182649980Y-31774501D01*
X182547203Y-31785000D01*
X182547200Y-31785001D01*
X182380668Y-31840185D01*
X182380663Y-31840187D01*
X182231342Y-31932289D01*
X182107289Y-32056342D01*
X182015187Y-32205663D01*
X182015186Y-32205666D01*
X181960001Y-32372203D01*
X181960001Y-32372204D01*
X181960000Y-32372204D01*
X181949500Y-32474983D01*
X181949500Y-33525001D01*
X181949501Y-33525019D01*
X181960000Y-33627796D01*
X181960001Y-33627799D01*
X182015185Y-33794331D01*
X182015187Y-33794336D01*
X182030718Y-33819515D01*
X182107288Y-33943656D01*
X182231344Y-34067712D01*
X182380666Y-34159814D01*
X182547203Y-34214999D01*
X182649991Y-34225500D01*
X183250008Y-34225499D01*
X183260576Y-34224419D01*
X183329268Y-34237187D01*
X183360861Y-34260096D01*
X183563181Y-34462416D01*
X183596666Y-34523739D01*
X183599500Y-34550097D01*
X183599500Y-34613330D01*
X183599499Y-34613348D01*
X183599499Y-34779054D01*
X183599498Y-34779054D01*
X183602594Y-34790609D01*
X183640423Y-34931785D01*
X183663685Y-34972076D01*
X183719477Y-35068712D01*
X183719481Y-35068717D01*
X183838349Y-35187585D01*
X183838355Y-35187590D01*
X184165425Y-35514660D01*
X184198910Y-35575983D01*
X184199361Y-35578149D01*
X184230261Y-35733491D01*
X184232031Y-35739324D01*
X184229279Y-35740158D01*
X184235503Y-35797359D01*
X184204309Y-35859878D01*
X184144266Y-35895608D01*
X184113445Y-35899500D01*
X177362596Y-35899500D01*
X177295557Y-35879815D01*
X177274915Y-35863181D01*
X174150089Y-32738355D01*
X174150087Y-32738352D01*
X174140816Y-32729081D01*
X174118455Y-32696175D01*
X174118216Y-32696317D01*
X174115960Y-32692503D01*
X174114689Y-32690632D01*
X174114246Y-32689609D01*
X174114244Y-32689602D01*
X174113625Y-32688556D01*
X174030583Y-32548138D01*
X174030576Y-32548129D01*
X173914370Y-32431923D01*
X173914362Y-32431917D01*
X173813390Y-32372203D01*
X173772898Y-32348256D01*
X173772897Y-32348255D01*
X173772896Y-32348255D01*
X173772893Y-32348254D01*
X173615073Y-32302402D01*
X173615067Y-32302401D01*
X173578201Y-32299500D01*
X173578194Y-32299500D01*
X172762000Y-32299500D01*
X172694961Y-32279815D01*
X172649206Y-32227011D01*
X172638000Y-32175500D01*
X172638000Y-29813579D01*
X172622070Y-29733498D01*
X172622070Y-29733497D01*
X172609159Y-29668588D01*
X172574672Y-29585331D01*
X172552584Y-29532005D01*
X172510296Y-29468716D01*
X172510296Y-29468715D01*
X172470450Y-29409081D01*
X172470447Y-29409078D01*
X172247855Y-29186487D01*
X172246071Y-29184703D01*
X172219191Y-29144475D01*
X172209394Y-29120821D01*
X172196904Y-29102128D01*
X174349500Y-29102128D01*
X174349500Y-30897870D01*
X174349501Y-30897876D01*
X174355908Y-30957483D01*
X174406202Y-31092328D01*
X174406206Y-31092335D01*
X174492452Y-31207544D01*
X174492455Y-31207547D01*
X174607665Y-31293794D01*
X174607667Y-31293794D01*
X174607669Y-31293796D01*
X174618830Y-31297958D01*
X174674764Y-31339826D01*
X174699184Y-31405289D01*
X174699500Y-31414141D01*
X174699500Y-32313330D01*
X174699499Y-32313348D01*
X174699499Y-32479059D01*
X174700162Y-32484095D01*
X174699153Y-32515002D01*
X174700097Y-32515095D01*
X174699500Y-32521157D01*
X174699500Y-32678846D01*
X174730261Y-32833489D01*
X174730264Y-32833501D01*
X174790602Y-32979172D01*
X174790609Y-32979185D01*
X174878210Y-33110288D01*
X174878213Y-33110292D01*
X174989707Y-33221786D01*
X174989711Y-33221789D01*
X175120814Y-33309390D01*
X175120827Y-33309397D01*
X175225055Y-33352569D01*
X175266503Y-33369737D01*
X175420645Y-33400398D01*
X175421153Y-33400499D01*
X175421156Y-33400500D01*
X175421158Y-33400500D01*
X175578844Y-33400500D01*
X175578845Y-33400499D01*
X175733497Y-33369737D01*
X175848301Y-33322184D01*
X175879172Y-33309397D01*
X175879172Y-33309396D01*
X175879179Y-33309394D01*
X176010289Y-33221789D01*
X176121789Y-33110289D01*
X176209394Y-32979179D01*
X176269737Y-32833497D01*
X176300500Y-32678842D01*
X176300500Y-32521158D01*
X176300500Y-32521157D01*
X176300500Y-32521155D01*
X176300499Y-32521153D01*
X176299275Y-32515002D01*
X176269737Y-32366503D01*
X176262179Y-32348256D01*
X176209397Y-32220827D01*
X176209390Y-32220814D01*
X176121789Y-32089711D01*
X176121786Y-32089707D01*
X176010292Y-31978213D01*
X175955608Y-31941674D01*
X175910804Y-31888061D01*
X175900500Y-31838572D01*
X175900500Y-31414141D01*
X175920185Y-31347102D01*
X175972989Y-31301347D01*
X175981149Y-31297966D01*
X175992331Y-31293796D01*
X175996589Y-31290609D01*
X176070343Y-31235396D01*
X176107546Y-31207546D01*
X176193796Y-31092331D01*
X176244091Y-30957483D01*
X176250500Y-30897873D01*
X176250499Y-29102128D01*
X176244091Y-29042517D01*
X176239901Y-29031284D01*
X176193796Y-28907669D01*
X176193793Y-28907664D01*
X176107547Y-28792455D01*
X176107544Y-28792452D01*
X175992335Y-28706206D01*
X175992328Y-28706202D01*
X175857482Y-28655908D01*
X175857483Y-28655908D01*
X175797883Y-28649501D01*
X175797881Y-28649500D01*
X175797873Y-28649500D01*
X175797864Y-28649500D01*
X174802129Y-28649500D01*
X174802123Y-28649501D01*
X174742516Y-28655908D01*
X174607671Y-28706202D01*
X174607664Y-28706206D01*
X174492455Y-28792452D01*
X174492452Y-28792455D01*
X174406206Y-28907664D01*
X174406204Y-28907669D01*
X174355908Y-29042517D01*
X174349501Y-29102116D01*
X174349500Y-29102128D01*
X172196904Y-29102128D01*
X172188163Y-29089047D01*
X172121789Y-28989710D01*
X172010292Y-28878213D01*
X172010288Y-28878210D01*
X171879185Y-28790609D01*
X171879172Y-28790602D01*
X171733501Y-28730264D01*
X171733489Y-28730261D01*
X171578845Y-28699500D01*
X171578842Y-28699500D01*
X171421158Y-28699500D01*
X171421155Y-28699500D01*
X171266510Y-28730261D01*
X171266498Y-28730264D01*
X171120827Y-28790602D01*
X171120814Y-28790609D01*
X170989711Y-28878210D01*
X170989707Y-28878213D01*
X170878213Y-28989707D01*
X170878210Y-28989711D01*
X170790609Y-29120814D01*
X170790602Y-29120827D01*
X170730264Y-29266498D01*
X170730261Y-29266510D01*
X170699500Y-29421153D01*
X170699500Y-29578846D01*
X170730261Y-29733489D01*
X170730264Y-29733501D01*
X170790602Y-29879172D01*
X170790609Y-29879185D01*
X170878210Y-30010288D01*
X170878213Y-30010292D01*
X170989708Y-30121787D01*
X170989711Y-30121789D01*
X171081892Y-30183382D01*
X171126695Y-30236992D01*
X171137000Y-30286483D01*
X171137000Y-32175500D01*
X171117315Y-32242539D01*
X171064511Y-32288294D01*
X171013000Y-32299500D01*
X170825097Y-32299500D01*
X170758058Y-32279815D01*
X170737416Y-32263181D01*
X169512590Y-31038355D01*
X169512588Y-31038352D01*
X169393717Y-30919481D01*
X169393709Y-30919475D01*
X169277215Y-30852218D01*
X169277215Y-30852217D01*
X169277210Y-30852216D01*
X169270082Y-30848100D01*
X169256786Y-30840423D01*
X169187265Y-30821795D01*
X169104057Y-30799499D01*
X168945943Y-30799499D01*
X168938347Y-30799499D01*
X168938331Y-30799500D01*
X141079766Y-30799500D01*
X141012727Y-30779815D01*
X141010875Y-30778602D01*
X140879185Y-30690609D01*
X140879172Y-30690602D01*
X140733501Y-30630264D01*
X140733489Y-30630261D01*
X140578845Y-30599500D01*
X140578842Y-30599500D01*
X140421158Y-30599500D01*
X140421155Y-30599500D01*
X140266510Y-30630261D01*
X140266498Y-30630264D01*
X140120827Y-30690602D01*
X140120814Y-30690609D01*
X139989711Y-30778210D01*
X139989707Y-30778213D01*
X139878213Y-30889707D01*
X139878210Y-30889711D01*
X139790609Y-31020814D01*
X139790604Y-31020824D01*
X139738447Y-31146742D01*
X139694606Y-31201145D01*
X139628311Y-31223210D01*
X139560612Y-31205931D01*
X139536205Y-31186970D01*
X139334574Y-30985339D01*
X139301089Y-30924016D01*
X139300638Y-30921849D01*
X139276356Y-30799780D01*
X139269737Y-30766503D01*
X139269735Y-30766498D01*
X139209397Y-30620827D01*
X139209390Y-30620814D01*
X139121789Y-30489711D01*
X139121786Y-30489707D01*
X139010292Y-30378213D01*
X139010288Y-30378210D01*
X138879185Y-30290609D01*
X138879172Y-30290602D01*
X138733501Y-30230264D01*
X138733489Y-30230261D01*
X138578845Y-30199500D01*
X138578842Y-30199500D01*
X138421158Y-30199500D01*
X138421155Y-30199500D01*
X138266510Y-30230261D01*
X138266498Y-30230264D01*
X138120827Y-30290602D01*
X138120814Y-30290609D01*
X137989711Y-30378210D01*
X137989707Y-30378213D01*
X137878213Y-30489707D01*
X137878210Y-30489711D01*
X137790609Y-30620814D01*
X137790602Y-30620827D01*
X137730264Y-30766498D01*
X137730261Y-30766510D01*
X137699500Y-30921153D01*
X137699500Y-31078846D01*
X137730261Y-31233489D01*
X137730264Y-31233501D01*
X137790602Y-31379172D01*
X137790609Y-31379185D01*
X137878210Y-31510288D01*
X137878213Y-31510292D01*
X137989707Y-31621786D01*
X137989711Y-31621789D01*
X138120814Y-31709390D01*
X138120827Y-31709397D01*
X138266498Y-31769735D01*
X138266503Y-31769737D01*
X138331147Y-31782595D01*
X138421849Y-31800638D01*
X138483760Y-31833023D01*
X138485339Y-31834574D01*
X139515139Y-32864374D01*
X139515149Y-32864385D01*
X139519479Y-32868715D01*
X139519480Y-32868716D01*
X139631284Y-32980520D01*
X139631286Y-32980521D01*
X139631290Y-32980524D01*
X139768209Y-33059573D01*
X139768216Y-33059577D01*
X139880019Y-33089534D01*
X139920942Y-33100500D01*
X139920943Y-33100500D01*
X150199903Y-33100500D01*
X150266942Y-33120185D01*
X150287584Y-33136819D01*
X150938584Y-33787819D01*
X150972069Y-33849142D01*
X150967085Y-33918834D01*
X150925213Y-33974767D01*
X150859749Y-33999184D01*
X150850903Y-33999500D01*
X141761427Y-33999500D01*
X141694388Y-33979815D01*
X141658325Y-33944390D01*
X141621792Y-33889715D01*
X141621786Y-33889707D01*
X141510292Y-33778213D01*
X141510288Y-33778210D01*
X141379185Y-33690609D01*
X141379172Y-33690602D01*
X141233501Y-33630264D01*
X141233489Y-33630261D01*
X141078845Y-33599500D01*
X141078842Y-33599500D01*
X140921158Y-33599500D01*
X140921155Y-33599500D01*
X140766510Y-33630261D01*
X140766498Y-33630264D01*
X140620827Y-33690602D01*
X140620814Y-33690609D01*
X140489711Y-33778210D01*
X140489707Y-33778213D01*
X140378213Y-33889707D01*
X140378210Y-33889711D01*
X140290609Y-34020814D01*
X140290602Y-34020827D01*
X140230264Y-34166498D01*
X140230261Y-34166508D01*
X140203769Y-34299692D01*
X140171384Y-34361603D01*
X140110668Y-34396177D01*
X140082152Y-34399500D01*
X139079766Y-34399500D01*
X139012727Y-34379815D01*
X139010875Y-34378602D01*
X138879185Y-34290609D01*
X138879172Y-34290602D01*
X138733501Y-34230264D01*
X138733489Y-34230261D01*
X138578845Y-34199500D01*
X138578842Y-34199500D01*
X138421158Y-34199500D01*
X138421155Y-34199500D01*
X138266510Y-34230261D01*
X138266498Y-34230264D01*
X138120827Y-34290602D01*
X138120814Y-34290609D01*
X137989711Y-34378210D01*
X137989707Y-34378213D01*
X137878213Y-34489707D01*
X137878210Y-34489711D01*
X137790609Y-34620814D01*
X137790602Y-34620827D01*
X137730264Y-34766498D01*
X137730261Y-34766510D01*
X137699500Y-34921153D01*
X137699500Y-35078846D01*
X137730261Y-35233489D01*
X137730264Y-35233501D01*
X137790602Y-35379172D01*
X137790609Y-35379185D01*
X137878210Y-35510288D01*
X137878213Y-35510292D01*
X137989707Y-35621786D01*
X137989711Y-35621789D01*
X138120814Y-35709390D01*
X138120827Y-35709397D01*
X138223066Y-35751745D01*
X138266503Y-35769737D01*
X138405367Y-35797359D01*
X138421153Y-35800499D01*
X138421156Y-35800500D01*
X138421158Y-35800500D01*
X138578844Y-35800500D01*
X138578845Y-35800499D01*
X138733497Y-35769737D01*
X138879179Y-35709394D01*
X138886970Y-35704188D01*
X139010875Y-35621398D01*
X139077553Y-35600520D01*
X139079766Y-35600500D01*
X169691692Y-35600500D01*
X169758731Y-35620185D01*
X169779374Y-35636820D01*
X169810629Y-35668076D01*
X169810633Y-35668079D01*
X169810635Y-35668081D01*
X169952102Y-35751744D01*
X169993724Y-35763836D01*
X170109926Y-35797597D01*
X170109929Y-35797597D01*
X170109931Y-35797598D01*
X170146806Y-35800500D01*
X170146814Y-35800500D01*
X171303186Y-35800500D01*
X171303194Y-35800500D01*
X171340069Y-35797598D01*
X171340071Y-35797597D01*
X171340073Y-35797597D01*
X171381691Y-35785505D01*
X171497898Y-35751744D01*
X171639365Y-35668081D01*
X171755581Y-35551865D01*
X171755767Y-35551549D01*
X171755977Y-35551353D01*
X171760361Y-35545702D01*
X171761272Y-35546409D01*
X171806836Y-35503866D01*
X171875577Y-35491362D01*
X171940167Y-35518006D01*
X171964355Y-35545921D01*
X171964639Y-35545702D01*
X171968679Y-35550911D01*
X171969232Y-35551548D01*
X171969419Y-35551865D01*
X171969421Y-35551867D01*
X171969423Y-35551870D01*
X172085629Y-35668076D01*
X172085633Y-35668079D01*
X172085635Y-35668081D01*
X172227102Y-35751744D01*
X172268724Y-35763836D01*
X172384926Y-35797597D01*
X172384929Y-35797597D01*
X172384931Y-35797598D01*
X172421806Y-35800500D01*
X172421814Y-35800500D01*
X173578186Y-35800500D01*
X173578194Y-35800500D01*
X173615069Y-35797598D01*
X173615071Y-35797597D01*
X173615073Y-35797597D01*
X173656691Y-35785505D01*
X173772898Y-35751744D01*
X173914365Y-35668081D01*
X173945626Y-35636820D01*
X174006948Y-35603334D01*
X174033308Y-35600500D01*
X174696716Y-35600500D01*
X174763755Y-35620185D01*
X174784397Y-35636819D01*
X175646973Y-36499395D01*
X176335398Y-37187819D01*
X176368883Y-37249142D01*
X176363899Y-37318834D01*
X176322027Y-37374767D01*
X176256563Y-37399184D01*
X176247717Y-37399500D01*
X175417848Y-37399500D01*
X175350809Y-37379815D01*
X175305054Y-37327011D01*
X175296231Y-37299692D01*
X175269738Y-37166508D01*
X175269737Y-37166507D01*
X175269737Y-37166503D01*
X175268079Y-37162500D01*
X175209397Y-37020827D01*
X175209390Y-37020814D01*
X175121789Y-36889711D01*
X175121786Y-36889707D01*
X175010292Y-36778213D01*
X175010288Y-36778210D01*
X174879185Y-36690609D01*
X174879172Y-36690602D01*
X174733501Y-36630264D01*
X174733489Y-36630261D01*
X174578845Y-36599500D01*
X174578842Y-36599500D01*
X174421158Y-36599500D01*
X174421155Y-36599500D01*
X174266510Y-36630261D01*
X174266498Y-36630264D01*
X174120827Y-36690602D01*
X174120814Y-36690609D01*
X173989125Y-36778602D01*
X173922447Y-36799480D01*
X173920234Y-36799500D01*
X137700098Y-36799500D01*
X137633059Y-36779815D01*
X137612417Y-36763181D01*
X137136819Y-36287583D01*
X137103334Y-36226260D01*
X137100500Y-36199902D01*
X137100500Y-30589060D01*
X137100501Y-30589047D01*
X137100501Y-30420944D01*
X137095934Y-30403900D01*
X137059577Y-30268216D01*
X137042388Y-30238443D01*
X136980524Y-30131290D01*
X136980518Y-30131282D01*
X136486280Y-29637044D01*
X135987589Y-29138354D01*
X135987588Y-29138352D01*
X135868717Y-29019481D01*
X135868709Y-29019475D01*
X135780789Y-28968715D01*
X135780788Y-28968715D01*
X135760077Y-28956757D01*
X135731785Y-28940423D01*
X135579057Y-28899499D01*
X135420943Y-28899499D01*
X135413347Y-28899499D01*
X135413331Y-28899500D01*
X130920939Y-28899500D01*
X130890454Y-28907668D01*
X130890455Y-28907669D01*
X130768214Y-28940423D01*
X130768209Y-28940426D01*
X130631290Y-29019475D01*
X130631282Y-29019481D01*
X129019479Y-30631284D01*
X128995402Y-30672989D01*
X128980096Y-30699500D01*
X128974386Y-30709390D01*
X128941409Y-30766508D01*
X128940423Y-30768215D01*
X128899499Y-30920943D01*
X128899499Y-30920945D01*
X128899499Y-31089046D01*
X128899500Y-31089059D01*
X128899500Y-38799902D01*
X128879815Y-38866941D01*
X128863181Y-38887583D01*
X128463793Y-39286970D01*
X128402470Y-39320455D01*
X128332778Y-39315471D01*
X128276845Y-39273599D01*
X128261551Y-39246741D01*
X128209397Y-39120826D01*
X128209390Y-39120814D01*
X128121789Y-38989711D01*
X128121786Y-38989707D01*
X128010292Y-38878213D01*
X128010288Y-38878210D01*
X127879185Y-38790609D01*
X127879172Y-38790602D01*
X127733501Y-38730264D01*
X127733489Y-38730261D01*
X127578845Y-38699500D01*
X127578842Y-38699500D01*
X127421158Y-38699500D01*
X127421155Y-38699500D01*
X127266510Y-38730261D01*
X127266498Y-38730264D01*
X127120827Y-38790602D01*
X127120814Y-38790609D01*
X126989125Y-38878602D01*
X126922447Y-38899480D01*
X126920234Y-38899500D01*
X124749096Y-38899500D01*
X124682057Y-38879815D01*
X124636302Y-38827011D01*
X124626358Y-38757853D01*
X124655383Y-38694297D01*
X124661415Y-38687819D01*
X125259523Y-38089711D01*
X125858506Y-37490728D01*
X125858511Y-37490724D01*
X125868714Y-37480520D01*
X125868716Y-37480520D01*
X125980520Y-37368716D01*
X126037665Y-37269737D01*
X126059577Y-37231785D01*
X126100501Y-37079057D01*
X126100501Y-36920943D01*
X126100501Y-36913348D01*
X126100500Y-36913330D01*
X126100500Y-29089060D01*
X126100501Y-29089047D01*
X126100501Y-28920944D01*
X126092746Y-28892002D01*
X126059577Y-28768216D01*
X126052388Y-28755764D01*
X125980524Y-28631290D01*
X125980518Y-28631282D01*
X125368717Y-28019481D01*
X125368716Y-28019480D01*
X125264960Y-27959577D01*
X125264959Y-27959576D01*
X125231783Y-27940422D01*
X125175881Y-27925443D01*
X125079057Y-27899499D01*
X124920943Y-27899499D01*
X124913347Y-27899499D01*
X124913331Y-27899500D01*
X122752314Y-27899500D01*
X122599585Y-27940423D01*
X122566411Y-27959577D01*
X122566410Y-27959577D01*
X122462658Y-28019477D01*
X122462653Y-28019481D01*
X122350851Y-28131284D01*
X122350849Y-28131286D01*
X122169720Y-28312416D01*
X122018955Y-28463181D01*
X121957632Y-28496666D01*
X121931274Y-28499500D01*
X119320941Y-28499500D01*
X119284621Y-28509231D01*
X119284622Y-28509232D01*
X119168214Y-28540423D01*
X119168209Y-28540426D01*
X119031290Y-28619475D01*
X119031282Y-28619481D01*
X118985336Y-28665427D01*
X118924013Y-28698911D01*
X118921848Y-28699362D01*
X118766508Y-28730261D01*
X118766498Y-28730264D01*
X118620827Y-28790602D01*
X118620814Y-28790609D01*
X118489711Y-28878210D01*
X118489707Y-28878213D01*
X118378213Y-28989707D01*
X118378210Y-28989711D01*
X118290609Y-29120814D01*
X118290602Y-29120827D01*
X118230264Y-29266498D01*
X118230261Y-29266510D01*
X118199500Y-29421153D01*
X118199500Y-29578846D01*
X118230261Y-29733489D01*
X118230264Y-29733501D01*
X118290602Y-29879172D01*
X118290609Y-29879185D01*
X118378210Y-30010288D01*
X118378213Y-30010292D01*
X118421661Y-30053740D01*
X118455146Y-30115063D01*
X118450162Y-30184755D01*
X118421661Y-30229102D01*
X117644794Y-31005969D01*
X117644788Y-31005975D01*
X117641286Y-31009478D01*
X117641284Y-31009480D01*
X117529480Y-31121284D01*
X117499185Y-31173757D01*
X117493529Y-31183552D01*
X117493529Y-31183553D01*
X117450423Y-31258213D01*
X117409571Y-31410674D01*
X117373205Y-31470335D01*
X117310358Y-31500863D01*
X117305985Y-31501519D01*
X117300040Y-31502301D01*
X117284764Y-31504313D01*
X117284762Y-31504313D01*
X117276711Y-31505374D01*
X117276319Y-31502399D01*
X117243684Y-31502399D01*
X117243292Y-31505374D01*
X117235237Y-31504313D01*
X117235236Y-31504313D01*
X117206271Y-31500499D01*
X117122727Y-31489500D01*
X117122720Y-31489500D01*
X116897280Y-31489500D01*
X116897272Y-31489500D01*
X116810969Y-31500863D01*
X116784764Y-31504313D01*
X116784762Y-31504313D01*
X116776708Y-31505374D01*
X116776316Y-31502399D01*
X116743684Y-31502399D01*
X116743292Y-31505374D01*
X116735237Y-31504313D01*
X116735236Y-31504313D01*
X116706271Y-31500499D01*
X116622727Y-31489500D01*
X116622720Y-31489500D01*
X116397280Y-31489500D01*
X116397272Y-31489500D01*
X116310969Y-31500863D01*
X116284764Y-31504313D01*
X116284762Y-31504313D01*
X116276708Y-31505374D01*
X116276316Y-31502399D01*
X116243684Y-31502399D01*
X116243292Y-31505374D01*
X116235237Y-31504313D01*
X116235236Y-31504313D01*
X116206271Y-31500499D01*
X116122727Y-31489500D01*
X116122720Y-31489500D01*
X115897280Y-31489500D01*
X115897272Y-31489500D01*
X115784766Y-31504312D01*
X115782026Y-31505446D01*
X115770905Y-31510053D01*
X115701438Y-31517521D01*
X115688865Y-31514568D01*
X115641692Y-31500863D01*
X115612570Y-31492402D01*
X115612567Y-31492401D01*
X115575701Y-31489500D01*
X115575694Y-31489500D01*
X115558136Y-31489500D01*
X115491097Y-31469815D01*
X115445342Y-31417011D01*
X115438363Y-31397600D01*
X115406281Y-31277865D01*
X115330515Y-31146635D01*
X115223365Y-31039485D01*
X115142631Y-30992873D01*
X115092136Y-30963719D01*
X115017258Y-30943656D01*
X114945766Y-30924500D01*
X114794234Y-30924500D01*
X114647863Y-30963719D01*
X114516635Y-31039485D01*
X114516632Y-31039487D01*
X114409487Y-31146632D01*
X114409485Y-31146635D01*
X114333719Y-31277863D01*
X114303266Y-31391517D01*
X114294500Y-31424234D01*
X114294500Y-31575766D01*
X114306831Y-31621786D01*
X114333719Y-31722136D01*
X114336501Y-31726954D01*
X114409485Y-31853365D01*
X114409487Y-31853367D01*
X114522382Y-31966262D01*
X114520333Y-31968310D01*
X114553300Y-32013476D01*
X114560222Y-32065120D01*
X114559500Y-32074296D01*
X114559500Y-33205701D01*
X114562401Y-33242567D01*
X114562402Y-33242573D01*
X114604576Y-33387733D01*
X114609500Y-33422328D01*
X114609500Y-33767059D01*
X114589815Y-33834098D01*
X114573181Y-33854740D01*
X114538213Y-33889707D01*
X114538210Y-33889711D01*
X114450609Y-34020814D01*
X114450602Y-34020827D01*
X114390264Y-34166498D01*
X114390261Y-34166510D01*
X114359500Y-34321153D01*
X114359500Y-34478846D01*
X114390261Y-34633489D01*
X114390264Y-34633501D01*
X114450602Y-34779172D01*
X114450609Y-34779185D01*
X114538210Y-34910288D01*
X114538213Y-34910292D01*
X114649707Y-35021786D01*
X114649711Y-35021789D01*
X114780814Y-35109390D01*
X114780827Y-35109397D01*
X114909031Y-35162500D01*
X114926503Y-35169737D01*
X114926507Y-35169737D01*
X114932335Y-35171506D01*
X114931920Y-35172873D01*
X114987478Y-35201926D01*
X115022061Y-35262637D01*
X115018330Y-35332407D01*
X114989070Y-35378851D01*
X114878209Y-35489711D01*
X114833102Y-35557220D01*
X114779489Y-35602025D01*
X114710164Y-35610732D01*
X114647137Y-35580577D01*
X114626898Y-35557220D01*
X114581789Y-35489711D01*
X114581786Y-35489707D01*
X114470292Y-35378213D01*
X114470288Y-35378210D01*
X114339185Y-35290609D01*
X114339172Y-35290602D01*
X114193501Y-35230264D01*
X114193489Y-35230261D01*
X114038845Y-35199500D01*
X114038842Y-35199500D01*
X113881158Y-35199500D01*
X113881155Y-35199500D01*
X113726510Y-35230261D01*
X113726498Y-35230264D01*
X113580827Y-35290602D01*
X113580814Y-35290609D01*
X113449125Y-35378602D01*
X113382447Y-35399480D01*
X113380234Y-35399500D01*
X112579766Y-35399500D01*
X112512727Y-35379815D01*
X112510875Y-35378602D01*
X112379185Y-35290609D01*
X112379172Y-35290602D01*
X112233501Y-35230264D01*
X112233489Y-35230261D01*
X112078845Y-35199500D01*
X112078842Y-35199500D01*
X111921158Y-35199500D01*
X111921155Y-35199500D01*
X111766510Y-35230261D01*
X111766498Y-35230264D01*
X111620827Y-35290602D01*
X111620814Y-35290609D01*
X111568891Y-35325304D01*
X111502214Y-35346182D01*
X111434833Y-35327698D01*
X111431109Y-35325304D01*
X111379185Y-35290609D01*
X111379172Y-35290602D01*
X111233501Y-35230264D01*
X111233489Y-35230261D01*
X111078845Y-35199500D01*
X111078842Y-35199500D01*
X110921158Y-35199500D01*
X110921155Y-35199500D01*
X110766510Y-35230261D01*
X110766498Y-35230264D01*
X110620827Y-35290602D01*
X110620814Y-35290609D01*
X110489125Y-35378602D01*
X110422447Y-35399480D01*
X110420234Y-35399500D01*
X109570941Y-35399500D01*
X109530800Y-35410255D01*
X109530801Y-35410256D01*
X109493410Y-35420275D01*
X109461316Y-35424500D01*
X108993384Y-35424500D01*
X108974145Y-35426248D01*
X108922807Y-35430913D01*
X108760393Y-35481522D01*
X108614811Y-35569530D01*
X108494530Y-35689811D01*
X108406522Y-35835393D01*
X108355913Y-35997807D01*
X108351393Y-36047550D01*
X108349500Y-36068384D01*
X108349500Y-36581616D01*
X108351125Y-36599500D01*
X108355913Y-36652192D01*
X108355913Y-36652194D01*
X108355914Y-36652196D01*
X108406522Y-36814606D01*
X108480149Y-36936400D01*
X108494530Y-36960188D01*
X108614811Y-37080469D01*
X108614813Y-37080470D01*
X108614815Y-37080472D01*
X108760394Y-37168478D01*
X108922804Y-37219086D01*
X108993384Y-37225500D01*
X108993387Y-37225500D01*
X109656613Y-37225500D01*
X109656616Y-37225500D01*
X109727196Y-37219086D01*
X109889606Y-37168478D01*
X110035185Y-37080472D01*
X110155472Y-36960185D01*
X110243478Y-36814606D01*
X110283051Y-36687607D01*
X110321788Y-36629462D01*
X110385813Y-36601488D01*
X110401436Y-36600500D01*
X110420234Y-36600500D01*
X110487273Y-36620185D01*
X110489125Y-36621398D01*
X110620814Y-36709390D01*
X110620827Y-36709397D01*
X110750675Y-36763181D01*
X110766503Y-36769737D01*
X110907187Y-36797721D01*
X110921153Y-36800499D01*
X110921156Y-36800500D01*
X110921158Y-36800500D01*
X111078844Y-36800500D01*
X111078845Y-36800499D01*
X111233497Y-36769737D01*
X111379179Y-36709394D01*
X111431110Y-36674694D01*
X111497785Y-36653816D01*
X111565165Y-36672300D01*
X111568863Y-36674676D01*
X111620821Y-36709394D01*
X111620823Y-36709395D01*
X111620825Y-36709396D01*
X111715799Y-36748735D01*
X111766503Y-36769737D01*
X111907187Y-36797721D01*
X111921153Y-36800499D01*
X111921156Y-36800500D01*
X111921158Y-36800500D01*
X112078844Y-36800500D01*
X112078845Y-36800499D01*
X112233497Y-36769737D01*
X112379179Y-36709394D01*
X112434694Y-36672300D01*
X112510875Y-36621398D01*
X112577553Y-36600520D01*
X112579766Y-36600500D01*
X113380234Y-36600500D01*
X113447273Y-36620185D01*
X113449125Y-36621398D01*
X113580814Y-36709390D01*
X113580827Y-36709397D01*
X113710675Y-36763181D01*
X113726503Y-36769737D01*
X113867187Y-36797721D01*
X113881153Y-36800499D01*
X113881156Y-36800500D01*
X113881158Y-36800500D01*
X114038844Y-36800500D01*
X114038845Y-36800499D01*
X114193497Y-36769737D01*
X114339179Y-36709394D01*
X114470289Y-36621789D01*
X114581789Y-36510289D01*
X114608286Y-36470634D01*
X114626898Y-36442779D01*
X114680510Y-36397974D01*
X114749835Y-36389267D01*
X114812862Y-36419421D01*
X114833102Y-36442779D01*
X114878210Y-36510289D01*
X114989707Y-36621786D01*
X114989711Y-36621789D01*
X115120814Y-36709390D01*
X115120827Y-36709397D01*
X115250675Y-36763181D01*
X115266503Y-36769737D01*
X115407187Y-36797721D01*
X115421153Y-36800499D01*
X115421156Y-36800500D01*
X115422496Y-36800500D01*
X115423172Y-36800698D01*
X115427218Y-36801097D01*
X115427142Y-36801864D01*
X115489535Y-36820185D01*
X115535290Y-36872989D01*
X115545234Y-36942147D01*
X115516209Y-37005703D01*
X115459388Y-37042884D01*
X115373427Y-37069670D01*
X115335393Y-37081522D01*
X115189811Y-37169530D01*
X115069530Y-37289811D01*
X114981522Y-37435393D01*
X114930913Y-37597807D01*
X114924500Y-37668386D01*
X114924500Y-38331613D01*
X114930913Y-38402192D01*
X114930913Y-38402194D01*
X114930914Y-38402196D01*
X114981522Y-38564606D01*
X115069528Y-38710185D01*
X115069529Y-38710186D01*
X115070233Y-38711350D01*
X115088069Y-38778904D01*
X115066552Y-38845378D01*
X115012511Y-38889666D01*
X114964116Y-38899500D01*
X112917848Y-38899500D01*
X112850809Y-38879815D01*
X112805054Y-38827011D01*
X112796231Y-38799692D01*
X112769738Y-38666508D01*
X112769737Y-38666507D01*
X112769737Y-38666503D01*
X112750552Y-38620185D01*
X112709397Y-38520827D01*
X112709390Y-38520814D01*
X112621789Y-38389711D01*
X112621786Y-38389707D01*
X112510292Y-38278213D01*
X112510288Y-38278210D01*
X112379185Y-38190609D01*
X112379172Y-38190602D01*
X112233501Y-38130264D01*
X112233489Y-38130261D01*
X112078845Y-38099500D01*
X112078842Y-38099500D01*
X111921158Y-38099500D01*
X111921155Y-38099500D01*
X111766511Y-38130260D01*
X111766506Y-38130262D01*
X111766504Y-38130262D01*
X111766503Y-38130263D01*
X111742844Y-38140062D01*
X111695396Y-38149500D01*
X108526080Y-38149500D01*
X108381092Y-38178340D01*
X108381082Y-38178343D01*
X108244511Y-38234912D01*
X108244498Y-38234919D01*
X108121584Y-38317048D01*
X108121580Y-38317051D01*
X102917050Y-43521582D01*
X102917049Y-43521582D01*
X102904134Y-43540911D01*
X102878647Y-43579057D01*
X102834919Y-43644499D01*
X102834912Y-43644511D01*
X102778343Y-43781082D01*
X102778340Y-43781092D01*
X102749500Y-43926079D01*
X102749500Y-44376000D01*
X102729815Y-44443039D01*
X102677011Y-44488794D01*
X102625500Y-44500000D01*
X98503051Y-44500000D01*
X98496968Y-44499851D01*
X98474120Y-44498728D01*
X98114013Y-44481037D01*
X98101903Y-44479844D01*
X97725665Y-44424034D01*
X97713731Y-44421660D01*
X97344762Y-44329239D01*
X97333121Y-44325707D01*
X97096226Y-44240945D01*
X96975010Y-44197573D01*
X96963767Y-44192917D01*
X96722584Y-44078846D01*
X96619910Y-44030285D01*
X96609187Y-44024552D01*
X96366656Y-43879185D01*
X96282948Y-43829012D01*
X96272830Y-43822252D01*
X95967315Y-43595667D01*
X95957909Y-43587947D01*
X95751583Y-43400944D01*
X95676079Y-43332511D01*
X95667488Y-43323920D01*
X95412052Y-43042090D01*
X95404332Y-43032684D01*
X95235992Y-42805703D01*
X95177745Y-42727166D01*
X95170987Y-42717051D01*
X95131364Y-42650944D01*
X94975442Y-42390805D01*
X94969718Y-42380097D01*
X94807079Y-42036225D01*
X94802426Y-42024989D01*
X94674288Y-41666865D01*
X94670763Y-41655248D01*
X94601771Y-41379815D01*
X94578339Y-41286268D01*
X94575965Y-41274334D01*
X94551842Y-41111710D01*
X94550500Y-41093515D01*
X94550500Y-38532642D01*
X94551948Y-38513747D01*
X94560300Y-38459575D01*
X94581958Y-38319103D01*
X94584515Y-38306747D01*
X94684170Y-37924398D01*
X94687970Y-37912364D01*
X94826042Y-37542122D01*
X94831041Y-37530555D01*
X95006090Y-37176296D01*
X95012237Y-37165305D01*
X95222442Y-36830710D01*
X95229690Y-36820381D01*
X95472869Y-36508922D01*
X95481124Y-36499395D01*
X95754731Y-36214332D01*
X95763924Y-36205683D01*
X96065149Y-35949941D01*
X96075165Y-35942281D01*
X96400835Y-35718554D01*
X96411605Y-35711938D01*
X96758369Y-35522524D01*
X96769742Y-35517044D01*
X97133999Y-35363915D01*
X97145863Y-35359626D01*
X97526848Y-35243453D01*
X97532886Y-35241778D01*
X98500000Y-35000000D01*
X102500000Y-34000000D01*
X102500000Y-30503246D01*
X102500170Y-30496757D01*
X102518833Y-30140637D01*
X102520190Y-30127728D01*
X102522196Y-30115063D01*
X102575467Y-29778723D01*
X102578160Y-29766047D01*
X102669623Y-29424705D01*
X102673627Y-29412383D01*
X102800268Y-29082471D01*
X102805532Y-29070649D01*
X102965973Y-28755764D01*
X102972434Y-28744574D01*
X103164912Y-28448185D01*
X103172521Y-28437713D01*
X103394914Y-28163079D01*
X103403581Y-28153454D01*
X103653454Y-27903581D01*
X103663079Y-27894914D01*
X103937713Y-27672521D01*
X103948185Y-27664912D01*
X104244574Y-27472434D01*
X104255764Y-27465973D01*
X104570649Y-27305532D01*
X104582471Y-27300268D01*
X104912383Y-27173627D01*
X104924705Y-27169623D01*
X105266047Y-27078160D01*
X105278726Y-27075466D01*
X105385185Y-27058605D01*
X105426719Y-27052027D01*
X105446116Y-27050500D01*
X185577098Y-27050500D01*
X185644137Y-27070185D01*
G37*
%TD.AperFunction*%
%TA.AperFunction,Conductor*%
G36*
X128717942Y-42620185D02*
G01*
X128763697Y-42672989D01*
X128773641Y-42742147D01*
X128744616Y-42805703D01*
X128738589Y-42812175D01*
X128572029Y-42978735D01*
X128411286Y-43139478D01*
X128299481Y-43251282D01*
X128299480Y-43251284D01*
X128255760Y-43327011D01*
X128249361Y-43338094D01*
X128249359Y-43338096D01*
X128220425Y-43388209D01*
X128220424Y-43388210D01*
X128211596Y-43421158D01*
X128179499Y-43540943D01*
X128179499Y-43540945D01*
X128179499Y-43709046D01*
X128179500Y-43709059D01*
X128179500Y-44376000D01*
X128159815Y-44443039D01*
X128107011Y-44488794D01*
X128055500Y-44500000D01*
X110304500Y-44500000D01*
X110237461Y-44480315D01*
X110191706Y-44427511D01*
X110180500Y-44376000D01*
X110180500Y-44220097D01*
X110200185Y-44153058D01*
X110216819Y-44132416D01*
X111712416Y-42636819D01*
X111773739Y-42603334D01*
X111800097Y-42600500D01*
X128650903Y-42600500D01*
X128717942Y-42620185D01*
G37*
%TD.AperFunction*%
%TA.AperFunction,Conductor*%
G36*
X396111711Y-27051842D02*
G01*
X396274334Y-27075965D01*
X396286268Y-27078339D01*
X396417574Y-27111229D01*
X396655248Y-27170763D01*
X396666865Y-27174288D01*
X397024996Y-27302429D01*
X397036225Y-27307079D01*
X397380097Y-27469718D01*
X397390805Y-27475442D01*
X397712803Y-27668441D01*
X397717051Y-27670987D01*
X397727169Y-27677747D01*
X398032684Y-27904332D01*
X398042090Y-27912052D01*
X398323920Y-28167488D01*
X398332511Y-28176079D01*
X398456080Y-28312416D01*
X398587947Y-28457909D01*
X398595667Y-28467315D01*
X398822252Y-28772830D01*
X398829012Y-28782948D01*
X399020320Y-29102126D01*
X399024550Y-29109182D01*
X399030285Y-29119910D01*
X399122977Y-29315891D01*
X399192917Y-29463767D01*
X399197573Y-29475010D01*
X399261639Y-29654063D01*
X399324127Y-29828706D01*
X399325706Y-29833117D01*
X399329239Y-29844762D01*
X399421660Y-30213731D01*
X399424034Y-30225665D01*
X399479844Y-30601903D01*
X399481037Y-30614013D01*
X399499351Y-30986788D01*
X399499500Y-30992873D01*
X399499500Y-40507125D01*
X399499351Y-40513210D01*
X399481037Y-40885986D01*
X399479844Y-40898096D01*
X399424034Y-41274334D01*
X399421660Y-41286268D01*
X399329239Y-41655237D01*
X399325706Y-41666882D01*
X399197573Y-42024989D01*
X399192917Y-42036232D01*
X399030287Y-42380085D01*
X399024550Y-42390817D01*
X398829012Y-42717051D01*
X398822252Y-42727169D01*
X398595667Y-43032684D01*
X398587947Y-43042090D01*
X398332518Y-43323913D01*
X398323913Y-43332518D01*
X398042090Y-43587947D01*
X398032684Y-43595667D01*
X397727169Y-43822252D01*
X397717051Y-43829012D01*
X397390817Y-44024550D01*
X397380085Y-44030287D01*
X397036232Y-44192917D01*
X397024989Y-44197573D01*
X396666882Y-44325706D01*
X396655237Y-44329239D01*
X396286268Y-44421660D01*
X396274334Y-44424034D01*
X395898096Y-44479844D01*
X395885986Y-44481037D01*
X395524613Y-44498790D01*
X395503031Y-44499851D01*
X395496949Y-44500000D01*
X368954500Y-44500000D01*
X368887461Y-44480315D01*
X368841706Y-44427511D01*
X368830500Y-44376000D01*
X368830500Y-42819060D01*
X368830501Y-42819047D01*
X368830501Y-42650944D01*
X368817744Y-42603334D01*
X368789577Y-42498216D01*
X368714811Y-42368716D01*
X368710524Y-42361290D01*
X368710518Y-42361282D01*
X367487590Y-41138355D01*
X367487588Y-41138352D01*
X367368717Y-41019481D01*
X367368716Y-41019480D01*
X367274675Y-40965186D01*
X367274674Y-40965185D01*
X367231783Y-40940422D01*
X367159888Y-40921158D01*
X367079057Y-40899499D01*
X366920943Y-40899499D01*
X366913347Y-40899499D01*
X366913331Y-40899500D01*
X206503439Y-40899500D01*
X206436400Y-40879815D01*
X206390645Y-40827011D01*
X206380701Y-40757853D01*
X206409726Y-40694297D01*
X206434548Y-40672398D01*
X206510875Y-40621398D01*
X206577553Y-40600520D01*
X206579766Y-40600500D01*
X224413331Y-40600500D01*
X224413347Y-40600501D01*
X224420943Y-40600501D01*
X224579054Y-40600501D01*
X224579057Y-40600501D01*
X224731785Y-40559577D01*
X224781904Y-40530639D01*
X224868716Y-40480520D01*
X224980520Y-40368716D01*
X224980520Y-40368714D01*
X224990728Y-40358507D01*
X224990730Y-40358504D01*
X227358506Y-37990728D01*
X227358511Y-37990724D01*
X227368714Y-37980520D01*
X227368716Y-37980520D01*
X227480520Y-37868716D01*
X227533580Y-37776813D01*
X227559577Y-37731785D01*
X227600501Y-37579057D01*
X227600501Y-37420943D01*
X227600501Y-37413348D01*
X227600500Y-37413330D01*
X227600500Y-36589060D01*
X227600501Y-36589047D01*
X227600501Y-36420944D01*
X227598461Y-36413330D01*
X227559577Y-36268216D01*
X227549790Y-36251264D01*
X227480524Y-36131290D01*
X227480518Y-36131282D01*
X225536818Y-34187582D01*
X225503333Y-34126259D01*
X225500499Y-34099901D01*
X225500499Y-32041971D01*
X225500499Y-32041964D01*
X225489886Y-31922582D01*
X225433909Y-31726951D01*
X225339698Y-31546593D01*
X225242611Y-31427525D01*
X225211109Y-31388890D01*
X225074944Y-31277863D01*
X225053407Y-31260302D01*
X224873049Y-31166091D01*
X224833858Y-31154877D01*
X224690388Y-31113825D01*
X224631350Y-31076457D01*
X224601887Y-31013104D01*
X224600500Y-30994609D01*
X224600500Y-30478711D01*
X394049500Y-30478711D01*
X394049500Y-30721288D01*
X394081161Y-30961785D01*
X394143947Y-31196104D01*
X394219782Y-31379185D01*
X394236776Y-31420212D01*
X394358064Y-31630289D01*
X394358066Y-31630292D01*
X394358067Y-31630293D01*
X394505733Y-31822736D01*
X394505739Y-31822743D01*
X394677256Y-31994260D01*
X394677263Y-31994266D01*
X394733517Y-32037431D01*
X394869711Y-32141936D01*
X395079788Y-32263224D01*
X395232046Y-32326291D01*
X395285071Y-32348255D01*
X395303900Y-32356054D01*
X395538211Y-32418838D01*
X395718586Y-32442584D01*
X395778711Y-32450500D01*
X395778712Y-32450500D01*
X396021289Y-32450500D01*
X396069388Y-32444167D01*
X396261789Y-32418838D01*
X396496100Y-32356054D01*
X396720212Y-32263224D01*
X396930289Y-32141936D01*
X397122738Y-31994265D01*
X397294265Y-31822738D01*
X397441936Y-31630289D01*
X397563224Y-31420212D01*
X397656054Y-31196100D01*
X397718838Y-30961789D01*
X397750500Y-30721288D01*
X397750500Y-30478712D01*
X397718838Y-30238211D01*
X397656054Y-30003900D01*
X397563224Y-29779788D01*
X397441936Y-29569711D01*
X397364439Y-29468715D01*
X397294266Y-29377263D01*
X397294260Y-29377256D01*
X397122743Y-29205739D01*
X397122736Y-29205733D01*
X396930293Y-29058067D01*
X396930292Y-29058066D01*
X396930289Y-29058064D01*
X396720212Y-28936776D01*
X396720205Y-28936773D01*
X396496104Y-28843947D01*
X396261785Y-28781161D01*
X396021289Y-28749500D01*
X396021288Y-28749500D01*
X395778712Y-28749500D01*
X395778711Y-28749500D01*
X395538214Y-28781161D01*
X395303895Y-28843947D01*
X395079794Y-28936773D01*
X395079785Y-28936777D01*
X394869706Y-29058067D01*
X394677263Y-29205733D01*
X394677256Y-29205739D01*
X394505739Y-29377256D01*
X394505733Y-29377263D01*
X394358067Y-29569706D01*
X394236777Y-29779785D01*
X394236773Y-29779794D01*
X394143947Y-30003895D01*
X394081161Y-30238214D01*
X394049500Y-30478711D01*
X224600500Y-30478711D01*
X224600500Y-29849499D01*
X224620185Y-29782460D01*
X224672989Y-29736705D01*
X224724500Y-29725499D01*
X225200002Y-29725499D01*
X225200008Y-29725499D01*
X225302797Y-29714999D01*
X225469334Y-29659814D01*
X225618656Y-29567712D01*
X225742712Y-29443656D01*
X225834814Y-29294334D01*
X225889999Y-29127797D01*
X225900500Y-29025009D01*
X225900499Y-27974992D01*
X225899190Y-27962181D01*
X225889999Y-27872203D01*
X225889998Y-27872200D01*
X225834814Y-27705666D01*
X225742712Y-27556344D01*
X225618656Y-27432288D01*
X225469334Y-27340186D01*
X225324537Y-27292205D01*
X225267094Y-27252433D01*
X225240271Y-27187918D01*
X225252586Y-27119142D01*
X225300129Y-27067942D01*
X225363543Y-27050500D01*
X396093516Y-27050500D01*
X396111711Y-27051842D01*
G37*
%TD.AperFunction*%
%TA.AperFunction,Conductor*%
G36*
X193292539Y-39082685D02*
G01*
X193338294Y-39135489D01*
X193349500Y-39187000D01*
X193349500Y-40525227D01*
X193359411Y-40600500D01*
X193364313Y-40637736D01*
X193388370Y-40695815D01*
X193390061Y-40699896D01*
X193399500Y-40747349D01*
X193399500Y-40820234D01*
X193379815Y-40887273D01*
X193378602Y-40889125D01*
X193290609Y-41020814D01*
X193290602Y-41020827D01*
X193230264Y-41166498D01*
X193230261Y-41166508D01*
X193203769Y-41299692D01*
X193171384Y-41361603D01*
X193110668Y-41396177D01*
X193082152Y-41399500D01*
X191749096Y-41399500D01*
X191682057Y-41379815D01*
X191636302Y-41327011D01*
X191626358Y-41257853D01*
X191655383Y-41194297D01*
X191661415Y-41187819D01*
X191755719Y-41093515D01*
X191858506Y-40990727D01*
X191858511Y-40990724D01*
X191868714Y-40980520D01*
X191868716Y-40980520D01*
X191980520Y-40868716D01*
X192049349Y-40749500D01*
X192059577Y-40731785D01*
X192100501Y-40579057D01*
X192100501Y-40420943D01*
X192100501Y-40413348D01*
X192100500Y-40413330D01*
X192100500Y-39800097D01*
X192120185Y-39733058D01*
X192136819Y-39712416D01*
X192749916Y-39099319D01*
X192811239Y-39065834D01*
X192837597Y-39063000D01*
X193225500Y-39063000D01*
X193292539Y-39082685D01*
G37*
%TD.AperFunction*%
%TA.AperFunction,Conductor*%
G36*
X165159336Y-38620185D02*
G01*
X165205091Y-38672989D01*
X165215035Y-38742147D01*
X165213914Y-38748691D01*
X165199500Y-38821153D01*
X165199500Y-38978846D01*
X165230261Y-39133489D01*
X165230264Y-39133501D01*
X165290602Y-39279172D01*
X165290609Y-39279185D01*
X165378602Y-39410874D01*
X165399480Y-39477551D01*
X165399500Y-39479765D01*
X165399500Y-39913330D01*
X165399499Y-39913348D01*
X165399499Y-40079054D01*
X165399498Y-40079054D01*
X165440015Y-40230261D01*
X165440423Y-40231785D01*
X165441414Y-40233501D01*
X165450651Y-40249500D01*
X165519477Y-40368712D01*
X165519481Y-40368717D01*
X165638349Y-40487585D01*
X165638355Y-40487590D01*
X165938583Y-40787819D01*
X165972068Y-40849142D01*
X165967084Y-40918834D01*
X165925212Y-40974767D01*
X165859748Y-40999184D01*
X165850902Y-40999500D01*
X139500097Y-40999500D01*
X139433058Y-40979815D01*
X139412416Y-40963181D01*
X139334574Y-40885339D01*
X139301089Y-40824016D01*
X139300638Y-40821849D01*
X139278269Y-40709397D01*
X139269737Y-40666503D01*
X139269735Y-40666498D01*
X139209397Y-40520827D01*
X139209390Y-40520814D01*
X139121789Y-40389711D01*
X139121786Y-40389707D01*
X139010292Y-40278213D01*
X139010288Y-40278210D01*
X138879185Y-40190609D01*
X138879172Y-40190602D01*
X138733501Y-40130264D01*
X138733489Y-40130261D01*
X138578845Y-40099500D01*
X138578842Y-40099500D01*
X138549096Y-40099500D01*
X138482057Y-40079815D01*
X138436302Y-40027011D01*
X138426358Y-39957853D01*
X138455383Y-39894297D01*
X138461415Y-39887819D01*
X138969420Y-39379815D01*
X139712416Y-38636819D01*
X139773739Y-38603334D01*
X139800097Y-38600500D01*
X165092297Y-38600500D01*
X165159336Y-38620185D01*
G37*
%TD.AperFunction*%
%TA.AperFunction,Conductor*%
G36*
X130305703Y-37435316D02*
G01*
X130318786Y-37448493D01*
X130319893Y-37449789D01*
X130470213Y-37600109D01*
X130642179Y-37725048D01*
X130642181Y-37725049D01*
X130642184Y-37725051D01*
X130831588Y-37821557D01*
X131033757Y-37887246D01*
X131243713Y-37920500D01*
X131243714Y-37920500D01*
X131456286Y-37920500D01*
X131456287Y-37920500D01*
X131666243Y-37887246D01*
X131708523Y-37873507D01*
X131778362Y-37871511D01*
X131834522Y-37903757D01*
X132195139Y-38264374D01*
X132195149Y-38264385D01*
X132199479Y-38268715D01*
X132199480Y-38268716D01*
X132311284Y-38380520D01*
X132311286Y-38380521D01*
X132311290Y-38380524D01*
X132381667Y-38421156D01*
X132381671Y-38421157D01*
X132381672Y-38421158D01*
X132448215Y-38459577D01*
X132600943Y-38500501D01*
X132600946Y-38500501D01*
X132766653Y-38500501D01*
X132766669Y-38500500D01*
X136013331Y-38500500D01*
X136013347Y-38500501D01*
X136020943Y-38500501D01*
X136179054Y-38500501D01*
X136179057Y-38500501D01*
X136331785Y-38459577D01*
X136398328Y-38421158D01*
X136398332Y-38421156D01*
X136468709Y-38380524D01*
X136468708Y-38380524D01*
X136468716Y-38380520D01*
X136514663Y-38334572D01*
X136575984Y-38301088D01*
X136578152Y-38300637D01*
X136578841Y-38300500D01*
X136578842Y-38300500D01*
X136733497Y-38269737D01*
X136879179Y-38209394D01*
X137010289Y-38121789D01*
X137076858Y-38055219D01*
X137138179Y-38021736D01*
X137207871Y-38026720D01*
X137226537Y-38035514D01*
X137268215Y-38059577D01*
X137420943Y-38100501D01*
X137420946Y-38100501D01*
X137579056Y-38100501D01*
X137579058Y-38100501D01*
X137731785Y-38059577D01*
X137805335Y-38017112D01*
X137867335Y-38000500D01*
X138350903Y-38000500D01*
X138417942Y-38020185D01*
X138463697Y-38072989D01*
X138473641Y-38142147D01*
X138444616Y-38205703D01*
X138438584Y-38212181D01*
X136787584Y-39863181D01*
X136726261Y-39896666D01*
X136699903Y-39899500D01*
X129849098Y-39899500D01*
X129782059Y-39879815D01*
X129736304Y-39827011D01*
X129726360Y-39757853D01*
X129755385Y-39694297D01*
X129761417Y-39687819D01*
X129870179Y-39579057D01*
X129980520Y-39468716D01*
X130059577Y-39331784D01*
X130100501Y-39179057D01*
X130100501Y-39020942D01*
X130100501Y-39013347D01*
X130100500Y-39013329D01*
X130100500Y-37529029D01*
X130120185Y-37461990D01*
X130172989Y-37416235D01*
X130242147Y-37406291D01*
X130305703Y-37435316D01*
G37*
%TD.AperFunction*%
%TA.AperFunction,Conductor*%
G36*
X208416942Y-27770185D02*
G01*
X208437584Y-27786819D01*
X209376135Y-28725370D01*
X209409620Y-28786693D01*
X209404636Y-28856385D01*
X209362764Y-28912318D01*
X209353554Y-28918588D01*
X209331343Y-28932288D01*
X209207289Y-29056342D01*
X209115187Y-29205663D01*
X209115185Y-29205668D01*
X209095024Y-29266510D01*
X209060001Y-29372203D01*
X209060001Y-29372204D01*
X209060000Y-29372204D01*
X209049500Y-29474983D01*
X209049500Y-30525001D01*
X209049501Y-30525019D01*
X209060000Y-30627796D01*
X209060001Y-30627799D01*
X209115185Y-30794331D01*
X209115187Y-30794336D01*
X209128083Y-30815243D01*
X209207288Y-30943656D01*
X209331344Y-31067712D01*
X209480666Y-31159814D01*
X209647203Y-31214999D01*
X209749991Y-31225500D01*
X210350008Y-31225499D01*
X210350016Y-31225498D01*
X210350019Y-31225498D01*
X210406302Y-31219748D01*
X210452797Y-31214999D01*
X210619334Y-31159814D01*
X210768656Y-31067712D01*
X210892712Y-30943656D01*
X210984814Y-30794334D01*
X211039999Y-30627797D01*
X211050500Y-30525009D01*
X211050499Y-29474992D01*
X211049352Y-29463767D01*
X211039999Y-29372203D01*
X211039998Y-29372200D01*
X210984814Y-29205666D01*
X210892712Y-29056344D01*
X210768656Y-28932288D01*
X210768655Y-28932287D01*
X210709402Y-28895739D01*
X210662678Y-28843791D01*
X210650500Y-28790201D01*
X210650500Y-28639059D01*
X210650501Y-28639046D01*
X210650501Y-28470945D01*
X210650501Y-28470943D01*
X210609577Y-28318215D01*
X210549911Y-28214871D01*
X210530520Y-28181284D01*
X210418716Y-28069480D01*
X210418715Y-28069479D01*
X210414385Y-28065149D01*
X210414374Y-28065139D01*
X210311416Y-27962181D01*
X210277931Y-27900858D01*
X210282915Y-27831166D01*
X210324787Y-27775233D01*
X210390251Y-27750816D01*
X210399097Y-27750500D01*
X214420943Y-27750500D01*
X214799903Y-27750500D01*
X214866942Y-27770185D01*
X214887584Y-27786819D01*
X215413181Y-28312416D01*
X215446666Y-28373739D01*
X215449500Y-28400097D01*
X215449500Y-29025001D01*
X215449501Y-29025019D01*
X215460000Y-29127796D01*
X215460001Y-29127799D01*
X215505946Y-29266449D01*
X215515186Y-29294334D01*
X215607288Y-29443656D01*
X215731344Y-29567712D01*
X215880666Y-29659814D01*
X216047203Y-29714999D01*
X216149991Y-29725500D01*
X216750008Y-29725499D01*
X216750016Y-29725498D01*
X216750019Y-29725498D01*
X216806302Y-29719748D01*
X216852797Y-29714999D01*
X217019334Y-29659814D01*
X217168656Y-29567712D01*
X217292712Y-29443656D01*
X217384814Y-29294334D01*
X217439999Y-29127797D01*
X217450500Y-29025009D01*
X217450499Y-27974992D01*
X217449190Y-27962181D01*
X217441521Y-27887101D01*
X217454291Y-27818408D01*
X217502172Y-27767524D01*
X217564879Y-27750500D01*
X218920943Y-27750500D01*
X219249903Y-27750500D01*
X219316942Y-27770185D01*
X219337584Y-27786819D01*
X219863181Y-28312416D01*
X219896666Y-28373739D01*
X219899500Y-28400097D01*
X219899500Y-29025001D01*
X219899501Y-29025019D01*
X219910000Y-29127796D01*
X219910001Y-29127799D01*
X219955946Y-29266449D01*
X219965186Y-29294334D01*
X220057288Y-29443656D01*
X220181344Y-29567712D01*
X220330666Y-29659814D01*
X220497203Y-29714999D01*
X220599991Y-29725500D01*
X221200008Y-29725499D01*
X221200016Y-29725498D01*
X221200019Y-29725498D01*
X221256302Y-29719748D01*
X221302797Y-29714999D01*
X221469334Y-29659814D01*
X221618656Y-29567712D01*
X221742712Y-29443656D01*
X221834814Y-29294334D01*
X221889999Y-29127797D01*
X221900500Y-29025009D01*
X221900499Y-27974992D01*
X221899190Y-27962181D01*
X221891521Y-27887101D01*
X221904291Y-27818408D01*
X221952172Y-27767524D01*
X222014879Y-27750500D01*
X223249903Y-27750500D01*
X223316942Y-27770185D01*
X223337584Y-27786819D01*
X223863181Y-28312416D01*
X223896666Y-28373739D01*
X223899500Y-28400097D01*
X223899500Y-28599902D01*
X223879815Y-28666941D01*
X223863181Y-28687583D01*
X223519481Y-29031282D01*
X223519479Y-29031285D01*
X223505013Y-29056342D01*
X223478579Y-29102127D01*
X223440423Y-29168215D01*
X223399499Y-29320943D01*
X223399499Y-29320945D01*
X223399499Y-29489046D01*
X223399500Y-29489059D01*
X223399500Y-30994609D01*
X223379815Y-31061648D01*
X223327011Y-31107403D01*
X223309612Y-31113825D01*
X223126953Y-31166090D01*
X223126951Y-31166090D01*
X223126951Y-31166091D01*
X222946593Y-31260302D01*
X222946591Y-31260303D01*
X222946590Y-31260304D01*
X222788890Y-31388890D01*
X222660304Y-31546590D01*
X222660302Y-31546593D01*
X222634442Y-31596100D01*
X222566089Y-31726954D01*
X222528389Y-31858714D01*
X222510988Y-31919530D01*
X222510114Y-31922583D01*
X222510113Y-31922586D01*
X222506741Y-31960515D01*
X222499692Y-32039811D01*
X222499500Y-32041966D01*
X222499500Y-34958028D01*
X222499500Y-34958033D01*
X222499501Y-34958036D01*
X222501294Y-34978210D01*
X222510113Y-35077415D01*
X222566089Y-35273045D01*
X222566090Y-35273048D01*
X222566091Y-35273049D01*
X222660302Y-35453407D01*
X222660304Y-35453409D01*
X222788890Y-35611109D01*
X222871959Y-35678842D01*
X222946593Y-35739698D01*
X223126951Y-35833909D01*
X223126953Y-35833909D01*
X223126954Y-35833910D01*
X223146355Y-35839461D01*
X223322582Y-35889886D01*
X223441963Y-35900500D01*
X224558036Y-35900499D01*
X224677418Y-35889886D01*
X224873049Y-35833909D01*
X225053407Y-35739698D01*
X225152249Y-35659102D01*
X225216642Y-35631994D01*
X225285472Y-35644003D01*
X225318289Y-35667524D01*
X226363181Y-36712416D01*
X226396666Y-36773739D01*
X226399500Y-36800097D01*
X226399500Y-37199903D01*
X226379815Y-37266942D01*
X226363181Y-37287584D01*
X224287584Y-39363181D01*
X224226261Y-39396666D01*
X224199903Y-39399500D01*
X206579766Y-39399500D01*
X206512727Y-39379815D01*
X206510875Y-39378602D01*
X206379185Y-39290609D01*
X206379172Y-39290602D01*
X206233501Y-39230264D01*
X206233489Y-39230261D01*
X206078845Y-39199500D01*
X206078842Y-39199500D01*
X205921158Y-39199500D01*
X205921155Y-39199500D01*
X205766510Y-39230261D01*
X205760676Y-39232031D01*
X205759873Y-39229385D01*
X205702056Y-39235396D01*
X205639687Y-39203902D01*
X205604245Y-39143689D01*
X205600500Y-39113444D01*
X205600500Y-38589059D01*
X205600501Y-38589046D01*
X205600501Y-38420945D01*
X205600501Y-38420943D01*
X205559577Y-38268215D01*
X205540353Y-38234919D01*
X205525616Y-38209393D01*
X205525615Y-38209392D01*
X205480521Y-38131286D01*
X205480520Y-38131284D01*
X205368716Y-38019480D01*
X205368715Y-38019479D01*
X205364385Y-38015149D01*
X205364374Y-38015139D01*
X203900090Y-36550855D01*
X203900088Y-36550852D01*
X203781217Y-36431981D01*
X203781212Y-36431977D01*
X203671639Y-36368716D01*
X203671637Y-36368715D01*
X203644286Y-36352923D01*
X203644287Y-36352923D01*
X203583193Y-36336553D01*
X203491557Y-36311999D01*
X203333443Y-36311999D01*
X203325847Y-36311999D01*
X203325831Y-36312000D01*
X202260854Y-36312000D01*
X202193815Y-36292315D01*
X202148060Y-36239511D01*
X202137915Y-36204187D01*
X202134626Y-36179207D01*
X202137689Y-36178803D01*
X202137689Y-36146198D01*
X202134626Y-36145795D01*
X202139300Y-36110289D01*
X202150500Y-36025220D01*
X202150500Y-35799780D01*
X202135687Y-35687264D01*
X202135686Y-35687263D01*
X202134626Y-35679205D01*
X202137689Y-35678801D01*
X202137689Y-35646198D01*
X202134626Y-35645795D01*
X202137915Y-35620812D01*
X202150500Y-35525220D01*
X202150500Y-35299780D01*
X202135687Y-35187264D01*
X202135686Y-35187263D01*
X202134626Y-35179205D01*
X202137689Y-35178801D01*
X202137689Y-35146198D01*
X202134626Y-35145795D01*
X202139419Y-35109390D01*
X202150500Y-35025220D01*
X202150500Y-34799780D01*
X202135687Y-34687264D01*
X202135686Y-34687263D01*
X202134626Y-34679205D01*
X202137689Y-34678801D01*
X202137689Y-34646198D01*
X202134626Y-34645795D01*
X202135687Y-34637736D01*
X202150500Y-34525220D01*
X202150500Y-34299780D01*
X202135687Y-34187264D01*
X202135686Y-34187263D01*
X202134626Y-34179205D01*
X202137689Y-34178801D01*
X202137689Y-34146198D01*
X202134626Y-34145795D01*
X202140668Y-34099901D01*
X202150500Y-34025220D01*
X202150500Y-33799780D01*
X202150027Y-33796191D01*
X202136141Y-33690710D01*
X202135687Y-33687264D01*
X202134522Y-33684453D01*
X202134247Y-33681892D01*
X202133583Y-33679413D01*
X202133969Y-33679309D01*
X202127053Y-33614987D01*
X202158326Y-33552507D01*
X202218414Y-33516853D01*
X202249083Y-33513000D01*
X216075501Y-33513000D01*
X216142540Y-33532685D01*
X216188295Y-33585489D01*
X216199501Y-33637000D01*
X216199501Y-33951125D01*
X216202399Y-33993886D01*
X216202399Y-33993887D01*
X216223566Y-34078998D01*
X216245327Y-34166503D01*
X216248360Y-34178696D01*
X216332967Y-34349292D01*
X216332969Y-34349295D01*
X216452277Y-34497721D01*
X216452278Y-34497722D01*
X216521486Y-34553353D01*
X216561405Y-34610696D01*
X216563985Y-34680518D01*
X216528406Y-34740651D01*
X216521486Y-34746647D01*
X216452278Y-34802277D01*
X216452277Y-34802278D01*
X216332969Y-34950704D01*
X216318146Y-34980594D01*
X216270725Y-35031907D01*
X216207058Y-35049500D01*
X209228018Y-35049500D01*
X209160979Y-35029815D01*
X209124914Y-34994388D01*
X209121788Y-34989709D01*
X209010292Y-34878213D01*
X209010288Y-34878210D01*
X208879185Y-34790609D01*
X208879172Y-34790602D01*
X208733501Y-34730264D01*
X208733489Y-34730261D01*
X208578845Y-34699500D01*
X208578842Y-34699500D01*
X208421158Y-34699500D01*
X208421155Y-34699500D01*
X208266510Y-34730261D01*
X208266498Y-34730264D01*
X208120827Y-34790602D01*
X208120814Y-34790609D01*
X207989711Y-34878210D01*
X207989707Y-34878213D01*
X207878213Y-34989707D01*
X207878210Y-34989711D01*
X207790609Y-35120814D01*
X207790602Y-35120827D01*
X207730264Y-35266498D01*
X207730261Y-35266510D01*
X207699500Y-35421153D01*
X207699500Y-35578846D01*
X207730261Y-35733489D01*
X207730264Y-35733501D01*
X207790602Y-35879172D01*
X207790609Y-35879185D01*
X207878210Y-36010288D01*
X207878213Y-36010292D01*
X207989710Y-36121789D01*
X208050639Y-36162500D01*
X208120821Y-36209394D01*
X208144475Y-36219191D01*
X208184703Y-36246071D01*
X208321586Y-36382954D01*
X208331035Y-36389267D01*
X208376255Y-36419481D01*
X208444505Y-36465084D01*
X208444506Y-36465084D01*
X208444507Y-36465085D01*
X208553640Y-36510289D01*
X208581087Y-36521658D01*
X208581091Y-36521658D01*
X208581092Y-36521659D01*
X208726079Y-36550500D01*
X208726082Y-36550500D01*
X208726083Y-36550500D01*
X208873917Y-36550500D01*
X216207058Y-36550500D01*
X216274097Y-36570185D01*
X216318146Y-36619406D01*
X216332969Y-36649295D01*
X216452277Y-36797721D01*
X216452278Y-36797722D01*
X216600704Y-36917030D01*
X216600707Y-36917032D01*
X216771302Y-37001639D01*
X216771303Y-37001639D01*
X216771307Y-37001641D01*
X216956111Y-37047600D01*
X216998877Y-37050500D01*
X218401122Y-37050499D01*
X218443889Y-37047600D01*
X218628693Y-37001641D01*
X218799296Y-36917030D01*
X218947722Y-36797722D01*
X219067030Y-36649296D01*
X219151641Y-36478693D01*
X219197600Y-36293889D01*
X219200500Y-36251123D01*
X219200499Y-35348878D01*
X219197600Y-35306111D01*
X219151641Y-35121307D01*
X219129873Y-35077415D01*
X219067032Y-34950707D01*
X219067030Y-34950704D01*
X218947722Y-34802278D01*
X218947721Y-34802277D01*
X218878514Y-34746647D01*
X218838595Y-34689304D01*
X218836015Y-34619482D01*
X218871594Y-34559349D01*
X218878514Y-34553353D01*
X218887909Y-34545800D01*
X218947722Y-34497722D01*
X219067030Y-34349296D01*
X219151641Y-34178693D01*
X219197600Y-33993889D01*
X219200500Y-33951123D01*
X219200499Y-33048878D01*
X219197600Y-33006111D01*
X219151641Y-32821307D01*
X219136413Y-32790602D01*
X219067032Y-32650707D01*
X219067030Y-32650704D01*
X218947722Y-32502278D01*
X218947721Y-32502277D01*
X218799295Y-32382969D01*
X218799292Y-32382967D01*
X218628697Y-32298360D01*
X218443892Y-32252400D01*
X218422506Y-32250950D01*
X218401123Y-32249500D01*
X218401120Y-32249500D01*
X216998877Y-32249500D01*
X216998874Y-32249501D01*
X216956113Y-32252399D01*
X216956112Y-32252399D01*
X216771302Y-32298360D01*
X216769834Y-32299089D01*
X216768413Y-32299421D01*
X216764991Y-32300679D01*
X216764837Y-32300260D01*
X216714741Y-32312000D01*
X202661597Y-32312000D01*
X202594558Y-32292315D01*
X202548803Y-32239511D01*
X202538859Y-32170353D01*
X202567884Y-32106797D01*
X202573916Y-32100319D01*
X203537416Y-31136819D01*
X203598739Y-31103334D01*
X203625097Y-31100500D01*
X204899336Y-31100500D01*
X204964432Y-31118961D01*
X205030659Y-31159810D01*
X205030660Y-31159810D01*
X205030666Y-31159814D01*
X205197203Y-31214999D01*
X205299991Y-31225500D01*
X205900008Y-31225499D01*
X205900016Y-31225498D01*
X205900019Y-31225498D01*
X205956302Y-31219748D01*
X206002797Y-31214999D01*
X206169334Y-31159814D01*
X206318656Y-31067712D01*
X206442712Y-30943656D01*
X206534814Y-30794334D01*
X206589999Y-30627797D01*
X206600500Y-30525009D01*
X206600499Y-29474992D01*
X206599352Y-29463767D01*
X206589999Y-29372203D01*
X206589998Y-29372200D01*
X206534814Y-29205666D01*
X206442712Y-29056344D01*
X206318656Y-28932288D01*
X206169334Y-28840186D01*
X206108325Y-28819969D01*
X206050881Y-28780196D01*
X206024059Y-28715680D01*
X206036374Y-28646905D01*
X206059647Y-28614587D01*
X206887416Y-27786819D01*
X206948739Y-27753334D01*
X206975097Y-27750500D01*
X208349903Y-27750500D01*
X208416942Y-27770185D01*
G37*
%TD.AperFunction*%
%TA.AperFunction,Conductor*%
G36*
X195305703Y-36909726D02*
G01*
X195327602Y-36934548D01*
X195378210Y-37010288D01*
X195378213Y-37010292D01*
X195489707Y-37121786D01*
X195489711Y-37121789D01*
X195620814Y-37209390D01*
X195620827Y-37209397D01*
X195721907Y-37251265D01*
X195766503Y-37269737D01*
X195915734Y-37299421D01*
X195921153Y-37300499D01*
X195921156Y-37300500D01*
X195921158Y-37300500D01*
X196078844Y-37300500D01*
X196078845Y-37300499D01*
X196233497Y-37269737D01*
X196379179Y-37209394D01*
X196510289Y-37121789D01*
X196582760Y-37049317D01*
X196644081Y-37015834D01*
X196670440Y-37013000D01*
X199564146Y-37013000D01*
X199631185Y-37032685D01*
X199676940Y-37085489D01*
X199687085Y-37120812D01*
X199690374Y-37145790D01*
X199687399Y-37146181D01*
X199687399Y-37178816D01*
X199690374Y-37179208D01*
X199674500Y-37299772D01*
X199674500Y-37525227D01*
X199690374Y-37645792D01*
X199687399Y-37646183D01*
X199687399Y-37678816D01*
X199690374Y-37679208D01*
X199674500Y-37799772D01*
X199674500Y-38025227D01*
X199679023Y-38059576D01*
X199688329Y-38130264D01*
X199690374Y-38145792D01*
X199687399Y-38146183D01*
X199687399Y-38178816D01*
X199690374Y-38179208D01*
X199689313Y-38187262D01*
X199689313Y-38187264D01*
X199686400Y-38209390D01*
X199674500Y-38299772D01*
X199674500Y-38463000D01*
X199654815Y-38530039D01*
X199602011Y-38575794D01*
X199550500Y-38587000D01*
X199387272Y-38587000D01*
X199274764Y-38601813D01*
X199274763Y-38601813D01*
X199134769Y-38659800D01*
X199117581Y-38672989D01*
X199075485Y-38705290D01*
X199010317Y-38730484D01*
X198941873Y-38716446D01*
X198924517Y-38705293D01*
X198865233Y-38659802D01*
X198865232Y-38659801D01*
X198865230Y-38659800D01*
X198749998Y-38612070D01*
X198725236Y-38601813D01*
X198708313Y-38599585D01*
X198612727Y-38587000D01*
X198612720Y-38587000D01*
X198387280Y-38587000D01*
X198387272Y-38587000D01*
X198300393Y-38598438D01*
X198274764Y-38601813D01*
X198274762Y-38601813D01*
X198266708Y-38602874D01*
X198266316Y-38599899D01*
X198233684Y-38599899D01*
X198233292Y-38602874D01*
X198225237Y-38601813D01*
X198225236Y-38601813D01*
X198196271Y-38597999D01*
X198112727Y-38587000D01*
X198112720Y-38587000D01*
X197887280Y-38587000D01*
X197887272Y-38587000D01*
X197800393Y-38598438D01*
X197774764Y-38601813D01*
X197774762Y-38601813D01*
X197766708Y-38602874D01*
X197766316Y-38599899D01*
X197733684Y-38599899D01*
X197733292Y-38602874D01*
X197725237Y-38601813D01*
X197725236Y-38601813D01*
X197696271Y-38597999D01*
X197612727Y-38587000D01*
X197612720Y-38587000D01*
X197387280Y-38587000D01*
X197387272Y-38587000D01*
X197300393Y-38598438D01*
X197274764Y-38601813D01*
X197274762Y-38601813D01*
X197266708Y-38602874D01*
X197266316Y-38599899D01*
X197233684Y-38599899D01*
X197233292Y-38602874D01*
X197225237Y-38601813D01*
X197225236Y-38601813D01*
X197196271Y-38597999D01*
X197112727Y-38587000D01*
X197112720Y-38587000D01*
X196887280Y-38587000D01*
X196887272Y-38587000D01*
X196800393Y-38598438D01*
X196774764Y-38601813D01*
X196774762Y-38601813D01*
X196766708Y-38602874D01*
X196766316Y-38599899D01*
X196733684Y-38599899D01*
X196733292Y-38602874D01*
X196725237Y-38601813D01*
X196725236Y-38601813D01*
X196696271Y-38597999D01*
X196612727Y-38587000D01*
X196612720Y-38587000D01*
X196387280Y-38587000D01*
X196387272Y-38587000D01*
X196300393Y-38598438D01*
X196274764Y-38601813D01*
X196274762Y-38601813D01*
X196266708Y-38602874D01*
X196266316Y-38599899D01*
X196233684Y-38599899D01*
X196233292Y-38602874D01*
X196225237Y-38601813D01*
X196225236Y-38601813D01*
X196196271Y-38597999D01*
X196112727Y-38587000D01*
X196112720Y-38587000D01*
X195887280Y-38587000D01*
X195887272Y-38587000D01*
X195800393Y-38598438D01*
X195774764Y-38601813D01*
X195774762Y-38601813D01*
X195766708Y-38602874D01*
X195766316Y-38599899D01*
X195733684Y-38599899D01*
X195733292Y-38602874D01*
X195725237Y-38601813D01*
X195725236Y-38601813D01*
X195696271Y-38597999D01*
X195612727Y-38587000D01*
X195612720Y-38587000D01*
X195387280Y-38587000D01*
X195387272Y-38587000D01*
X195300393Y-38598438D01*
X195274764Y-38601813D01*
X195274762Y-38601813D01*
X195266708Y-38602874D01*
X195266316Y-38599899D01*
X195233682Y-38599899D01*
X195233290Y-38602874D01*
X195225237Y-38601813D01*
X195225236Y-38601813D01*
X195208311Y-38599584D01*
X195144416Y-38571317D01*
X195105946Y-38512991D01*
X195100500Y-38476646D01*
X195100500Y-37003439D01*
X195120185Y-36936400D01*
X195172989Y-36890645D01*
X195242147Y-36880701D01*
X195305703Y-36909726D01*
G37*
%TD.AperFunction*%
%TA.AperFunction,Conductor*%
G36*
X169832878Y-33781235D02*
G01*
X169952102Y-33851744D01*
X169993724Y-33863836D01*
X170109926Y-33897597D01*
X170109929Y-33897597D01*
X170109931Y-33897598D01*
X170146806Y-33900500D01*
X171184414Y-33900500D01*
X171251453Y-33920185D01*
X171287515Y-33955608D01*
X171304548Y-33981100D01*
X171304551Y-33981104D01*
X171311266Y-33987819D01*
X171344751Y-34049142D01*
X171339767Y-34118834D01*
X171297895Y-34174767D01*
X171232431Y-34199184D01*
X171223585Y-34199500D01*
X170146798Y-34199500D01*
X170109932Y-34202401D01*
X170109926Y-34202402D01*
X169952106Y-34248254D01*
X169944946Y-34251353D01*
X169944185Y-34249596D01*
X169886352Y-34264265D01*
X169820091Y-34242101D01*
X169776332Y-34187631D01*
X169771688Y-34172279D01*
X169771506Y-34172335D01*
X169769735Y-34166498D01*
X169709397Y-34020827D01*
X169709395Y-34020823D01*
X169709394Y-34020821D01*
X169666656Y-33956859D01*
X169645778Y-33890182D01*
X169664262Y-33822802D01*
X169716241Y-33776111D01*
X169785211Y-33764935D01*
X169832878Y-33781235D01*
G37*
%TD.AperFunction*%
%TA.AperFunction,Conductor*%
G36*
X199697121Y-33401917D02*
G01*
X199742876Y-33454721D01*
X199752820Y-33523879D01*
X199744643Y-33553684D01*
X199689314Y-33687260D01*
X199689313Y-33687264D01*
X199687085Y-33704187D01*
X199658817Y-33768084D01*
X199600492Y-33806554D01*
X199564146Y-33812000D01*
X198182940Y-33812000D01*
X198115901Y-33792315D01*
X198095263Y-33775685D01*
X198010289Y-33690711D01*
X198010288Y-33690710D01*
X198010287Y-33690709D01*
X197888501Y-33609334D01*
X197843696Y-33555722D01*
X197834989Y-33486397D01*
X197865144Y-33423369D01*
X197924587Y-33386650D01*
X197957392Y-33382232D01*
X199630082Y-33382232D01*
X199697121Y-33401917D01*
G37*
%TD.AperFunction*%
%TA.AperFunction,Conductor*%
G36*
X122680484Y-30120185D02*
G01*
X122726239Y-30172989D01*
X122736183Y-30242147D01*
X122731159Y-30260411D01*
X122732031Y-30260676D01*
X122730261Y-30266510D01*
X122699500Y-30421153D01*
X122699500Y-30578846D01*
X122730261Y-30733489D01*
X122730263Y-30733497D01*
X122740061Y-30757151D01*
X122749500Y-30804604D01*
X122749500Y-32198431D01*
X122729815Y-32265470D01*
X122713181Y-32286112D01*
X121786112Y-33213181D01*
X121724789Y-33246666D01*
X121698431Y-33249500D01*
X121084500Y-33249500D01*
X121017461Y-33229815D01*
X120971706Y-33177011D01*
X120960500Y-33125500D01*
X120960500Y-32074313D01*
X120960499Y-32074298D01*
X120959778Y-32065131D01*
X120974143Y-31996754D01*
X120998939Y-31967583D01*
X120997618Y-31966262D01*
X121044352Y-31919528D01*
X121110515Y-31853365D01*
X121186281Y-31722135D01*
X121225500Y-31575766D01*
X121225500Y-31424234D01*
X121186281Y-31277865D01*
X121110515Y-31146635D01*
X121003365Y-31039485D01*
X120922631Y-30992873D01*
X120872136Y-30963719D01*
X120797258Y-30943656D01*
X120725766Y-30924500D01*
X120574234Y-30924500D01*
X120427863Y-30963719D01*
X120296635Y-31039485D01*
X120296632Y-31039487D01*
X120189487Y-31146632D01*
X120189485Y-31146635D01*
X120113719Y-31277863D01*
X120110306Y-31290602D01*
X120081637Y-31397594D01*
X120045274Y-31457254D01*
X119982428Y-31487783D01*
X119961864Y-31489500D01*
X119944290Y-31489500D01*
X119925946Y-31490944D01*
X119857569Y-31476578D01*
X119807814Y-31427525D01*
X119794604Y-31391517D01*
X119785769Y-31347102D01*
X119769737Y-31266503D01*
X119767169Y-31260304D01*
X119709397Y-31120827D01*
X119709390Y-31120814D01*
X119621789Y-30989711D01*
X119621786Y-30989707D01*
X119578337Y-30946258D01*
X119544852Y-30884935D01*
X119549836Y-30815243D01*
X119578334Y-30770899D01*
X120212416Y-30136819D01*
X120273739Y-30103334D01*
X120300097Y-30100500D01*
X122613445Y-30100500D01*
X122680484Y-30120185D01*
G37*
%TD.AperFunction*%
%TA.AperFunction,Conductor*%
G36*
X205692942Y-27070185D02*
G01*
X205738697Y-27122989D01*
X205748641Y-27192147D01*
X205719616Y-27255703D01*
X205713584Y-27262179D01*
X202956286Y-30019478D01*
X202956284Y-30019480D01*
X202844480Y-30131284D01*
X202844478Y-30131286D01*
X201820888Y-31154877D01*
X200830853Y-32144912D01*
X200769530Y-32178397D01*
X200743172Y-32181231D01*
X200695079Y-32181231D01*
X200695063Y-32181232D01*
X200274500Y-32181232D01*
X200207461Y-32161547D01*
X200161706Y-32108743D01*
X200150500Y-32057232D01*
X200150500Y-30799786D01*
X200150499Y-30799772D01*
X200149172Y-30789692D01*
X200135687Y-30687264D01*
X200077698Y-30547267D01*
X199985451Y-30427049D01*
X199865233Y-30334802D01*
X199865229Y-30334800D01*
X199782421Y-30300500D01*
X199725236Y-30276813D01*
X199708313Y-30274585D01*
X199612727Y-30262000D01*
X199612720Y-30262000D01*
X199387280Y-30262000D01*
X199387272Y-30262000D01*
X199300393Y-30273438D01*
X199274764Y-30276813D01*
X199274762Y-30276813D01*
X199266708Y-30277874D01*
X199266316Y-30274899D01*
X199233682Y-30274899D01*
X199233290Y-30277874D01*
X199225237Y-30276813D01*
X199225236Y-30276813D01*
X199208311Y-30274584D01*
X199144416Y-30246317D01*
X199105946Y-30187991D01*
X199100500Y-30151646D01*
X199100500Y-28892002D01*
X199100501Y-28891989D01*
X199100501Y-28723886D01*
X199095763Y-28706204D01*
X199059577Y-28571158D01*
X199041832Y-28540423D01*
X198980524Y-28434232D01*
X198980518Y-28434224D01*
X198418494Y-27872200D01*
X197808473Y-27262180D01*
X197774989Y-27200858D01*
X197779973Y-27131166D01*
X197821845Y-27075233D01*
X197887309Y-27050816D01*
X197896155Y-27050500D01*
X205625903Y-27050500D01*
X205692942Y-27070185D01*
G37*
%TD.AperFunction*%
%TA.AperFunction,Conductor*%
G36*
X193301380Y-30620185D02*
G01*
X193347135Y-30672989D01*
X193357280Y-30740686D01*
X193349500Y-30799772D01*
X193349500Y-31067059D01*
X193329815Y-31134098D01*
X193313181Y-31154740D01*
X193228213Y-31239707D01*
X193228207Y-31239715D01*
X193158267Y-31344389D01*
X193104655Y-31389195D01*
X193055165Y-31399499D01*
X192913347Y-31399499D01*
X192913331Y-31399500D01*
X191079766Y-31399500D01*
X191012727Y-31379815D01*
X191010875Y-31378602D01*
X190879185Y-31290609D01*
X190879172Y-31290602D01*
X190733501Y-31230264D01*
X190733489Y-31230261D01*
X190578845Y-31199500D01*
X190578842Y-31199500D01*
X190421158Y-31199500D01*
X190421155Y-31199500D01*
X190266510Y-31230261D01*
X190260676Y-31232031D01*
X190259873Y-31229385D01*
X190202056Y-31235396D01*
X190139687Y-31203902D01*
X190104245Y-31143689D01*
X190100500Y-31113444D01*
X190100500Y-30886555D01*
X190120185Y-30819516D01*
X190172989Y-30773761D01*
X190242147Y-30763817D01*
X190260411Y-30768840D01*
X190260676Y-30767969D01*
X190266492Y-30769732D01*
X190266503Y-30769737D01*
X190390145Y-30794331D01*
X190421153Y-30800499D01*
X190421156Y-30800500D01*
X190421158Y-30800500D01*
X190578844Y-30800500D01*
X190578845Y-30800499D01*
X190733497Y-30769737D01*
X190879179Y-30709394D01*
X190893985Y-30699501D01*
X191010875Y-30621398D01*
X191077553Y-30600520D01*
X191079766Y-30600500D01*
X193234341Y-30600500D01*
X193301380Y-30620185D01*
G37*
%TD.AperFunction*%
%TA.AperFunction,Conductor*%
G36*
X188267941Y-27070185D02*
G01*
X188313696Y-27122989D01*
X188323640Y-27192147D01*
X188294615Y-27255703D01*
X188288583Y-27262181D01*
X187924398Y-27626365D01*
X187863075Y-27659850D01*
X187793383Y-27654866D01*
X187767826Y-27641786D01*
X187654920Y-27566344D01*
X187654907Y-27566337D01*
X187509236Y-27505999D01*
X187509224Y-27505996D01*
X187354580Y-27475235D01*
X187354577Y-27475235D01*
X187196893Y-27475235D01*
X187196890Y-27475235D01*
X187042245Y-27505996D01*
X187042233Y-27505999D01*
X186896562Y-27566337D01*
X186896551Y-27566343D01*
X186845098Y-27600723D01*
X186778420Y-27621600D01*
X186711040Y-27603115D01*
X186673106Y-27566511D01*
X186621789Y-27489711D01*
X186621786Y-27489707D01*
X186510292Y-27378213D01*
X186510288Y-27378210D01*
X186379185Y-27290609D01*
X186379178Y-27290605D01*
X186375451Y-27289062D01*
X186321047Y-27245222D01*
X186298981Y-27178928D01*
X186316259Y-27111229D01*
X186367395Y-27063617D01*
X186422902Y-27050500D01*
X188200902Y-27050500D01*
X188267941Y-27070185D01*
G37*
%TD.AperFunction*%
%TD*%
M02*
