%TF.GenerationSoftware,KiCad,Pcbnew,10.0.5*%
%TF.CreationDate,2026-09-20T15:33:16+05:30*%
%TF.ProjectId,pcb,7063622e-6b69-4636-9164-5f7063625858,rev?*%
%TF.SameCoordinates,Original*%
%TF.FileFunction,Profile,NP*%
%FSLAX46Y46*%
G04 Gerber Fmt 4.6, Leading zero omitted, Abs format (unit mm)*
G04 Created by KiCad (PCBNEW 10.0.5) date 2026-09-20 15:33:16*
%MOMM*%
%LPD*%
G01*
G04 APERTURE LIST*
%TA.AperFunction,Profile*%
%ADD10C,0.050000*%
%TD*%
%TA.AperFunction,Profile*%
%ADD11C,0.120000*%
%TD*%
G04 APERTURE END LIST*
D10*
X94050000Y-26550000D02*
X400000000Y-26550000D01*
X400000000Y-150950000D01*
X94050000Y-150950000D01*
X94050000Y-26550000D01*
%TO.C,D40*%
D11*
X318625000Y-98350000D02*
X318625000Y-97649647D01*
X318625000Y-98350000D02*
X318625000Y-99050353D01*
X320325000Y-96850000D02*
X319424647Y-96850000D01*
X320325000Y-96850000D02*
X321225353Y-96850000D01*
X320325000Y-99850000D02*
X319424647Y-99850000D01*
X320325000Y-99850000D02*
X321225353Y-99850000D01*
X322025000Y-98350000D02*
X322025000Y-97649647D01*
X322025000Y-98350000D02*
X322025000Y-99050353D01*
X318581066Y-97493345D02*
G75*
G02*
X318625000Y-97649647I-256058J-156299D01*
G01*
X318581066Y-97493345D02*
G75*
G02*
X319268345Y-96806066I426776J260503D01*
G01*
X318625000Y-99050353D02*
G75*
G02*
X318581066Y-99206655I-299992J-3D01*
G01*
X319268345Y-99893934D02*
G75*
G02*
X318581066Y-99206655I-260503J426776D01*
G01*
X319268345Y-99893934D02*
G75*
G02*
X319424647Y-99850000I156299J-256058D01*
G01*
X319424647Y-96850000D02*
G75*
G02*
X319268345Y-96806066I-3J299992D01*
G01*
X321225353Y-99850000D02*
G75*
G02*
X321381656Y-99893933I-3J-300020D01*
G01*
X321381655Y-96806066D02*
G75*
G02*
X321225353Y-96849976I-156255J256066D01*
G01*
X321381655Y-96806066D02*
G75*
G02*
X322068934Y-97493345I260505J-426774D01*
G01*
X322025000Y-97649647D02*
G75*
G02*
X322068935Y-97493346I299680J87D01*
G01*
X322068934Y-99206655D02*
G75*
G02*
X321381655Y-99893934I-426774J-260505D01*
G01*
X322068934Y-99206655D02*
G75*
G02*
X322025024Y-99050353I256066J156255D01*
G01*
%TO.C,D24*%
X218200000Y-79150000D02*
X218200000Y-78449647D01*
X218200000Y-79150000D02*
X218200000Y-79850353D01*
X219900000Y-77650000D02*
X218999647Y-77650000D01*
X219900000Y-77650000D02*
X220800353Y-77650000D01*
X219900000Y-80650000D02*
X218999647Y-80650000D01*
X219900000Y-80650000D02*
X220800353Y-80650000D01*
X221600000Y-79150000D02*
X221600000Y-78449647D01*
X221600000Y-79150000D02*
X221600000Y-79850353D01*
X218156066Y-78293345D02*
G75*
G02*
X218199976Y-78449647I-256066J-156255D01*
G01*
X218156066Y-78293345D02*
G75*
G02*
X218843345Y-77606066I426774J260505D01*
G01*
X218200000Y-79850353D02*
G75*
G02*
X218156065Y-80006654I-299680J-87D01*
G01*
X218843345Y-80693934D02*
G75*
G02*
X218156066Y-80006655I-260505J426774D01*
G01*
X218843345Y-80693934D02*
G75*
G02*
X218999647Y-80650024I156255J-256066D01*
G01*
X218999647Y-77650000D02*
G75*
G02*
X218843344Y-77606067I3J300020D01*
G01*
X220800353Y-80650000D02*
G75*
G02*
X220956655Y-80693934I3J-299992D01*
G01*
X220956655Y-77606066D02*
G75*
G02*
X220800353Y-77650000I-156299J256058D01*
G01*
X220956655Y-77606066D02*
G75*
G02*
X221643934Y-78293345I260503J-426776D01*
G01*
X221600000Y-78449647D02*
G75*
G02*
X221643934Y-78293345I299992J3D01*
G01*
X221643934Y-80006655D02*
G75*
G02*
X220956655Y-80693934I-426776J-260503D01*
G01*
X221643934Y-80006655D02*
G75*
G02*
X221600000Y-79850353I256058J156299D01*
G01*
%TO.C,D38*%
X280325000Y-98250000D02*
X280325000Y-97549647D01*
X280325000Y-98250000D02*
X280325000Y-98950353D01*
X282025000Y-96750000D02*
X281124647Y-96750000D01*
X282025000Y-96750000D02*
X282925353Y-96750000D01*
X282025000Y-99750000D02*
X281124647Y-99750000D01*
X282025000Y-99750000D02*
X282925353Y-99750000D01*
X283725000Y-98250000D02*
X283725000Y-97549647D01*
X283725000Y-98250000D02*
X283725000Y-98950353D01*
X280281066Y-97393345D02*
G75*
G02*
X280325000Y-97549647I-256058J-156299D01*
G01*
X280281066Y-97393345D02*
G75*
G02*
X280968345Y-96706066I426776J260503D01*
G01*
X280325000Y-98950353D02*
G75*
G02*
X280281066Y-99106655I-299992J-3D01*
G01*
X280968345Y-99793934D02*
G75*
G02*
X280281066Y-99106655I-260503J426776D01*
G01*
X280968345Y-99793934D02*
G75*
G02*
X281124647Y-99750000I156299J-256058D01*
G01*
X281124647Y-96750000D02*
G75*
G02*
X280968345Y-96706066I-3J299992D01*
G01*
X282925353Y-99750000D02*
G75*
G02*
X283081656Y-99793933I-3J-300020D01*
G01*
X283081655Y-96706066D02*
G75*
G02*
X282925353Y-96749976I-156255J256066D01*
G01*
X283081655Y-96706066D02*
G75*
G02*
X283768934Y-97393345I260505J-426774D01*
G01*
X283725000Y-97549647D02*
G75*
G02*
X283768935Y-97393346I299680J87D01*
G01*
X283768934Y-99106655D02*
G75*
G02*
X283081655Y-99793934I-426774J-260505D01*
G01*
X283768934Y-99106655D02*
G75*
G02*
X283725024Y-98950353I256066J156255D01*
G01*
%TO.C,D19*%
X314150000Y-79200000D02*
X314150000Y-78499647D01*
X314150000Y-79200000D02*
X314150000Y-79900353D01*
X315850000Y-77700000D02*
X314949647Y-77700000D01*
X315850000Y-77700000D02*
X316750353Y-77700000D01*
X315850000Y-80700000D02*
X314949647Y-80700000D01*
X315850000Y-80700000D02*
X316750353Y-80700000D01*
X317550000Y-79200000D02*
X317550000Y-78499647D01*
X317550000Y-79200000D02*
X317550000Y-79900353D01*
X314106066Y-78343345D02*
G75*
G02*
X314149976Y-78499647I-256066J-156255D01*
G01*
X314106066Y-78343345D02*
G75*
G02*
X314793345Y-77656066I426774J260505D01*
G01*
X314150000Y-79900353D02*
G75*
G02*
X314106065Y-80056654I-299680J-87D01*
G01*
X314793345Y-80743934D02*
G75*
G02*
X314106066Y-80056655I-260505J426774D01*
G01*
X314793345Y-80743934D02*
G75*
G02*
X314949647Y-80700024I156255J-256066D01*
G01*
X314949647Y-77700000D02*
G75*
G02*
X314793344Y-77656067I3J300020D01*
G01*
X316750353Y-80700000D02*
G75*
G02*
X316906655Y-80743934I3J-299992D01*
G01*
X316906655Y-77656066D02*
G75*
G02*
X316750353Y-77700000I-156299J256058D01*
G01*
X316906655Y-77656066D02*
G75*
G02*
X317593934Y-78343345I260503J-426776D01*
G01*
X317550000Y-78499647D02*
G75*
G02*
X317593934Y-78343345I299992J3D01*
G01*
X317593934Y-80056655D02*
G75*
G02*
X316906655Y-80743934I-426776J-260503D01*
G01*
X317593934Y-80056655D02*
G75*
G02*
X317550000Y-79900353I256058J156299D01*
G01*
%TO.C,D22*%
X256650000Y-79250000D02*
X256650000Y-78549647D01*
X256650000Y-79250000D02*
X256650000Y-79950353D01*
X258350000Y-77750000D02*
X257449647Y-77750000D01*
X258350000Y-77750000D02*
X259250353Y-77750000D01*
X258350000Y-80750000D02*
X257449647Y-80750000D01*
X258350000Y-80750000D02*
X259250353Y-80750000D01*
X260050000Y-79250000D02*
X260050000Y-78549647D01*
X260050000Y-79250000D02*
X260050000Y-79950353D01*
X256606066Y-78393345D02*
G75*
G02*
X256649976Y-78549647I-256066J-156255D01*
G01*
X256606066Y-78393345D02*
G75*
G02*
X257293345Y-77706066I426774J260505D01*
G01*
X256650000Y-79950353D02*
G75*
G02*
X256606065Y-80106654I-299680J-87D01*
G01*
X257293345Y-80793934D02*
G75*
G02*
X256606066Y-80106655I-260505J426774D01*
G01*
X257293345Y-80793934D02*
G75*
G02*
X257449647Y-80750024I156255J-256066D01*
G01*
X257449647Y-77750000D02*
G75*
G02*
X257293344Y-77706067I3J300020D01*
G01*
X259250353Y-80750000D02*
G75*
G02*
X259406655Y-80793934I3J-299992D01*
G01*
X259406655Y-77706066D02*
G75*
G02*
X259250353Y-77750000I-156299J256058D01*
G01*
X259406655Y-77706066D02*
G75*
G02*
X260093934Y-78393345I260503J-426776D01*
G01*
X260050000Y-78549647D02*
G75*
G02*
X260093934Y-78393345I299992J3D01*
G01*
X260093934Y-80106655D02*
G75*
G02*
X259406655Y-80793934I-426776J-260503D01*
G01*
X260093934Y-80106655D02*
G75*
G02*
X260050000Y-79950353I256058J156299D01*
G01*
%TO.C,D49*%
X232625000Y-117300000D02*
X232625000Y-116599647D01*
X232625000Y-117300000D02*
X232625000Y-118000353D01*
X234325000Y-115800000D02*
X233424647Y-115800000D01*
X234325000Y-115800000D02*
X235225353Y-115800000D01*
X234325000Y-118800000D02*
X233424647Y-118800000D01*
X234325000Y-118800000D02*
X235225353Y-118800000D01*
X236025000Y-117300000D02*
X236025000Y-116599647D01*
X236025000Y-117300000D02*
X236025000Y-118000353D01*
X232581066Y-116443345D02*
G75*
G02*
X232624976Y-116599647I-256066J-156255D01*
G01*
X232581066Y-116443345D02*
G75*
G02*
X233268345Y-115756066I426774J260505D01*
G01*
X232625000Y-118000353D02*
G75*
G02*
X232581065Y-118156654I-299680J-87D01*
G01*
X233268345Y-118843934D02*
G75*
G02*
X232581066Y-118156655I-260505J426774D01*
G01*
X233268345Y-118843934D02*
G75*
G02*
X233424647Y-118800024I156255J-256066D01*
G01*
X233424647Y-115800000D02*
G75*
G02*
X233268344Y-115756067I3J300020D01*
G01*
X235225353Y-118800000D02*
G75*
G02*
X235381655Y-118843934I3J-299992D01*
G01*
X235381655Y-115756066D02*
G75*
G02*
X235225353Y-115800000I-156299J256058D01*
G01*
X235381655Y-115756066D02*
G75*
G02*
X236068934Y-116443345I260503J-426776D01*
G01*
X236025000Y-116599647D02*
G75*
G02*
X236068934Y-116443345I299992J3D01*
G01*
X236068934Y-118156655D02*
G75*
G02*
X235381655Y-118843934I-426776J-260503D01*
G01*
X236068934Y-118156655D02*
G75*
G02*
X236025000Y-118000353I256058J156299D01*
G01*
%TO.C,D37*%
X261500000Y-98250000D02*
X261500000Y-97549647D01*
X261500000Y-98250000D02*
X261500000Y-98950353D01*
X263200000Y-96750000D02*
X262299647Y-96750000D01*
X263200000Y-96750000D02*
X264100353Y-96750000D01*
X263200000Y-99750000D02*
X262299647Y-99750000D01*
X263200000Y-99750000D02*
X264100353Y-99750000D01*
X264900000Y-98250000D02*
X264900000Y-97549647D01*
X264900000Y-98250000D02*
X264900000Y-98950353D01*
X261456066Y-97393345D02*
G75*
G02*
X261500000Y-97549647I-256058J-156299D01*
G01*
X261456066Y-97393345D02*
G75*
G02*
X262143345Y-96706066I426776J260503D01*
G01*
X261500000Y-98950353D02*
G75*
G02*
X261456066Y-99106655I-299992J-3D01*
G01*
X262143345Y-99793934D02*
G75*
G02*
X261456066Y-99106655I-260503J426776D01*
G01*
X262143345Y-99793934D02*
G75*
G02*
X262299647Y-99750000I156299J-256058D01*
G01*
X262299647Y-96750000D02*
G75*
G02*
X262143345Y-96706066I-3J299992D01*
G01*
X264100353Y-99750000D02*
G75*
G02*
X264256656Y-99793933I-3J-300020D01*
G01*
X264256655Y-96706066D02*
G75*
G02*
X264100353Y-96749976I-156255J256066D01*
G01*
X264256655Y-96706066D02*
G75*
G02*
X264943934Y-97393345I260505J-426774D01*
G01*
X264900000Y-97549647D02*
G75*
G02*
X264943935Y-97393346I299680J87D01*
G01*
X264943934Y-99106655D02*
G75*
G02*
X264256655Y-99793934I-426774J-260505D01*
G01*
X264943934Y-99106655D02*
G75*
G02*
X264900024Y-98950353I256066J156255D01*
G01*
%TO.C,D30*%
X119825000Y-98350000D02*
X119825000Y-97649647D01*
X119825000Y-98350000D02*
X119825000Y-99050353D01*
X121525000Y-96850000D02*
X120624647Y-96850000D01*
X121525000Y-96850000D02*
X122425353Y-96850000D01*
X121525000Y-99850000D02*
X120624647Y-99850000D01*
X121525000Y-99850000D02*
X122425353Y-99850000D01*
X123225000Y-98350000D02*
X123225000Y-97649647D01*
X123225000Y-98350000D02*
X123225000Y-99050353D01*
X119781066Y-97493345D02*
G75*
G02*
X119825000Y-97649647I-256058J-156299D01*
G01*
X119781066Y-97493345D02*
G75*
G02*
X120468345Y-96806066I426776J260503D01*
G01*
X119825000Y-99050353D02*
G75*
G02*
X119781066Y-99206655I-299992J-3D01*
G01*
X120468345Y-99893934D02*
G75*
G02*
X119781066Y-99206655I-260503J426776D01*
G01*
X120468345Y-99893934D02*
G75*
G02*
X120624647Y-99850000I156299J-256058D01*
G01*
X120624647Y-96850000D02*
G75*
G02*
X120468345Y-96806066I-3J299992D01*
G01*
X122425353Y-99850000D02*
G75*
G02*
X122581656Y-99893933I-3J-300020D01*
G01*
X122581655Y-96806066D02*
G75*
G02*
X122425353Y-96849976I-156255J256066D01*
G01*
X122581655Y-96806066D02*
G75*
G02*
X123268934Y-97493345I260505J-426774D01*
G01*
X123225000Y-97649647D02*
G75*
G02*
X123268935Y-97493346I299680J87D01*
G01*
X123268934Y-99206655D02*
G75*
G02*
X122581655Y-99893934I-426774J-260505D01*
G01*
X123268934Y-99206655D02*
G75*
G02*
X123225024Y-99050353I256066J156255D01*
G01*
%TO.C,D33*%
X184475000Y-98300000D02*
X184475000Y-97599647D01*
X184475000Y-98300000D02*
X184475000Y-99000353D01*
X186175000Y-96800000D02*
X185274647Y-96800000D01*
X186175000Y-96800000D02*
X187075353Y-96800000D01*
X186175000Y-99800000D02*
X185274647Y-99800000D01*
X186175000Y-99800000D02*
X187075353Y-99800000D01*
X187875000Y-98300000D02*
X187875000Y-97599647D01*
X187875000Y-98300000D02*
X187875000Y-99000353D01*
X184431066Y-97443345D02*
G75*
G02*
X184475000Y-97599647I-256058J-156299D01*
G01*
X184431066Y-97443345D02*
G75*
G02*
X185118345Y-96756066I426776J260503D01*
G01*
X184475000Y-99000353D02*
G75*
G02*
X184431066Y-99156655I-299992J-3D01*
G01*
X185118345Y-99843934D02*
G75*
G02*
X184431066Y-99156655I-260503J426776D01*
G01*
X185118345Y-99843934D02*
G75*
G02*
X185274647Y-99800000I156299J-256058D01*
G01*
X185274647Y-96800000D02*
G75*
G02*
X185118345Y-96756066I-3J299992D01*
G01*
X187075353Y-99800000D02*
G75*
G02*
X187231656Y-99843933I-3J-300020D01*
G01*
X187231655Y-96756066D02*
G75*
G02*
X187075353Y-96799976I-156255J256066D01*
G01*
X187231655Y-96756066D02*
G75*
G02*
X187918934Y-97443345I260505J-426774D01*
G01*
X187875000Y-97599647D02*
G75*
G02*
X187918935Y-97443346I299680J87D01*
G01*
X187918934Y-99156655D02*
G75*
G02*
X187231655Y-99843934I-426774J-260505D01*
G01*
X187918934Y-99156655D02*
G75*
G02*
X187875024Y-99000353I256066J156255D01*
G01*
%TO.C,D5*%
X170750000Y-60250000D02*
X170750000Y-59549647D01*
X170750000Y-60250000D02*
X170750000Y-60950353D01*
X172450000Y-58750000D02*
X171549647Y-58750000D01*
X172450000Y-58750000D02*
X173350353Y-58750000D01*
X172450000Y-61750000D02*
X171549647Y-61750000D01*
X172450000Y-61750000D02*
X173350353Y-61750000D01*
X174150000Y-60250000D02*
X174150000Y-59549647D01*
X174150000Y-60250000D02*
X174150000Y-60950353D01*
X170706066Y-59393345D02*
G75*
G02*
X170750000Y-59549647I-256058J-156299D01*
G01*
X170706066Y-59393345D02*
G75*
G02*
X171393345Y-58706066I426776J260503D01*
G01*
X170750000Y-60950353D02*
G75*
G02*
X170706066Y-61106655I-299992J-3D01*
G01*
X171393345Y-61793934D02*
G75*
G02*
X170706066Y-61106655I-260503J426776D01*
G01*
X171393345Y-61793934D02*
G75*
G02*
X171549647Y-61750000I156299J-256058D01*
G01*
X171549647Y-58750000D02*
G75*
G02*
X171393345Y-58706066I-3J299992D01*
G01*
X173350353Y-61750000D02*
G75*
G02*
X173506656Y-61793933I-3J-300020D01*
G01*
X173506655Y-58706066D02*
G75*
G02*
X173350353Y-58749976I-156255J256066D01*
G01*
X173506655Y-58706066D02*
G75*
G02*
X174193934Y-59393345I260505J-426774D01*
G01*
X174150000Y-59549647D02*
G75*
G02*
X174193935Y-59393346I299680J87D01*
G01*
X174193934Y-61106655D02*
G75*
G02*
X173506655Y-61793934I-426774J-260505D01*
G01*
X174193934Y-61106655D02*
G75*
G02*
X174150024Y-60950353I256066J156255D01*
G01*
%TO.C,D53*%
X155725000Y-117550000D02*
X155725000Y-116849647D01*
X155725000Y-117550000D02*
X155725000Y-118250353D01*
X157425000Y-116050000D02*
X156524647Y-116050000D01*
X157425000Y-116050000D02*
X158325353Y-116050000D01*
X157425000Y-119050000D02*
X156524647Y-119050000D01*
X157425000Y-119050000D02*
X158325353Y-119050000D01*
X159125000Y-117550000D02*
X159125000Y-116849647D01*
X159125000Y-117550000D02*
X159125000Y-118250353D01*
X155681066Y-116693345D02*
G75*
G02*
X155724976Y-116849647I-256066J-156255D01*
G01*
X155681066Y-116693345D02*
G75*
G02*
X156368345Y-116006066I426774J260505D01*
G01*
X155725000Y-118250353D02*
G75*
G02*
X155681065Y-118406654I-299680J-87D01*
G01*
X156368345Y-119093934D02*
G75*
G02*
X155681066Y-118406655I-260505J426774D01*
G01*
X156368345Y-119093934D02*
G75*
G02*
X156524647Y-119050024I156255J-256066D01*
G01*
X156524647Y-116050000D02*
G75*
G02*
X156368344Y-116006067I3J300020D01*
G01*
X158325353Y-119050000D02*
G75*
G02*
X158481655Y-119093934I3J-299992D01*
G01*
X158481655Y-116006066D02*
G75*
G02*
X158325353Y-116050000I-156299J256058D01*
G01*
X158481655Y-116006066D02*
G75*
G02*
X159168934Y-116693345I260503J-426776D01*
G01*
X159125000Y-116849647D02*
G75*
G02*
X159168934Y-116693345I299992J3D01*
G01*
X159168934Y-118406655D02*
G75*
G02*
X158481655Y-119093934I-426776J-260503D01*
G01*
X159168934Y-118406655D02*
G75*
G02*
X159125000Y-118250353I256058J156299D01*
G01*
%TO.C,D51*%
X194325000Y-117750000D02*
X194325000Y-117049647D01*
X194325000Y-117750000D02*
X194325000Y-118450353D01*
X196025000Y-116250000D02*
X195124647Y-116250000D01*
X196025000Y-116250000D02*
X196925353Y-116250000D01*
X196025000Y-119250000D02*
X195124647Y-119250000D01*
X196025000Y-119250000D02*
X196925353Y-119250000D01*
X197725000Y-117750000D02*
X197725000Y-117049647D01*
X197725000Y-117750000D02*
X197725000Y-118450353D01*
X194281066Y-116893345D02*
G75*
G02*
X194324976Y-117049647I-256066J-156255D01*
G01*
X194281066Y-116893345D02*
G75*
G02*
X194968345Y-116206066I426774J260505D01*
G01*
X194325000Y-118450353D02*
G75*
G02*
X194281065Y-118606654I-299680J-87D01*
G01*
X194968345Y-119293934D02*
G75*
G02*
X194281066Y-118606655I-260505J426774D01*
G01*
X194968345Y-119293934D02*
G75*
G02*
X195124647Y-119250024I156255J-256066D01*
G01*
X195124647Y-116250000D02*
G75*
G02*
X194968344Y-116206067I3J300020D01*
G01*
X196925353Y-119250000D02*
G75*
G02*
X197081655Y-119293934I3J-299992D01*
G01*
X197081655Y-116206066D02*
G75*
G02*
X196925353Y-116250000I-156299J256058D01*
G01*
X197081655Y-116206066D02*
G75*
G02*
X197768934Y-116893345I260503J-426776D01*
G01*
X197725000Y-117049647D02*
G75*
G02*
X197768934Y-116893345I299992J3D01*
G01*
X197768934Y-118606655D02*
G75*
G02*
X197081655Y-119293934I-426776J-260503D01*
G01*
X197768934Y-118606655D02*
G75*
G02*
X197725000Y-118450353I256058J156299D01*
G01*
%TO.C,D41*%
X337900000Y-98400000D02*
X337900000Y-97699647D01*
X337900000Y-98400000D02*
X337900000Y-99100353D01*
X339600000Y-96900000D02*
X338699647Y-96900000D01*
X339600000Y-96900000D02*
X340500353Y-96900000D01*
X339600000Y-99900000D02*
X338699647Y-99900000D01*
X339600000Y-99900000D02*
X340500353Y-99900000D01*
X341300000Y-98400000D02*
X341300000Y-97699647D01*
X341300000Y-98400000D02*
X341300000Y-99100353D01*
X337856066Y-97543345D02*
G75*
G02*
X337900000Y-97699647I-256058J-156299D01*
G01*
X337856066Y-97543345D02*
G75*
G02*
X338543345Y-96856066I426776J260503D01*
G01*
X337900000Y-99100353D02*
G75*
G02*
X337856066Y-99256655I-299992J-3D01*
G01*
X338543345Y-99943934D02*
G75*
G02*
X337856066Y-99256655I-260503J426776D01*
G01*
X338543345Y-99943934D02*
G75*
G02*
X338699647Y-99900000I156299J-256058D01*
G01*
X338699647Y-96900000D02*
G75*
G02*
X338543345Y-96856066I-3J299992D01*
G01*
X340500353Y-99900000D02*
G75*
G02*
X340656656Y-99943933I-3J-300020D01*
G01*
X340656655Y-96856066D02*
G75*
G02*
X340500353Y-96899976I-156255J256066D01*
G01*
X340656655Y-96856066D02*
G75*
G02*
X341343934Y-97543345I260505J-426774D01*
G01*
X341300000Y-97699647D02*
G75*
G02*
X341343935Y-97543346I299680J87D01*
G01*
X341343934Y-99256655D02*
G75*
G02*
X340656655Y-99943934I-426774J-260505D01*
G01*
X341343934Y-99256655D02*
G75*
G02*
X341300024Y-99100353I256066J156255D01*
G01*
%TO.C,D16*%
X376625000Y-79300000D02*
X376625000Y-78599647D01*
X376625000Y-79300000D02*
X376625000Y-80000353D01*
X378325000Y-77800000D02*
X377424647Y-77800000D01*
X378325000Y-77800000D02*
X379225353Y-77800000D01*
X378325000Y-80800000D02*
X377424647Y-80800000D01*
X378325000Y-80800000D02*
X379225353Y-80800000D01*
X380025000Y-79300000D02*
X380025000Y-78599647D01*
X380025000Y-79300000D02*
X380025000Y-80000353D01*
X376581066Y-78443345D02*
G75*
G02*
X376624976Y-78599647I-256066J-156255D01*
G01*
X376581066Y-78443345D02*
G75*
G02*
X377268345Y-77756066I426774J260505D01*
G01*
X376625000Y-80000353D02*
G75*
G02*
X376581065Y-80156654I-299680J-87D01*
G01*
X377268345Y-80843934D02*
G75*
G02*
X376581066Y-80156655I-260505J426774D01*
G01*
X377268345Y-80843934D02*
G75*
G02*
X377424647Y-80800024I156255J-256066D01*
G01*
X377424647Y-77800000D02*
G75*
G02*
X377268344Y-77756067I3J300020D01*
G01*
X379225353Y-80800000D02*
G75*
G02*
X379381655Y-80843934I3J-299992D01*
G01*
X379381655Y-77756066D02*
G75*
G02*
X379225353Y-77800000I-156299J256058D01*
G01*
X379381655Y-77756066D02*
G75*
G02*
X380068934Y-78443345I260503J-426776D01*
G01*
X380025000Y-78599647D02*
G75*
G02*
X380068934Y-78443345I299992J3D01*
G01*
X380068934Y-80156655D02*
G75*
G02*
X379381655Y-80843934I-426776J-260503D01*
G01*
X380068934Y-80156655D02*
G75*
G02*
X380025000Y-80000353I256058J156299D01*
G01*
%TO.C,D61*%
X306525000Y-136900000D02*
X306525000Y-136199647D01*
X306525000Y-136900000D02*
X306525000Y-137600353D01*
X308225000Y-135400000D02*
X307324647Y-135400000D01*
X308225000Y-135400000D02*
X309125353Y-135400000D01*
X308225000Y-138400000D02*
X307324647Y-138400000D01*
X308225000Y-138400000D02*
X309125353Y-138400000D01*
X309925000Y-136900000D02*
X309925000Y-136199647D01*
X309925000Y-136900000D02*
X309925000Y-137600353D01*
X306481066Y-136043345D02*
G75*
G02*
X306525000Y-136199647I-256058J-156299D01*
G01*
X306481066Y-136043345D02*
G75*
G02*
X307168345Y-135356066I426776J260503D01*
G01*
X306525000Y-137600353D02*
G75*
G02*
X306481066Y-137756655I-299992J-3D01*
G01*
X307168345Y-138443934D02*
G75*
G02*
X306481066Y-137756655I-260503J426776D01*
G01*
X307168345Y-138443934D02*
G75*
G02*
X307324647Y-138400000I156299J-256058D01*
G01*
X307324647Y-135400000D02*
G75*
G02*
X307168345Y-135356066I-3J299992D01*
G01*
X309125353Y-138400000D02*
G75*
G02*
X309281656Y-138443933I-3J-300020D01*
G01*
X309281655Y-135356066D02*
G75*
G02*
X309125353Y-135399976I-156255J256066D01*
G01*
X309281655Y-135356066D02*
G75*
G02*
X309968934Y-136043345I260505J-426774D01*
G01*
X309925000Y-136199647D02*
G75*
G02*
X309968935Y-136043346I299680J87D01*
G01*
X309968934Y-137756655D02*
G75*
G02*
X309281655Y-138443934I-426774J-260505D01*
G01*
X309968934Y-137756655D02*
G75*
G02*
X309925024Y-137600353I256066J156255D01*
G01*
%TO.C,D7*%
X209175000Y-60100000D02*
X209175000Y-59399647D01*
X209175000Y-60100000D02*
X209175000Y-60800353D01*
X210875000Y-58600000D02*
X209974647Y-58600000D01*
X210875000Y-58600000D02*
X211775353Y-58600000D01*
X210875000Y-61600000D02*
X209974647Y-61600000D01*
X210875000Y-61600000D02*
X211775353Y-61600000D01*
X212575000Y-60100000D02*
X212575000Y-59399647D01*
X212575000Y-60100000D02*
X212575000Y-60800353D01*
X209131066Y-59243345D02*
G75*
G02*
X209175000Y-59399647I-256058J-156299D01*
G01*
X209131066Y-59243345D02*
G75*
G02*
X209818345Y-58556066I426776J260503D01*
G01*
X209175000Y-60800353D02*
G75*
G02*
X209131066Y-60956655I-299992J-3D01*
G01*
X209818345Y-61643934D02*
G75*
G02*
X209131066Y-60956655I-260503J426776D01*
G01*
X209818345Y-61643934D02*
G75*
G02*
X209974647Y-61600000I156299J-256058D01*
G01*
X209974647Y-58600000D02*
G75*
G02*
X209818345Y-58556066I-3J299992D01*
G01*
X211775353Y-61600000D02*
G75*
G02*
X211931656Y-61643933I-3J-300020D01*
G01*
X211931655Y-58556066D02*
G75*
G02*
X211775353Y-58599976I-156255J256066D01*
G01*
X211931655Y-58556066D02*
G75*
G02*
X212618934Y-59243345I260505J-426774D01*
G01*
X212575000Y-59399647D02*
G75*
G02*
X212618935Y-59243346I299680J87D01*
G01*
X212618934Y-60956655D02*
G75*
G02*
X211931655Y-61643934I-426774J-260505D01*
G01*
X212618934Y-60956655D02*
G75*
G02*
X212575024Y-60800353I256066J156255D01*
G01*
%TO.C,D25*%
X199100000Y-79150000D02*
X199100000Y-78449647D01*
X199100000Y-79150000D02*
X199100000Y-79850353D01*
X200800000Y-77650000D02*
X199899647Y-77650000D01*
X200800000Y-77650000D02*
X201700353Y-77650000D01*
X200800000Y-80650000D02*
X199899647Y-80650000D01*
X200800000Y-80650000D02*
X201700353Y-80650000D01*
X202500000Y-79150000D02*
X202500000Y-78449647D01*
X202500000Y-79150000D02*
X202500000Y-79850353D01*
X199056066Y-78293345D02*
G75*
G02*
X199099976Y-78449647I-256066J-156255D01*
G01*
X199056066Y-78293345D02*
G75*
G02*
X199743345Y-77606066I426774J260505D01*
G01*
X199100000Y-79850353D02*
G75*
G02*
X199056065Y-80006654I-299680J-87D01*
G01*
X199743345Y-80693934D02*
G75*
G02*
X199056066Y-80006655I-260505J426774D01*
G01*
X199743345Y-80693934D02*
G75*
G02*
X199899647Y-80650024I156255J-256066D01*
G01*
X199899647Y-77650000D02*
G75*
G02*
X199743344Y-77606067I3J300020D01*
G01*
X201700353Y-80650000D02*
G75*
G02*
X201856655Y-80693934I3J-299992D01*
G01*
X201856655Y-77606066D02*
G75*
G02*
X201700353Y-77650000I-156299J256058D01*
G01*
X201856655Y-77606066D02*
G75*
G02*
X202543934Y-78293345I260503J-426776D01*
G01*
X202500000Y-78449647D02*
G75*
G02*
X202543934Y-78293345I299992J3D01*
G01*
X202543934Y-80006655D02*
G75*
G02*
X201856655Y-80693934I-426776J-260503D01*
G01*
X202543934Y-80006655D02*
G75*
G02*
X202500000Y-79850353I256058J156299D01*
G01*
%TO.C,D8*%
X228175000Y-59900000D02*
X228175000Y-59199647D01*
X228175000Y-59900000D02*
X228175000Y-60600353D01*
X229875000Y-58400000D02*
X228974647Y-58400000D01*
X229875000Y-58400000D02*
X230775353Y-58400000D01*
X229875000Y-61400000D02*
X228974647Y-61400000D01*
X229875000Y-61400000D02*
X230775353Y-61400000D01*
X231575000Y-59900000D02*
X231575000Y-59199647D01*
X231575000Y-59900000D02*
X231575000Y-60600353D01*
X228131066Y-59043345D02*
G75*
G02*
X228175000Y-59199647I-256058J-156299D01*
G01*
X228131066Y-59043345D02*
G75*
G02*
X228818345Y-58356066I426776J260503D01*
G01*
X228175000Y-60600353D02*
G75*
G02*
X228131066Y-60756655I-299992J-3D01*
G01*
X228818345Y-61443934D02*
G75*
G02*
X228131066Y-60756655I-260503J426776D01*
G01*
X228818345Y-61443934D02*
G75*
G02*
X228974647Y-61400000I156299J-256058D01*
G01*
X228974647Y-58400000D02*
G75*
G02*
X228818345Y-58356066I-3J299992D01*
G01*
X230775353Y-61400000D02*
G75*
G02*
X230931656Y-61443933I-3J-300020D01*
G01*
X230931655Y-58356066D02*
G75*
G02*
X230775353Y-58399976I-156255J256066D01*
G01*
X230931655Y-58356066D02*
G75*
G02*
X231618934Y-59043345I260505J-426774D01*
G01*
X231575000Y-59199647D02*
G75*
G02*
X231618935Y-59043346I299680J87D01*
G01*
X231618934Y-60756655D02*
G75*
G02*
X230931655Y-61443934I-426774J-260505D01*
G01*
X231618934Y-60756655D02*
G75*
G02*
X231575024Y-60600353I256066J156255D01*
G01*
%TO.C,D46*%
X290000000Y-117600000D02*
X290000000Y-116899647D01*
X290000000Y-117600000D02*
X290000000Y-118300353D01*
X291700000Y-116100000D02*
X290799647Y-116100000D01*
X291700000Y-116100000D02*
X292600353Y-116100000D01*
X291700000Y-119100000D02*
X290799647Y-119100000D01*
X291700000Y-119100000D02*
X292600353Y-119100000D01*
X293400000Y-117600000D02*
X293400000Y-116899647D01*
X293400000Y-117600000D02*
X293400000Y-118300353D01*
X289956066Y-116743345D02*
G75*
G02*
X289999976Y-116899647I-256066J-156255D01*
G01*
X289956066Y-116743345D02*
G75*
G02*
X290643345Y-116056066I426774J260505D01*
G01*
X290000000Y-118300353D02*
G75*
G02*
X289956065Y-118456654I-299680J-87D01*
G01*
X290643345Y-119143934D02*
G75*
G02*
X289956066Y-118456655I-260505J426774D01*
G01*
X290643345Y-119143934D02*
G75*
G02*
X290799647Y-119100024I156255J-256066D01*
G01*
X290799647Y-116100000D02*
G75*
G02*
X290643344Y-116056067I3J300020D01*
G01*
X292600353Y-119100000D02*
G75*
G02*
X292756655Y-119143934I3J-299992D01*
G01*
X292756655Y-116056066D02*
G75*
G02*
X292600353Y-116100000I-156299J256058D01*
G01*
X292756655Y-116056066D02*
G75*
G02*
X293443934Y-116743345I260503J-426776D01*
G01*
X293400000Y-116899647D02*
G75*
G02*
X293443934Y-116743345I299992J3D01*
G01*
X293443934Y-118456655D02*
G75*
G02*
X292756655Y-119143934I-426776J-260503D01*
G01*
X293443934Y-118456655D02*
G75*
G02*
X293400000Y-118300353I256058J156299D01*
G01*
%TO.C,D26*%
X180050000Y-79100000D02*
X180050000Y-78399647D01*
X180050000Y-79100000D02*
X180050000Y-79800353D01*
X181750000Y-77600000D02*
X180849647Y-77600000D01*
X181750000Y-77600000D02*
X182650353Y-77600000D01*
X181750000Y-80600000D02*
X180849647Y-80600000D01*
X181750000Y-80600000D02*
X182650353Y-80600000D01*
X183450000Y-79100000D02*
X183450000Y-78399647D01*
X183450000Y-79100000D02*
X183450000Y-79800353D01*
X180006066Y-78243345D02*
G75*
G02*
X180049976Y-78399647I-256066J-156255D01*
G01*
X180006066Y-78243345D02*
G75*
G02*
X180693345Y-77556066I426774J260505D01*
G01*
X180050000Y-79800353D02*
G75*
G02*
X180006065Y-79956654I-299680J-87D01*
G01*
X180693345Y-80643934D02*
G75*
G02*
X180006066Y-79956655I-260505J426774D01*
G01*
X180693345Y-80643934D02*
G75*
G02*
X180849647Y-80600024I156255J-256066D01*
G01*
X180849647Y-77600000D02*
G75*
G02*
X180693344Y-77556067I3J300020D01*
G01*
X182650353Y-80600000D02*
G75*
G02*
X182806655Y-80643934I3J-299992D01*
G01*
X182806655Y-77556066D02*
G75*
G02*
X182650353Y-77600000I-156299J256058D01*
G01*
X182806655Y-77556066D02*
G75*
G02*
X183493934Y-78243345I260503J-426776D01*
G01*
X183450000Y-78399647D02*
G75*
G02*
X183493934Y-78243345I299992J3D01*
G01*
X183493934Y-79956655D02*
G75*
G02*
X182806655Y-80643934I-426776J-260503D01*
G01*
X183493934Y-79956655D02*
G75*
G02*
X183450000Y-79800353I256058J156299D01*
G01*
%TO.C,D36*%
X242050000Y-98250000D02*
X242050000Y-97549647D01*
X242050000Y-98250000D02*
X242050000Y-98950353D01*
X243750000Y-96750000D02*
X242849647Y-96750000D01*
X243750000Y-96750000D02*
X244650353Y-96750000D01*
X243750000Y-99750000D02*
X242849647Y-99750000D01*
X243750000Y-99750000D02*
X244650353Y-99750000D01*
X245450000Y-98250000D02*
X245450000Y-97549647D01*
X245450000Y-98250000D02*
X245450000Y-98950353D01*
X242006066Y-97393345D02*
G75*
G02*
X242050000Y-97549647I-256058J-156299D01*
G01*
X242006066Y-97393345D02*
G75*
G02*
X242693345Y-96706066I426776J260503D01*
G01*
X242050000Y-98950353D02*
G75*
G02*
X242006066Y-99106655I-299992J-3D01*
G01*
X242693345Y-99793934D02*
G75*
G02*
X242006066Y-99106655I-260503J426776D01*
G01*
X242693345Y-99793934D02*
G75*
G02*
X242849647Y-99750000I156299J-256058D01*
G01*
X242849647Y-96750000D02*
G75*
G02*
X242693345Y-96706066I-3J299992D01*
G01*
X244650353Y-99750000D02*
G75*
G02*
X244806656Y-99793933I-3J-300020D01*
G01*
X244806655Y-96706066D02*
G75*
G02*
X244650353Y-96749976I-156255J256066D01*
G01*
X244806655Y-96706066D02*
G75*
G02*
X245493934Y-97393345I260505J-426774D01*
G01*
X245450000Y-97549647D02*
G75*
G02*
X245493935Y-97393346I299680J87D01*
G01*
X245493934Y-99106655D02*
G75*
G02*
X244806655Y-99793934I-426774J-260505D01*
G01*
X245493934Y-99106655D02*
G75*
G02*
X245450024Y-98950353I256066J156255D01*
G01*
%TO.C,D43*%
X364600000Y-117400000D02*
X364600000Y-116699647D01*
X364600000Y-117400000D02*
X364600000Y-118100353D01*
X366300000Y-115900000D02*
X365399647Y-115900000D01*
X366300000Y-115900000D02*
X367200353Y-115900000D01*
X366300000Y-118900000D02*
X365399647Y-118900000D01*
X366300000Y-118900000D02*
X367200353Y-118900000D01*
X368000000Y-117400000D02*
X368000000Y-116699647D01*
X368000000Y-117400000D02*
X368000000Y-118100353D01*
X364556066Y-116543345D02*
G75*
G02*
X364599976Y-116699647I-256066J-156255D01*
G01*
X364556066Y-116543345D02*
G75*
G02*
X365243345Y-115856066I426774J260505D01*
G01*
X364600000Y-118100353D02*
G75*
G02*
X364556065Y-118256654I-299680J-87D01*
G01*
X365243345Y-118943934D02*
G75*
G02*
X364556066Y-118256655I-260505J426774D01*
G01*
X365243345Y-118943934D02*
G75*
G02*
X365399647Y-118900024I156255J-256066D01*
G01*
X365399647Y-115900000D02*
G75*
G02*
X365243344Y-115856067I3J300020D01*
G01*
X367200353Y-118900000D02*
G75*
G02*
X367356655Y-118943934I3J-299992D01*
G01*
X367356655Y-115856066D02*
G75*
G02*
X367200353Y-115900000I-156299J256058D01*
G01*
X367356655Y-115856066D02*
G75*
G02*
X368043934Y-116543345I260503J-426776D01*
G01*
X368000000Y-116699647D02*
G75*
G02*
X368043934Y-116543345I299992J3D01*
G01*
X368043934Y-118256655D02*
G75*
G02*
X367356655Y-118943934I-426776J-260503D01*
G01*
X368043934Y-118256655D02*
G75*
G02*
X368000000Y-118100353I256058J156299D01*
G01*
%TO.C,D18*%
X333125000Y-79200000D02*
X333125000Y-78499647D01*
X333125000Y-79200000D02*
X333125000Y-79900353D01*
X334825000Y-77700000D02*
X333924647Y-77700000D01*
X334825000Y-77700000D02*
X335725353Y-77700000D01*
X334825000Y-80700000D02*
X333924647Y-80700000D01*
X334825000Y-80700000D02*
X335725353Y-80700000D01*
X336525000Y-79200000D02*
X336525000Y-78499647D01*
X336525000Y-79200000D02*
X336525000Y-79900353D01*
X333081066Y-78343345D02*
G75*
G02*
X333124976Y-78499647I-256066J-156255D01*
G01*
X333081066Y-78343345D02*
G75*
G02*
X333768345Y-77656066I426774J260505D01*
G01*
X333125000Y-79900353D02*
G75*
G02*
X333081065Y-80056654I-299680J-87D01*
G01*
X333768345Y-80743934D02*
G75*
G02*
X333081066Y-80056655I-260505J426774D01*
G01*
X333768345Y-80743934D02*
G75*
G02*
X333924647Y-80700024I156255J-256066D01*
G01*
X333924647Y-77700000D02*
G75*
G02*
X333768344Y-77656067I3J300020D01*
G01*
X335725353Y-80700000D02*
G75*
G02*
X335881655Y-80743934I3J-299992D01*
G01*
X335881655Y-77656066D02*
G75*
G02*
X335725353Y-77700000I-156299J256058D01*
G01*
X335881655Y-77656066D02*
G75*
G02*
X336568934Y-78343345I260503J-426776D01*
G01*
X336525000Y-78499647D02*
G75*
G02*
X336568934Y-78343345I299992J3D01*
G01*
X336568934Y-80056655D02*
G75*
G02*
X335881655Y-80743934I-426776J-260503D01*
G01*
X336568934Y-80056655D02*
G75*
G02*
X336525000Y-79900353I256058J156299D01*
G01*
%TO.C,D27*%
X160700000Y-79050000D02*
X160700000Y-78349647D01*
X160700000Y-79050000D02*
X160700000Y-79750353D01*
X162400000Y-77550000D02*
X161499647Y-77550000D01*
X162400000Y-77550000D02*
X163300353Y-77550000D01*
X162400000Y-80550000D02*
X161499647Y-80550000D01*
X162400000Y-80550000D02*
X163300353Y-80550000D01*
X164100000Y-79050000D02*
X164100000Y-78349647D01*
X164100000Y-79050000D02*
X164100000Y-79750353D01*
X160656066Y-78193345D02*
G75*
G02*
X160699976Y-78349647I-256066J-156255D01*
G01*
X160656066Y-78193345D02*
G75*
G02*
X161343345Y-77506066I426774J260505D01*
G01*
X160700000Y-79750353D02*
G75*
G02*
X160656065Y-79906654I-299680J-87D01*
G01*
X161343345Y-80593934D02*
G75*
G02*
X160656066Y-79906655I-260505J426774D01*
G01*
X161343345Y-80593934D02*
G75*
G02*
X161499647Y-80550024I156255J-256066D01*
G01*
X161499647Y-77550000D02*
G75*
G02*
X161343344Y-77506067I3J300020D01*
G01*
X163300353Y-80550000D02*
G75*
G02*
X163456655Y-80593934I3J-299992D01*
G01*
X163456655Y-77506066D02*
G75*
G02*
X163300353Y-77550000I-156299J256058D01*
G01*
X163456655Y-77506066D02*
G75*
G02*
X164143934Y-78193345I260503J-426776D01*
G01*
X164100000Y-78349647D02*
G75*
G02*
X164143934Y-78193345I299992J3D01*
G01*
X164143934Y-79906655D02*
G75*
G02*
X163456655Y-80593934I-426776J-260503D01*
G01*
X164143934Y-79906655D02*
G75*
G02*
X164100000Y-79750353I256058J156299D01*
G01*
%TO.C,D20*%
X294750000Y-79200000D02*
X294750000Y-78499647D01*
X294750000Y-79200000D02*
X294750000Y-79900353D01*
X296450000Y-77700000D02*
X295549647Y-77700000D01*
X296450000Y-77700000D02*
X297350353Y-77700000D01*
X296450000Y-80700000D02*
X295549647Y-80700000D01*
X296450000Y-80700000D02*
X297350353Y-80700000D01*
X298150000Y-79200000D02*
X298150000Y-78499647D01*
X298150000Y-79200000D02*
X298150000Y-79900353D01*
X294706066Y-78343345D02*
G75*
G02*
X294749976Y-78499647I-256066J-156255D01*
G01*
X294706066Y-78343345D02*
G75*
G02*
X295393345Y-77656066I426774J260505D01*
G01*
X294750000Y-79900353D02*
G75*
G02*
X294706065Y-80056654I-299680J-87D01*
G01*
X295393345Y-80743934D02*
G75*
G02*
X294706066Y-80056655I-260505J426774D01*
G01*
X295393345Y-80743934D02*
G75*
G02*
X295549647Y-80700024I156255J-256066D01*
G01*
X295549647Y-77700000D02*
G75*
G02*
X295393344Y-77656067I3J300020D01*
G01*
X297350353Y-80700000D02*
G75*
G02*
X297506655Y-80743934I3J-299992D01*
G01*
X297506655Y-77656066D02*
G75*
G02*
X297350353Y-77700000I-156299J256058D01*
G01*
X297506655Y-77656066D02*
G75*
G02*
X298193934Y-78343345I260503J-426776D01*
G01*
X298150000Y-78499647D02*
G75*
G02*
X298193934Y-78343345I299992J3D01*
G01*
X298193934Y-80056655D02*
G75*
G02*
X297506655Y-80743934I-426776J-260503D01*
G01*
X298193934Y-80056655D02*
G75*
G02*
X298150000Y-79900353I256058J156299D01*
G01*
%TO.C,D31*%
X146375000Y-98200000D02*
X146375000Y-97499647D01*
X146375000Y-98200000D02*
X146375000Y-98900353D01*
X148075000Y-96700000D02*
X147174647Y-96700000D01*
X148075000Y-96700000D02*
X148975353Y-96700000D01*
X148075000Y-99700000D02*
X147174647Y-99700000D01*
X148075000Y-99700000D02*
X148975353Y-99700000D01*
X149775000Y-98200000D02*
X149775000Y-97499647D01*
X149775000Y-98200000D02*
X149775000Y-98900353D01*
X146331066Y-97343345D02*
G75*
G02*
X146375000Y-97499647I-256058J-156299D01*
G01*
X146331066Y-97343345D02*
G75*
G02*
X147018345Y-96656066I426776J260503D01*
G01*
X146375000Y-98900353D02*
G75*
G02*
X146331066Y-99056655I-299992J-3D01*
G01*
X147018345Y-99743934D02*
G75*
G02*
X146331066Y-99056655I-260503J426776D01*
G01*
X147018345Y-99743934D02*
G75*
G02*
X147174647Y-99700000I156299J-256058D01*
G01*
X147174647Y-96700000D02*
G75*
G02*
X147018345Y-96656066I-3J299992D01*
G01*
X148975353Y-99700000D02*
G75*
G02*
X149131656Y-99743933I-3J-300020D01*
G01*
X149131655Y-96656066D02*
G75*
G02*
X148975353Y-96699976I-156255J256066D01*
G01*
X149131655Y-96656066D02*
G75*
G02*
X149818934Y-97343345I260505J-426774D01*
G01*
X149775000Y-97499647D02*
G75*
G02*
X149818935Y-97343346I299680J87D01*
G01*
X149818934Y-99056655D02*
G75*
G02*
X149131655Y-99743934I-426774J-260505D01*
G01*
X149818934Y-99056655D02*
G75*
G02*
X149775024Y-98900353I256066J156255D01*
G01*
%TO.C,D13*%
X323875000Y-60050000D02*
X323875000Y-59349647D01*
X323875000Y-60050000D02*
X323875000Y-60750353D01*
X325575000Y-58550000D02*
X324674647Y-58550000D01*
X325575000Y-58550000D02*
X326475353Y-58550000D01*
X325575000Y-61550000D02*
X324674647Y-61550000D01*
X325575000Y-61550000D02*
X326475353Y-61550000D01*
X327275000Y-60050000D02*
X327275000Y-59349647D01*
X327275000Y-60050000D02*
X327275000Y-60750353D01*
X323831066Y-59193345D02*
G75*
G02*
X323875000Y-59349647I-256058J-156299D01*
G01*
X323831066Y-59193345D02*
G75*
G02*
X324518345Y-58506066I426776J260503D01*
G01*
X323875000Y-60750353D02*
G75*
G02*
X323831066Y-60906655I-299992J-3D01*
G01*
X324518345Y-61593934D02*
G75*
G02*
X323831066Y-60906655I-260503J426776D01*
G01*
X324518345Y-61593934D02*
G75*
G02*
X324674647Y-61550000I156299J-256058D01*
G01*
X324674647Y-58550000D02*
G75*
G02*
X324518345Y-58506066I-3J299992D01*
G01*
X326475353Y-61550000D02*
G75*
G02*
X326631656Y-61593933I-3J-300020D01*
G01*
X326631655Y-58506066D02*
G75*
G02*
X326475353Y-58549976I-156255J256066D01*
G01*
X326631655Y-58506066D02*
G75*
G02*
X327318934Y-59193345I260505J-426774D01*
G01*
X327275000Y-59349647D02*
G75*
G02*
X327318935Y-59193346I299680J87D01*
G01*
X327318934Y-60906655D02*
G75*
G02*
X326631655Y-61593934I-426774J-260505D01*
G01*
X327318934Y-60906655D02*
G75*
G02*
X327275024Y-60750353I256066J156255D01*
G01*
%TO.C,D42*%
X369400000Y-98300000D02*
X369400000Y-97599647D01*
X369400000Y-98300000D02*
X369400000Y-99000353D01*
X371100000Y-96800000D02*
X370199647Y-96800000D01*
X371100000Y-96800000D02*
X372000353Y-96800000D01*
X371100000Y-99800000D02*
X370199647Y-99800000D01*
X371100000Y-99800000D02*
X372000353Y-99800000D01*
X372800000Y-98300000D02*
X372800000Y-97599647D01*
X372800000Y-98300000D02*
X372800000Y-99000353D01*
X369356066Y-97443345D02*
G75*
G02*
X369400000Y-97599647I-256058J-156299D01*
G01*
X369356066Y-97443345D02*
G75*
G02*
X370043345Y-96756066I426776J260503D01*
G01*
X369400000Y-99000353D02*
G75*
G02*
X369356066Y-99156655I-299992J-3D01*
G01*
X370043345Y-99843934D02*
G75*
G02*
X369356066Y-99156655I-260503J426776D01*
G01*
X370043345Y-99843934D02*
G75*
G02*
X370199647Y-99800000I156299J-256058D01*
G01*
X370199647Y-96800000D02*
G75*
G02*
X370043345Y-96756066I-3J299992D01*
G01*
X372000353Y-99800000D02*
G75*
G02*
X372156656Y-99843933I-3J-300020D01*
G01*
X372156655Y-96756066D02*
G75*
G02*
X372000353Y-96799976I-156255J256066D01*
G01*
X372156655Y-96756066D02*
G75*
G02*
X372843934Y-97443345I260505J-426774D01*
G01*
X372800000Y-97599647D02*
G75*
G02*
X372843935Y-97443346I299680J87D01*
G01*
X372843934Y-99156655D02*
G75*
G02*
X372156655Y-99843934I-426774J-260505D01*
G01*
X372843934Y-99156655D02*
G75*
G02*
X372800024Y-99000353I256066J156255D01*
G01*
%TO.C,D59*%
X234825000Y-136750000D02*
X234825000Y-136049647D01*
X234825000Y-136750000D02*
X234825000Y-137450353D01*
X236525000Y-135250000D02*
X235624647Y-135250000D01*
X236525000Y-135250000D02*
X237425353Y-135250000D01*
X236525000Y-138250000D02*
X235624647Y-138250000D01*
X236525000Y-138250000D02*
X237425353Y-138250000D01*
X238225000Y-136750000D02*
X238225000Y-136049647D01*
X238225000Y-136750000D02*
X238225000Y-137450353D01*
X234781066Y-135893345D02*
G75*
G02*
X234825000Y-136049647I-256058J-156299D01*
G01*
X234781066Y-135893345D02*
G75*
G02*
X235468345Y-135206066I426776J260503D01*
G01*
X234825000Y-137450353D02*
G75*
G02*
X234781066Y-137606655I-299992J-3D01*
G01*
X235468345Y-138293934D02*
G75*
G02*
X234781066Y-137606655I-260503J426776D01*
G01*
X235468345Y-138293934D02*
G75*
G02*
X235624647Y-138250000I156299J-256058D01*
G01*
X235624647Y-135250000D02*
G75*
G02*
X235468345Y-135206066I-3J299992D01*
G01*
X237425353Y-138250000D02*
G75*
G02*
X237581656Y-138293933I-3J-300020D01*
G01*
X237581655Y-135206066D02*
G75*
G02*
X237425353Y-135249976I-156255J256066D01*
G01*
X237581655Y-135206066D02*
G75*
G02*
X238268934Y-135893345I260505J-426774D01*
G01*
X238225000Y-136049647D02*
G75*
G02*
X238268935Y-135893346I299680J87D01*
G01*
X238268934Y-137606655D02*
G75*
G02*
X237581655Y-138293934I-426774J-260505D01*
G01*
X238268934Y-137606655D02*
G75*
G02*
X238225024Y-137450353I256066J156255D01*
G01*
%TO.C,D10*%
X266625000Y-59950000D02*
X266625000Y-59249647D01*
X266625000Y-59950000D02*
X266625000Y-60650353D01*
X268325000Y-58450000D02*
X267424647Y-58450000D01*
X268325000Y-58450000D02*
X269225353Y-58450000D01*
X268325000Y-61450000D02*
X267424647Y-61450000D01*
X268325000Y-61450000D02*
X269225353Y-61450000D01*
X270025000Y-59950000D02*
X270025000Y-59249647D01*
X270025000Y-59950000D02*
X270025000Y-60650353D01*
X266581066Y-59093345D02*
G75*
G02*
X266625000Y-59249647I-256058J-156299D01*
G01*
X266581066Y-59093345D02*
G75*
G02*
X267268345Y-58406066I426776J260503D01*
G01*
X266625000Y-60650353D02*
G75*
G02*
X266581066Y-60806655I-299992J-3D01*
G01*
X267268345Y-61493934D02*
G75*
G02*
X266581066Y-60806655I-260503J426776D01*
G01*
X267268345Y-61493934D02*
G75*
G02*
X267424647Y-61450000I156299J-256058D01*
G01*
X267424647Y-58450000D02*
G75*
G02*
X267268345Y-58406066I-3J299992D01*
G01*
X269225353Y-61450000D02*
G75*
G02*
X269381656Y-61493933I-3J-300020D01*
G01*
X269381655Y-58406066D02*
G75*
G02*
X269225353Y-58449976I-156255J256066D01*
G01*
X269381655Y-58406066D02*
G75*
G02*
X270068934Y-59093345I260505J-426774D01*
G01*
X270025000Y-59249647D02*
G75*
G02*
X270068935Y-59093346I299680J87D01*
G01*
X270068934Y-60806655D02*
G75*
G02*
X269381655Y-61493934I-426774J-260505D01*
G01*
X270068934Y-60806655D02*
G75*
G02*
X270025024Y-60650353I256066J156255D01*
G01*
%TO.C,D21*%
X275750000Y-79300000D02*
X275750000Y-78599647D01*
X275750000Y-79300000D02*
X275750000Y-80000353D01*
X277450000Y-77800000D02*
X276549647Y-77800000D01*
X277450000Y-77800000D02*
X278350353Y-77800000D01*
X277450000Y-80800000D02*
X276549647Y-80800000D01*
X277450000Y-80800000D02*
X278350353Y-80800000D01*
X279150000Y-79300000D02*
X279150000Y-78599647D01*
X279150000Y-79300000D02*
X279150000Y-80000353D01*
X275706066Y-78443345D02*
G75*
G02*
X275749976Y-78599647I-256066J-156255D01*
G01*
X275706066Y-78443345D02*
G75*
G02*
X276393345Y-77756066I426774J260505D01*
G01*
X275750000Y-80000353D02*
G75*
G02*
X275706065Y-80156654I-299680J-87D01*
G01*
X276393345Y-80843934D02*
G75*
G02*
X275706066Y-80156655I-260505J426774D01*
G01*
X276393345Y-80843934D02*
G75*
G02*
X276549647Y-80800024I156255J-256066D01*
G01*
X276549647Y-77800000D02*
G75*
G02*
X276393344Y-77756067I3J300020D01*
G01*
X278350353Y-80800000D02*
G75*
G02*
X278506655Y-80843934I3J-299992D01*
G01*
X278506655Y-77756066D02*
G75*
G02*
X278350353Y-77800000I-156299J256058D01*
G01*
X278506655Y-77756066D02*
G75*
G02*
X279193934Y-78443345I260503J-426776D01*
G01*
X279150000Y-78599647D02*
G75*
G02*
X279193934Y-78443345I299992J3D01*
G01*
X279193934Y-80156655D02*
G75*
G02*
X278506655Y-80843934I-426776J-260503D01*
G01*
X279193934Y-80156655D02*
G75*
G02*
X279150000Y-80000353I256058J156299D01*
G01*
%TO.C,D2*%
X113025000Y-60150000D02*
X113025000Y-59449647D01*
X113025000Y-60150000D02*
X113025000Y-60850353D01*
X114725000Y-58650000D02*
X113824647Y-58650000D01*
X114725000Y-58650000D02*
X115625353Y-58650000D01*
X114725000Y-61650000D02*
X113824647Y-61650000D01*
X114725000Y-61650000D02*
X115625353Y-61650000D01*
X116425000Y-60150000D02*
X116425000Y-59449647D01*
X116425000Y-60150000D02*
X116425000Y-60850353D01*
X112981066Y-59293345D02*
G75*
G02*
X113025000Y-59449647I-256058J-156299D01*
G01*
X112981066Y-59293345D02*
G75*
G02*
X113668345Y-58606066I426776J260503D01*
G01*
X113025000Y-60850353D02*
G75*
G02*
X112981066Y-61006655I-299992J-3D01*
G01*
X113668345Y-61693934D02*
G75*
G02*
X112981066Y-61006655I-260503J426776D01*
G01*
X113668345Y-61693934D02*
G75*
G02*
X113824647Y-61650000I156299J-256058D01*
G01*
X113824647Y-58650000D02*
G75*
G02*
X113668345Y-58606066I-3J299992D01*
G01*
X115625353Y-61650000D02*
G75*
G02*
X115781656Y-61693933I-3J-300020D01*
G01*
X115781655Y-58606066D02*
G75*
G02*
X115625353Y-58649976I-156255J256066D01*
G01*
X115781655Y-58606066D02*
G75*
G02*
X116468934Y-59293345I260505J-426774D01*
G01*
X116425000Y-59449647D02*
G75*
G02*
X116468935Y-59293346I299680J87D01*
G01*
X116468934Y-61006655D02*
G75*
G02*
X115781655Y-61693934I-426774J-260505D01*
G01*
X116468934Y-61006655D02*
G75*
G02*
X116425024Y-60850353I256066J156255D01*
G01*
%TO.C,D34*%
X203850000Y-98300000D02*
X203850000Y-97599647D01*
X203850000Y-98300000D02*
X203850000Y-99000353D01*
X205550000Y-96800000D02*
X204649647Y-96800000D01*
X205550000Y-96800000D02*
X206450353Y-96800000D01*
X205550000Y-99800000D02*
X204649647Y-99800000D01*
X205550000Y-99800000D02*
X206450353Y-99800000D01*
X207250000Y-98300000D02*
X207250000Y-97599647D01*
X207250000Y-98300000D02*
X207250000Y-99000353D01*
X203806066Y-97443345D02*
G75*
G02*
X203850000Y-97599647I-256058J-156299D01*
G01*
X203806066Y-97443345D02*
G75*
G02*
X204493345Y-96756066I426776J260503D01*
G01*
X203850000Y-99000353D02*
G75*
G02*
X203806066Y-99156655I-299992J-3D01*
G01*
X204493345Y-99843934D02*
G75*
G02*
X203806066Y-99156655I-260503J426776D01*
G01*
X204493345Y-99843934D02*
G75*
G02*
X204649647Y-99800000I156299J-256058D01*
G01*
X204649647Y-96800000D02*
G75*
G02*
X204493345Y-96756066I-3J299992D01*
G01*
X206450353Y-99800000D02*
G75*
G02*
X206606656Y-99843933I-3J-300020D01*
G01*
X206606655Y-96756066D02*
G75*
G02*
X206450353Y-96799976I-156255J256066D01*
G01*
X206606655Y-96756066D02*
G75*
G02*
X207293934Y-97443345I260505J-426774D01*
G01*
X207250000Y-97599647D02*
G75*
G02*
X207293935Y-97443346I299680J87D01*
G01*
X207293934Y-99156655D02*
G75*
G02*
X206606655Y-99843934I-426774J-260505D01*
G01*
X207293934Y-99156655D02*
G75*
G02*
X207250024Y-99000353I256066J156255D01*
G01*
%TO.C,D55*%
X115375000Y-136800000D02*
X115375000Y-136099647D01*
X115375000Y-136800000D02*
X115375000Y-137500353D01*
X117075000Y-135300000D02*
X116174647Y-135300000D01*
X117075000Y-135300000D02*
X117975353Y-135300000D01*
X117075000Y-138300000D02*
X116174647Y-138300000D01*
X117075000Y-138300000D02*
X117975353Y-138300000D01*
X118775000Y-136800000D02*
X118775000Y-136099647D01*
X118775000Y-136800000D02*
X118775000Y-137500353D01*
X115331066Y-135943345D02*
G75*
G02*
X115374976Y-136099647I-256066J-156255D01*
G01*
X115331066Y-135943345D02*
G75*
G02*
X116018345Y-135256066I426774J260505D01*
G01*
X115375000Y-137500353D02*
G75*
G02*
X115331065Y-137656654I-299680J-87D01*
G01*
X116018345Y-138343934D02*
G75*
G02*
X115331066Y-137656655I-260505J426774D01*
G01*
X116018345Y-138343934D02*
G75*
G02*
X116174647Y-138300024I156255J-256066D01*
G01*
X116174647Y-135300000D02*
G75*
G02*
X116018344Y-135256067I3J300020D01*
G01*
X117975353Y-138300000D02*
G75*
G02*
X118131655Y-138343934I3J-299992D01*
G01*
X118131655Y-135256066D02*
G75*
G02*
X117975353Y-135300000I-156299J256058D01*
G01*
X118131655Y-135256066D02*
G75*
G02*
X118818934Y-135943345I260503J-426776D01*
G01*
X118775000Y-136099647D02*
G75*
G02*
X118818934Y-135943345I299992J3D01*
G01*
X118818934Y-137656655D02*
G75*
G02*
X118131655Y-138343934I-426776J-260503D01*
G01*
X118818934Y-137656655D02*
G75*
G02*
X118775000Y-137500353I256058J156299D01*
G01*
%TO.C,D15*%
X371675000Y-60050000D02*
X371675000Y-59349647D01*
X371675000Y-60050000D02*
X371675000Y-60750353D01*
X373375000Y-58550000D02*
X372474647Y-58550000D01*
X373375000Y-58550000D02*
X374275353Y-58550000D01*
X373375000Y-61550000D02*
X372474647Y-61550000D01*
X373375000Y-61550000D02*
X374275353Y-61550000D01*
X375075000Y-60050000D02*
X375075000Y-59349647D01*
X375075000Y-60050000D02*
X375075000Y-60750353D01*
X371631066Y-59193345D02*
G75*
G02*
X371675000Y-59349647I-256058J-156299D01*
G01*
X371631066Y-59193345D02*
G75*
G02*
X372318345Y-58506066I426776J260503D01*
G01*
X371675000Y-60750353D02*
G75*
G02*
X371631066Y-60906655I-299992J-3D01*
G01*
X372318345Y-61593934D02*
G75*
G02*
X371631066Y-60906655I-260503J426776D01*
G01*
X372318345Y-61593934D02*
G75*
G02*
X372474647Y-61550000I156299J-256058D01*
G01*
X372474647Y-58550000D02*
G75*
G02*
X372318345Y-58506066I-3J299992D01*
G01*
X374275353Y-61550000D02*
G75*
G02*
X374431656Y-61593933I-3J-300020D01*
G01*
X374431655Y-58506066D02*
G75*
G02*
X374275353Y-58549976I-156255J256066D01*
G01*
X374431655Y-58506066D02*
G75*
G02*
X375118934Y-59193345I260505J-426774D01*
G01*
X375075000Y-59349647D02*
G75*
G02*
X375118935Y-59193346I299680J87D01*
G01*
X375118934Y-60906655D02*
G75*
G02*
X374431655Y-61593934I-426774J-260505D01*
G01*
X375118934Y-60906655D02*
G75*
G02*
X375075024Y-60750353I256066J156255D01*
G01*
%TO.C,D60*%
X269300000Y-132100000D02*
X269300000Y-131399647D01*
X269300000Y-132100000D02*
X269300000Y-132800353D01*
X271000000Y-130600000D02*
X270099647Y-130600000D01*
X271000000Y-130600000D02*
X271900353Y-130600000D01*
X271000000Y-133600000D02*
X270099647Y-133600000D01*
X271000000Y-133600000D02*
X271900353Y-133600000D01*
X272700000Y-132100000D02*
X272700000Y-131399647D01*
X272700000Y-132100000D02*
X272700000Y-132800353D01*
X269256066Y-131243345D02*
G75*
G02*
X269300000Y-131399647I-256058J-156299D01*
G01*
X269256066Y-131243345D02*
G75*
G02*
X269943345Y-130556066I426776J260503D01*
G01*
X269300000Y-132800353D02*
G75*
G02*
X269256066Y-132956655I-299992J-3D01*
G01*
X269943345Y-133643934D02*
G75*
G02*
X269256066Y-132956655I-260503J426776D01*
G01*
X269943345Y-133643934D02*
G75*
G02*
X270099647Y-133600000I156299J-256058D01*
G01*
X270099647Y-130600000D02*
G75*
G02*
X269943345Y-130556066I-3J299992D01*
G01*
X271900353Y-133600000D02*
G75*
G02*
X272056656Y-133643933I-3J-300020D01*
G01*
X272056655Y-130556066D02*
G75*
G02*
X271900353Y-130599976I-156255J256066D01*
G01*
X272056655Y-130556066D02*
G75*
G02*
X272743934Y-131243345I260505J-426774D01*
G01*
X272700000Y-131399647D02*
G75*
G02*
X272743935Y-131243346I299680J87D01*
G01*
X272743934Y-132956655D02*
G75*
G02*
X272056655Y-133643934I-426774J-260505D01*
G01*
X272743934Y-132956655D02*
G75*
G02*
X272700024Y-132800353I256066J156255D01*
G01*
%TO.C,D45*%
X309000000Y-117500000D02*
X309000000Y-116799647D01*
X309000000Y-117500000D02*
X309000000Y-118200353D01*
X310700000Y-116000000D02*
X309799647Y-116000000D01*
X310700000Y-116000000D02*
X311600353Y-116000000D01*
X310700000Y-119000000D02*
X309799647Y-119000000D01*
X310700000Y-119000000D02*
X311600353Y-119000000D01*
X312400000Y-117500000D02*
X312400000Y-116799647D01*
X312400000Y-117500000D02*
X312400000Y-118200353D01*
X308956066Y-116643345D02*
G75*
G02*
X308999976Y-116799647I-256066J-156255D01*
G01*
X308956066Y-116643345D02*
G75*
G02*
X309643345Y-115956066I426774J260505D01*
G01*
X309000000Y-118200353D02*
G75*
G02*
X308956065Y-118356654I-299680J-87D01*
G01*
X309643345Y-119043934D02*
G75*
G02*
X308956066Y-118356655I-260505J426774D01*
G01*
X309643345Y-119043934D02*
G75*
G02*
X309799647Y-119000024I156255J-256066D01*
G01*
X309799647Y-116000000D02*
G75*
G02*
X309643344Y-115956067I3J300020D01*
G01*
X311600353Y-119000000D02*
G75*
G02*
X311756655Y-119043934I3J-299992D01*
G01*
X311756655Y-115956066D02*
G75*
G02*
X311600353Y-116000000I-156299J256058D01*
G01*
X311756655Y-115956066D02*
G75*
G02*
X312443934Y-116643345I260503J-426776D01*
G01*
X312400000Y-116799647D02*
G75*
G02*
X312443934Y-116643345I299992J3D01*
G01*
X312443934Y-118356655D02*
G75*
G02*
X311756655Y-119043934I-426776J-260503D01*
G01*
X312443934Y-118356655D02*
G75*
G02*
X312400000Y-118200353I256058J156299D01*
G01*
%TO.C,D23*%
X237600000Y-79300000D02*
X237600000Y-78599647D01*
X237600000Y-79300000D02*
X237600000Y-80000353D01*
X239300000Y-77800000D02*
X238399647Y-77800000D01*
X239300000Y-77800000D02*
X240200353Y-77800000D01*
X239300000Y-80800000D02*
X238399647Y-80800000D01*
X239300000Y-80800000D02*
X240200353Y-80800000D01*
X241000000Y-79300000D02*
X241000000Y-78599647D01*
X241000000Y-79300000D02*
X241000000Y-80000353D01*
X237556066Y-78443345D02*
G75*
G02*
X237599976Y-78599647I-256066J-156255D01*
G01*
X237556066Y-78443345D02*
G75*
G02*
X238243345Y-77756066I426774J260505D01*
G01*
X237600000Y-80000353D02*
G75*
G02*
X237556065Y-80156654I-299680J-87D01*
G01*
X238243345Y-80843934D02*
G75*
G02*
X237556066Y-80156655I-260505J426774D01*
G01*
X238243345Y-80843934D02*
G75*
G02*
X238399647Y-80800024I156255J-256066D01*
G01*
X238399647Y-77800000D02*
G75*
G02*
X238243344Y-77756067I3J300020D01*
G01*
X240200353Y-80800000D02*
G75*
G02*
X240356655Y-80843934I3J-299992D01*
G01*
X240356655Y-77756066D02*
G75*
G02*
X240200353Y-77800000I-156299J256058D01*
G01*
X240356655Y-77756066D02*
G75*
G02*
X241043934Y-78443345I260503J-426776D01*
G01*
X241000000Y-78599647D02*
G75*
G02*
X241043934Y-78443345I299992J3D01*
G01*
X241043934Y-80156655D02*
G75*
G02*
X240356655Y-80843934I-426776J-260503D01*
G01*
X241043934Y-80156655D02*
G75*
G02*
X241000000Y-80000353I256058J156299D01*
G01*
%TO.C,D69*%
X378800000Y-137000000D02*
X378800000Y-136299647D01*
X378800000Y-137000000D02*
X378800000Y-137700353D01*
X380500000Y-135500000D02*
X379599647Y-135500000D01*
X380500000Y-135500000D02*
X381400353Y-135500000D01*
X380500000Y-138500000D02*
X379599647Y-138500000D01*
X380500000Y-138500000D02*
X381400353Y-138500000D01*
X382200000Y-137000000D02*
X382200000Y-136299647D01*
X382200000Y-137000000D02*
X382200000Y-137700353D01*
X378756066Y-136143345D02*
G75*
G02*
X378800000Y-136299647I-256058J-156299D01*
G01*
X378756066Y-136143345D02*
G75*
G02*
X379443345Y-135456066I426776J260503D01*
G01*
X378800000Y-137700353D02*
G75*
G02*
X378756066Y-137856655I-299992J-3D01*
G01*
X379443345Y-138543934D02*
G75*
G02*
X378756066Y-137856655I-260503J426776D01*
G01*
X379443345Y-138543934D02*
G75*
G02*
X379599647Y-138500000I156299J-256058D01*
G01*
X379599647Y-135500000D02*
G75*
G02*
X379443345Y-135456066I-3J299992D01*
G01*
X381400353Y-138500000D02*
G75*
G02*
X381556656Y-138543933I-3J-300020D01*
G01*
X381556655Y-135456066D02*
G75*
G02*
X381400353Y-135499976I-156255J256066D01*
G01*
X381556655Y-135456066D02*
G75*
G02*
X382243934Y-136143345I260505J-426774D01*
G01*
X382200000Y-136299647D02*
G75*
G02*
X382243935Y-136143346I299680J87D01*
G01*
X382243934Y-137856655D02*
G75*
G02*
X381556655Y-138543934I-426774J-260505D01*
G01*
X382243934Y-137856655D02*
G75*
G02*
X382200024Y-137700353I256066J156255D01*
G01*
%TO.C,D47*%
X271150000Y-117500000D02*
X271150000Y-116799647D01*
X271150000Y-117500000D02*
X271150000Y-118200353D01*
X272850000Y-116000000D02*
X271949647Y-116000000D01*
X272850000Y-116000000D02*
X273750353Y-116000000D01*
X272850000Y-119000000D02*
X271949647Y-119000000D01*
X272850000Y-119000000D02*
X273750353Y-119000000D01*
X274550000Y-117500000D02*
X274550000Y-116799647D01*
X274550000Y-117500000D02*
X274550000Y-118200353D01*
X271106066Y-116643345D02*
G75*
G02*
X271149976Y-116799647I-256066J-156255D01*
G01*
X271106066Y-116643345D02*
G75*
G02*
X271793345Y-115956066I426774J260505D01*
G01*
X271150000Y-118200353D02*
G75*
G02*
X271106065Y-118356654I-299680J-87D01*
G01*
X271793345Y-119043934D02*
G75*
G02*
X271106066Y-118356655I-260505J426774D01*
G01*
X271793345Y-119043934D02*
G75*
G02*
X271949647Y-119000024I156255J-256066D01*
G01*
X271949647Y-116000000D02*
G75*
G02*
X271793344Y-115956067I3J300020D01*
G01*
X273750353Y-119000000D02*
G75*
G02*
X273906655Y-119043934I3J-299992D01*
G01*
X273906655Y-115956066D02*
G75*
G02*
X273750353Y-116000000I-156299J256058D01*
G01*
X273906655Y-115956066D02*
G75*
G02*
X274593934Y-116643345I260503J-426776D01*
G01*
X274550000Y-116799647D02*
G75*
G02*
X274593934Y-116643345I299992J3D01*
G01*
X274593934Y-118356655D02*
G75*
G02*
X273906655Y-119043934I-426776J-260503D01*
G01*
X274593934Y-118356655D02*
G75*
G02*
X274550000Y-118200353I256058J156299D01*
G01*
%TO.C,D29*%
X117500000Y-79250000D02*
X117500000Y-78549647D01*
X117500000Y-79250000D02*
X117500000Y-79950353D01*
X119200000Y-77750000D02*
X118299647Y-77750000D01*
X119200000Y-77750000D02*
X120100353Y-77750000D01*
X119200000Y-80750000D02*
X118299647Y-80750000D01*
X119200000Y-80750000D02*
X120100353Y-80750000D01*
X120900000Y-79250000D02*
X120900000Y-78549647D01*
X120900000Y-79250000D02*
X120900000Y-79950353D01*
X117456066Y-78393345D02*
G75*
G02*
X117499976Y-78549647I-256066J-156255D01*
G01*
X117456066Y-78393345D02*
G75*
G02*
X118143345Y-77706066I426774J260505D01*
G01*
X117500000Y-79950353D02*
G75*
G02*
X117456065Y-80106654I-299680J-87D01*
G01*
X118143345Y-80793934D02*
G75*
G02*
X117456066Y-80106655I-260505J426774D01*
G01*
X118143345Y-80793934D02*
G75*
G02*
X118299647Y-80750024I156255J-256066D01*
G01*
X118299647Y-77750000D02*
G75*
G02*
X118143344Y-77706067I3J300020D01*
G01*
X120100353Y-80750000D02*
G75*
G02*
X120256655Y-80793934I3J-299992D01*
G01*
X120256655Y-77706066D02*
G75*
G02*
X120100353Y-77750000I-156299J256058D01*
G01*
X120256655Y-77706066D02*
G75*
G02*
X120943934Y-78393345I260503J-426776D01*
G01*
X120900000Y-78549647D02*
G75*
G02*
X120943934Y-78393345I299992J3D01*
G01*
X120943934Y-80106655D02*
G75*
G02*
X120256655Y-80793934I-426776J-260503D01*
G01*
X120943934Y-80106655D02*
G75*
G02*
X120900000Y-79950353I256058J156299D01*
G01*
%TO.C,D28*%
X141800000Y-79300000D02*
X141800000Y-78599647D01*
X141800000Y-79300000D02*
X141800000Y-80000353D01*
X143500000Y-77800000D02*
X142599647Y-77800000D01*
X143500000Y-77800000D02*
X144400353Y-77800000D01*
X143500000Y-80800000D02*
X142599647Y-80800000D01*
X143500000Y-80800000D02*
X144400353Y-80800000D01*
X145200000Y-79300000D02*
X145200000Y-78599647D01*
X145200000Y-79300000D02*
X145200000Y-80000353D01*
X141756066Y-78443345D02*
G75*
G02*
X141799976Y-78599647I-256066J-156255D01*
G01*
X141756066Y-78443345D02*
G75*
G02*
X142443345Y-77756066I426774J260505D01*
G01*
X141800000Y-80000353D02*
G75*
G02*
X141756065Y-80156654I-299680J-87D01*
G01*
X142443345Y-80843934D02*
G75*
G02*
X141756066Y-80156655I-260505J426774D01*
G01*
X142443345Y-80843934D02*
G75*
G02*
X142599647Y-80800024I156255J-256066D01*
G01*
X142599647Y-77800000D02*
G75*
G02*
X142443344Y-77756067I3J300020D01*
G01*
X144400353Y-80800000D02*
G75*
G02*
X144556655Y-80843934I3J-299992D01*
G01*
X144556655Y-77756066D02*
G75*
G02*
X144400353Y-77800000I-156299J256058D01*
G01*
X144556655Y-77756066D02*
G75*
G02*
X145243934Y-78443345I260503J-426776D01*
G01*
X145200000Y-78599647D02*
G75*
G02*
X145243934Y-78443345I299992J3D01*
G01*
X145243934Y-80156655D02*
G75*
G02*
X144556655Y-80843934I-426776J-260503D01*
G01*
X145243934Y-80156655D02*
G75*
G02*
X145200000Y-80000353I256058J156299D01*
G01*
%TO.C,D62*%
X330800000Y-136750000D02*
X330800000Y-136049647D01*
X330800000Y-136750000D02*
X330800000Y-137450353D01*
X332500000Y-135250000D02*
X331599647Y-135250000D01*
X332500000Y-135250000D02*
X333400353Y-135250000D01*
X332500000Y-138250000D02*
X331599647Y-138250000D01*
X332500000Y-138250000D02*
X333400353Y-138250000D01*
X334200000Y-136750000D02*
X334200000Y-136049647D01*
X334200000Y-136750000D02*
X334200000Y-137450353D01*
X330756066Y-135893345D02*
G75*
G02*
X330800000Y-136049647I-256058J-156299D01*
G01*
X330756066Y-135893345D02*
G75*
G02*
X331443345Y-135206066I426776J260503D01*
G01*
X330800000Y-137450353D02*
G75*
G02*
X330756066Y-137606655I-299992J-3D01*
G01*
X331443345Y-138293934D02*
G75*
G02*
X330756066Y-137606655I-260503J426776D01*
G01*
X331443345Y-138293934D02*
G75*
G02*
X331599647Y-138250000I156299J-256058D01*
G01*
X331599647Y-135250000D02*
G75*
G02*
X331443345Y-135206066I-3J299992D01*
G01*
X333400353Y-138250000D02*
G75*
G02*
X333556656Y-138293933I-3J-300020D01*
G01*
X333556655Y-135206066D02*
G75*
G02*
X333400353Y-135249976I-156255J256066D01*
G01*
X333556655Y-135206066D02*
G75*
G02*
X334243934Y-135893345I260505J-426774D01*
G01*
X334200000Y-136049647D02*
G75*
G02*
X334243935Y-135893346I299680J87D01*
G01*
X334243934Y-137606655D02*
G75*
G02*
X333556655Y-138293934I-426774J-260505D01*
G01*
X334243934Y-137606655D02*
G75*
G02*
X334200024Y-137450353I256066J156255D01*
G01*
%TO.C,D50*%
X213225000Y-117650000D02*
X213225000Y-116949647D01*
X213225000Y-117650000D02*
X213225000Y-118350353D01*
X214925000Y-116150000D02*
X214024647Y-116150000D01*
X214925000Y-116150000D02*
X215825353Y-116150000D01*
X214925000Y-119150000D02*
X214024647Y-119150000D01*
X214925000Y-119150000D02*
X215825353Y-119150000D01*
X216625000Y-117650000D02*
X216625000Y-116949647D01*
X216625000Y-117650000D02*
X216625000Y-118350353D01*
X213181066Y-116793345D02*
G75*
G02*
X213224976Y-116949647I-256066J-156255D01*
G01*
X213181066Y-116793345D02*
G75*
G02*
X213868345Y-116106066I426774J260505D01*
G01*
X213225000Y-118350353D02*
G75*
G02*
X213181065Y-118506654I-299680J-87D01*
G01*
X213868345Y-119193934D02*
G75*
G02*
X213181066Y-118506655I-260505J426774D01*
G01*
X213868345Y-119193934D02*
G75*
G02*
X214024647Y-119150024I156255J-256066D01*
G01*
X214024647Y-116150000D02*
G75*
G02*
X213868344Y-116106067I3J300020D01*
G01*
X215825353Y-119150000D02*
G75*
G02*
X215981655Y-119193934I3J-299992D01*
G01*
X215981655Y-116106066D02*
G75*
G02*
X215825353Y-116150000I-156299J256058D01*
G01*
X215981655Y-116106066D02*
G75*
G02*
X216668934Y-116793345I260503J-426776D01*
G01*
X216625000Y-116949647D02*
G75*
G02*
X216668934Y-116793345I299992J3D01*
G01*
X216668934Y-118506655D02*
G75*
G02*
X215981655Y-119193934I-426776J-260503D01*
G01*
X216668934Y-118506655D02*
G75*
G02*
X216625000Y-118350353I256058J156299D01*
G01*
%TO.C,D56*%
X139325000Y-136750000D02*
X139325000Y-136049647D01*
X139325000Y-136750000D02*
X139325000Y-137450353D01*
X141025000Y-135250000D02*
X140124647Y-135250000D01*
X141025000Y-135250000D02*
X141925353Y-135250000D01*
X141025000Y-138250000D02*
X140124647Y-138250000D01*
X141025000Y-138250000D02*
X141925353Y-138250000D01*
X142725000Y-136750000D02*
X142725000Y-136049647D01*
X142725000Y-136750000D02*
X142725000Y-137450353D01*
X139281066Y-135893345D02*
G75*
G02*
X139325000Y-136049647I-256058J-156299D01*
G01*
X139281066Y-135893345D02*
G75*
G02*
X139968345Y-135206066I426776J260503D01*
G01*
X139325000Y-137450353D02*
G75*
G02*
X139281066Y-137606655I-299992J-3D01*
G01*
X139968345Y-138293934D02*
G75*
G02*
X139281066Y-137606655I-260503J426776D01*
G01*
X139968345Y-138293934D02*
G75*
G02*
X140124647Y-138250000I156299J-256058D01*
G01*
X140124647Y-135250000D02*
G75*
G02*
X139968345Y-135206066I-3J299992D01*
G01*
X141925353Y-138250000D02*
G75*
G02*
X142081656Y-138293933I-3J-300020D01*
G01*
X142081655Y-135206066D02*
G75*
G02*
X141925353Y-135249976I-156255J256066D01*
G01*
X142081655Y-135206066D02*
G75*
G02*
X142768934Y-135893345I260505J-426774D01*
G01*
X142725000Y-136049647D02*
G75*
G02*
X142768935Y-135893346I299680J87D01*
G01*
X142768934Y-137606655D02*
G75*
G02*
X142081655Y-138293934I-426774J-260505D01*
G01*
X142768934Y-137606655D02*
G75*
G02*
X142725024Y-137450353I256066J156255D01*
G01*
%TO.C,D17*%
X352425000Y-79150000D02*
X352425000Y-78449647D01*
X352425000Y-79150000D02*
X352425000Y-79850353D01*
X354125000Y-77650000D02*
X353224647Y-77650000D01*
X354125000Y-77650000D02*
X355025353Y-77650000D01*
X354125000Y-80650000D02*
X353224647Y-80650000D01*
X354125000Y-80650000D02*
X355025353Y-80650000D01*
X355825000Y-79150000D02*
X355825000Y-78449647D01*
X355825000Y-79150000D02*
X355825000Y-79850353D01*
X352381066Y-78293345D02*
G75*
G02*
X352424976Y-78449647I-256066J-156255D01*
G01*
X352381066Y-78293345D02*
G75*
G02*
X353068345Y-77606066I426774J260505D01*
G01*
X352425000Y-79850353D02*
G75*
G02*
X352381065Y-80006654I-299680J-87D01*
G01*
X353068345Y-80693934D02*
G75*
G02*
X352381066Y-80006655I-260505J426774D01*
G01*
X353068345Y-80693934D02*
G75*
G02*
X353224647Y-80650024I156255J-256066D01*
G01*
X353224647Y-77650000D02*
G75*
G02*
X353068344Y-77606067I3J300020D01*
G01*
X355025353Y-80650000D02*
G75*
G02*
X355181655Y-80693934I3J-299992D01*
G01*
X355181655Y-77606066D02*
G75*
G02*
X355025353Y-77650000I-156299J256058D01*
G01*
X355181655Y-77606066D02*
G75*
G02*
X355868934Y-78293345I260503J-426776D01*
G01*
X355825000Y-78449647D02*
G75*
G02*
X355868934Y-78293345I299992J3D01*
G01*
X355868934Y-80006655D02*
G75*
G02*
X355181655Y-80693934I-426776J-260503D01*
G01*
X355868934Y-80006655D02*
G75*
G02*
X355825000Y-79850353I256058J156299D01*
G01*
%TO.C,D32*%
X165575000Y-98250000D02*
X165575000Y-97549647D01*
X165575000Y-98250000D02*
X165575000Y-98950353D01*
X167275000Y-96750000D02*
X166374647Y-96750000D01*
X167275000Y-96750000D02*
X168175353Y-96750000D01*
X167275000Y-99750000D02*
X166374647Y-99750000D01*
X167275000Y-99750000D02*
X168175353Y-99750000D01*
X168975000Y-98250000D02*
X168975000Y-97549647D01*
X168975000Y-98250000D02*
X168975000Y-98950353D01*
X165531066Y-97393345D02*
G75*
G02*
X165575000Y-97549647I-256058J-156299D01*
G01*
X165531066Y-97393345D02*
G75*
G02*
X166218345Y-96706066I426776J260503D01*
G01*
X165575000Y-98950353D02*
G75*
G02*
X165531066Y-99106655I-299992J-3D01*
G01*
X166218345Y-99793934D02*
G75*
G02*
X165531066Y-99106655I-260503J426776D01*
G01*
X166218345Y-99793934D02*
G75*
G02*
X166374647Y-99750000I156299J-256058D01*
G01*
X166374647Y-96750000D02*
G75*
G02*
X166218345Y-96706066I-3J299992D01*
G01*
X168175353Y-99750000D02*
G75*
G02*
X168331656Y-99793933I-3J-300020D01*
G01*
X168331655Y-96706066D02*
G75*
G02*
X168175353Y-96749976I-156255J256066D01*
G01*
X168331655Y-96706066D02*
G75*
G02*
X169018934Y-97393345I260505J-426774D01*
G01*
X168975000Y-97549647D02*
G75*
G02*
X169018935Y-97393346I299680J87D01*
G01*
X169018934Y-99106655D02*
G75*
G02*
X168331655Y-99793934I-426774J-260505D01*
G01*
X169018934Y-99106655D02*
G75*
G02*
X168975024Y-98950353I256066J156255D01*
G01*
%TO.C,D39*%
X299625000Y-98300000D02*
X299625000Y-97599647D01*
X299625000Y-98300000D02*
X299625000Y-99000353D01*
X301325000Y-96800000D02*
X300424647Y-96800000D01*
X301325000Y-96800000D02*
X302225353Y-96800000D01*
X301325000Y-99800000D02*
X300424647Y-99800000D01*
X301325000Y-99800000D02*
X302225353Y-99800000D01*
X303025000Y-98300000D02*
X303025000Y-97599647D01*
X303025000Y-98300000D02*
X303025000Y-99000353D01*
X299581066Y-97443345D02*
G75*
G02*
X299625000Y-97599647I-256058J-156299D01*
G01*
X299581066Y-97443345D02*
G75*
G02*
X300268345Y-96756066I426776J260503D01*
G01*
X299625000Y-99000353D02*
G75*
G02*
X299581066Y-99156655I-299992J-3D01*
G01*
X300268345Y-99843934D02*
G75*
G02*
X299581066Y-99156655I-260503J426776D01*
G01*
X300268345Y-99843934D02*
G75*
G02*
X300424647Y-99800000I156299J-256058D01*
G01*
X300424647Y-96800000D02*
G75*
G02*
X300268345Y-96756066I-3J299992D01*
G01*
X302225353Y-99800000D02*
G75*
G02*
X302381656Y-99843933I-3J-300020D01*
G01*
X302381655Y-96756066D02*
G75*
G02*
X302225353Y-96799976I-156255J256066D01*
G01*
X302381655Y-96756066D02*
G75*
G02*
X303068934Y-97443345I260505J-426774D01*
G01*
X303025000Y-97599647D02*
G75*
G02*
X303068935Y-97443346I299680J87D01*
G01*
X303068934Y-99156655D02*
G75*
G02*
X302381655Y-99843934I-426774J-260505D01*
G01*
X303068934Y-99156655D02*
G75*
G02*
X303025024Y-99000353I256066J156255D01*
G01*
%TO.C,D14*%
X342925000Y-60000000D02*
X342925000Y-59299647D01*
X342925000Y-60000000D02*
X342925000Y-60700353D01*
X344625000Y-58500000D02*
X343724647Y-58500000D01*
X344625000Y-58500000D02*
X345525353Y-58500000D01*
X344625000Y-61500000D02*
X343724647Y-61500000D01*
X344625000Y-61500000D02*
X345525353Y-61500000D01*
X346325000Y-60000000D02*
X346325000Y-59299647D01*
X346325000Y-60000000D02*
X346325000Y-60700353D01*
X342881066Y-59143345D02*
G75*
G02*
X342925000Y-59299647I-256058J-156299D01*
G01*
X342881066Y-59143345D02*
G75*
G02*
X343568345Y-58456066I426776J260503D01*
G01*
X342925000Y-60700353D02*
G75*
G02*
X342881066Y-60856655I-299992J-3D01*
G01*
X343568345Y-61543934D02*
G75*
G02*
X342881066Y-60856655I-260503J426776D01*
G01*
X343568345Y-61543934D02*
G75*
G02*
X343724647Y-61500000I156299J-256058D01*
G01*
X343724647Y-58500000D02*
G75*
G02*
X343568345Y-58456066I-3J299992D01*
G01*
X345525353Y-61500000D02*
G75*
G02*
X345681656Y-61543933I-3J-300020D01*
G01*
X345681655Y-58456066D02*
G75*
G02*
X345525353Y-58499976I-156255J256066D01*
G01*
X345681655Y-58456066D02*
G75*
G02*
X346368934Y-59143345I260505J-426774D01*
G01*
X346325000Y-59299647D02*
G75*
G02*
X346368935Y-59143346I299680J87D01*
G01*
X346368934Y-60856655D02*
G75*
G02*
X345681655Y-61543934I-426774J-260505D01*
G01*
X346368934Y-60856655D02*
G75*
G02*
X346325024Y-60700353I256066J156255D01*
G01*
%TO.C,D52*%
X175075000Y-117650000D02*
X175075000Y-116949647D01*
X175075000Y-117650000D02*
X175075000Y-118350353D01*
X176775000Y-116150000D02*
X175874647Y-116150000D01*
X176775000Y-116150000D02*
X177675353Y-116150000D01*
X176775000Y-119150000D02*
X175874647Y-119150000D01*
X176775000Y-119150000D02*
X177675353Y-119150000D01*
X178475000Y-117650000D02*
X178475000Y-116949647D01*
X178475000Y-117650000D02*
X178475000Y-118350353D01*
X175031066Y-116793345D02*
G75*
G02*
X175074976Y-116949647I-256066J-156255D01*
G01*
X175031066Y-116793345D02*
G75*
G02*
X175718345Y-116106066I426774J260505D01*
G01*
X175075000Y-118350353D02*
G75*
G02*
X175031065Y-118506654I-299680J-87D01*
G01*
X175718345Y-119193934D02*
G75*
G02*
X175031066Y-118506655I-260505J426774D01*
G01*
X175718345Y-119193934D02*
G75*
G02*
X175874647Y-119150024I156255J-256066D01*
G01*
X175874647Y-116150000D02*
G75*
G02*
X175718344Y-116106067I3J300020D01*
G01*
X177675353Y-119150000D02*
G75*
G02*
X177831655Y-119193934I3J-299992D01*
G01*
X177831655Y-116106066D02*
G75*
G02*
X177675353Y-116150000I-156299J256058D01*
G01*
X177831655Y-116106066D02*
G75*
G02*
X178518934Y-116793345I260503J-426776D01*
G01*
X178475000Y-116949647D02*
G75*
G02*
X178518934Y-116793345I299992J3D01*
G01*
X178518934Y-118506655D02*
G75*
G02*
X177831655Y-119193934I-426776J-260503D01*
G01*
X178518934Y-118506655D02*
G75*
G02*
X178475000Y-118350353I256058J156299D01*
G01*
%TO.C,D11*%
X285825000Y-60050000D02*
X285825000Y-59349647D01*
X285825000Y-60050000D02*
X285825000Y-60750353D01*
X287525000Y-58550000D02*
X286624647Y-58550000D01*
X287525000Y-58550000D02*
X288425353Y-58550000D01*
X287525000Y-61550000D02*
X286624647Y-61550000D01*
X287525000Y-61550000D02*
X288425353Y-61550000D01*
X289225000Y-60050000D02*
X289225000Y-59349647D01*
X289225000Y-60050000D02*
X289225000Y-60750353D01*
X285781066Y-59193345D02*
G75*
G02*
X285825000Y-59349647I-256058J-156299D01*
G01*
X285781066Y-59193345D02*
G75*
G02*
X286468345Y-58506066I426776J260503D01*
G01*
X285825000Y-60750353D02*
G75*
G02*
X285781066Y-60906655I-299992J-3D01*
G01*
X286468345Y-61593934D02*
G75*
G02*
X285781066Y-60906655I-260503J426776D01*
G01*
X286468345Y-61593934D02*
G75*
G02*
X286624647Y-61550000I156299J-256058D01*
G01*
X286624647Y-58550000D02*
G75*
G02*
X286468345Y-58506066I-3J299992D01*
G01*
X288425353Y-61550000D02*
G75*
G02*
X288581656Y-61593933I-3J-300020D01*
G01*
X288581655Y-58506066D02*
G75*
G02*
X288425353Y-58549976I-156255J256066D01*
G01*
X288581655Y-58506066D02*
G75*
G02*
X289268934Y-59193345I260505J-426774D01*
G01*
X289225000Y-59349647D02*
G75*
G02*
X289268935Y-59193346I299680J87D01*
G01*
X289268934Y-60906655D02*
G75*
G02*
X288581655Y-61593934I-426774J-260505D01*
G01*
X289268934Y-60906655D02*
G75*
G02*
X289225024Y-60750353I256066J156255D01*
G01*
%TO.C,D9*%
X247525000Y-60150000D02*
X247525000Y-59449647D01*
X247525000Y-60150000D02*
X247525000Y-60850353D01*
X249225000Y-58650000D02*
X248324647Y-58650000D01*
X249225000Y-58650000D02*
X250125353Y-58650000D01*
X249225000Y-61650000D02*
X248324647Y-61650000D01*
X249225000Y-61650000D02*
X250125353Y-61650000D01*
X250925000Y-60150000D02*
X250925000Y-59449647D01*
X250925000Y-60150000D02*
X250925000Y-60850353D01*
X247481066Y-59293345D02*
G75*
G02*
X247525000Y-59449647I-256058J-156299D01*
G01*
X247481066Y-59293345D02*
G75*
G02*
X248168345Y-58606066I426776J260503D01*
G01*
X247525000Y-60850353D02*
G75*
G02*
X247481066Y-61006655I-299992J-3D01*
G01*
X248168345Y-61693934D02*
G75*
G02*
X247481066Y-61006655I-260503J426776D01*
G01*
X248168345Y-61693934D02*
G75*
G02*
X248324647Y-61650000I156299J-256058D01*
G01*
X248324647Y-58650000D02*
G75*
G02*
X248168345Y-58606066I-3J299992D01*
G01*
X250125353Y-61650000D02*
G75*
G02*
X250281656Y-61693933I-3J-300020D01*
G01*
X250281655Y-58606066D02*
G75*
G02*
X250125353Y-58649976I-156255J256066D01*
G01*
X250281655Y-58606066D02*
G75*
G02*
X250968934Y-59293345I260505J-426774D01*
G01*
X250925000Y-59449647D02*
G75*
G02*
X250968935Y-59293346I299680J87D01*
G01*
X250968934Y-61006655D02*
G75*
G02*
X250281655Y-61693934I-426774J-260505D01*
G01*
X250968934Y-61006655D02*
G75*
G02*
X250925024Y-60850353I256066J156255D01*
G01*
%TO.C,D44*%
X328400000Y-117650000D02*
X328400000Y-116949647D01*
X328400000Y-117650000D02*
X328400000Y-118350353D01*
X330100000Y-116150000D02*
X329199647Y-116150000D01*
X330100000Y-116150000D02*
X331000353Y-116150000D01*
X330100000Y-119150000D02*
X329199647Y-119150000D01*
X330100000Y-119150000D02*
X331000353Y-119150000D01*
X331800000Y-117650000D02*
X331800000Y-116949647D01*
X331800000Y-117650000D02*
X331800000Y-118350353D01*
X328356066Y-116793345D02*
G75*
G02*
X328399976Y-116949647I-256066J-156255D01*
G01*
X328356066Y-116793345D02*
G75*
G02*
X329043345Y-116106066I426774J260505D01*
G01*
X328400000Y-118350353D02*
G75*
G02*
X328356065Y-118506654I-299680J-87D01*
G01*
X329043345Y-119193934D02*
G75*
G02*
X328356066Y-118506655I-260505J426774D01*
G01*
X329043345Y-119193934D02*
G75*
G02*
X329199647Y-119150024I156255J-256066D01*
G01*
X329199647Y-116150000D02*
G75*
G02*
X329043344Y-116106067I3J300020D01*
G01*
X331000353Y-119150000D02*
G75*
G02*
X331156655Y-119193934I3J-299992D01*
G01*
X331156655Y-116106066D02*
G75*
G02*
X331000353Y-116150000I-156299J256058D01*
G01*
X331156655Y-116106066D02*
G75*
G02*
X331843934Y-116793345I260503J-426776D01*
G01*
X331800000Y-116949647D02*
G75*
G02*
X331843934Y-116793345I299992J3D01*
G01*
X331843934Y-118506655D02*
G75*
G02*
X331156655Y-119193934I-426776J-260503D01*
G01*
X331843934Y-118506655D02*
G75*
G02*
X331800000Y-118350353I256058J156299D01*
G01*
%TO.C,D12*%
X304875000Y-60150000D02*
X304875000Y-59449647D01*
X304875000Y-60150000D02*
X304875000Y-60850353D01*
X306575000Y-58650000D02*
X305674647Y-58650000D01*
X306575000Y-58650000D02*
X307475353Y-58650000D01*
X306575000Y-61650000D02*
X305674647Y-61650000D01*
X306575000Y-61650000D02*
X307475353Y-61650000D01*
X308275000Y-60150000D02*
X308275000Y-59449647D01*
X308275000Y-60150000D02*
X308275000Y-60850353D01*
X304831066Y-59293345D02*
G75*
G02*
X304875000Y-59449647I-256058J-156299D01*
G01*
X304831066Y-59293345D02*
G75*
G02*
X305518345Y-58606066I426776J260503D01*
G01*
X304875000Y-60850353D02*
G75*
G02*
X304831066Y-61006655I-299992J-3D01*
G01*
X305518345Y-61693934D02*
G75*
G02*
X304831066Y-61006655I-260503J426776D01*
G01*
X305518345Y-61693934D02*
G75*
G02*
X305674647Y-61650000I156299J-256058D01*
G01*
X305674647Y-58650000D02*
G75*
G02*
X305518345Y-58606066I-3J299992D01*
G01*
X307475353Y-61650000D02*
G75*
G02*
X307631656Y-61693933I-3J-300020D01*
G01*
X307631655Y-58606066D02*
G75*
G02*
X307475353Y-58649976I-156255J256066D01*
G01*
X307631655Y-58606066D02*
G75*
G02*
X308318934Y-59293345I260505J-426774D01*
G01*
X308275000Y-59449647D02*
G75*
G02*
X308318935Y-59293346I299680J87D01*
G01*
X308318934Y-61006655D02*
G75*
G02*
X307631655Y-61693934I-426774J-260505D01*
G01*
X308318934Y-61006655D02*
G75*
G02*
X308275024Y-60850353I256066J156255D01*
G01*
%TO.C,D4*%
X151200000Y-60200000D02*
X151200000Y-59499647D01*
X151200000Y-60200000D02*
X151200000Y-60900353D01*
X152900000Y-58700000D02*
X151999647Y-58700000D01*
X152900000Y-58700000D02*
X153800353Y-58700000D01*
X152900000Y-61700000D02*
X151999647Y-61700000D01*
X152900000Y-61700000D02*
X153800353Y-61700000D01*
X154600000Y-60200000D02*
X154600000Y-59499647D01*
X154600000Y-60200000D02*
X154600000Y-60900353D01*
X151156066Y-59343345D02*
G75*
G02*
X151200000Y-59499647I-256058J-156299D01*
G01*
X151156066Y-59343345D02*
G75*
G02*
X151843345Y-58656066I426776J260503D01*
G01*
X151200000Y-60900353D02*
G75*
G02*
X151156066Y-61056655I-299992J-3D01*
G01*
X151843345Y-61743934D02*
G75*
G02*
X151156066Y-61056655I-260503J426776D01*
G01*
X151843345Y-61743934D02*
G75*
G02*
X151999647Y-61700000I156299J-256058D01*
G01*
X151999647Y-58700000D02*
G75*
G02*
X151843345Y-58656066I-3J299992D01*
G01*
X153800353Y-61700000D02*
G75*
G02*
X153956656Y-61743933I-3J-300020D01*
G01*
X153956655Y-58656066D02*
G75*
G02*
X153800353Y-58699976I-156255J256066D01*
G01*
X153956655Y-58656066D02*
G75*
G02*
X154643934Y-59343345I260505J-426774D01*
G01*
X154600000Y-59499647D02*
G75*
G02*
X154643935Y-59343346I299680J87D01*
G01*
X154643934Y-61056655D02*
G75*
G02*
X153956655Y-61743934I-426774J-260505D01*
G01*
X154643934Y-61056655D02*
G75*
G02*
X154600024Y-60900353I256066J156255D01*
G01*
%TO.C,D58*%
X202250000Y-132700000D02*
X202250000Y-131999647D01*
X202250000Y-132700000D02*
X202250000Y-133400353D01*
X203950000Y-131200000D02*
X203049647Y-131200000D01*
X203950000Y-131200000D02*
X204850353Y-131200000D01*
X203950000Y-134200000D02*
X203049647Y-134200000D01*
X203950000Y-134200000D02*
X204850353Y-134200000D01*
X205650000Y-132700000D02*
X205650000Y-131999647D01*
X205650000Y-132700000D02*
X205650000Y-133400353D01*
X202206066Y-131843345D02*
G75*
G02*
X202250000Y-131999647I-256058J-156299D01*
G01*
X202206066Y-131843345D02*
G75*
G02*
X202893345Y-131156066I426776J260503D01*
G01*
X202250000Y-133400353D02*
G75*
G02*
X202206066Y-133556655I-299992J-3D01*
G01*
X202893345Y-134243934D02*
G75*
G02*
X202206066Y-133556655I-260503J426776D01*
G01*
X202893345Y-134243934D02*
G75*
G02*
X203049647Y-134200000I156299J-256058D01*
G01*
X203049647Y-131200000D02*
G75*
G02*
X202893345Y-131156066I-3J299992D01*
G01*
X204850353Y-134200000D02*
G75*
G02*
X205006656Y-134243933I-3J-300020D01*
G01*
X205006655Y-131156066D02*
G75*
G02*
X204850353Y-131199976I-156255J256066D01*
G01*
X205006655Y-131156066D02*
G75*
G02*
X205693934Y-131843345I260505J-426774D01*
G01*
X205650000Y-131999647D02*
G75*
G02*
X205693935Y-131843346I299680J87D01*
G01*
X205693934Y-133556655D02*
G75*
G02*
X205006655Y-134243934I-426774J-260505D01*
G01*
X205693934Y-133556655D02*
G75*
G02*
X205650024Y-133400353I256066J156255D01*
G01*
%TO.C,D3*%
X132200000Y-60050000D02*
X132200000Y-59349647D01*
X132200000Y-60050000D02*
X132200000Y-60750353D01*
X133900000Y-58550000D02*
X132999647Y-58550000D01*
X133900000Y-58550000D02*
X134800353Y-58550000D01*
X133900000Y-61550000D02*
X132999647Y-61550000D01*
X133900000Y-61550000D02*
X134800353Y-61550000D01*
X135600000Y-60050000D02*
X135600000Y-59349647D01*
X135600000Y-60050000D02*
X135600000Y-60750353D01*
X132156066Y-59193345D02*
G75*
G02*
X132200000Y-59349647I-256058J-156299D01*
G01*
X132156066Y-59193345D02*
G75*
G02*
X132843345Y-58506066I426776J260503D01*
G01*
X132200000Y-60750353D02*
G75*
G02*
X132156066Y-60906655I-299992J-3D01*
G01*
X132843345Y-61593934D02*
G75*
G02*
X132156066Y-60906655I-260503J426776D01*
G01*
X132843345Y-61593934D02*
G75*
G02*
X132999647Y-61550000I156299J-256058D01*
G01*
X132999647Y-58550000D02*
G75*
G02*
X132843345Y-58506066I-3J299992D01*
G01*
X134800353Y-61550000D02*
G75*
G02*
X134956656Y-61593933I-3J-300020D01*
G01*
X134956655Y-58506066D02*
G75*
G02*
X134800353Y-58549976I-156255J256066D01*
G01*
X134956655Y-58506066D02*
G75*
G02*
X135643934Y-59193345I260505J-426774D01*
G01*
X135600000Y-59349647D02*
G75*
G02*
X135643935Y-59193346I299680J87D01*
G01*
X135643934Y-60906655D02*
G75*
G02*
X134956655Y-61593934I-426774J-260505D01*
G01*
X135643934Y-60906655D02*
G75*
G02*
X135600024Y-60750353I256066J156255D01*
G01*
%TO.C,D57*%
X163250000Y-136900000D02*
X163250000Y-136199647D01*
X163250000Y-136900000D02*
X163250000Y-137600353D01*
X164950000Y-135400000D02*
X164049647Y-135400000D01*
X164950000Y-135400000D02*
X165850353Y-135400000D01*
X164950000Y-138400000D02*
X164049647Y-138400000D01*
X164950000Y-138400000D02*
X165850353Y-138400000D01*
X166650000Y-136900000D02*
X166650000Y-136199647D01*
X166650000Y-136900000D02*
X166650000Y-137600353D01*
X163206066Y-136043345D02*
G75*
G02*
X163250000Y-136199647I-256058J-156299D01*
G01*
X163206066Y-136043345D02*
G75*
G02*
X163893345Y-135356066I426776J260503D01*
G01*
X163250000Y-137600353D02*
G75*
G02*
X163206066Y-137756655I-299992J-3D01*
G01*
X163893345Y-138443934D02*
G75*
G02*
X163206066Y-137756655I-260503J426776D01*
G01*
X163893345Y-138443934D02*
G75*
G02*
X164049647Y-138400000I156299J-256058D01*
G01*
X164049647Y-135400000D02*
G75*
G02*
X163893345Y-135356066I-3J299992D01*
G01*
X165850353Y-138400000D02*
G75*
G02*
X166006656Y-138443933I-3J-300020D01*
G01*
X166006655Y-135356066D02*
G75*
G02*
X165850353Y-135399976I-156255J256066D01*
G01*
X166006655Y-135356066D02*
G75*
G02*
X166693934Y-136043345I260505J-426774D01*
G01*
X166650000Y-136199647D02*
G75*
G02*
X166693935Y-136043346I299680J87D01*
G01*
X166693934Y-137756655D02*
G75*
G02*
X166006655Y-138443934I-426774J-260505D01*
G01*
X166693934Y-137756655D02*
G75*
G02*
X166650024Y-137600353I256066J156255D01*
G01*
%TO.C,D54*%
X124950000Y-117400000D02*
X124950000Y-116699647D01*
X124950000Y-117400000D02*
X124950000Y-118100353D01*
X126650000Y-115900000D02*
X125749647Y-115900000D01*
X126650000Y-115900000D02*
X127550353Y-115900000D01*
X126650000Y-118900000D02*
X125749647Y-118900000D01*
X126650000Y-118900000D02*
X127550353Y-118900000D01*
X128350000Y-117400000D02*
X128350000Y-116699647D01*
X128350000Y-117400000D02*
X128350000Y-118100353D01*
X124906066Y-116543345D02*
G75*
G02*
X124949976Y-116699647I-256066J-156255D01*
G01*
X124906066Y-116543345D02*
G75*
G02*
X125593345Y-115856066I426774J260505D01*
G01*
X124950000Y-118100353D02*
G75*
G02*
X124906065Y-118256654I-299680J-87D01*
G01*
X125593345Y-118943934D02*
G75*
G02*
X124906066Y-118256655I-260505J426774D01*
G01*
X125593345Y-118943934D02*
G75*
G02*
X125749647Y-118900024I156255J-256066D01*
G01*
X125749647Y-115900000D02*
G75*
G02*
X125593344Y-115856067I3J300020D01*
G01*
X127550353Y-118900000D02*
G75*
G02*
X127706655Y-118943934I3J-299992D01*
G01*
X127706655Y-115856066D02*
G75*
G02*
X127550353Y-115900000I-156299J256058D01*
G01*
X127706655Y-115856066D02*
G75*
G02*
X128393934Y-116543345I260503J-426776D01*
G01*
X128350000Y-116699647D02*
G75*
G02*
X128393934Y-116543345I299992J3D01*
G01*
X128393934Y-118256655D02*
G75*
G02*
X127706655Y-118943934I-426776J-260503D01*
G01*
X128393934Y-118256655D02*
G75*
G02*
X128350000Y-118100353I256058J156299D01*
G01*
%TO.C,D35*%
X223025000Y-98200000D02*
X223025000Y-97499647D01*
X223025000Y-98200000D02*
X223025000Y-98900353D01*
X224725000Y-96700000D02*
X223824647Y-96700000D01*
X224725000Y-96700000D02*
X225625353Y-96700000D01*
X224725000Y-99700000D02*
X223824647Y-99700000D01*
X224725000Y-99700000D02*
X225625353Y-99700000D01*
X226425000Y-98200000D02*
X226425000Y-97499647D01*
X226425000Y-98200000D02*
X226425000Y-98900353D01*
X222981066Y-97343345D02*
G75*
G02*
X223025000Y-97499647I-256058J-156299D01*
G01*
X222981066Y-97343345D02*
G75*
G02*
X223668345Y-96656066I426776J260503D01*
G01*
X223025000Y-98900353D02*
G75*
G02*
X222981066Y-99056655I-299992J-3D01*
G01*
X223668345Y-99743934D02*
G75*
G02*
X222981066Y-99056655I-260503J426776D01*
G01*
X223668345Y-99743934D02*
G75*
G02*
X223824647Y-99700000I156299J-256058D01*
G01*
X223824647Y-96700000D02*
G75*
G02*
X223668345Y-96656066I-3J299992D01*
G01*
X225625353Y-99700000D02*
G75*
G02*
X225781656Y-99743933I-3J-300020D01*
G01*
X225781655Y-96656066D02*
G75*
G02*
X225625353Y-96699976I-156255J256066D01*
G01*
X225781655Y-96656066D02*
G75*
G02*
X226468934Y-97343345I260505J-426774D01*
G01*
X226425000Y-97499647D02*
G75*
G02*
X226468935Y-97343346I299680J87D01*
G01*
X226468934Y-99056655D02*
G75*
G02*
X225781655Y-99743934I-426774J-260505D01*
G01*
X226468934Y-99056655D02*
G75*
G02*
X226425024Y-98900353I256066J156255D01*
G01*
%TO.C,D48*%
X251725000Y-117400000D02*
X251725000Y-116699647D01*
X251725000Y-117400000D02*
X251725000Y-118100353D01*
X253425000Y-115900000D02*
X252524647Y-115900000D01*
X253425000Y-115900000D02*
X254325353Y-115900000D01*
X253425000Y-118900000D02*
X252524647Y-118900000D01*
X253425000Y-118900000D02*
X254325353Y-118900000D01*
X255125000Y-117400000D02*
X255125000Y-116699647D01*
X255125000Y-117400000D02*
X255125000Y-118100353D01*
X251681066Y-116543345D02*
G75*
G02*
X251724976Y-116699647I-256066J-156255D01*
G01*
X251681066Y-116543345D02*
G75*
G02*
X252368345Y-115856066I426774J260505D01*
G01*
X251725000Y-118100353D02*
G75*
G02*
X251681065Y-118256654I-299680J-87D01*
G01*
X252368345Y-118943934D02*
G75*
G02*
X251681066Y-118256655I-260505J426774D01*
G01*
X252368345Y-118943934D02*
G75*
G02*
X252524647Y-118900024I156255J-256066D01*
G01*
X252524647Y-115900000D02*
G75*
G02*
X252368344Y-115856067I3J300020D01*
G01*
X254325353Y-118900000D02*
G75*
G02*
X254481655Y-118943934I3J-299992D01*
G01*
X254481655Y-115856066D02*
G75*
G02*
X254325353Y-115900000I-156299J256058D01*
G01*
X254481655Y-115856066D02*
G75*
G02*
X255168934Y-116543345I260503J-426776D01*
G01*
X255125000Y-116699647D02*
G75*
G02*
X255168934Y-116543345I299992J3D01*
G01*
X255168934Y-118256655D02*
G75*
G02*
X254481655Y-118943934I-426776J-260503D01*
G01*
X255168934Y-118256655D02*
G75*
G02*
X255125000Y-118100353I256058J156299D01*
G01*
%TO.C,D68*%
X354800000Y-137000000D02*
X354800000Y-136299647D01*
X354800000Y-137000000D02*
X354800000Y-137700353D01*
X356500000Y-135500000D02*
X355599647Y-135500000D01*
X356500000Y-135500000D02*
X357400353Y-135500000D01*
X356500000Y-138500000D02*
X355599647Y-138500000D01*
X356500000Y-138500000D02*
X357400353Y-138500000D01*
X358200000Y-137000000D02*
X358200000Y-136299647D01*
X358200000Y-137000000D02*
X358200000Y-137700353D01*
X354756066Y-136143345D02*
G75*
G02*
X354800000Y-136299647I-256058J-156299D01*
G01*
X354756066Y-136143345D02*
G75*
G02*
X355443345Y-135456066I426776J260503D01*
G01*
X354800000Y-137700353D02*
G75*
G02*
X354756066Y-137856655I-299992J-3D01*
G01*
X355443345Y-138543934D02*
G75*
G02*
X354756066Y-137856655I-260503J426776D01*
G01*
X355443345Y-138543934D02*
G75*
G02*
X355599647Y-138500000I156299J-256058D01*
G01*
X355599647Y-135500000D02*
G75*
G02*
X355443345Y-135456066I-3J299992D01*
G01*
X357400353Y-138500000D02*
G75*
G02*
X357556656Y-138543933I-3J-300020D01*
G01*
X357556655Y-135456066D02*
G75*
G02*
X357400353Y-135499976I-156255J256066D01*
G01*
X357556655Y-135456066D02*
G75*
G02*
X358243934Y-136143345I260505J-426774D01*
G01*
X358200000Y-136299647D02*
G75*
G02*
X358243935Y-136143346I299680J87D01*
G01*
X358243934Y-137856655D02*
G75*
G02*
X357556655Y-138543934I-426774J-260505D01*
G01*
X358243934Y-137856655D02*
G75*
G02*
X358200024Y-137700353I256066J156255D01*
G01*
%TO.C,D6*%
X189925000Y-60050000D02*
X189925000Y-59349647D01*
X189925000Y-60050000D02*
X189925000Y-60750353D01*
X191625000Y-58550000D02*
X190724647Y-58550000D01*
X191625000Y-58550000D02*
X192525353Y-58550000D01*
X191625000Y-61550000D02*
X190724647Y-61550000D01*
X191625000Y-61550000D02*
X192525353Y-61550000D01*
X193325000Y-60050000D02*
X193325000Y-59349647D01*
X193325000Y-60050000D02*
X193325000Y-60750353D01*
X189881066Y-59193345D02*
G75*
G02*
X189925000Y-59349647I-256058J-156299D01*
G01*
X189881066Y-59193345D02*
G75*
G02*
X190568345Y-58506066I426776J260503D01*
G01*
X189925000Y-60750353D02*
G75*
G02*
X189881066Y-60906655I-299992J-3D01*
G01*
X190568345Y-61593934D02*
G75*
G02*
X189881066Y-60906655I-260503J426776D01*
G01*
X190568345Y-61593934D02*
G75*
G02*
X190724647Y-61550000I156299J-256058D01*
G01*
X190724647Y-58550000D02*
G75*
G02*
X190568345Y-58506066I-3J299992D01*
G01*
X192525353Y-61550000D02*
G75*
G02*
X192681656Y-61593933I-3J-300020D01*
G01*
X192681655Y-58506066D02*
G75*
G02*
X192525353Y-58549976I-156255J256066D01*
G01*
X192681655Y-58506066D02*
G75*
G02*
X193368934Y-59193345I260505J-426774D01*
G01*
X193325000Y-59349647D02*
G75*
G02*
X193368935Y-59193346I299680J87D01*
G01*
X193368934Y-60906655D02*
G75*
G02*
X192681655Y-61593934I-426774J-260505D01*
G01*
X193368934Y-60906655D02*
G75*
G02*
X193325024Y-60750353I256066J156255D01*
G01*
%TD*%
M02*
