%TF.GenerationSoftware,KiCad,Pcbnew,10.0.5*%
%TF.CreationDate,2026-09-20T15:33:16+05:30*%
%TF.ProjectId,pcb,7063622e-6b69-4636-9164-5f7063625858,rev?*%
%TF.SameCoordinates,Original*%
%TF.FileFunction,Soldermask,Top*%
%TF.FilePolarity,Negative*%
%FSLAX46Y46*%
G04 Gerber Fmt 4.6, Leading zero omitted, Abs format (unit mm)*
G04 Created by KiCad (PCBNEW 10.0.5) date 2026-09-20 15:33:16*
%MOMM*%
%LPD*%
G01*
G04 APERTURE LIST*
G04 Aperture macros list*
%AMRoundRect*
0 Rectangle with rounded corners*
0 $1 Rounding radius*
0 $2 $3 $4 $5 $6 $7 $8 $9 X,Y pos of 4 corners*
0 Add a 4 corners polygon primitive as box body*
4,1,4,$2,$3,$4,$5,$6,$7,$8,$9,$2,$3,0*
0 Add four circle primitives for the rounded corners*
1,1,$1+$1,$2,$3*
1,1,$1+$1,$4,$5*
1,1,$1+$1,$6,$7*
1,1,$1+$1,$8,$9*
0 Add four rect primitives between the rounded corners*
20,1,$1+$1,$2,$3,$4,$5,0*
20,1,$1+$1,$4,$5,$6,$7,0*
20,1,$1+$1,$6,$7,$8,$9,0*
20,1,$1+$1,$8,$9,$2,$3,0*%
G04 Aperture macros list end*
%ADD10C,1.700000*%
%ADD11C,4.000000*%
%ADD12C,2.200000*%
%ADD13RoundRect,0.250000X-0.250000X-0.475000X0.250000X-0.475000X0.250000X0.475000X-0.250000X0.475000X0*%
%ADD14RoundRect,0.075000X-0.662500X-0.075000X0.662500X-0.075000X0.662500X0.075000X-0.662500X0.075000X0*%
%ADD15RoundRect,0.075000X-0.075000X-0.662500X0.075000X-0.662500X0.075000X0.662500X-0.075000X0.662500X0*%
%ADD16C,3.050000*%
%ADD17R,0.900000X1.700000*%
%ADD18C,3.200000*%
%ADD19C,0.650000*%
%ADD20RoundRect,0.150000X0.150000X0.500000X-0.150000X0.500000X-0.150000X-0.500000X0.150000X-0.500000X0*%
%ADD21RoundRect,0.075000X0.075000X0.575000X-0.075000X0.575000X-0.075000X-0.575000X0.075000X-0.575000X0*%
%ADD22O,1.000000X2.100000*%
%ADD23O,1.000000X1.600000*%
%ADD24RoundRect,0.170000X0.680000X-0.680000X0.680000X0.680000X-0.680000X0.680000X-0.680000X-0.680000X0*%
%ADD25RoundRect,0.200000X-0.275000X0.200000X-0.275000X-0.200000X0.275000X-0.200000X0.275000X0.200000X0*%
%ADD26RoundRect,0.200000X0.200000X0.275000X-0.200000X0.275000X-0.200000X-0.275000X0.200000X-0.275000X0*%
%ADD27RoundRect,0.375000X-0.625000X-0.375000X0.625000X-0.375000X0.625000X0.375000X-0.625000X0.375000X0*%
%ADD28RoundRect,0.500000X-0.500000X-1.400000X0.500000X-1.400000X0.500000X1.400000X-0.500000X1.400000X0*%
%ADD29RoundRect,0.200000X0.275000X-0.200000X0.275000X0.200000X-0.275000X0.200000X-0.275000X-0.200000X0*%
%ADD30RoundRect,0.150000X-0.512500X-0.150000X0.512500X-0.150000X0.512500X0.150000X-0.512500X0.150000X0*%
%ADD31RoundRect,0.250000X0.550000X0.550000X-0.550000X0.550000X-0.550000X-0.550000X0.550000X-0.550000X0*%
%ADD32C,1.600000*%
G04 APERTURE END LIST*
D10*
%TO.C,SW26*%
X339520000Y-55700000D03*
D11*
X344600000Y-55700000D03*
D10*
X349680000Y-55700000D03*
D12*
X347140000Y-50620000D03*
X340790000Y-53160000D03*
%TD*%
D10*
%TO.C,SW31*%
X214740000Y-74800000D03*
D11*
X219820000Y-74800000D03*
D10*
X224900000Y-74800000D03*
D12*
X222360000Y-69720000D03*
X216010000Y-72260000D03*
%TD*%
D13*
%TO.C,C4*%
X219000000Y-28500000D03*
X220900000Y-28500000D03*
%TD*%
D14*
%TO.C,U1*%
X192587500Y-32912500D03*
X192587500Y-33412500D03*
X192587500Y-33912500D03*
X192587500Y-34412500D03*
X192587500Y-34912500D03*
X192587500Y-35412500D03*
X192587500Y-35912500D03*
X192587500Y-36412500D03*
X192587500Y-36912500D03*
X192587500Y-37412500D03*
X192587500Y-37912500D03*
X192587500Y-38412500D03*
D15*
X194000000Y-39825000D03*
X194500000Y-39825000D03*
X195000000Y-39825000D03*
X195500000Y-39825000D03*
X196000000Y-39825000D03*
X196500000Y-39825000D03*
X197000000Y-39825000D03*
X197500000Y-39825000D03*
X198000000Y-39825000D03*
X198500000Y-39825000D03*
X199000000Y-39825000D03*
X199500000Y-39825000D03*
D14*
X200912500Y-38412500D03*
X200912500Y-37912500D03*
X200912500Y-37412500D03*
X200912500Y-36912500D03*
X200912500Y-36412500D03*
X200912500Y-35912500D03*
X200912500Y-35412500D03*
X200912500Y-34912500D03*
X200912500Y-34412500D03*
X200912500Y-33912500D03*
X200912500Y-33412500D03*
X200912500Y-32912500D03*
D15*
X199500000Y-31500000D03*
X199000000Y-31500000D03*
X198500000Y-31500000D03*
X198000000Y-31500000D03*
X197500000Y-31500000D03*
X197000000Y-31500000D03*
X196500000Y-31500000D03*
X196000000Y-31500000D03*
X195500000Y-31500000D03*
X195000000Y-31500000D03*
X194500000Y-31500000D03*
X194000000Y-31500000D03*
%TD*%
D10*
%TO.C,SW43*%
X200420000Y-93900000D03*
D11*
X205500000Y-93900000D03*
D10*
X210580000Y-93900000D03*
D12*
X208040000Y-88820000D03*
X201690000Y-91360000D03*
%TD*%
D16*
%TO.C,SW4*%
X361380000Y-48642500D03*
D11*
X361380000Y-63882500D03*
D10*
X368200000Y-55642500D03*
D11*
X373280000Y-55642500D03*
D10*
X378360000Y-55642500D03*
D16*
X385180000Y-48642500D03*
D11*
X385180000Y-63882500D03*
D12*
X375820000Y-50562500D03*
X369470000Y-53102500D03*
%TD*%
D13*
%TO.C,C6*%
X205600000Y-30000000D03*
X207500000Y-30000000D03*
%TD*%
D10*
%TO.C,SW35*%
X291440000Y-74850000D03*
D11*
X296520000Y-74850000D03*
D10*
X301600000Y-74850000D03*
D12*
X299060000Y-69770000D03*
X292710000Y-72310000D03*
%TD*%
D17*
%TO.C,Boot*%
X175300000Y-30000000D03*
X178700000Y-30000000D03*
%TD*%
D10*
%TO.C,SW2*%
X116590000Y-94000000D03*
D11*
X121670000Y-94000000D03*
D10*
X126750000Y-94000000D03*
D12*
X124210000Y-88920000D03*
X117860000Y-91460000D03*
%TD*%
D10*
%TO.C,SW37*%
X329770000Y-74800000D03*
D11*
X334850000Y-74800000D03*
D10*
X339930000Y-74800000D03*
D12*
X337390000Y-69720000D03*
X331040000Y-72260000D03*
%TD*%
D10*
%TO.C,SW21*%
X243950000Y-55700000D03*
D11*
X249030000Y-55700000D03*
D10*
X254110000Y-55700000D03*
D12*
X251570000Y-50620000D03*
X245220000Y-53160000D03*
%TD*%
D10*
%TO.C,SW45*%
X238680000Y-93930000D03*
D11*
X243760000Y-93930000D03*
D10*
X248840000Y-93930000D03*
D12*
X246300000Y-88850000D03*
X239950000Y-91390000D03*
%TD*%
D10*
%TO.C,SW25*%
X320370000Y-55700000D03*
D11*
X325450000Y-55700000D03*
D10*
X330530000Y-55700000D03*
D12*
X327990000Y-50620000D03*
X321640000Y-53160000D03*
%TD*%
D10*
%TO.C,SW38*%
X348990000Y-74800000D03*
D11*
X354070000Y-74800000D03*
D10*
X359150000Y-74800000D03*
D12*
X356610000Y-69720000D03*
X350260000Y-72260000D03*
%TD*%
D10*
%TO.C,SW61*%
X327370000Y-132400000D03*
D11*
X332450000Y-132400000D03*
D10*
X337530000Y-132400000D03*
D12*
X334990000Y-127320000D03*
X328640000Y-129860000D03*
%TD*%
D10*
%TO.C,SW55*%
X229020000Y-113150000D03*
D11*
X234100000Y-113150000D03*
D10*
X239180000Y-113150000D03*
D12*
X236640000Y-108070000D03*
X230290000Y-110610000D03*
%TD*%
D10*
%TO.C,SW57*%
X267450000Y-113150000D03*
D11*
X272530000Y-113150000D03*
D10*
X277610000Y-113150000D03*
D12*
X275070000Y-108070000D03*
X268720000Y-110610000D03*
%TD*%
D16*
%TO.C,SW6*%
X354250000Y-106192500D03*
D11*
X354250000Y-121432500D03*
D10*
X361070000Y-113192500D03*
D11*
X366150000Y-113192500D03*
D10*
X371230000Y-113192500D03*
D16*
X378050000Y-106192500D03*
D11*
X378050000Y-121432500D03*
D12*
X368690000Y-108112500D03*
X362340000Y-110652500D03*
%TD*%
D18*
%TO.C,REF\u002A\u002A*%
X98500000Y-31000000D03*
%TD*%
D10*
%TO.C,SW12*%
X159870000Y-132400000D03*
D11*
X164950000Y-132400000D03*
D10*
X170030000Y-132400000D03*
D12*
X167490000Y-127320000D03*
X161140000Y-129860000D03*
%TD*%
D10*
%TO.C,SW53*%
X190730000Y-113230000D03*
D11*
X195810000Y-113230000D03*
D10*
X200890000Y-113230000D03*
D12*
X198350000Y-108150000D03*
X192000000Y-110690000D03*
%TD*%
D10*
%TO.C,SW56*%
X248220000Y-113150000D03*
D11*
X253300000Y-113150000D03*
D10*
X258380000Y-113150000D03*
D12*
X255840000Y-108070000D03*
X249490000Y-110610000D03*
%TD*%
D10*
%TO.C,SW15*%
X128740000Y-55600000D03*
D11*
X133820000Y-55600000D03*
D10*
X138900000Y-55600000D03*
D12*
X136360000Y-50520000D03*
X130010000Y-53060000D03*
%TD*%
D10*
%TO.C,SW59*%
X305720000Y-113200000D03*
D11*
X310800000Y-113200000D03*
D10*
X315880000Y-113200000D03*
D12*
X313340000Y-108120000D03*
X306990000Y-110660000D03*
%TD*%
D19*
%TO.C,J1*%
X120650000Y-31500000D03*
X114870000Y-31500000D03*
D20*
X120960000Y-32640000D03*
X120160000Y-32640000D03*
D21*
X119010000Y-32640000D03*
X118010000Y-32640000D03*
X117510000Y-32640000D03*
X116510000Y-32640000D03*
D20*
X115360000Y-32640000D03*
X114560000Y-32640000D03*
X114560000Y-32640000D03*
X115360000Y-32640000D03*
D21*
X116010000Y-32640000D03*
X117010000Y-32640000D03*
X118510000Y-32640000D03*
X119510000Y-32640000D03*
D20*
X120160000Y-32640000D03*
X120960000Y-32640000D03*
D22*
X122080000Y-32000000D03*
D23*
X122080000Y-27820000D03*
D22*
X113440000Y-32000000D03*
D23*
X113440000Y-27820000D03*
%TD*%
D24*
%TO.C,U2*%
X131350000Y-39110000D03*
D10*
X131350000Y-36570000D03*
X131350000Y-34030000D03*
X131350000Y-31490000D03*
%TD*%
D25*
%TO.C,R3*%
X178500000Y-32675000D03*
X178500000Y-34325000D03*
%TD*%
D10*
%TO.C,SW39*%
X372920000Y-74800000D03*
D11*
X378000000Y-74800000D03*
D10*
X383080000Y-74800000D03*
D12*
X380540000Y-69720000D03*
X374190000Y-72260000D03*
%TD*%
D10*
%TO.C,SW24*%
X301270000Y-55700000D03*
D11*
X306350000Y-55700000D03*
D10*
X311430000Y-55700000D03*
D12*
X308890000Y-50620000D03*
X302540000Y-53160000D03*
%TD*%
D10*
%TO.C,SW33*%
X253120000Y-74800000D03*
D11*
X258200000Y-74800000D03*
D10*
X263280000Y-74800000D03*
D12*
X260740000Y-69720000D03*
X254390000Y-72260000D03*
%TD*%
D10*
%TO.C,SW16*%
X147940000Y-55600000D03*
D11*
X153020000Y-55600000D03*
D10*
X158100000Y-55600000D03*
D12*
X155560000Y-50520000D03*
X149210000Y-53060000D03*
%TD*%
D10*
%TO.C,SW50*%
X334540000Y-94000000D03*
D11*
X339620000Y-94000000D03*
D10*
X344700000Y-94000000D03*
D12*
X342160000Y-88920000D03*
X335810000Y-91460000D03*
%TD*%
D10*
%TO.C,SW36*%
X310620000Y-74800000D03*
D11*
X315700000Y-74800000D03*
D10*
X320780000Y-74800000D03*
D12*
X318240000Y-69720000D03*
X311890000Y-72260000D03*
%TD*%
D10*
%TO.C,SW51*%
X152420000Y-113200000D03*
D11*
X157500000Y-113200000D03*
D10*
X162580000Y-113200000D03*
D12*
X160040000Y-108120000D03*
X153690000Y-110660000D03*
%TD*%
D10*
%TO.C,SW22*%
X263150000Y-55700000D03*
D11*
X268230000Y-55700000D03*
D10*
X273310000Y-55700000D03*
D12*
X270770000Y-50620000D03*
X264420000Y-53160000D03*
%TD*%
D26*
%TO.C,R1*%
X115825000Y-38000000D03*
X114175000Y-38000000D03*
%TD*%
D10*
%TO.C,SW40*%
X142890000Y-93950000D03*
D11*
X147970000Y-93950000D03*
D10*
X153050000Y-93950000D03*
D12*
X150510000Y-88870000D03*
X144160000Y-91410000D03*
%TD*%
D10*
%TO.C,SW17*%
X167190000Y-55600000D03*
D11*
X172270000Y-55600000D03*
D10*
X177350000Y-55600000D03*
D12*
X174810000Y-50520000D03*
X168460000Y-53060000D03*
%TD*%
D13*
%TO.C,C5*%
X223000000Y-28500000D03*
X224900000Y-28500000D03*
%TD*%
D10*
%TO.C,SW34*%
X272270000Y-74850000D03*
D11*
X277350000Y-74850000D03*
D10*
X282430000Y-74850000D03*
D12*
X279890000Y-69770000D03*
X273540000Y-72310000D03*
%TD*%
D16*
%TO.C,SW3*%
X114550000Y-106242500D03*
D11*
X114550000Y-121482500D03*
D10*
X121370000Y-113242500D03*
D11*
X126450000Y-113242500D03*
D10*
X131530000Y-113242500D03*
D16*
X138350000Y-106242500D03*
D11*
X138350000Y-121482500D03*
D12*
X128990000Y-108162500D03*
X122640000Y-110702500D03*
%TD*%
D10*
%TO.C,SW52*%
X171570000Y-113200000D03*
D11*
X176650000Y-113200000D03*
D10*
X181730000Y-113200000D03*
D12*
X179190000Y-108120000D03*
X172840000Y-110660000D03*
%TD*%
D10*
%TO.C,SW46*%
X257880000Y-93890000D03*
D11*
X262960000Y-93890000D03*
D10*
X268040000Y-93890000D03*
D12*
X265500000Y-88810000D03*
X259150000Y-91350000D03*
%TD*%
D10*
%TO.C,SW8*%
X351390000Y-132500000D03*
D11*
X356470000Y-132500000D03*
D10*
X361550000Y-132500000D03*
D12*
X359010000Y-127420000D03*
X352660000Y-129960000D03*
%TD*%
D10*
%TO.C,SW13*%
X375370000Y-132500000D03*
D11*
X380450000Y-132500000D03*
D10*
X385530000Y-132500000D03*
D12*
X382990000Y-127420000D03*
X376640000Y-129960000D03*
%TD*%
D10*
%TO.C,SW42*%
X181230000Y-93890000D03*
D11*
X186310000Y-93890000D03*
D10*
X191390000Y-93890000D03*
D12*
X188850000Y-88810000D03*
X182500000Y-91350000D03*
%TD*%
D10*
%TO.C,SW11*%
X135890000Y-132400000D03*
D11*
X140970000Y-132400000D03*
D10*
X146050000Y-132400000D03*
D12*
X143510000Y-127320000D03*
X137160000Y-129860000D03*
%TD*%
D10*
%TO.C,SW9*%
X303070000Y-132400000D03*
D11*
X308150000Y-132400000D03*
D10*
X313230000Y-132400000D03*
D12*
X310690000Y-127320000D03*
X304340000Y-129860000D03*
%TD*%
D10*
%TO.C,SW41*%
X162030000Y-93930000D03*
D11*
X167110000Y-93930000D03*
D10*
X172190000Y-93930000D03*
D12*
X169650000Y-88850000D03*
X163300000Y-91390000D03*
%TD*%
D10*
%TO.C,SW47*%
X277070000Y-94000000D03*
D11*
X282150000Y-94000000D03*
D10*
X287230000Y-94000000D03*
D12*
X284690000Y-88920000D03*
X278340000Y-91460000D03*
%TD*%
D10*
%TO.C,SW27*%
X138270000Y-74750000D03*
D11*
X143350000Y-74750000D03*
D10*
X148430000Y-74750000D03*
D12*
X145890000Y-69670000D03*
X139540000Y-72210000D03*
%TD*%
D10*
%TO.C,SW19*%
X205640000Y-55650000D03*
D11*
X210720000Y-55650000D03*
D10*
X215800000Y-55650000D03*
D12*
X213260000Y-50570000D03*
X206910000Y-53110000D03*
%TD*%
D10*
%TO.C,SW18*%
X186440000Y-55600000D03*
D11*
X191520000Y-55600000D03*
D10*
X196600000Y-55600000D03*
D12*
X194060000Y-50520000D03*
X187710000Y-53060000D03*
%TD*%
D27*
%TO.C,U3*%
X217700000Y-31200000D03*
X217700000Y-33500000D03*
D28*
X224000000Y-33500000D03*
D27*
X217700000Y-35800000D03*
%TD*%
D10*
%TO.C,SW10*%
X111840000Y-132400000D03*
D11*
X116920000Y-132400000D03*
D10*
X122000000Y-132400000D03*
D12*
X119460000Y-127320000D03*
X113110000Y-129860000D03*
%TD*%
D16*
%TO.C,SW7*%
X186550000Y-125392500D03*
D11*
X186550000Y-140632500D03*
D10*
X231470000Y-132392500D03*
D11*
X236550000Y-132392500D03*
D10*
X241630000Y-132392500D03*
D16*
X286550000Y-125392500D03*
D11*
X286550000Y-140632500D03*
D12*
X239090000Y-127312500D03*
X232740000Y-129852500D03*
%TD*%
D10*
%TO.C,SW54*%
X209880000Y-113180000D03*
D11*
X214960000Y-113180000D03*
D10*
X220040000Y-113180000D03*
D12*
X217500000Y-108100000D03*
X211150000Y-110640000D03*
%TD*%
D16*
%TO.C,SW5*%
X358970000Y-87000000D03*
D11*
X358970000Y-102240000D03*
D10*
X365790000Y-94000000D03*
D11*
X370870000Y-94000000D03*
D10*
X375950000Y-94000000D03*
D16*
X382770000Y-87000000D03*
D11*
X382770000Y-102240000D03*
D12*
X373410000Y-88920000D03*
X367060000Y-91460000D03*
%TD*%
D10*
%TO.C,SW28*%
X157330000Y-74680000D03*
D11*
X162410000Y-74680000D03*
D10*
X167490000Y-74680000D03*
D12*
X164950000Y-69600000D03*
X158600000Y-72140000D03*
%TD*%
D10*
%TO.C,SW1*%
X114220000Y-74800000D03*
D11*
X119300000Y-74800000D03*
D10*
X124380000Y-74800000D03*
D12*
X121840000Y-69720000D03*
X115490000Y-72260000D03*
%TD*%
D10*
%TO.C,SW20*%
X224840000Y-55600000D03*
D11*
X229920000Y-55600000D03*
D10*
X235000000Y-55600000D03*
D12*
X232460000Y-50520000D03*
X226110000Y-53060000D03*
%TD*%
D10*
%TO.C,SW29*%
X176520000Y-74750000D03*
D11*
X181600000Y-74750000D03*
D10*
X186680000Y-74750000D03*
D12*
X184140000Y-69670000D03*
X177790000Y-72210000D03*
%TD*%
D10*
%TO.C,SW60*%
X324970000Y-113200000D03*
D11*
X330050000Y-113200000D03*
D10*
X335130000Y-113200000D03*
D12*
X332590000Y-108120000D03*
X326240000Y-110660000D03*
%TD*%
D13*
%TO.C,C1*%
X181050000Y-33000000D03*
X182950000Y-33000000D03*
%TD*%
D18*
%TO.C,REF\u002A\u002A*%
X395900000Y-30600000D03*
%TD*%
D17*
%TO.C,Reset*%
X180800000Y-30000000D03*
X184200000Y-30000000D03*
%TD*%
D18*
%TO.C,REF\u002A\u002A*%
X395000000Y-145800000D03*
%TD*%
D29*
%TO.C,R2*%
X109325000Y-36325000D03*
X109325000Y-34675000D03*
%TD*%
D10*
%TO.C,SW48*%
X296220000Y-94000000D03*
D11*
X301300000Y-94000000D03*
D10*
X306380000Y-94000000D03*
D12*
X303840000Y-88920000D03*
X297490000Y-91460000D03*
%TD*%
D10*
%TO.C,SW23*%
X282300000Y-55700000D03*
D11*
X287380000Y-55700000D03*
D10*
X292460000Y-55700000D03*
D12*
X289920000Y-50620000D03*
X283570000Y-53160000D03*
%TD*%
D10*
%TO.C,SW30*%
X195590000Y-74750000D03*
D11*
X200670000Y-74750000D03*
D10*
X205750000Y-74750000D03*
D12*
X203210000Y-69670000D03*
X196860000Y-72210000D03*
%TD*%
D13*
%TO.C,C3*%
X214550000Y-28500000D03*
X216450000Y-28500000D03*
%TD*%
%TO.C,C2*%
X210050000Y-30000000D03*
X211950000Y-30000000D03*
%TD*%
D10*
%TO.C,SW14*%
X109570000Y-55650000D03*
D11*
X114650000Y-55650000D03*
D10*
X119730000Y-55650000D03*
D12*
X117190000Y-50570000D03*
X110840000Y-53110000D03*
%TD*%
D10*
%TO.C,SW49*%
X315320000Y-94000000D03*
D11*
X320400000Y-94000000D03*
D10*
X325480000Y-94000000D03*
D12*
X322940000Y-88920000D03*
X316590000Y-91460000D03*
%TD*%
D18*
%TO.C,REF\u002A\u002A*%
X98100000Y-146850000D03*
%TD*%
D30*
%TO.C,U4*%
X170725000Y-33100000D03*
X170725000Y-34050000D03*
X170725000Y-35000000D03*
X173000000Y-35000000D03*
X173000000Y-34050000D03*
X173000000Y-33100000D03*
%TD*%
D10*
%TO.C,SW58*%
X286570000Y-113150000D03*
D11*
X291650000Y-113150000D03*
D10*
X296730000Y-113150000D03*
D12*
X294190000Y-108070000D03*
X287840000Y-110610000D03*
%TD*%
D10*
%TO.C,SW32*%
X233970000Y-74800000D03*
D11*
X239050000Y-74800000D03*
D10*
X244130000Y-74800000D03*
D12*
X241590000Y-69720000D03*
X235240000Y-72260000D03*
%TD*%
D10*
%TO.C,SW44*%
X219540000Y-93900000D03*
D11*
X224620000Y-93900000D03*
D10*
X229700000Y-93900000D03*
D12*
X227160000Y-88820000D03*
X220810000Y-91360000D03*
%TD*%
D31*
%TO.C,D113*%
X246300000Y-85600000D03*
D32*
X238680000Y-85600000D03*
%TD*%
D31*
%TO.C,D71*%
X136400000Y-47250000D03*
D32*
X128780000Y-47250000D03*
%TD*%
D31*
%TO.C,D81*%
X169650000Y-85550000D03*
D32*
X162030000Y-85550000D03*
%TD*%
D31*
%TO.C,D79*%
X155550000Y-47300000D03*
D32*
X147930000Y-47300000D03*
%TD*%
D31*
%TO.C,D155*%
X356600000Y-66600000D03*
D32*
X348980000Y-66600000D03*
%TD*%
D31*
%TO.C,D75*%
X148500000Y-124150000D03*
D32*
X140880000Y-124150000D03*
%TD*%
D31*
%TO.C,D135*%
X303800000Y-85750000D03*
D32*
X296180000Y-85750000D03*
%TD*%
D31*
%TO.C,D154*%
X347100000Y-47450000D03*
D32*
X339480000Y-47450000D03*
%TD*%
D31*
%TO.C,D72*%
X145900000Y-66600000D03*
D32*
X138280000Y-66600000D03*
%TD*%
D31*
%TO.C,D165*%
X364700000Y-124300000D03*
D32*
X357080000Y-124300000D03*
%TD*%
D31*
%TO.C,D129*%
X294200000Y-104850000D03*
D32*
X286580000Y-104850000D03*
%TD*%
D31*
%TO.C,D115*%
X239050000Y-124350000D03*
D32*
X231430000Y-124350000D03*
%TD*%
D31*
%TO.C,D127*%
X279950000Y-66700000D03*
D32*
X272330000Y-66700000D03*
%TD*%
D31*
%TO.C,D66*%
X128800000Y-104900000D03*
D32*
X121180000Y-104900000D03*
%TD*%
D31*
%TO.C,D119*%
X251600000Y-47400000D03*
D32*
X243980000Y-47400000D03*
%TD*%
D31*
%TO.C,D83*%
X167500000Y-124100000D03*
D32*
X159880000Y-124100000D03*
%TD*%
D31*
%TO.C,D73*%
X150500000Y-85650000D03*
D32*
X142880000Y-85650000D03*
%TD*%
D31*
%TO.C,D161*%
X375850000Y-47350000D03*
D32*
X368230000Y-47350000D03*
%TD*%
D31*
%TO.C,D64*%
X121850000Y-66700000D03*
D32*
X114230000Y-66700000D03*
%TD*%
D31*
%TO.C,D122*%
X275100000Y-104900000D03*
D32*
X267480000Y-104900000D03*
%TD*%
D31*
%TO.C,D143*%
X332550000Y-104950000D03*
D32*
X324930000Y-104950000D03*
%TD*%
D31*
%TO.C,D80*%
X164950000Y-66550000D03*
D32*
X157330000Y-66550000D03*
%TD*%
D31*
%TO.C,D97*%
X208050000Y-85550000D03*
D32*
X200430000Y-85550000D03*
%TD*%
D31*
%TO.C,D120*%
X260750000Y-66550000D03*
D32*
X253130000Y-66550000D03*
%TD*%
D31*
%TO.C,D65*%
X124300000Y-85850000D03*
D32*
X116680000Y-85850000D03*
%TD*%
D31*
%TO.C,D63*%
X117200000Y-47450000D03*
D32*
X109580000Y-47450000D03*
%TD*%
D31*
%TO.C,D140*%
X308900000Y-47400000D03*
D32*
X301280000Y-47400000D03*
%TD*%
D31*
%TO.C,D74*%
X160000000Y-104950000D03*
D32*
X152380000Y-104950000D03*
%TD*%
D31*
%TO.C,D111*%
X232500000Y-47550000D03*
D32*
X224880000Y-47550000D03*
%TD*%
D31*
%TO.C,D89*%
X188850000Y-85450000D03*
D32*
X181230000Y-85450000D03*
%TD*%
D31*
%TO.C,D142*%
X322950000Y-85700000D03*
D32*
X315330000Y-85700000D03*
%TD*%
D31*
%TO.C,D82*%
X179200000Y-104950000D03*
D32*
X171580000Y-104950000D03*
%TD*%
D31*
%TO.C,D95*%
X194150000Y-47400000D03*
D32*
X186530000Y-47400000D03*
%TD*%
D31*
%TO.C,D87*%
X174800000Y-47050000D03*
D32*
X167180000Y-47050000D03*
%TD*%
D31*
%TO.C,D144*%
X310750000Y-124200000D03*
D32*
X303130000Y-124200000D03*
%TD*%
D31*
%TO.C,D121*%
X265500000Y-85600000D03*
D32*
X257880000Y-85600000D03*
%TD*%
D31*
%TO.C,D103*%
X213300000Y-47450000D03*
D32*
X205680000Y-47450000D03*
%TD*%
D31*
%TO.C,D133*%
X289950000Y-47450000D03*
D32*
X282330000Y-47450000D03*
%TD*%
D31*
%TO.C,D96*%
X203250000Y-66200000D03*
D32*
X195630000Y-66200000D03*
%TD*%
D31*
%TO.C,D98*%
X217500000Y-105350000D03*
D32*
X209880000Y-105350000D03*
%TD*%
D31*
%TO.C,D150*%
X369250000Y-104850000D03*
D32*
X361630000Y-104850000D03*
%TD*%
D31*
%TO.C,D148*%
X337400000Y-66550000D03*
D32*
X329780000Y-66550000D03*
%TD*%
D31*
%TO.C,D128*%
X284700000Y-85700000D03*
D32*
X277080000Y-85700000D03*
%TD*%
D31*
%TO.C,D106*%
X236600000Y-105050000D03*
D32*
X228980000Y-105050000D03*
%TD*%
D31*
%TO.C,D151*%
X335000000Y-124150000D03*
D32*
X327380000Y-124150000D03*
%TD*%
D31*
%TO.C,D162*%
X380500000Y-66500000D03*
D32*
X372880000Y-66500000D03*
%TD*%
D31*
%TO.C,D112*%
X241600000Y-66550000D03*
D32*
X233980000Y-66550000D03*
%TD*%
D31*
%TO.C,D114*%
X255850000Y-104850000D03*
D32*
X248230000Y-104850000D03*
%TD*%
D31*
%TO.C,D67*%
X125350000Y-124100000D03*
D32*
X117730000Y-124100000D03*
%TD*%
D31*
%TO.C,D126*%
X270750000Y-47450000D03*
D32*
X263130000Y-47450000D03*
%TD*%
D31*
%TO.C,D105*%
X227150000Y-85600000D03*
D32*
X219530000Y-85600000D03*
%TD*%
D31*
%TO.C,D136*%
X313350000Y-104900000D03*
D32*
X305730000Y-104900000D03*
%TD*%
D31*
%TO.C,D141*%
X318210000Y-66450000D03*
D32*
X310590000Y-66450000D03*
%TD*%
D31*
%TO.C,D156*%
X373400000Y-85700000D03*
D32*
X365780000Y-85700000D03*
%TD*%
D31*
%TO.C,D134*%
X299100000Y-66600000D03*
D32*
X291480000Y-66600000D03*
%TD*%
D31*
%TO.C,D88*%
X184150000Y-66500000D03*
D32*
X176530000Y-66500000D03*
%TD*%
D31*
%TO.C,D158*%
X388450000Y-124250000D03*
D32*
X380830000Y-124250000D03*
%TD*%
D31*
%TO.C,D104*%
X222360000Y-66550000D03*
D32*
X214740000Y-66550000D03*
%TD*%
D31*
%TO.C,D90*%
X198300000Y-104850000D03*
D32*
X190680000Y-104850000D03*
%TD*%
D31*
%TO.C,D149*%
X342150000Y-85700000D03*
D32*
X334530000Y-85700000D03*
%TD*%
D31*
%TO.C,D147*%
X328000000Y-47550000D03*
D32*
X320380000Y-47550000D03*
%TD*%
M02*
