M48
; DRILL file KiCad 10.0.5 date 2026-09-20T15:33:00
; FORMAT={-:-/ absolute / metric / decimal}
; #@! TF.CreationDate,2026-09-20T15:33:00+05:30
; #@! TF.GenerationSoftware,Kicad,Pcbnew,10.0.5
; #@! TF.FileFunction,NonPlated,1,2,NPTH
FMAT,2
METRIC
; #@! TA.AperFunction,NonPlated,NPTH,ComponentDrill
T1C0.650
; #@! TA.AperFunction,NonPlated,NPTH,ComponentDrill
T2C1.700
; #@! TA.AperFunction,NonPlated,NPTH,ComponentDrill
T3C3.050
; #@! TA.AperFunction,NonPlated,NPTH,ComponentDrill
T4C3.200
; #@! TA.AperFunction,NonPlated,NPTH,ComponentDrill
T5C4.000
%
G90
G05
T1
X114.87Y-31.5
X120.65Y-31.5
T2
X109.57Y-55.65
X111.84Y-132.4
X114.22Y-74.8
X116.59Y-94.0
X119.73Y-55.65
X121.37Y-113.242
X122.0Y-132.4
X124.38Y-74.8
X126.75Y-94.0
X128.74Y-55.6
X131.53Y-113.242
X135.89Y-132.4
X138.27Y-74.75
X138.9Y-55.6
X142.89Y-93.95
X146.05Y-132.4
X147.94Y-55.6
X148.43Y-74.75
X152.42Y-113.2
X153.05Y-93.95
X157.33Y-74.68
X158.1Y-55.6
X159.87Y-132.4
X162.03Y-93.93
X162.58Y-113.2
X167.19Y-55.6
X167.49Y-74.68
X170.03Y-132.4
X171.57Y-113.2
X172.19Y-93.93
X176.52Y-74.75
X177.35Y-55.6
X181.23Y-93.89
X181.73Y-113.2
X186.44Y-55.6
X186.68Y-74.75
X190.73Y-113.23
X191.39Y-93.89
X195.59Y-74.75
X196.6Y-55.6
X200.42Y-93.9
X200.89Y-113.23
X205.64Y-55.65
X205.75Y-74.75
X209.88Y-113.18
X210.58Y-93.9
X214.74Y-74.8
X215.8Y-55.65
X219.54Y-93.9
X220.04Y-113.18
X224.84Y-55.6
X224.9Y-74.8
X229.02Y-113.15
X229.7Y-93.9
X231.47Y-132.392
X233.97Y-74.8
X235.0Y-55.6
X238.68Y-93.93
X239.18Y-113.15
X241.63Y-132.392
X243.95Y-55.7
X244.13Y-74.8
X248.22Y-113.15
X248.84Y-93.93
X253.12Y-74.8
X254.11Y-55.7
X257.88Y-93.89
X258.38Y-113.15
X263.15Y-55.7
X263.28Y-74.8
X267.45Y-113.15
X268.04Y-93.89
X272.27Y-74.85
X273.31Y-55.7
X277.07Y-94.0
X277.61Y-113.15
X282.3Y-55.7
X282.43Y-74.85
X286.57Y-113.15
X287.23Y-94.0
X291.44Y-74.85
X292.46Y-55.7
X296.22Y-94.0
X296.73Y-113.15
X301.27Y-55.7
X301.6Y-74.85
X303.07Y-132.4
X305.72Y-113.2
X306.38Y-94.0
X310.62Y-74.8
X311.43Y-55.7
X313.23Y-132.4
X315.32Y-94.0
X315.88Y-113.2
X320.37Y-55.7
X320.78Y-74.8
X324.97Y-113.2
X325.48Y-94.0
X327.37Y-132.4
X329.77Y-74.8
X330.53Y-55.7
X334.54Y-94.0
X335.13Y-113.2
X337.53Y-132.4
X339.52Y-55.7
X339.93Y-74.8
X344.7Y-94.0
X348.99Y-74.8
X349.68Y-55.7
X351.39Y-132.5
X359.15Y-74.8
X361.07Y-113.192
X361.55Y-132.5
X365.79Y-94.0
X368.2Y-55.642
X371.23Y-113.192
X372.92Y-74.8
X375.37Y-132.5
X375.95Y-94.0
X378.36Y-55.642
X383.08Y-74.8
X385.53Y-132.5
T3
X114.55Y-106.242
X138.35Y-106.242
X186.55Y-125.392
X286.55Y-125.392
X354.25Y-106.192
X358.97Y-87.0
X361.38Y-48.642
X378.05Y-106.192
X382.77Y-87.0
X385.18Y-48.642
T4
X98.1Y-146.85
X98.5Y-31.0
X395.0Y-145.8
X395.9Y-30.6
T5
X114.55Y-121.482
X114.65Y-55.65
X116.92Y-132.4
X119.3Y-74.8
X121.67Y-94.0
X126.45Y-113.242
X133.82Y-55.6
X138.35Y-121.482
X140.97Y-132.4
X143.35Y-74.75
X147.97Y-93.95
X153.02Y-55.6
X157.5Y-113.2
X162.41Y-74.68
X164.95Y-132.4
X167.11Y-93.93
X172.27Y-55.6
X176.65Y-113.2
X181.6Y-74.75
X186.31Y-93.89
X186.55Y-140.632
X191.52Y-55.6
X195.81Y-113.23
X200.67Y-74.75
X205.5Y-93.9
X210.72Y-55.65
X214.96Y-113.18
X219.82Y-74.8
X224.62Y-93.9
X229.92Y-55.6
X234.1Y-113.15
X236.55Y-132.392
X239.05Y-74.8
X243.76Y-93.93
X249.03Y-55.7
X253.3Y-113.15
X258.2Y-74.8
X262.96Y-93.89
X268.23Y-55.7
X272.53Y-113.15
X277.35Y-74.85
X282.15Y-94.0
X286.55Y-140.632
X287.38Y-55.7
X291.65Y-113.15
X296.52Y-74.85
X301.3Y-94.0
X306.35Y-55.7
X308.15Y-132.4
X310.8Y-113.2
X315.7Y-74.8
X320.4Y-94.0
X325.45Y-55.7
X330.05Y-113.2
X332.45Y-132.4
X334.85Y-74.8
X339.62Y-94.0
X344.6Y-55.7
X354.07Y-74.8
X354.25Y-121.432
X356.47Y-132.5
X358.97Y-102.24
X361.38Y-63.883
X366.15Y-113.192
X370.87Y-94.0
X373.28Y-55.642
X378.0Y-74.8
X378.05Y-121.432
X380.45Y-132.5
X382.77Y-102.24
X385.18Y-63.883
M30
